<?xml version="1.0" encoding="utf-8"?>
<!-- Generator: Adobe Illustrator 21.1.0, SVG Export Plug-In . SVG Version: 6.00 Build 0)  -->
<svg version="1.1" id="Layer_1" xmlns="http://www.w3.org/2000/svg" xmlns:xlink="http://www.w3.org/1999/xlink" x="0px" y="0px"
	 viewBox="0 0 223.9 113.4" style="enable-background:new 0 0 223.9 113.4;" xml:space="preserve">
<style type="text/css">
	.st0{fill:#65AF2F;}
	.st1{fill:#ffffff;}
</style>
<g>
	<path class="st1" d="M41.1,51.7l3.4,11.7H32.5l3.2-11.7c0.9-3.2,1.7-7.4,2.5-10.7h0.2C39.2,44.3,40.2,48.4,41.1,51.7z"/>
	<path class="st1" d="M97.6,45.8l19.3-28.3c0,0-67.8,0-89.1,0C3.7,17.5,0,46.9,0,46.9v53.3h60.5l28.2-41.3L72.4,31.6h15.8L97.6,45.8
		z M50.5,87l-4.2-14.2H30.7L26.8,87H14l16.7-55.4h16.2L63.8,87H50.5z"/>
	<path class="st1" d="M131.5,17.5l-28.2,41.3l18.7,27h-16.8l-9.6-15.7l-20.5,30c0,0,99.8,0,121.1,0c24.2,0,27.8-29.4,27.8-29.4V17.5
		H131.5z M156,66.1V87h-13.1V66.1l-18.1-34.5h15.8l8.9,21.7l11-21.8l14.7,0.1L156,66.1z M189.8,87.3c-5.4,0-10.8-1.6-13.4-3.3
		l2.2-10.1c2.9,1.7,7.3,3.4,11.9,3.4c4.9,0,7.5-2.3,7.5-5.9c0-3.4-2.2-5.3-7.9-7.7c-7.9-3.1-13-8.1-13-16c0-9.3,6.8-16.4,17.9-16.4
		c5.3,0,9.3,1.3,12.1,2.8l-2.4,9.9c-1.9-1-5.3-2.6-9.9-2.6c-4.6,0-6.9,2.4-6.9,5.2c0,3.5,2.7,5,8.8,7.7c8.4,3.6,12.3,8.5,12.3,16.2
		C208.9,79.6,202.8,87.3,189.8,87.3z"/>
</g>
</svg>
