<?xml version="1.0" encoding="UTF-8"?>
<svg width="100px" height="123px" viewBox="0 0 100 123" version="1.1" xmlns="http://www.w3.org/2000/svg" xmlns:xlink="http://www.w3.org/1999/xlink">
    <!-- Generator: Sketch 53.2 (72643) - https://sketchapp.com -->
    <title>Group 38</title>
    <desc>Created with Sketch.</desc>
    <defs>
        <polygon id="path-1" points="0.0140358744 0.365891209 53.4363229 0.365891209 53.4363229 53.2527374 0.0140358744 53.2527374"></polygon>
        <polygon id="path-3" points="0.0780269058 0.415083844 69.4327354 0.415083844 69.4327354 54.5164835 0.0780269058 54.5164835"></polygon>
        <polygon id="path-5" points="0.180807175 0.232032967 83.8633219 0.232032967 83.8633219 82.8670824 0.180807175 82.8670824"></polygon>
    </defs>
    <g id="Page-1" stroke="none" stroke-width="1" fill="none" fill-rule="evenodd">
        <g id="Office-365" transform="translate(-837.000000, -3815.000000)">
            <g id="Group-38" transform="translate(837.000000, 3815.000000)">
                <path d="M63.5978924,70.9196824 C63.5978924,70.9196824 82.7203139,68.5349242 86.7064126,96.8812429 C88.4929596,109.581781 90.3925112,115.701595 94.668296,119.849353 C78.4503587,119.849353 61.9378027,120.515715 61.9378027,120.515715 C61.9378027,120.515715 48.5153812,96.4834077 48.4445291,96.3117484 C48.3741256,96.1405396 63.5978924,70.9196824 63.5978924,70.9196824" id="Fill-1" fill="#89181A"></path>
                <g id="Group-5" transform="translate(46.188341, 68.251484)">
                    <mask id="mask-2" fill="white">
                        <use xlink:href="#path-1"></use>
                    </mask>
                    <g id="Clip-4"></g>
                    <path d="M17.0916143,48.6616385 C16.4413901,48.6584846 15.8929596,48.6553308 15.442287,48.653078 C14.2499103,46.3525725 11.5409417,41.1257484 9.0835426,36.3805615 C7.81313901,33.9286714 6.61179372,31.6074407 5.72390135,29.8908473 C5.35304933,29.1740231 5.04183857,28.5707374 4.79878924,28.0994626 C4.97726457,27.7917374 5.19430493,27.4200341 5.442287,26.9983198 C7.24856502,23.9264736 10.7239013,18.1283527 13.742287,13.1078802 C15.251704,10.5969681 16.6481166,8.27889121 17.6669507,6.58842967 C18.0813004,5.90089121 18.4288341,5.32418791 18.7010314,4.87363846 C19.58713,4.88760549 20.9732287,4.99934176 22.6028251,5.44448462 C23.9207623,5.80402308 25.3929596,6.37757253 26.8996861,7.29038571 C29.1588789,8.66230879 31.5086547,10.7825945 33.5656054,14.2018143 C35.6180717,17.6205835 37.3718834,22.3603637 38.2983408,28.9446934 C39.1983408,35.3258253 39.9723318,39.9633308 41.1283857,43.6943308 C41.7077578,45.5569022 42.3893722,47.1969022 43.2431839,48.6724516 C43.2575336,48.6976824 43.2741256,48.7202099 43.2884753,48.7449901 C36.6723318,48.7377813 30.1230045,48.717056 24.9091031,48.6967813 C21.6974439,48.6841659 18.9929596,48.6711 17.0916143,48.6616385 L17.0916143,48.6616385 Z M49.4431839,49.3798143 C48.5122422,48.475111 47.771435,47.5325615 47.1203139,46.4093418 C46.1472197,44.7287923 45.3759193,42.6049022 44.6893722,39.678133 C44.0019283,36.7554187 43.4046188,33.0537044 42.7382511,28.3143747 C41.8557399,22.0341659 40.2404933,17.1137154 38.1925112,13.2660231 C36.6575336,10.3816055 34.8772646,8.10497912 33.0095516,6.33522088 C30.2073094,3.67562747 27.2198655,2.17034176 24.6279372,1.34718791 C22.0324215,0.522231868 19.8288341,0.366341758 18.4974439,0.365891209 C17.6987892,0.365891209 17.2117937,0.42266044 17.1319731,0.432572527 L16.0552915,0.567286813 L15.4929596,1.49947363 C15.4920628,1.50037473 11.7028251,7.77742967 7.91269058,14.0923308 C6.01762332,17.2502319 4.12255605,20.4175945 2.69789238,22.8176714 C1.98533632,24.0179352 1.39161435,25.0258143 0.970538117,25.7516495 C0.759327354,26.1156934 0.592511211,26.4067484 0.468744395,26.6293198 C0.406412556,26.7419571 0.356188341,26.8343198 0.305964126,26.9311879 C0.280852018,26.9811989 0.256188341,27.0289571 0.21896861,27.1123088 C0.199686099,27.1564626 0.177713004,27.2060231 0.143183857,27.3037923 C0.125695067,27.3538033 0.105067265,27.4155286 0.0795067265,27.5173527 C0.0669506726,27.5691659 0.0534977578,27.6308912 0.0404932735,27.715144 C0.0279372197,27.7998473 0.0144843049,27.9052758 0.0140358744,28.0602648 L0.0140358744,28.508111 L0.184887892,28.9221659 C0.21044843,28.9847923 0.21896861,29.0005615 0.227488789,29.0190341 L0.253946188,29.0749022 C0.276816143,29.1204077 0.297892377,29.1618582 0.331524664,29.2285396 C0.583991031,29.7232429 1.43825112,31.3758582 2.58668161,33.5961659 C6.0306278,40.2516824 12.0898206,51.9389352 12.0898206,51.9389352 L12.7140359,53.1428033 L14.0656054,53.1513637 C14.0678475,53.1513637 31.6588789,53.2527374 47.8853363,53.2527374 L53.4364574,53.2527374 L49.4431839,49.3798143 Z" id="Fill-3" fill="#000000" mask="url(#mask-2)"></path>
                </g>
                <path d="M10.1738117,120.2817 C10.1738117,120.2817 7.99533632,119.214799 11.4442152,95.8808429 C15.9379372,65.4773154 24.6769507,71.8715132 24.6769507,71.8715132 L54.7078924,72.4761505 C54.7078924,72.4761505 74.3652915,57.6801066 74.3652915,119.326085 C20.2590135,121.225151 10.1738117,120.2817 10.1738117,120.2817" id="Fill-6" fill="#D62127"></path>
                <path d="M33.0406726,79.1052648 C33.0406726,79.1052648 30.9025561,76.0690121 31.4926906,73.3283198 C30.9487444,72.9922099 30.086861,72.5285945 29.01287,71.9591 L24.6769955,71.8712429 L29.299417,74.7628692 C29.299417,74.7628692 31.1240807,81.7716165 33.0406726,79.1052648" id="Fill-8" fill="#FFFFFF"></path>
                <path d="M24.676861,71.871378 C24.676861,71.871378 15.938296,65.4776308 11.4441256,95.8807077 C7.99479821,119.214664 10.173722,120.281565 10.173722,120.281565 C10.173722,120.281565 11.373722,120.393752 15.1616143,120.462686 C14.9140807,119.702158 14.7589238,119.251609 14.7589238,119.251609 C14.7589238,119.251609 11.5947982,75.7474549 24.676861,71.871378" id="Fill-10" fill="#FFFFFF"></path>
                <path d="M41.4386996,75.0929868 C41.4386996,75.0929868 49.7557399,74.8771736 55.4508072,73.3281846" id="Stroke-12" stroke="#000000" stroke-width="6.524"></path>
                <path d="M66.220583,119.60146 C68.8201345,119.517208 71.5286547,119.425296 74.365426,119.326175 C74.365426,60.5393835 54.7075785,72.4757901 54.7075785,72.4757901 L40.3721525,76.9821857 C34.5416592,79.3331527 33.191435,79.7107132 33.191435,79.7107132 L32.8873991,80.6230758 L32.8873991,82.8086912 C32.8873991,82.8086912 63.4210314,71.0313286 65.1905381,80.4748451 C66.9595964,89.9188121 69.3183408,106.805856 66.3699103,118.952669 C66.3165471,119.172087 66.2694619,119.385647 66.220583,119.60146" id="Fill-14" fill="#9E1D28"></path>
                <path d="M11.0504933,35.9374462 C11.0504933,35.9374462 -1.99479821,42.181611 6.01058296,51.4777978 C8.26573991,49.5161055 12.8029596,40.1343143 11.0504933,35.9374462" id="Fill-16" fill="#F9D3B5"></path>
                <g id="Group-20" transform="translate(7.174888, 68.251484)">
                    <mask id="mask-4" fill="white">
                        <use xlink:href="#path-3"></use>
                    </mask>
                    <g id="Clip-19"></g>
                    <path d="M5.47623318,49.895378 C5.17533632,49.8854659 4.91121076,49.8755538 4.67668161,49.8660923 C4.67443946,49.8471692 4.67219731,49.8327516 4.66995516,49.8129275 C4.60896861,49.2564989 4.56188341,48.4536198 4.56233184,47.3457187 C4.56053812,44.0837407 4.97174888,38.2018176 6.48699552,27.9599275 C7.26547085,22.6916527 8.16995516,18.580389 9.11390135,15.4058176 C9.82107623,13.0251143 10.5511211,11.1720044 11.2560538,9.75322418 C12.3130045,7.62122418 13.3089686,6.48989451 14.0358744,5.93166374 C14.4008969,5.65007033 14.6991031,5.50319121 14.9408072,5.41893846 C15.1834081,5.33558681 15.373991,5.31260879 15.5403587,5.31170769 C15.7865471,5.31170769 15.9896861,5.37072967 16.1197309,5.42434505 C16.17713,5.44822418 16.2143498,5.4675978 16.2318386,5.47750989 L16.7515695,5.85777363 L48.2596413,6.49214725 L48.8659193,6.03574066 C48.8950673,6.01366374 49.3147982,5.72035604 49.9560538,5.44822418 C50.6089686,5.16798242 51.4757848,4.91837802 52.3950673,4.92063077 C52.9071749,4.92108132 53.4390135,4.99316923 53.9995516,5.1787956 C54.490583,5.34189451 55.0067265,5.59194945 55.5573991,5.98257582 C56.5170404,6.66470769 57.5928251,7.79108132 58.6735426,9.6495978 C60.2946188,12.4317407 61.890583,16.8516308 63.0497758,23.5490484 C64.1399103,29.8297077 64.8560538,38.1054 64.9399103,48.8987626 C39.132287,49.7872462 23.6995516,50.0111692 14.7156951,50.0111692 C10.129148,50.0111692 7.22286996,49.9530484 5.47623318,49.895378 L5.47623318,49.895378 Z M67.9165919,25.6170703 C67.2017937,20.6439055 66.2695067,16.6277077 65.1780269,13.3693341 C64.3587444,10.9255538 63.4493274,8.90709231 62.4641256,7.23780659 C60.9887892,4.73680659 59.3233184,3.0075978 57.5636771,1.91681758 C55.8085202,0.821982418 53.9847534,0.40972967 52.3950673,0.415136264 C50.5798206,0.41783956 49.0699552,0.911191209 48.0008969,1.38967473 C47.555157,1.59016923 47.1883408,1.78841099 46.8991031,1.95871868 L18.0919283,1.37841099 C18.0053812,1.33786154 17.9197309,1.29641099 17.8183857,1.25450989 C17.2672646,1.02788352 16.4901345,0.806663736 15.5403587,0.806663736 C14.9780269,0.806213187 14.3596413,0.886410989 13.7206278,1.08104835 C12.5986547,1.41986154 11.4408072,2.1101033 10.3560538,3.19457582 C8.72421525,4.82781758 7.20627803,7.3125978 5.79910314,11.1395648 C4.39461883,14.9710374 3.10627803,20.1681253 2.05112108,27.2980703 C0.51838565,37.6742242 0.0793721973,43.7183451 0.0780269058,47.3457187 C0.0816143498,49.6421692 0.24573991,50.9685868 0.495964126,51.9111363 C0.625112108,52.3828615 0.777130045,52.7671802 1.00852018,53.1312242 C1.12421525,53.311444 1.26278027,53.4862571 1.4309417,53.6462022 C1.59910314,53.8056967 1.79955157,53.9489714 2.01659193,54.0548505 L2.3838565,54.2350703 L2.79147982,54.273367 C2.91345291,54.2837297 5.46412556,54.5162132 14.7156951,54.5166637 C24.0246637,54.5166637 40.1107623,54.2787736 67.2690583,53.3258615 L69.4327354,53.2497187 L69.4327354,51.0744659 C69.432287,40.5798176 68.8686099,32.247356 67.9165919,25.6170703 L67.9165919,25.6170703 Z" id="Fill-18" fill="#000000" mask="url(#mask-4)"></path>
                </g>
                <path d="M5.32426009,46.288189 C4.91663677,47.0626835 4.50273543,47.7533758 4.12067265,48.3125077 C3.82022422,47.841233 3.58524664,47.3906835 3.40811659,46.962211 C3.06282511,46.1259912 2.92605381,45.3731231 2.92515695,44.6671121 C2.92605381,43.5218154 3.29286996,42.4648264 3.902287,41.4655077 C4.81035874,39.9710352 6.28076233,38.6766066 7.52829596,37.796233 C7.70183857,37.673233 7.86865471,37.5601451 8.03053812,37.4529143 C8.02829596,38.4233978 7.83681614,39.605189 7.50183857,40.8338374 C6.99780269,42.6973099 6.17717489,44.6698154 5.32426009,46.288189 M9.92560538,42.9333978 C10.5332287,41.0807385 10.9538565,39.1893319 10.9578924,37.4213758 C10.9560987,36.4261121 10.8233632,35.4587824 10.4498206,34.5599363 L9.85565022,33.1393538 L8.47224215,33.8021121 C8.40273543,33.838156 6.40049327,34.7919692 4.32829596,36.5779473 C3.29331839,37.4736396 2.23502242,38.5806396 1.40991031,39.9255297 C0.587488789,41.2663648 -0.000852017937,42.8716725 4.48430493e-05,44.6671121 C-0.000852017937,45.7660022 0.222017937,46.9225626 0.70632287,48.0908374 C1.1906278,49.2600132 1.93053812,50.4409033 2.95520179,51.6308044 L3.9126009,52.7427604 L5.01887892,51.7799363 C5.36147982,51.4807714 5.67313901,51.1297934 5.99286996,50.7215956 C6.54802691,50.0088264 7.11439462,49.1203429 7.67224215,48.1048044 C8.50721973,46.5828484 9.31394619,44.7829033 9.92560538,42.9333978" id="Fill-21" fill="#000000"></path>
                <path d="M32.8873991,80.623211 C32.8873991,80.623211 42.5196861,77.3513209 48.6134081,74.8395077 C55.4936771,73.3152989 65.5196861,71.5378813 70.2371749,67.0941121 C73.1860538,68.5755187 80.9510762,69.6617934 83.9981614,61.8600791 C87.0447982,54.0583648 83.6048879,51.9151011 81.7371749,49.8263538 C80.7542152,44.7756945 80.9510762,25.6174308 74.365426,20.3833978 C67.7802242,15.1493648 34.8533184,13.8657495 31.9044395,12.7794747 C28.9555605,11.6932 24.8273094,5.1751011 24.8273094,5.1751011 C24.8273094,5.1751011 21.5842601,12.3843429 20.8959193,12.3843429 C20.2080269,12.3843429 12.836278,9.61887033 12.2465919,9.81666154 C11.6564574,10.0140022 15.391435,23.9386835 15.2936771,24.4320352 C15.1954709,24.9258374 10.7721525,36.6779692 10.7721525,36.6779692 C10.7721525,36.6779692 0.0586995516,57.6136505 10.7721525,64.0326286 C21.4856054,70.4516066 29.2506278,74.2109912 29.2506278,74.2109912 C29.2506278,74.2109912 29.3488341,78.5493319 32.8873991,80.623211" id="Fill-23" fill="#F9D3B5"></path>
                <path d="M81.7580269,50.9314165 C81.7513004,50.9237571 81.7441256,49.833878 81.7373991,49.8266692 C80.7544395,44.7755593 80.950852,25.6172956 74.3656502,20.3832626 C67.78,15.1492297 34.8530942,13.8656143 31.9042152,12.7793396 C28.9557848,11.6930648 24.8275336,5.17496593 24.8275336,5.17496593 C24.8275336,5.17496593 21.5844843,12.3842077 20.8961435,12.3842077 C20.2078027,12.3842077 12.8365022,9.61918571 12.2463677,9.81652637 C11.7208072,9.99269121 14.6315695,21.0757571 15.2001794,23.830867 C17.818565,23.6844385 21.7817937,23.5862187 24.9261883,24.0372187 C30.0858296,24.777922 58.983139,26.5553396 66.7974888,31.8880429 C74.6109417,37.2207462 72.9513004,50.967911 72.2145291,52.5610538 C73.2629596,52.7921857 76.7109417,48.4871857 81.7580269,50.9314165" id="Fill-25" fill="#00293B"></path>
                <path d="M32.9101794,74.4857813 C29.0765471,72.1158912 9.46802691,63.4500231 10.5734081,55.3031879 C11.6792377,47.1559022 19.7882063,25.9728692 19.3460538,23.8251 C18.9039013,21.6773308 16.5447085,14.1225176 16.5447085,14.1225176 C16.5447085,14.1225176 21.9998655,17.2335615 23.1796861,16.1963967 C24.3590583,15.1592319 26.6438117,9.3083967 26.6438117,9.3083967 L25.0778924,8.83126484 C24.0756502,10.9137044 22.7290135,13.5417593 22.3133184,13.5417593 C21.625426,13.5417593 14.2536771,10.7771879 13.663991,10.974078 C13.0743049,11.1718692 16.8092825,25.0961 16.7110762,25.5899022 C16.6124215,26.0837044 12.1895516,37.8353857 12.1895516,37.8353857 C12.1895516,37.8353857 1.47609865,58.771067 12.1895516,65.1900451 C22.9034529,71.6090231 30.6680269,75.3684077 30.6680269,75.3684077 C30.6680269,75.3684077 30.6729596,75.5752099 30.7169058,75.9207813 C30.7169058,75.9212319 32.5415695,82.929078 34.4581614,80.2627264 C34.4581614,80.2627264 32.3204933,77.2264736 32.9101794,74.4857813" id="Fill-27" fill="#FFFFFF"></path>
                <path d="M83.9979821,61.8598538 C87.0450673,54.0585901 83.6047085,51.9153264 81.7374439,49.8265791 C80.7544843,44.7754692 80.9508969,25.617656 74.3656951,20.3831725 C73.214574,19.4685571 71.2576233,18.674689 68.7979821,17.9812934 C69.3540359,21.494678 69.6360987,27.8487769 67.8446188,38.2213264 C64.7482063,56.1450846 63.1827354,68.8559857 45.6100897,70.8699418 C35.7038117,72.5878868 33.6392377,78.3648319 33.6392377,78.3648319 L32.8872197,80.6229857 C32.8872197,80.6229857 42.5199552,77.3515462 48.6136771,74.839733 C55.4939462,73.3155242 65.5195067,71.537656 70.2369955,67.0938868 C73.1863229,68.5752934 80.9508969,69.6611176 83.9979821,61.8598538" id="Fill-29" fill="#EBBDA7"></path>
                <path d="M68.5708969,33.3995912 C74.3372646,39.4464154 72.8897309,51.1016791 72.2143946,52.5605582 C73.2628251,52.7921407 76.7108072,48.4871407 81.7578924,50.9313714 C81.7516143,50.9241626 81.743991,49.8342835 81.7372646,49.8266242 C80.7543049,44.7755143 80.9507175,25.6177011 74.3655157,20.3832176 C73.2143946,19.4686022 71.2574439,18.6747341 68.7982511,17.9813385 C69.2619283,20.9135143 69.534574,25.8249538 68.5708969,33.3995912" id="Fill-31" fill="#081C23"></path>
                <g id="Group-35" transform="translate(3.587444, 0.218516)">
                    <mask id="mask-6" fill="white">
                        <use xlink:href="#path-5"></use>
                    </mask>
                    <g id="Clip-34"></g>
                    <path d="M78.3234081,60.818544 C77.9234081,61.8403901 77.4498655,62.6288516 76.9391031,63.2510604 C76.1713901,64.1818956 75.3207175,64.7585989 74.395157,65.1379615 C73.4718386,65.5137198 72.4642152,65.6745659 71.4758744,65.6741154 C70.6915695,65.6745659 69.9243049,65.5727418 69.2552466,65.4150495 C68.5879821,65.2591593 68.0153363,65.0437967 67.6525561,64.8604231 L66.2556951,64.158467 L65.1166816,65.2316758 C64.1736323,66.1224121 62.8561435,66.9653901 61.2875336,67.7105989 C58.9359641,68.8338187 56.0404484,69.7394231 53.0960538,70.4886868 C50.1489686,71.2406538 47.1552466,71.8430385 44.5435874,72.4210934 L44.3547982,72.4629945 L44.175426,72.5368846 C41.1924664,73.7664341 37.278565,75.2072912 34.1265471,76.3323132 C32.5503139,76.8955 31.1619731,77.3807418 30.1686996,77.724511 C29.9875336,77.7875879 29.8243049,77.8439066 29.6704933,77.8966209 C29.4350673,77.6812582 29.2310314,77.4483242 29.0507623,77.200522 C28.5260987,76.4832473 28.2180269,75.6281044 28.0637668,74.9590385 C27.9857399,74.6256319 27.9444843,74.3426868 27.9238565,74.1570604 C27.913991,74.0642473 27.9086099,73.9962143 27.9059193,73.9579176 L27.9041256,73.9268297 L27.8731839,72.5612143 L26.6364126,71.9624341 L26.6180269,71.9538736 C26.195157,71.7479725 18.6359641,68.0525659 8.33327354,61.8791374 C7.64134529,61.4637308 7.09067265,60.9902033 6.63327354,60.4567527 C5.94896861,59.6583791 5.46466368,58.7113242 5.14044843,57.5998187 C4.81668161,56.491467 4.66466368,55.2231703 4.66511211,53.8688187 C4.66421525,52.0639176 4.93461883,50.113489 5.35569507,48.2193791 C5.98573991,45.3764121 6.94986547,42.6623022 7.75434978,40.6812363 C8.15659193,39.6895769 8.51847534,38.8808407 8.7767713,38.3248626 C8.90591928,38.0468736 9.00950673,37.8324121 9.07901345,37.690489 C9.1135426,37.6193022 9.14044843,37.5665879 9.15704036,37.5323462 L9.17542601,37.4958516 L9.17901345,37.489544 L9.23686099,37.3760055 L9.28215247,37.2557088 C9.2826009,37.2548077 10.3888789,34.3154231 11.5081614,31.3116099 C12.0682511,29.809478 12.6314798,28.2915769 13.06287,27.1120385 C13.278565,26.5227198 13.4610762,26.0181044 13.5960538,25.6355879 C13.6642152,25.4436538 13.7198206,25.2837088 13.7646637,25.1489945 C13.7875336,25.0809615 13.8072646,25.0201374 13.8274439,24.9548077 C13.8373094,24.9219176 13.8476233,24.8885769 13.8592825,24.8457747 C13.8709417,24.8011703 13.884843,24.7543132 13.9050224,24.6551923 L13.9099552,24.6281593 L13.9148879,24.5993242 C13.9458296,24.4218077 13.9498655,24.287544 13.9498655,24.1870714 C13.9480717,23.978467 13.9332735,23.8870055 13.9220628,23.7878846 C13.8973991,23.6081154 13.8686996,23.4562802 13.8323767,23.272456 C13.7646637,22.9336429 13.6695964,22.5105769 13.5521076,22.0023571 C13.1413453,20.2325989 12.4503139,17.4500055 11.86287,14.9269286 C11.675426,14.1226978 11.501435,13.3540604 11.349417,12.6516538 C12.4072646,12.9981264 13.5556951,13.3878516 14.5296861,13.7077418 C15.0686996,13.8843571 15.5516592,14.0393462 15.9565919,14.1582912 C16.1610762,14.2177637 16.3440359,14.2691264 16.5278924,14.3128297 C16.6211659,14.3349066 16.7144395,14.3556319 16.8265471,14.3750055 C16.943139,14.3930275 17.06287,14.4160055 17.3086099,14.4182582 C17.5637668,14.4182582 17.7830493,14.3772582 17.96287,14.3254451 C18.3184753,14.2191154 18.5346188,14.0830495 18.7005381,13.9699615 C19.0130942,13.7455879 19.1637668,13.5707747 19.3095067,13.4054231 C19.5678027,13.0990495 19.7570404,12.8106978 19.9633184,12.4822473 C20.3162332,11.9136538 20.6808072,11.2427857 21.0507623,10.5286648 C21.2453812,10.1533571 21.4395516,9.76633516 21.6287892,9.38426923 C21.7238565,9.50681868 21.8207175,9.63071978 21.9198206,9.75552198 C22.6637668,10.6917637 23.5104036,11.6766648 24.4247534,12.5489286 C24.8830493,12.985511 25.3592825,13.3946099 25.8669058,13.7582033 C26.3767713,14.1204451 26.9166816,14.4421374 27.5453812,14.6759725 C27.7767713,14.7597747 27.9704933,14.8102363 28.1767713,14.8584451 C28.5713901,14.9490055 29.0054709,15.0219945 29.5238565,15.0972363 C30.4897758,15.2369066 31.7328251,15.3765769 33.2090583,15.5284121 C35.7884305,15.7933352 39.069148,16.0943022 42.6260987,16.4624011 C47.9583857,17.012522 53.913991,17.7158297 58.9556951,18.6538736 C61.4736323,19.1210934 63.7633184,19.6491374 65.5973991,20.2258407 C66.5135426,20.5132912 67.3144395,20.8129066 67.9619731,21.1089176 C68.6086099,21.4035769 69.0991928,21.700489 69.3870852,21.9311703 C69.946278,22.374511 70.5068161,23.0318626 71.0296861,23.8969176 C71.9489686,25.4053571 72.7243049,27.5260934 73.3135426,29.9067967 C74.2054709,33.4801044 74.7059193,37.622456 75.0498655,41.2822692 C75.2229596,43.1142033 75.3588341,44.8271923 75.4929148,46.3113022 C75.5606278,47.0533571 75.6274439,47.7390934 75.7005381,48.3599505 C75.7736323,48.9817088 75.8512108,49.5358846 75.949417,50.0400495 L76.0682511,50.6509945 L76.4826009,51.1141593 C76.8888789,51.566511 77.2826009,51.9485769 77.6332735,52.3198297 C78.1624215,52.874456 78.5857399,53.3889835 78.8803587,53.9670385 C79.172287,54.5486978 79.3740807,55.2006429 79.3790135,56.2125769 C79.3803587,57.2853352 79.1202691,58.7793571 78.3234081,60.818544 M83.395157,53.1664121 C82.949417,51.8093571 82.2274439,50.7532692 81.543139,49.9472363 C81.0664574,49.3876538 80.6144395,48.9353022 80.2485202,48.559544 C80.1826009,48.1022363 80.1162332,47.5318407 80.0516592,46.8825989 C79.878565,45.1493352 79.7086099,42.8497308 79.4624215,40.3176429 C79.0906726,36.5141044 78.5539013,32.1829725 77.5189238,28.2474231 C76.9987444,26.2780714 76.3547982,24.4033352 75.5059193,22.7209835 C74.6547982,21.0435879 73.5960538,19.5365 72.169148,18.3979615 C71.5875336,17.9370495 70.9426906,17.5554341 70.2350673,17.2058077 C68.9090583,16.5547637 67.3525561,16.0186099 65.598296,15.5320165 C62.5328251,14.6854341 58.8637668,14.0082582 55.0135426,13.4351593 C49.2422422,12.5786648 43.0718386,11.9677198 38.1252018,11.4860824 C35.6539013,11.2459396 33.4870852,11.0377857 31.8530045,10.8512582 C31.0377578,10.7584451 30.3534529,10.6701374 29.8507623,10.5912912 C29.6009865,10.5516429 29.3956054,10.5142473 29.2543498,10.4836099 C29.1839462,10.4687418 29.1301345,10.4556758 29.0987444,10.4471154 L29.0803587,10.4417088 C28.969148,10.4020604 28.7404484,10.2840165 28.4651121,10.0857747 C27.9695964,9.73434615 27.3377578,9.14592857 26.7211659,8.47190659 C25.7897758,7.45997253 24.8736323,6.25880769 24.2072646,5.32571978 C23.8731839,4.8585 23.6000897,4.45706044 23.4126457,4.17591758 C23.3189238,4.0357967 23.2467265,3.92541209 23.1987444,3.85152198 L23.1458296,3.76907143 L23.133722,3.75014835 L23.1314798,3.74654396 L20.9054709,0.231807692 L19.1969507,4.02858791 C19.1969507,4.02858791 19.1861883,4.05336813 19.16287,4.10428022 C18.9906726,4.48454396 18.1852915,6.25024725 17.3633184,7.88078571 C17.0471749,8.50795055 16.7278924,9.11484066 16.4534529,9.59692857 C15.4018834,9.25946703 13.9148879,8.75124725 12.5597309,8.30835714 C11.8180269,8.06686264 11.11713,7.84474176 10.5166816,7.67353297 C10.2148879,7.58792857 9.94,7.51493956 9.67542601,7.45636813 C9.54224215,7.42663187 9.41219731,7.4005 9.26959641,7.37842308 C9.12430493,7.35724725 8.97497758,7.33652198 8.74403587,7.33517033 C8.6664574,7.33517033 8.57049327,7.33697253 8.43641256,7.35229121 C8.31802691,7.36715934 8.15928251,7.39644505 7.95883408,7.46177473 L7.95748879,7.45817033 C7.94358744,7.46312637 7.93058296,7.46943407 7.91713004,7.47439011 C7.90636771,7.47799451 7.89874439,7.47844505 7.88753363,7.48295055 L7.88843049,7.48565385 C7.61040359,7.58792857 7.36242152,7.74021429 7.17721973,7.90331319 C6.82161435,8.2177967 6.66511211,8.52011538 6.56690583,8.73863187 C6.42699552,9.07248901 6.40188341,9.27748901 6.37766816,9.44509341 C6.35748879,9.61044505 6.35434978,9.7356978 6.35390135,9.85148901 C6.35479821,10.1218187 6.3767713,10.3416868 6.40502242,10.5854341 C6.45928251,11.0341813 6.54717489,11.5410495 6.66017937,12.1267637 C6.85838565,13.1472582 7.13461883,14.3916758 7.44,15.7104341 C7.8973991,17.6851923 8.41982063,19.8198956 8.82609865,21.5117088 C9.02878924,22.356489 9.20278027,23.0922363 9.32161435,23.6261374 C9.35524664,23.7761703 9.38394619,23.9086319 9.40726457,24.0226209 C9.21982063,24.5569725 8.88080717,25.4891593 8.47542601,26.5871484 C7.80816143,28.397456 6.96017937,30.6677747 6.28035874,32.483489 C5.94044843,33.3917967 5.64224215,34.1870165 5.42878924,34.7542582 C5.28573991,35.1349725 5.1826009,35.4093571 5.12878924,35.5517308 C4.86466368,36.0838297 3.78304933,38.3081923 2.69336323,41.3647198 C2.07363229,43.1033901 1.45121076,45.1101374 0.978565022,47.2389835 C0.507264574,49.3691813 0.182152466,51.621478 0.180807175,53.8688187 C0.182600897,56.1139066 0.504573991,58.3702582 1.40950673,60.4599066 C1.86242152,61.502478 2.46466368,62.4986429 3.2355157,63.397489 C4.00502242,64.2963352 4.94269058,65.0942582 6.03641256,65.748456 C14.4615247,70.7964121 21.0736323,74.2106758 23.5897758,75.4753681 C23.6803587,75.9570055 23.8202691,76.5323571 24.0377578,77.1626758 C24.3292377,78.0006978 24.76287,78.9382912 25.4269955,79.8551593 C26.0897758,80.7697747 26.9933632,81.6623132 28.1700448,82.3507527 L29.0512108,82.8670824 L30.0180269,82.5386319 C30.0256502,82.5363791 32.4426906,81.7150275 35.6287892,80.5773901 C38.7543498,79.4609286 42.6068161,78.0448516 45.6888789,76.781511 C49.0601794,76.0372033 53.2624215,75.2122473 57.2924664,74.0011703 C59.3444843,73.3830165 61.3547982,72.6643901 63.2095067,71.7813132 C64.598296,71.1176538 65.9032287,70.3643352 67.066009,69.4677418 C67.4364126,69.5911923 67.8229596,69.7051813 68.2346188,69.8020495 C69.2162332,70.0322802 70.310852,70.1791593 71.4758744,70.1796099 C72.4516592,70.1796099 73.4776682,70.0759835 74.5166816,69.8200714 C76.0718386,69.4380055 77.6646637,68.700456 79.0686996,67.4848736 C80.4749776,66.2724451 81.6682511,64.5959505 82.4978475,62.4639505 C83.44,60.0490055 83.8624215,58.0107198 83.8633184,56.2125769 C83.8642152,55.0907088 83.6933632,54.0684121 83.395157,53.1664121" id="Fill-33" fill="#000000" mask="url(#mask-6)"></path>
                </g>
                <polygon id="Fill-36" fill="#EA2127" points="18.7903139 57.373733 24.6714798 45.5815022 30.5629596 57.373733"></polygon>
            </g>
        </g>
    </g>
</svg>