<svg id="Layer_1" data-name="Layer 1" xmlns="http://www.w3.org/2000/svg" viewBox="0 0 1200 698.67"><defs><style>.cls-1{fill:#00a14b;}</style></defs><title>canvato_s_final_final</title><path class="cls-1" d="M433.1,49.72q11.73,56.54-45.36,126.22Q333.58,242.23,276,254.17a44.25,44.25,0,0,1-16.21,0q-11.94-2.28-13.49-9.78Q244.33,235,251,225.53t15-11.22q7.74,15.74,11.54,19.27t12.12,1.82c23-4.78,45.81-17.21,66.86-38.74,48.87-50,58.55-105.52,58-123.88-1.18-42.67-17.52-46.16-69.5-35.38q-67.24,14-135.2,73T106.51,246.72c-63.06,137-15.75,212.63,6.1,232.55,32,29.11,78.2,23.68,118.94,10.89,130.39-40.91,162.08-162.45,176.66-177,13.1-13.1-3.53,10.17-2.46,9.94,2.14-.44,11.88-22.7,12.4-20.21,1.45,7-74.56,185.41-214.5,213.07-41.34,8.17-76.95,3.8-107.06-14.27s-49.11-46.13-57-84.18q-16.5-79.58,26.84-173.8Q107.18,155.87,182.8,87.23T334.24,2.87q37.25-7.72,65.11,5.36T433.1,49.72Z"/><path class="cls-1" d="M495.85,345.22q-8.58,34-8.12,49.72t2.66,25q2.19,9.28,9.34,7.59,9-2.13,18.45-22,13.77-28.92,23.6-72.5c.59-3.16,1.65-5.08,3.17-5.78,2.3-1.55,3.8-.9,4.48,2a15.5,15.5,0,0,1-.08,6.06q-22.86,99-52.88,106.09-13.82,3.27-25.55-8-6-6.13-8.8-18.05T460,385.14q-23.58,70.5-51.21,77a22.68,22.68,0,0,1-14.95-1.51q-16.65-6.62-22.4-30.91-11.06-46.69,18.06-104.4,16.56-32.1,48-48.09a69.61,69.61,0,0,1,16.6-6.44q21.9-5.19,40.76,6.46,6,4.13,5.23,9.32t-7.2,5.73q-9.3-15.9-26.93-11.74-20.49,4.85-42.84,44.35a267.25,267.25,0,0,0-21.32,52.34q-11.26,35.39-6.86,54T411.25,447q28.59-6.78,54.06-105.38,4.88-19.75,9.56-27.67a21.41,21.41,0,0,1,14.2-10.14,80.67,80.67,0,0,1,10.1-.88c5.47-.29,9.39-1.05,11.79-2.29Q504.41,311.25,495.85,345.22Z"/><path class="cls-1" d="M670.34,234.25Q636.08,351,643.52,382.48q2.93,12.39,12,10.24,24.3-5.75,45.78-97.87,1.28-7.34,4.47-6.59c2.14.5,3.39,1.56,3.76,3.13a12.36,12.36,0,0,1-.54,6.17q-13.2,57-26,80.37t-30.21,27.53q-17.4,4.11-29.6-7.09-6.23-5.06-8.77-15.78T613,355.49q1.15-16.37,14.48-55.75,3.21-9.81,2-14.82t-9.28-3.09q-8.12,1.92-25.9,28.77-26.87,39.57-43.91,110-1.73,5.46-5,7.49t-13.67,5q-10.37,3-13.25,5.65,4-17,15.25-69.51Q554,276.37,563.58,261.53q4.36-7.08,14.37-9.45a85.33,85.33,0,0,1,10.11-.88c5.47-.29,9.39-1,11.79-2.28q-15.39,13.7-36.46,103.21,15.84-32.91,30.3-53.71t36.86-40.92q22.41-20.15,34.32-23A14.4,14.4,0,0,1,670.34,234.25Z"/><path class="cls-1" d="M947,238.46q-8.56,34-8.1,49.72t2.65,25q2.19,9.3,9.34,7.61,9-2.15,18.44-22,13.78-28.92,23.61-72.5c.59-3.16,1.64-5.08,3.16-5.78,2.31-1.55,3.81-.9,4.48,2a15.28,15.28,0,0,1-.07,6.06q-22.87,99-52.88,106.09-13.83,3.27-25.55-8-6-6.13-8.8-18.05t-2.11-30.19q-23.58,70.49-51.21,77a22.8,22.8,0,0,1-15-1.49q-16.66-6.63-22.4-30.92-11.05-46.71,18.06-104.4,16.56-32.1,48-48.09a69.54,69.54,0,0,1,16.59-6.44q21.91-5.19,40.77,6.45,6,4.13,5.23,9.34c-.52,3.47-2.93,5.39-7.2,5.72q-9.3-15.92-26.93-11.74-20.49,4.84-42.84,44.34A268.23,268.23,0,0,0,853,270.53q-11.25,35.37-6.86,54t16.31,15.76q28.57-6.75,54.06-105.37,4.88-19.76,9.55-27.67a21.45,21.45,0,0,1,14.21-10.14,81.69,81.69,0,0,1,10.1-.89c5.47-.29,9.39-1,11.79-2.28Q955.61,204.48,947,238.46Z"/><path class="cls-1" d="M993.69,282.53q-9.36-39.55,6.78-141.48l-24.78,5.86q-2.38.57-3.72-1.89a7.67,7.67,0,0,1-.76-5.35,3.94,3.94,0,0,1,2.95-3.47l28.59-6.76q8.25-41.68,17-70.44t19.1-40.5q10.3-11.73,15.78-13c3.65-.86,6.34-1.17,8.09-.91q12.2,2.66,16.08,19.09T1077.3,66q-5.44,25.94-11.18,48.42L1089,109c1.59-.38,2.83.26,3.72,1.89a7.71,7.71,0,0,1,.76,5.34c-.39,2-1.37,3.1-3,3.47l-27.64,6.54a355.61,355.61,0,0,1-44.77,93.61l.54,51.2a55.68,55.68,0,0,0,1.45,12.48,26.16,26.16,0,0,0,6.21,11.36,11.41,11.41,0,0,0,12,3.72q8.09-1.92,16.75-10,18.81-22.57,33.48-83.9.88-4.74,3.29-6.31c1.59-1.05,2.72-.9,3.37.46s.73,3.77.21,7.24q-8,36.6-13.72,52.56-15.93,47.54-45,54.42a31.65,31.65,0,0,1-26.9-5.22Q997.63,299.2,993.69,282.53Zm58.24-153.65-22.41,5.29q-2.54,14.7-10.73,69.46Q1038.22,170.87,1051.93,128.88Zm3.71-11.95q18.13-63.66,13-85.58c-1.5-6.35-3.38-9.27-5.6-8.74q-5.24,1.25-12.35,19t-18.84,80.93Z"/><path class="cls-1" d="M1073.36,253.64q-4.84-20.47.22-38.17a89.13,89.13,0,0,1,15-30.83q22.23-27.4,50.31-34,23.47-5.07,39,6.25a53.09,53.09,0,0,1,19.27,30.33q5.17,21.87,1,39.32a80.5,80.5,0,0,1-15,30.81,82.15,82.15,0,0,1-24.27,20.74,85,85,0,0,1-27.27,12.1q-23.47,5.07-38.66-7A49,49,0,0,1,1073.36,253.64Zm21.74,7q2.31,11.79,10.19,17.81,7.92,7.26,22.84,3.73,13.33-3.15,23.28-15.62a106,106,0,0,0,16-27q13.43-34,7.91-59.37-3-12.61-9.95-18.87-7.25-6.42-23.07-2.67-12.33,3.4-21.92,14.31a89.35,89.35,0,0,0-16.62,27.62,108.6,108.6,0,0,0-8.56,31.4Q1092.18,248.2,1095.1,260.6Z"/><path class="cls-1" d="M0,698.67s462.68-210,1172.28-289.31"/><path class="cls-1" d="M737.41,211.74c25.79,15.54-19.06,100.64.32,153.82,2.65,7.26,6.94,10,13.83,7.78,5.69-1.79,9-7,14-12.67,10.56-12,23.58-86,25.51-96.56a122.67,122.67,0,0,1-16-18,70.15,70.15,0,0,1-9.59-19.58q-4.39-13.9-1-24.34a20.2,20.2,0,0,1,13.78-13.69,20.78,20.78,0,0,1,19.81,3.27q8.93,6.74,13.69,21.82,6.38,20.21-.67,54.19,17.43,4.68,31,.39a35.58,35.58,0,0,0,8-3.57l2.47,7.84-5.5,2.52a42.78,42.78,0,0,1-17.77,1.43,71,71,0,0,1-19.31-5c-4.36,11.22-23.19,77-45.66,99.47-6.66,6.65-15.93,11-26.26,14.28-10,3.15-12.81,3.37-19.87.59s-11.81-8-14.26-15.82a44.82,44.82,0,0,1-1.52-16.9S706,232.73,696,234.64C684.34,236.86,727.27,205.63,737.41,211.74Zm48.6,3.4q-2.78-8.79-6.57-13.35t-7.6-3.35c-2.17.69-3.25,3.27-3.24,7.76s1.07,10,3.15,16.58A99.17,99.17,0,0,0,778.91,240a164.18,164.18,0,0,0,11.85,18.34Q792,234.15,786,215.14ZM706.13,353.67s-2.67-121.41-10.16-119c-11.84,3.76,31.3-29,41.44-22.9"/></svg>