<?xml version="1.0" encoding="UTF-8"?>
<svg width="99px" height="123px" viewBox="0 0 99 123" version="1.1" xmlns="http://www.w3.org/2000/svg" xmlns:xlink="http://www.w3.org/1999/xlink">
    <!-- Generator: Sketch 53.2 (72643) - https://sketchapp.com -->
    <title>Group 12</title>
    <desc>Created with Sketch.</desc>
    <defs>
        <polygon id="path-1" points="0.000396868678 0.198622222 98.6646322 0.198622222 98.6646322 122.544444 0.000396868678 122.544444"></polygon>
    </defs>
    <g id="Page-1" stroke="none" stroke-width="1" fill="none" fill-rule="evenodd">
        <g id="Office-365" transform="translate(-837.000000, -2958.000000)">
            <g id="Group-18" transform="translate(837.000000, 2958.000000)">
                <g id="Group-12" transform="translate(0.000000, 0.000000)">
                    <path d="M96.2447667,19.7351222 C83.1220333,19.7351222 60.9342,15.1595222 49.4514667,3.67678889 C34.4295222,18.6991889 2.31331111,19.7351222 2.31331111,19.7351222 C1.10426667,89.3207778 31.4939222,111.767367 49.2788111,120.299011 C98.3170889,99.1316222 96.7631889,25.7785222 96.2447667,19.7351222" id="Fill-1" fill="#00D0DC"></path>
                    <path d="M49.4546556,6.79092111 C49.5671778,5.79781 49.6541889,4.85389889 49.7270778,3.93959889 C49.6364222,3.85122111 49.5407556,3.76603222 49.4514667,3.67674333 C34.4295222,18.6991433 2.31331111,19.7350767 2.31331111,19.7350767 C1.14708889,86.8552656 29.3787778,110.115932 47.3413333,119.336377 C48.0032556,118.837543 48.6624444,118.320943 49.3166222,117.782477 C5.17647778,85.9149989 8.83732222,32.4578322 8.83732222,25.51061 C38.1067667,23.6883878 49.4546556,6.79092111 49.4546556,6.79092111" id="Fill-3" fill="#FFFFFF"></path>
                    <path d="M49.6045789,6.79092111 C49.4925122,5.79781 49.4050456,4.85389889 49.3321567,3.93959889 C49.4228122,3.85122111 49.5184789,3.76603222 49.6077678,3.67674333 C64.6297122,18.6991433 96.7459233,19.7350767 96.7459233,19.7350767 C97.9121456,86.8552656 69.6804567,110.115932 51.7179011,119.336377 C51.0559789,118.837543 50.3972456,118.320943 49.7430678,117.782477 C93.8827567,85.9149989 90.2219122,32.4578322 90.2219122,25.51061 C60.9524678,23.6883878 49.6045789,6.79092111 49.6045789,6.79092111" id="Fill-5" fill="#38B1BF"></path>
                    <g id="Group-9" transform="translate(0.000000, 0.256933)">
                        <mask id="mask-2" fill="white">
                            <use xlink:href="#path-1"></use>
                        </mask>
                        <g id="Clip-8"></g>
                        <path d="M86.8124433,71.4004067 C83.6745767,80.8673067 79.2269878,90.2968511 72.9895211,98.4458289 C66.9392878,106.347896 59.22491,113.043196 49.3165767,117.525407 C45.2949322,115.529162 40.6997433,112.816784 36.0157211,109.002873 C28.43391,102.824173 20.6120211,93.7782067 14.6378656,80.1142733 C8.66917667,66.4507956 4.55642111,48.1424733 4.55551,23.4723178 C4.55551,22.8659733 4.56689889,22.2432289 4.57191,21.62914 C7.66194333,21.4086511 13.7199211,20.8196178 20.7290989,19.30854 C25.7884989,18.2170289 31.3435433,16.6462733 36.6507656,14.3580178 C41.2732878,12.3622289 45.7163211,9.82250667 49.45461,6.53385111 C52.1888544,8.94966222 55.3303656,11.0215289 58.7046656,12.7909067 C64.7917989,15.9784289 71.6264989,18.2038178 78.21201,19.6492956 C83.8964322,20.89524 89.3858767,21.5571622 94.0726322,21.7161511 C94.0935878,22.4810289 94.1095322,23.4058067 94.1095322,24.4923067 C94.1136322,33.41664 93.0954656,52.4697956 86.8124433,71.4004067 M98.6158878,21.2382733 C98.5876433,20.3640622 98.5516544,19.7203622 98.5142989,19.2834844 L98.3357211,17.2002289 L96.2447211,17.2002289 C93.0954656,17.2002289 89.3480656,16.9241622 85.3455544,16.3305733 C79.3408767,15.4413289 72.7558211,13.8373178 66.6823544,11.4287956 C60.6056989,9.02528444 55.0542989,5.80906222 51.0622656,1.80928444 L49.4514211,0.19844 L47.8410322,1.80928444 C44.3669656,5.28790667 39.7886322,8.04584 34.8467656,10.1751067 C27.4362433,13.3740178 19.2403433,15.1529622 12.9263433,16.1059844 C9.76888778,16.5838622 7.08065444,16.8585622 5.19009889,17.0129956 C4.24527667,17.09044 3.49907667,17.1378178 2.99386556,17.1656067 C2.74103222,17.1797289 2.54833222,17.18884 2.42123222,17.1943067 C2.35745444,17.19704 2.31007667,17.1988622 2.27955444,17.1997733 L2.24675444,17.20114 L2.23992111,17.20114 L0.07421,17.2712956 L0.0359433333,19.4379178 C0.0113433333,20.8000289 -4.55555555e-05,22.1452844 0.00041,23.4723178 C-4.55555555e-05,40.2545289 1.86591,54.2724289 4.96687667,66.0029844 C9.61445444,83.5979067 17.0591433,96.0436844 25.0559656,104.862329 C33.0486878,113.684618 41.5721322,118.87294 48.2938544,122.09554 L49.22911,122.544718 L50.1816767,122.133351 C61.3368656,117.320862 69.9814878,109.879362 76.6079989,101.21424 C81.5812989,94.7143733 85.4334767,87.5252511 88.4241989,80.1949067 C92.9086878,69.1964289 95.4588878,57.8735956 96.89981,47.9994289 C98.33891,38.1243511 98.6646322,29.6997622 98.6646322,24.4923067 C98.6646322,23.2026289 98.6445878,22.1102067 98.6158878,21.2382733" id="Fill-7" fill="#000000" mask="url(#mask-2)"></path>
                    </g>
                    <path d="M74.7014989,68.6935411 C77.4188878,63.6491744 75.5319767,57.3570411 70.48761,54.6396522 C69.1842656,53.9376411 67.7456211,53.52263 66.2682544,53.4228633 C64.0788544,44.8834744 55.3809322,39.7370633 46.8424544,41.9264633 C42.9966544,42.9127411 39.6565211,45.2966633 37.47441,48.6126522 C30.4260544,48.6996633 24.7830878,54.4847633 24.8700989,61.5326633 C24.9019878,64.0896967 25.7005767,66.5774856 27.16291,68.6748633 C29.5481989,72.10383 33.4609656,74.1474522 37.6374989,74.1451744 L65.5680656,74.1451744 C69.3833433,74.1460856 72.8911211,72.0523522 74.7014989,68.6935411" id="Fill-10" fill="#F2F8F9"></path>
                </g>
            </g>
        </g>
    </g>
</svg>