<?xml version="1.0" encoding="UTF-8"?>
<svg width="125px" height="123px" viewBox="0 0 125 123" version="1.1" xmlns="http://www.w3.org/2000/svg" xmlns:xlink="http://www.w3.org/1999/xlink">
    <!-- Generator: Sketch 53.2 (72643) - https://sketchapp.com -->
    <title>Group 69</title>
    <desc>Created with Sketch.</desc>
    <defs>
        <polygon id="path-1" points="0.371957634 0.000140839695 2.72445 0.000140839695 2.72445 4.69465649 0.371957634 4.69465649"></polygon>
        <polygon id="path-3" points="0 0.120931875 124.877443 0.120931875 124.877443 74.6450382 0 74.6450382"></polygon>
        <polygon id="path-5" points="0.285106489 0.000140839695 7.88857214 0.000140839695 7.88857214 4.69465649 0.285106489 4.69465649"></polygon>
        <polygon id="path-7" points="0.154266412 0.000140839695 5.40664809 0.000140839695 5.40664809 4.69465649 0.154266412 4.69465649"></polygon>
        <polygon id="path-9" points="0.145111832 0.000140839695 2.50182939 0.000140839695 2.50182939 4.69465649 0.145111832 4.69465649"></polygon>
        <polygon id="path-11" points="0.144877099 0.000140839695 2.50159466 0.000140839695 2.50159466 4.69465649 0.144877099 4.69465649"></polygon>
    </defs>
    <g id="Page-1" stroke="none" stroke-width="1" fill="none" fill-rule="evenodd">
        <g id="Office-365" transform="translate(-1218.000000, -2958.000000)">
            <g id="Group-15" transform="translate(1218.000000, 2958.000000)">
                <g id="Group-69" transform="translate(-0.000000, 0.000000)">
                    <polygon id="Fill-1" fill="#FFD04E" points="2.26183855 50.6993794 2.26183855 120.175601 49.1290637 120.175601 62.4543767 93.5831885 75.803163 120.175601 121.976518 120.175601 121.976518 50.6993794"></polygon>
                    <g id="Group-68" transform="translate(0.000000, 0.321115)">
                        <path d="M2.26183855,47.9883092 L62.4661134,2.33934733 L121.976518,46.5292099 L121.525831,52.2562214 L115.560331,58.0686756 L62.4661134,80.5757977 L3.6824416,53.7909046 C3.6824416,53.7909046 0.226704962,52.1750038 2.26183855,47.9883092" id="Fill-2" fill="#00D0DC"></path>
                        <path d="M74.3967847,13.3597248 C74.3967847,13.3597248 66.0318458,7.03320573 59.9287924,10.9814118 C53.8257389,14.9291485 8.28757099,48.965408 8.28757099,48.965408 C8.28757099,48.965408 2.75444885,49.2888698 2.77134962,48.965408 C2.78871985,48.6414767 3.38024656,45.5617821 4.54264351,44.6228508 C5.70550992,43.6839195 20.3110557,32.4167439 20.3110557,32.4167439 L60.8677237,2.95777443 C60.8677237,2.95777443 65.0929145,2.7230416 65.4450137,2.95777443 C65.797113,3.19250725 69.4354718,5.65720191 69.9049374,6.12666756 C70.3744031,6.59613321 76.306571,10.7340034 74.3967847,13.3597248" id="Fill-4" fill="#FFFFFF"></path>
                        <path d="M102.097089,22.7405405 C101.977845,22.5987618 101.837944,22.5198916 101.660016,22.5180137 L23.2728676,22.5180137 C23.0949401,22.5198916 22.9550393,22.5987618 22.835795,22.7405405 C22.7203065,22.8870137 22.6555202,23.0583687 22.6545813,23.2771397 L22.6545813,52.6825901 L22.6545813,53.7909985 L22.6545813,61.1071511 L61.8507378,78.8327656 C62.0267874,78.9135137 62.2450889,78.9609298 62.4662073,78.9604603 C62.6873256,78.9609298 62.9056271,78.9135137 63.0821462,78.8327656 L102.278303,61.1071511 L102.278303,53.7909985 L102.278303,52.6825901 L102.278303,23.2771397 C102.276894,23.0583687 102.212577,22.8870137 102.097089,22.7405405" id="Fill-6" fill="#FFFFFF"></path>
                        <path d="M38.1172775,22.5182015 L61.808392,5.04656794 C61.9722355,4.92356794 62.211663,4.84235038 62.4661134,4.84328931 C62.7215027,4.84235038 62.9604607,4.92356794 63.1243042,5.04609847 L86.8154187,22.5182015 L94.724976,22.5182015 L65.9105828,1.2683084 C64.8791668,0.508712977 63.6646592,0.14910229 62.4661134,0.148632824 C61.268037,0.14910229 60.0539989,0.509182443 59.0216439,1.2683084 L30.2072508,22.5182015 L38.1172775,22.5182015 Z" id="Fill-8" fill="#000000"></path>
                        <path d="M124.35638,45.0601111 C123.98785,44.3347866 123.429185,43.6845767 122.737663,43.1766149 L102.27835,28.0884584 L102.27835,33.9210996 L119.951384,46.9548744 C120.098796,47.0651989 120.146682,47.1421912 120.175319,47.1947714 C120.20114,47.247821 120.20959,47.2863172 120.210529,47.3421836 C120.213346,47.4407714 120.160296,47.603676 120.02509,47.7351263 C119.957956,47.8008515 119.873922,47.8595347 119.760311,47.9060118 C119.646231,47.95155 119.500697,47.9872294 119.293193,47.9881683 L102.27835,47.9881683 L102.27835,52.6823598 L119.293193,52.6823553 C120.081426,52.6832943 120.841491,52.5344737 121.525972,52.2560805 C122.554571,51.839195 123.404304,51.136405 123.988319,50.2796302 C124.573273,49.4228553 124.904716,48.4055233 124.905185,47.3421836 C124.906594,46.5750767 124.727258,45.7844966 124.35638,45.0601111" id="Fill-10" fill="#000000"></path>
                        <path d="M22.6547221,47.9883092 L5.63940916,47.9883092 C5.43190534,47.9873702 5.28637099,47.9516908 5.17276031,47.9061527 C5.00328321,47.8366718 4.89530611,47.7390229 4.8216,47.6319847 C4.74789389,47.5258855 4.72160382,47.4165 4.72207328,47.3423244 C4.72301221,47.286458 4.7314626,47.2474924 4.75775267,47.1944427 C4.78592061,47.1418626 4.83380611,47.0653397 4.98121832,46.9554847 L3.58831374,45.0658855 L4.98121832,46.9550153 L22.6547221,33.9212405 L22.6547221,28.0881298 L2.19540916,43.1762863 L2.19540916,43.1767557 L2.19493969,43.1767557 C1.50341679,43.6847176 0.945222137,44.3349275 0.576691603,45.0602519 C0.20581374,45.7846374 0.0264778626,46.5747481 0.0274167939,47.3423244 C0.0297641221,48.7605802 0.614718321,50.0948015 1.61421069,51.0806794 C2.1141916,51.5736183 2.72168015,51.9782977 3.4071,52.2562214 C4.09158092,52.5346145 4.8516458,52.6834351 5.63940916,52.6824962 L22.6547221,52.6825006 L22.6547221,47.9883092 Z" id="Fill-12" fill="#000000"></path>
                        <polygon id="Fill-14" fill="#FCB82A" points="63.0823809 78.8327656 63.0819115 78.8327656 63.0819115 78.8332351"></polygon>
                        <polygon id="Fill-16" fill="#FCB82A" points="6.47740534 53.7910924 6.47740534 53.7910924 5.50983664 55.9304473 6.47740534 53.7915618"></polygon>
                        <path d="M17.9600656,52.6824962 L7.09287481,52.6824962 C6.82856565,52.6834351 6.64124885,52.7270954 6.50134809,52.781084 C6.36144733,52.835542 6.26708473,52.9012672 6.19572595,52.9684008 C6.05394733,53.1036069 6.01216489,53.2505496 6.01357328,53.3359924 C6.01592061,53.3956145 6.02202366,53.4261298 6.06098931,53.4880992 C6.10324122,53.5472519 6.19197023,53.6589847 6.47740534,53.7909046 L17.9600656,58.9841336 L22.6547221,61.1070573 L22.6547221,52.6824962 L17.9600656,52.6824962 Z" id="Fill-18" fill="#00D0DC"></path>
                        <path d="M118.825465,53.0708382 C118.752228,52.9689641 118.640026,52.8633344 118.431583,52.7807084 C118.291682,52.7271893 118.104365,52.683529 117.840056,52.6825901 L106.972865,52.6825901 L102.278209,52.6825901 L102.278209,61.1071511 L106.972865,58.9842275 L118.455526,53.7909985 C118.740961,53.6590786 118.82922,53.5478153 118.871942,53.4881931 C118.910907,53.4262237 118.91701,53.3952389 118.919358,53.3356168 C118.919827,53.2717695 118.897293,53.1736511 118.825465,53.0708382" id="Fill-20" fill="#00D0DC"></path>
                        <path d="M22.6547221,23.1364408 C22.6556611,22.9585134 22.7204473,22.8186126 22.8359359,22.6993683 C22.9551802,22.5838798 23.0946115,22.519563 23.2725389,22.5181546 L101.660157,22.5181546 C101.838085,22.519563 101.977985,22.5838798 102.09723,22.6993683 C102.212718,22.8186126 102.277035,22.9585134 102.277974,23.1364408 L102.277974,62.4626393 L106.972633,62.4626393 L106.972631,23.1364408 C106.974039,21.6768721 106.374531,20.3337309 105.416821,19.3797767 C104.462867,18.4220668 103.119726,17.8225592 101.660157,17.8234981 L23.2725389,17.8234981 C21.8129702,17.8225592 20.4702985,18.4220668 19.5158748,19.3797767 C18.5581649,20.3337309 17.9586573,21.6768721 17.9600656,23.1364408 L17.9600656,61.817124 L22.6547221,61.817124 L22.6547221,23.1364408 Z" id="Fill-22" fill="#000000"></path>
                        <path d="M17.9990313,77.5628141 L13.233955,77.5628141 C11.9570084,77.5628141 10.9218366,76.5276424 10.9218366,75.2506958 L10.9218366,75.180276 C10.9218366,73.9028599 11.9570084,72.8681576 13.233955,72.8681576 L17.9990313,72.8681576 C19.2759779,72.8681576 20.3111496,73.9028599 20.3111496,75.180276 L20.3111496,75.2506958 C20.3111496,76.5276424 19.2759779,77.5628141 17.9990313,77.5628141" id="Fill-24" fill="#000000"></path>
                        <path d="M33.6807332,77.5628141 L29.8545882,77.5628141 C28.5776416,77.5628141 27.5424698,76.5276424 27.5424698,75.2506958 L27.5424698,75.180276 C27.5424698,73.9028599 28.5776416,72.8681576 29.8545882,72.8681576 L33.6807332,72.8681576 C34.9576798,72.8681576 35.9928515,73.9028599 35.9928515,75.180276 L35.9928515,75.2506958 C35.9928515,76.5276424 34.9576798,77.5628141 33.6807332,77.5628141" id="Fill-26" fill="#000000"></path>
                        <path d="M17.9990313,86.944334 L13.233955,86.944334 C11.9570084,86.944334 10.9218366,85.9096317 10.9218366,84.6322156 L10.9218366,84.5617958 C10.9218366,83.2848492 11.9570084,82.2496775 13.233955,82.2496775 L17.9990313,82.2496775 C19.2759779,82.2496775 20.3111496,83.2848492 20.3111496,84.5617958 L20.3111496,84.6322156 C20.3111496,85.9096317 19.2759779,86.944334 17.9990313,86.944334" id="Fill-28" fill="#000000"></path>
                        <path d="M17.9990313,94.3077149 L13.233955,94.3077149 C11.9570084,94.3077149 10.9218366,93.2725431 10.9218366,91.9955966 L10.9218366,91.9251767 C10.9218366,90.6477607 11.9570084,89.6130584 13.233955,89.6130584 L17.9990313,89.6130584 C19.2759779,89.6130584 20.3111496,90.6477607 20.3111496,91.9251767 L20.3111496,91.9955966 C20.3111496,93.2725431 19.2759779,94.3077149 17.9990313,94.3077149" id="Fill-30" fill="#000000"></path>
                        <path d="M2.26183855,52.6362069 L2.26183855,119.854768 L7.28559046,119.854768 C7.5283042,118.647772 7.64191489,117.817756 7.64191489,117.817756 L7.64191489,64.5165046 C7.64191489,60.2913137 10.9216019,60.9537298 10.9216019,60.9537298 C7.57008664,57.1956573 4.68850649,54.5290924 2.26183855,52.6362069" id="Fill-32" fill="#FFFFFF"></path>
                        <path d="M64.8731576,78.8483519 C67.6805622,80.7848977 72.124524,83.5880771 73.5784592,83.0237794 C74.0113065,82.8557107 116.329879,63.9146496 121.976612,61.387516 L121.976612,52.8822069 C109.374745,58.6331611 75.0394363,74.2940656 64.8731576,78.8483519" id="Fill-34" fill="#FFFFFF"></path>
                        <path d="M6.47740534,53.7910924 C6.19197023,53.6591725 6.10324122,53.5469702 6.06098931,53.4878176 C6.02202366,53.4263176 6.01592061,53.3953328 6.01357328,53.3357107 C6.01216489,53.2507374 6.05394733,53.1037947 6.19572595,52.9685885 C6.26708473,52.9009855 6.36144733,52.8357298 6.50134809,52.7812718 C6.64124885,52.7268137 6.82856565,52.6836229 7.09287481,52.682684 L17.9600656,52.682684 L22.6547221,52.682684 L22.6547221,47.9884923 L17.9600656,47.9884969 L7.09287481,47.9884969 C6.2839855,47.987558 5.50701985,48.1302756 4.80376031,48.403974 C3.74652366,48.8128786 2.86580611,49.5137908 2.26207328,50.3780771 C1.65693206,51.2418939 1.31891679,52.2704931 1.31891679,53.3357107 C1.3161,54.2830924 1.59637099,55.2619282 2.16160763,56.1018023 C2.72308855,56.9440237 3.55685954,57.6256878 4.5427374,58.0683939 L5.50983664,55.9304473 L6.47740534,53.7910924 Z" id="Fill-36" fill="#000000"></path>
                        <path d="M121.978349,49.5727557 C121.460998,49.0779389 120.833322,48.6765458 120.129593,48.4042557 C119.425864,48.1305573 118.648898,47.9873702 117.840479,47.9883092 L106.972818,47.9883092 L102.278162,47.9883092 L102.278162,52.6824962 L106.972818,52.6824962 L117.840479,52.6824962 C118.104318,52.6834351 118.291635,52.7270954 118.431536,52.7806145 C118.640448,52.8632405 118.752181,52.9688702 118.825418,53.0707443 C118.897715,53.1735573 118.91978,53.2716756 118.919311,53.3359924 C118.916963,53.3956145 118.91086,53.4261298 118.871895,53.4880992 C118.829173,53.5477214 118.740914,53.6589847 118.455479,53.7909046 L106.972818,58.9841336 L102.278162,61.1070573 L63.0820053,78.8326718 L63.0824748,78.8326718 L63.0820053,78.8331412 C62.9054863,78.9134198 62.6867153,78.9613053 62.4660664,78.9608359 C62.2454176,78.9613053 62.027116,78.9134198 61.8510664,78.8326718 L22.6549099,61.1070573 L17.9602534,58.9841336 L6.47759313,53.7909046 L6.47759313,53.791374 L5.51002443,55.9302595 L4.54292519,58.069145 L17.9602534,64.1360496 L22.6549099,66.2594427 L59.9168679,83.1104427 C60.7323298,83.4789733 61.6008412,83.6550229 62.4660664,83.6554924 C63.3322305,83.6550229 64.200742,83.4785038 65.0157344,83.1104427 L65.0162038,83.1104427 L102.278162,66.2594427 L106.972818,64.1360496 L120.390147,58.069145 C121.376024,57.6259695 122.209326,56.9438359 122.771276,56.1016145 C123.336982,55.2617405 123.616315,54.2829046 123.613967,53.3359924 C123.613028,51.9144504 123.01399,50.5609809 121.978349,49.5727557" id="Fill-38" fill="#000000"></path>
                        <path d="M103.527034,91.4258061 C98.8863664,91.4258061 95.1250076,87.6639779 95.1250076,83.0237794 C95.1250076,78.3831115 98.8863664,74.6212832 103.527034,74.6212832 C108.167702,74.6212832 111.929061,78.3831115 111.929061,83.0237794 C111.929061,87.6639779 108.167702,91.4258061 103.527034,91.4258061 M103.527034,69.9266267 C96.3052443,69.9266267 90.4303511,75.8019893 90.4303511,83.0237794 C90.4303511,90.2451 96.3052443,96.1204626 103.527034,96.1204626 C110.748824,96.1204626 116.623718,90.2451 116.623718,83.0237794 C116.623718,75.8019893 110.748824,69.9266267 103.527034,69.9266267" id="Fill-40" fill="#000000"></path>
                        <path d="M96.1682542,86.4478271 C96.1682542,86.6792737 96.1875023,86.906495 96.2029947,87.1337164 C97.6428458,89.6937126 100.380769,91.4260408 103.527128,91.4260408 C108.167796,91.4260408 111.929155,87.6642126 111.929155,83.0235447 C111.929155,80.62035 110.915109,78.4584607 109.2978,76.9275332 C108.318025,76.6073576 107.273934,76.4289607 106.18759,76.4289607 C100.653998,76.4289607 96.1682542,80.914705 96.1682542,86.4478271" id="Fill-42" fill="#FF5673"></path>
                        <polygon id="Fill-44" fill="#EA2127" points="53.0480221 122.512319 71.8848618 122.512319 62.4579916 103.733693"></polygon>
                        <polygon id="Fill-46" fill="#EA2127" points="53.0480221 122.512319 71.8848618 122.512319 62.4579916 103.733693"></polygon>
                        <polygon id="Fill-48" fill="#000000" points="62.4542828 93.2619332 74.7899622 117.836113 77.1466798 117.836113 80.0428134 117.836113 62.4505271 82.7900324 44.8892256 117.836113 50.1406683 117.836113"></polygon>
                        <g id="Group-52" transform="translate(47.416031, 117.835878)">
                            <mask id="mask-2" fill="white">
                                <use xlink:href="#path-1"></use>
                            </mask>
                            <g id="Clip-51"></g>
                            <polygon id="Fill-50" fill="#000000" mask="url(#mask-2)" points="2.72445 0.000140839695 2.72445 0.000140839695 0.371957634 4.69479733"></polygon>
                        </g>
                        <g id="Group-55" transform="translate(0.000000, 47.885496)">
                            <mask id="mask-4" fill="white">
                                <use xlink:href="#path-3"></use>
                            </mask>
                            <g id="Clip-54"></g>
                            <path d="M123.321631,1.67674351 C122.367677,0.719033588 121.024535,0.119525954 119.564967,0.120934351 L102.250604,0.120934351 L102.250604,4.81559084 L119.564967,4.81559084 C119.743364,4.81652977 119.882795,4.88084656 120.002509,4.99633511 C120.117997,5.11557939 120.182314,5.25548015 120.182784,5.43340763 L120.182784,64.3461824 L65.5304095,30.1357511 C64.5788027,29.5414076 63.1844897,32.5328427 62.1192721,32.5323733 C61.0531156,32.5328427 60.2991538,29.5414076 59.3470775,30.1357511 L4.69423397,64.3461824 L4.69423397,5.43340763 C4.69564237,5.25548015 4.75995916,5.11557939 4.87544771,4.99633511 C4.99516145,4.88084656 5.13459275,4.81652977 5.31298969,4.81559084 L22.6273523,4.81559084 L22.6273523,0.120934351 L5.31298969,0.120934351 C3.85295153,0.119525954 2.51027977,0.719033588 1.55632557,1.67674351 C0.598615649,2.63069771 -0.000891984733,3.97383893 -0.000422519084,5.43340763 L-0.000422519084,69.3323771 C-0.000891984733,70.7919458 0.598615649,72.135087 1.55632557,73.0890412 C2.51027977,74.0467511 3.85295153,74.6462588 5.31298969,74.6453198 L6.90306985,74.6453198 L42.536921,74.6453198 L44.8894134,69.9506634 L6.90306985,69.9506634 C6.68899351,69.9497244 6.54205076,69.9135756 6.42890954,69.8680374 C6.26131031,69.7985565 6.15849733,69.7037244 6.08526069,69.5985641 C6.01343244,69.4929344 5.98479504,69.3807321 5.98573397,69.3009229 C5.9866729,69.2356672 5.99747061,69.1929458 6.02798588,69.135671 C6.05709275,69.088255 6.10732557,69.0178351 6.2340813,68.9267588 L61.8380622,34.1154115 C61.99815,34.0140069 62.2145737,33.9501595 62.4385088,33.950629 C62.6638523,33.9501595 62.8798065,34.0140069 63.0394248,34.1154115 L118.576272,68.8788733 C118.758894,68.9957702 118.8157,69.0798046 118.849971,69.135671 C118.880486,69.1929458 118.890814,69.2356672 118.891753,69.3009229 C118.8941,69.4070221 118.839642,69.5718046 118.708192,69.6999687 C118.642467,69.7642855 118.561249,69.8215603 118.449047,69.8680374 C118.335906,69.9135756 118.188963,69.9497244 117.974887,69.9506634 L80.0425317,69.9506634 L82.3992492,74.6453198 L117.974887,74.6453198 L119.564967,74.6453198 C121.024535,74.6462588 122.367677,74.0467511 123.321631,73.0890412 C124.279341,72.135087 124.878848,70.7919458 124.87744,69.3323771 L124.87744,5.43340763 C124.878848,3.97383893 124.279341,2.63069771 123.321631,1.67674351" id="Fill-53" fill="#000000" mask="url(#mask-4)"></path>
                        </g>
                        <g id="Group-58" transform="translate(42.251908, 117.835878)">
                            <mask id="mask-6" fill="white">
                                <use xlink:href="#path-5"></use>
                            </mask>
                            <g id="Clip-57"></g>
                            <polygon id="Fill-56" fill="#000000" mask="url(#mask-6)" points="7.88857214 0.000140839695 2.63712939 0.000140839695 0.285106489 4.69479733 5.53607977 4.69479733"></polygon>
                        </g>
                        <g id="Group-61" transform="translate(76.992366, 117.835878)">
                            <mask id="mask-8" fill="white">
                                <use xlink:href="#path-7"></use>
                            </mask>
                            <g id="Clip-60"></g>
                            <polygon id="Fill-59" fill="#000000" mask="url(#mask-8)" points="0.154266412 0.000140839695 0.154266412 4.69479733 5.40664809 4.69479733 3.0504 0.000140839695"></polygon>
                        </g>
                        <g id="Group-64" transform="translate(74.645038, 117.835878)">
                            <mask id="mask-10" fill="white">
                                <use xlink:href="#path-9"></use>
                            </mask>
                            <g id="Clip-63"></g>
                            <path d="M0.145111832,0.000140839695 L2.50182939,4.69479733 L0.145111832,0.000140839695 Z" id="Fill-62" fill="#000000" mask="url(#mask-10)"></path>
                        </g>
                        <g id="Group-67" transform="translate(74.645038, 117.835878)">
                            <mask id="mask-12" fill="white">
                                <use xlink:href="#path-11"></use>
                            </mask>
                            <g id="Clip-66"></g>
                            <polygon id="Fill-65" fill="#000000" mask="url(#mask-12)" points="2.50159466 4.69479733 2.50159466 0.000140839695 0.144877099 0.000140839695"></polygon>
                        </g>
                    </g>
                </g>
            </g>
        </g>
    </g>
</svg>