<?xml version="1.0" encoding="utf-8"?>
<!-- Generator: Adobe Illustrator 16.0.2, SVG Export Plug-In . SVG Version: 6.00 Build 0)  -->
<!DOCTYPE svg PUBLIC "-//W3C//DTD SVG 1.1//EN" "http://www.w3.org/Graphics/SVG/1.1/DTD/svg11.dtd">
<svg version="1.1" id="Layer_1" xmlns="http://www.w3.org/2000/svg" xmlns:xlink="http://www.w3.org/1999/xlink" x="0px" y="0px"
	 width="766.878px" height="767.118px" viewBox="-77.033 12.883 766.878 767.118"
	 enable-background="new -77.033 12.883 766.878 767.118" xml:space="preserve">
<g>
	<g>
		<path fill="#FCFDFD" d="M145,13c180.5,0,361,0.014,541.5-0.094c3.749-0.002,4.596,0.845,4.594,4.594
			C690.987,206,691,394.5,691,583c-0.348,0.036-0.696,0.073-1.044,0.109c-3.521,0.062-4.159,3.496-5.98,5.392
			c-24.073,25.048-52.264,44.308-83.313,59.542c-59.783,29.334-123.6,41.884-189.593,44.825
			c-38.396,1.711-76.552-1.136-114.424-7.817c-52.466-9.256-102.209-25.868-147.599-54.292c-3.189-1.997-5.952-2.16-9.345-0.745
			c-29.671,12.377-60.461,18.189-92.665,15.463c-4.915-2.504-2.539-5.138-0.156-7.802c10.688-11.95,18.725-25.383,23.372-40.83
			c5.673-18.857,4.963-36.27-7.362-53.054c-11.642-15.854-19.856-33.863-27.023-52.21C9.861,425.006,0.334,356.028,5.705,284.845
			c3.417-45.282,12.434-89.281,29.317-131.532c18.121-45.348,43.442-85.793,81.086-117.665c8.877-7.517,18.273-14.42,27.43-21.605
			C144.025,13.694,144.513,13.348,145,13z M205.782,298.578c-0.757,3.16-2.304,4.5-3.528,6.022
			c-31.09,38.689-62.189,77.371-93.311,116.035c-5.831,7.244-9.279,15.306-9.121,24.754c0.104,6.248,0.661,6.863,6.885,6.861
			c42.479-0.015,84.959-0.021,127.438-0.04c2.164-0.001,4.341,0.031,6.49-0.178c7.312-0.711,11.86-5.37,12.295-12.707
			c0.206-3.487,0.041-6.995,0.09-10.492c0.088-6.272-0.377-6.794-6.774-6.797c-31.318-0.016-62.636,0.013-93.954-0.052
			c-1.86-0.003-4.498,1.237-5.442-0.931c-0.717-1.645,1.603-3.03,2.573-4.53c0.27-0.418,0.601-0.799,0.912-1.189
			c30.888-38.847,61.749-77.717,92.691-116.521c5.907-7.407,9.296-15.702,9.921-25.113c0.468-7.044,0.058-7.449-6.906-7.438
			c-24.486,0.042-48.972,0.151-73.458,0.155c-20.822,0.004-41.644-0.03-62.464-0.219c-4.484-0.041-6.315,1.478-6.085,6.122
			c0.312,6.313,0.136,12.653,0.062,18.981c-0.079,6.708,0.559,7.456,7.325,7.444c22.82-0.039,45.64-0.116,68.46-0.167
			C188.342,298.563,196.803,298.578,205.782,298.578z M405.838,382.347c-0.034,0-0.068,0-0.102,0c0-7.326-0.013-14.653,0.002-21.979
			c0.027-14.32,0.076-28.64,0.102-42.959c0.006-2.959-0.087-5.927-4.225-5.896c-6.981,0.053-13.962,0.195-20.943,0.22
			c-3.108,0.011-4.734,1.509-4.656,4.539c0.112,4.342-1.354,4.203-4.563,2.219c-10.655-6.588-22.21-10.264-34.852-10.815
			c-30.24-1.318-57.636,15.918-69.668,44.167c-11.96,28.079-5.144,60.5,17.062,81.15c24.48,22.769,57.536,26.127,87.632,8.727
			c2.868-1.658,4.046-1.79,5.111,1.685c1.772,5.78,6.137,8.477,12.069,8.657c3.658,0.112,7.354-0.218,10.976,0.173
			c4.728,0.507,6.138-1.487,6.11-5.946C405.769,424.973,405.838,403.66,405.838,382.347z M483.841,379.898
			c-0.021,40.386,32.752,73.718,72.586,73.821c40.451,0.105,73.581-32.903,73.604-73.337c0.021-40.807-32.599-73.651-73.107-73.613
			C516.565,306.808,483.863,339.532,483.841,379.898z M462.998,357.831c-0.029,0-0.059,0-0.088,0c0-29.308-0.09-58.615,0.096-87.921
			c0.027-4.434-1.308-5.85-5.675-5.658c-6.98,0.306-13.988,0.239-20.976,0.021c-3.968-0.124-5.499,0.954-5.487,5.318
			c0.153,55.45,0.106,110.9,0.113,166.352c0,1.665-0.058,3.334,0.035,4.993c0.396,7.031,3.896,10.725,10.912,11.112
			c4.813,0.268,9.65,0.07,14.477,0.159c5.96,0.111,6.591-0.461,6.592-6.457C463.001,416.443,462.998,387.137,462.998,357.831z"/>
		<path fill="#015BDE" d="M47.037,645.476c32.204,2.729,62.994-3.085,92.665-15.462c3.393-1.415,6.156-1.252,9.345,0.745
			c45.39,28.424,95.133,45.036,147.599,54.292c37.873,6.683,76.028,9.528,114.424,7.817c65.992-2.941,129.81-15.491,189.593-44.825
			c31.05-15.234,59.239-34.494,83.313-59.542c1.821-1.896,2.459-5.33,5.98-5.392c0.031,58.615,0.063,117.232,0.094,175.85
			c0.532,6.67-1.304,13.452,0.95,20.041c-0.412,0.627,0.972,2.152-1,2c-0.902-1.423-2.338-0.996-3.615-0.996
			c-15.811,0.006-31.62,0.031-47.43,0.052c-2.166-0.019-4.332-0.054-6.499-0.054C481.971,780,331.484,780,180.998,780.003
			c-1.999,0-3.999,0.048-5.998,0.073c0,0,0.043-0.194,0.042-0.193c-0.078-1.678-1.325-2.606-2.351-3.682
			c-5.964-6.241-11.964-12.456-17.932-18.688c-15.163-15.836-30.279-31.716-45.442-47.552
			c-19.548-20.416-39.568-40.379-59.374-60.55C48.798,648.244,47.334,647.282,47.037,645.476z"/>
		<path fill="#4690FD" d="M-77,649c0-168,0-336,0-504c0.32,0.004,0.64,0.017,0.959,0.036c0.014,102.816,0.037,205.632,0.037,308.448
			c0,65.154-0.035,130.311-0.054,195.467C-76.372,648.969-76.686,648.985-77,649z"/>
		<path fill="#4787E7" d="M175,780.076c1.999-0.025,3.999-0.073,5.998-0.073C331.484,780,481.971,780,632.456,780.002
			c2.167,0,4.333,0.035,6.499,0.054c0.031,0.313,0.046,0.63,0.045,0.944c-154.667,0-309.333,0-464,0
			C175.003,780.691,175.003,780.384,175,780.076z"/>
		<path fill="#4690FD" d="M175,780.076c0.002,0.308,0.002,0.615,0,0.924c-75.333,0-150.667,0-226,0c0-0.318,0.012-0.638,0.033-0.956
			c48.895-0.015,97.79-0.019,146.685-0.048c26.442-0.016,52.884-0.074,79.326-0.114L175,780.076z"/>
		<path fill="#4691FD" d="M145,13c-0.487,0.348-0.975,0.694-1.463,1.042C77.371,14.01,11.206,13.978-54.959,13.945
			C-54.98,13.63-54.994,13.315-55,13C11.667,13,78.333,13,145,13z"/>
		<path fill="#4788E7" d="M690.05,758.959c-0.031-58.616-0.063-117.233-0.094-175.85c0.348-0.036,0.696-0.073,1.044-0.109
			c0,58.667,0,117.333,0,176C690.683,759,690.366,758.986,690.05,758.959z"/>
		<path fill="#227CFD" d="M-76.042,145.037c-0.318-0.02-0.638-0.033-0.958-0.037c0-43,0-86,0-129c0.335,0,0.67,0.001,1.005,0.001
			C-76.01,59.013-76.026,102.025-76.042,145.037z"/>
		<path fill="#227CFD" d="M-77,649c0.314-0.015,0.628-0.031,0.943-0.049c0.021,43.017,0.042,86.033,0.063,129.049
			c-0.335,0-0.67,0-1.006,0C-77,735-77,692-77,649z"/>
		<path fill="#2672E2" d="M639,781c0.001-0.315-0.014-0.631-0.045-0.944c15.81-0.021,31.619-0.046,47.43-0.052
			c1.277,0,2.713-0.427,3.615,0.996C673,781,656,781,639,781z"/>
		<path fill="#277FFD" d="M-77,778c0.335,0,0.67,0,1.005,0c0.477,2.732,2.666,1.954,4.311,1.975
			c6.905,0.086,13.811,0.058,20.717,0.07C-50.988,780.362-51,780.682-51,781c-7.833,0-15.679-0.252-23.494,0.123
			C-77.644,781.274-76.952,779.654-77,778z"/>
		<path fill="#277FFD" d="M-75.995,16.001C-76.33,16.001-76.665,16-77,16c0.063-1.585-0.667-3.27,2.398-3.106
			C-68.085,13.241-61.536,13-55,13c0.006,0.315,0.02,0.63,0.04,0.945c-5.579,0.017-11.158-0.016-16.736,0.079
			C-73.34,14.053-75.522,13.274-75.995,16.001z"/>
		<path fill="#2672E2" d="M690.05,758.959c0.316,0.027,0.633,0.041,0.95,0.041c0,6.667,0,13.333,0,20
			C688.746,772.411,690.582,765.629,690.05,758.959z"/>
		<path fill="#0068FD" d="M-75.995,16.001c0.473-2.727,2.655-1.948,4.299-1.977c5.578-0.095,11.157-0.063,16.736-0.079
			c66.166,0.032,132.331,0.064,198.497,0.097c-9.156,7.186-18.552,14.089-27.429,21.605C78.464,67.52,53.143,107.965,35.022,153.313
			c-16.884,42.251-25.901,86.25-29.317,131.532c-5.37,71.184,4.157,140.161,30.164,206.736c7.167,18.347,15.381,36.356,27.023,52.21
			c12.325,16.784,13.035,34.195,7.362,53.054c-4.647,15.447-12.685,28.88-23.372,40.83c-2.383,2.664-4.759,5.298,0.156,7.802
			c0.297,1.807,1.761,2.769,2.908,3.937c19.805,20.171,39.825,40.134,59.374,60.55c15.163,15.836,30.279,31.716,45.442,47.552
			c5.967,6.231,11.967,12.446,17.932,18.688c1.026,1.074,2.273,2.004,2.351,3.682c-26.441,0.039-52.883,0.099-79.325,0.113
			c-48.895,0.029-97.79,0.033-146.685,0.048c-6.905-0.013-13.812,0.017-20.716-0.069c-1.645-0.021-3.834,0.759-4.311-1.975
			c-0.021-43.016-0.041-86.032-0.063-129.049c0.019-65.156,0.053-130.313,0.053-195.467c0-102.816-0.023-205.632-0.037-308.448
			C-76.026,102.025-76.01,59.013-75.995,16.001z"/>
		<path fill="#086AFA" d="M205.782,298.578c-8.979,0-17.44-0.016-25.901,0.003c-22.82,0.051-45.64,0.128-68.46,0.167
			c-6.767,0.012-7.404-0.736-7.325-7.444c0.074-6.328,0.25-12.668-0.062-18.981c-0.23-4.646,1.601-6.163,6.085-6.122
			c20.82,0.188,41.642,0.223,62.464,0.219c24.486-0.004,48.972-0.113,73.458-0.155c6.964-0.012,7.374,0.394,6.906,7.438
			c-0.625,9.411-4.014,17.706-9.921,25.113c-30.942,38.804-61.803,77.674-92.691,116.521c-0.311,0.392-0.642,0.771-0.912,1.189
			c-0.97,1.5-3.29,2.887-2.573,4.53c0.944,2.168,3.582,0.928,5.442,0.931c31.318,0.063,62.636,0.037,93.954,0.052
			c6.397,0.003,6.862,0.523,6.774,6.797c-0.049,3.497,0.116,7.005-0.09,10.492c-0.435,7.337-4.983,11.996-12.295,12.707
			c-2.149,0.209-4.326,0.177-6.49,0.178c-42.479,0.021-84.958,0.025-127.438,0.04c-6.224,0.002-6.781-0.613-6.885-6.861
			c-0.158-9.448,3.291-17.51,9.121-24.754c31.121-38.664,62.221-77.346,93.311-116.035
			C203.478,303.078,205.025,301.738,205.782,298.578z"/>
		<path fill="#086AFA" d="M405.838,382.347c0,21.313-0.069,42.625,0.056,63.938c0.026,4.459-1.384,6.453-6.11,5.946
			c-3.622-0.391-7.316-0.061-10.976-0.173c-5.934-0.182-10.297-2.877-12.069-8.657c-1.065-3.475-2.243-3.343-5.111-1.685
			c-30.096,17.4-63.15,14.042-87.632-8.727c-22.205-20.65-29.021-53.071-17.062-81.15c12.033-28.249,39.428-45.485,69.668-44.167
			c12.642,0.552,24.195,4.228,34.852,10.815c3.209,1.984,4.676,2.123,4.563-2.219c-0.079-3.03,1.547-4.528,4.656-4.539
			c6.981-0.024,13.962-0.167,20.943-0.22c4.138-0.03,4.229,2.938,4.225,5.896c-0.024,14.319-0.073,28.639-0.102,42.959
			c-0.015,7.326-0.002,14.653-0.002,21.979C405.77,382.347,405.804,382.347,405.838,382.347z M375.913,380.28
			c0.036-23.553-18.766-42.632-42.354-42.979c-23.08-0.339-42.579,19.214-42.583,42.701c-0.006,23.631,18.913,42.835,42.319,42.96
			C356.523,423.086,375.876,403.704,375.913,380.28z"/>
		<path fill="#0769FA" d="M483.841,379.898c0.022-40.366,32.726-73.091,73.081-73.129c40.51-0.038,73.129,32.807,73.107,73.613
			c-0.021,40.434-33.151,73.442-73.604,73.337C516.593,453.616,483.819,420.284,483.841,379.898z M556.859,423.104
			c23.989-0.001,42.865-18.692,43.069-42.649c0.205-24.057-18.917-43.366-42.937-43.357c-23.902,0.009-42.937,18.899-43.05,42.73
			C513.828,404.007,532.766,423.104,556.859,423.104z"/>
		<path fill="#086AFA" d="M462.998,357.831c0,29.306,0.003,58.612-0.001,87.919c-0.001,5.996-0.632,6.568-6.592,6.457
			c-4.825-0.089-9.662,0.107-14.477-0.159c-7.016-0.389-10.516-4.081-10.912-11.112c-0.093-1.659-0.036-3.328-0.036-4.993
			c-0.006-55.45,0.04-110.9-0.112-166.352c-0.013-4.364,1.521-5.442,5.486-5.318c6.987,0.219,13.995,0.285,20.977-0.021
			c4.367-0.191,5.702,1.225,5.675,5.658c-0.186,29.306-0.096,58.613-0.096,87.921C462.939,357.831,462.969,357.831,462.998,357.831z
			"/>
		<path fill="#F8FBFD" d="M375.913,380.28c-0.037,23.424-19.39,42.806-42.618,42.683c-23.406-0.125-42.325-19.329-42.319-42.96
			c0.005-23.487,19.504-43.04,42.583-42.701C357.147,337.648,375.949,356.728,375.913,380.28z"/>
		<path fill="#F8FBFD" d="M556.859,423.104c-24.095,0.002-43.031-19.097-42.916-43.276c0.113-23.831,19.146-42.722,43.05-42.73
			c24.02-0.009,43.142,19.301,42.937,43.357C599.726,404.41,580.85,423.103,556.859,423.104z"/>
	</g>
</g>
</svg>
