<?xml version="1.0" encoding="UTF-8"?>
<svg width="109px" height="123px" viewBox="0 0 109 123" version="1.1" xmlns="http://www.w3.org/2000/svg" xmlns:xlink="http://www.w3.org/1999/xlink">
    <!-- Generator: Sketch 53.2 (72643) - https://sketchapp.com -->
    <title>Group 36</title>
    <desc>Created with Sketch.</desc>
    <defs>
        <polygon id="path-1" points="9.3271833e-05 0.22097934 108.761134 0.22097934 108.761134 40.9158111 9.3271833e-05 40.9158111"></polygon>
    </defs>
    <g id="Page-1" stroke="none" stroke-width="1" fill="none" fill-rule="evenodd">
        <g id="Office-365" transform="translate(-455.000000, -3815.000000)">
            <g id="Group-36" transform="translate(455.000000, 3815.000000)">
                <path d="M82.5748512,55.6550501 C82.2511465,53.338508 81.9271884,51.0222185 81.6037372,48.7056764 C80.311707,44.2774238 77.9808814,40.4326004 74.6112605,37.170701 C69.2915535,32.4759906 62.752314,29.514393 55.3851814,29.514393 C51.6419186,29.3785121 48.1498628,30.1291405 44.9097744,31.7657729 C41.538886,32.8199864 38.6219953,34.6217975 36.1593558,37.170701 C33.5078674,39.5385142 31.6338279,42.3427626 30.5372372,45.5834464 C28.8350628,48.6988571 28.0545721,52.0559741 28.1957651,55.6550501 C28.5194698,57.9713396 28.8429209,60.2878817 29.1668791,62.6044238 C30.4586558,67.0326764 32.7897349,70.8774998 36.1593558,74.1393992 C41.4790628,78.8341097 48.0183023,81.7957072 55.3851814,81.7957072 C59.1286977,81.9313355 62.6205,81.1809598 65.8605884,79.5443273 C69.2314767,78.4901138 72.1483674,76.6883027 74.6112605,74.1393992 C77.2627488,71.771586 79.1367884,68.9673376 80.2333791,65.7264012 C81.9355535,62.6112431 82.7160442,59.2541261 82.5748512,55.6550501" id="Fill-1" fill="#FF9E00"></path>
                <path d="M78.6398498,55.6550501 C78.339466,53.338508 78.0393358,51.0222185 77.7392056,48.7056764 C76.5412195,44.2774238 74.3797242,40.4326004 71.254466,37.170701 C66.3213288,32.4759906 60.2571265,29.514393 53.4251079,29.514393 C49.9538381,29.3785121 46.7155242,30.1291405 43.710673,31.7657729 C40.5846544,32.8199864 37.87968,34.6217975 35.5957498,37.170701 C33.1369126,39.5385142 31.3992498,42.3427626 30.3822544,45.5834464 C28.8035288,48.6988571 28.0798195,52.0559741 28.2106195,55.6550501 C28.5107498,57.9713396 28.8111335,60.2878817 29.1112637,62.6044238 C30.3092498,67.0326764 32.4707451,70.8774998 35.5957498,74.1393992 C40.5291405,78.8341097 46.5933428,81.7957072 53.4251079,81.7957072 C56.8968847,81.9313355 60.1349451,81.1809598 63.1400498,79.5443273 C66.2660684,78.4901138 68.9707893,76.6883027 71.254466,74.1393992 C73.7135567,71.771586 75.451473,68.9673376 76.4684684,65.7264012 C78.0469405,62.6112431 78.7709033,59.2541261 78.6398498,55.6550501" id="Fill-3" fill="#FFDF4A"></path>
                <path d="M102.420228,92.9222064 C99.9750788,92.4819825 97.4886114,92.5996786 95.1582928,93.5091715 C93.9060602,93.9978881 92.8586463,94.6626437 91.8834765,95.430194 C88.5987742,95.950229 85.7850533,97.8113932 83.41443,100.13627 C81.5444463,100.548964 79.7211044,101.07102 78.390037,102.688709 C78.1788812,102.94557 78.0136067,103.228697 77.9066347,103.525463 C77.9735556,102.942286 77.8158858,102.357342 77.3852091,101.940102 C77.5426253,101.726935 77.6625253,101.493564 77.7276719,101.258171 C77.996623,100.282254 77.5203184,99.3957444 76.7375463,98.8337834 C73.7392858,96.6826725 70.2137695,95.1960647 66.5577067,94.6293049 C64.676316,94.3375903 62.8215416,94.2547485 60.9208858,94.3492084 C58.9066672,94.4494774 57.0498649,94.5052947 55.1160021,93.8524097 C53.3446253,93.2543316 51.6827556,92.3759045 49.9232928,91.7442351 C48.066237,91.0777115 46.1384579,90.633194 44.186344,90.3538552 C43.0791067,90.1954959 41.9706021,90.088155 40.86083,90.0161735 C40.6947951,89.0104528 39.8116416,88.1024754 38.723416,88.1542515 C36.761416,88.2477012 34.8047393,88.3898963 32.8521184,88.5727546 C32.2320858,88.3762577 31.59583,88.22396 30.9266207,88.1524836 C28.914937,87.9372967 26.975244,88.5032988 25.4786486,89.8722105 C25.1115974,90.2076191 24.9126091,90.6887587 24.8697695,91.1853049 C23.4020719,91.6444713 22.0345021,92.3415554 20.8747928,93.4409784 C20.0674323,94.2062556 20.075544,95.1518655 20.5031788,95.887845 C20.1799812,96.1409168 19.9465184,96.5063809 19.8780765,96.9933296 C19.1863067,101.919896 18.863616,106.861112 18.9994858,111.836171 C19.0397905,113.30712 20.3384114,114.17898 21.7270207,113.905956 C24.6963835,113.322527 27.7407788,113.781946 30.6944253,114.243385 C33.7933207,114.727808 36.8775137,115.102617 40.0159533,115.191015 C41.2800998,115.226375 42.5439928,115.227638 43.8076323,115.21804 C47.2735788,117.158005 50.987437,118.561013 54.976837,119.136866 C64.7232114,120.543915 74.3083672,117.157247 80.8004579,109.847208 C81.015923,109.80705 81.2318951,109.769165 81.4473602,109.728755 C82.0346928,109.617878 82.5193626,109.167804 82.793637,108.616451 C83.7698207,108.202746 84.7353579,107.761765 85.6823905,107.271785 C88.5224742,105.80311 91.0099556,103.769948 93.6951579,102.053252 C96.6754207,100.148141 99.80803,98.4961016 102.934556,96.8458306 C104.491988,96.0239784 104.254977,93.2525637 102.420228,92.9222064" id="Fill-5" fill="#FFEBB7"></path>
                <path d="M102.420228,92.9222064 C102.420228,92.9222064 68.2712881,116.60741 64.2930416,116.832194 C59.8192253,117.084761 41.8446184,114.946278 42.4836626,115.222839 C54.3692253,120.368128 66.5366672,120.97934 66.5366672,120.97934 L104.813411,97.2582721 L106.714574,94.480038 L102.420228,92.9222064 Z" id="Fill-7" fill="#D4C499"></path>
                <path d="M74.5216523,99.9119402 C74.5216523,99.9119402 74.1817244,99.8823899 73.5865337,99.8338971 C69.4288174,99.4972257 52.8167105,98.2563653 52.5949081,99.9119402 C52.3414198,101.804423 52.6838826,103.767877 53.6205221,103.77899 C78.7042105,104.077523 78.3901384,102.688659 78.3901384,102.688659 L77.9437453,98.6473386 L74.5216523,99.9119402 Z" id="Fill-9" fill="#D4C499"></path>
                <path d="M21.4158384,114.685377 L21.4158384,94.7326047 C21.4158384,94.7326047 29.7809547,88.5447197 37.7658384,92.080654 C44.2297919,95.1114548 49.6797919,97.0057053 56.5239779,96.6268552 C63.8751407,96.5005719 68.8075174,97.0057053 68.8075174,97.0057053 C71.3530477,97.6371222 74.268164,99.9650298 75.5356058,102.652592 C78.3901384,102.688709 77.9437453,98.6473891 77.9437453,98.6473891 L69.5786291,94.1011879 L55.6453872,93.469771 L39.9204895,88.9235698 L26.8658384,88.1080318 L18.9691686,90.8178203 L18.8809547,113.29626 L21.4158384,114.685377 Z" id="Fill-11" fill="#FFFFFF"></path>
                <path d="M2.79853698,117.736156 L10.3420974,101.00462 L17.8993463,117.737924 C18.4468812,117.145907 18.8025253,116.207369 18.8025253,115.147599 L18.8025253,89.3544739 C18.8025253,87.5625129 17.7908533,86.1097491 16.54293,86.1097491 L4.15672767,86.1097491 C2.90905791,86.1097491 1.89713233,87.5625129 1.89713233,89.3544739 L1.89713233,115.147599 C1.89713233,116.206359 2.25201605,117.143887 2.79853698,117.736156" id="Fill-13" fill="#00D0DC"></path>
                <path d="M15.9457874,84.8647214 C15.9724037,85.0177768 15.989134,85.1748733 15.989134,85.3355057 L15.989134,107.1699 C15.989134,107.978619 15.6350107,108.701212 15.0765758,109.203315 L16.0705037,111.175861 C16.7384456,110.674516 17.1721642,109.880194 17.1721642,108.983077 L17.1721642,87.1486823 C17.1721642,86.1960006 16.6849595,85.3572265 15.9457874,84.8647214" id="Fill-15" fill="#39B1BD"></path>
                <path d="M5.38046814,113.445476 L5.38046814,90.5742955 C5.38046814,88.9853982 6.26691698,87.6973078 7.36021233,87.6973078 L18.2112891,87.6973078 C18.7628798,87.6973078 19.2612379,88.0256446 19.6201774,88.5540142 C19.476196,87.1712113 18.6571751,86.1099259 17.6652751,86.1099259 L5.63522395,85.9558602 C4.5419286,85.9558602 4.83445419,87.3980162 3.57664488,88.9237719 L3.57664488,111.794953 C3.14444721,113.17422 4.33508209,113.575548 5.40454953,113.86802 C5.3901007,113.729866 5.38046814,113.589439 5.38046814,113.445476" id="Fill-17" fill="#FFFFFF"></path>
                <g id="Group-21" transform="translate(0.000000, 82.084189)">
                    <mask id="mask-2" fill="white">
                        <use xlink:href="#path-1"></use>
                    </mask>
                    <g id="Clip-20"></g>
                    <path d="M69.6429898,34.8582505 C65.2439526,36.8363532 60.3313479,37.3821499 55.6030293,36.4198706 L30.7601549,29.4715072 C27.9639247,28.6845092 24.9709874,29.0105729 22.4135433,30.3807474 L20.2814526,31.5185606 L20.8520549,10.8573388 C27.607013,6.380846 36.2704851,5.92092197 43.4644851,9.65562628 L44.9542363,10.4249446 C47.5588293,11.7645585 50.4308526,12.5035688 53.3606712,12.5881786 L68.0046944,12.9892546 C72.1177967,13.1074559 75.6108665,16.0256119 76.4453502,20.0409179 L54.6331828,19.4408193 C53.5147921,19.4102587 52.5844898,20.2889384 52.5528037,21.4022526 C52.5221316,22.516577 53.4037642,23.4445072 54.5213944,23.4750678 L78.5929037,24.1350246 L78.6491781,24.1350246 C79.7457688,24.1340144 80.6426107,23.2641745 80.6722688,22.1725811 C80.6968572,21.295922 80.6317107,20.418 80.4763223,19.5549795 L96.7459665,11.8956407 C96.7616828,11.8888214 96.7776526,11.8807392 96.7933688,11.8729097 C99.101127,10.7098398 101.891527,11.0987926 103.789648,12.8493326 L69.6429898,34.8582505 Z M108.498955,12.3598583 C105.817555,7.6191807 99.8704642,5.81358111 94.990813,8.25968994 L79.1287781,15.7268255 C76.9386386,11.6683306 72.7378293,9.08507803 68.1144549,8.95500616 L53.4711921,8.55418275 C51.1527874,8.48826283 48.8777293,7.90281314 46.8161084,6.84178029 L45.3261037,6.07246201 C37.6971177,2.11044764 28.6037293,2.12029774 20.9826014,6.09822382 L21.0756316,2.73479261 C21.1063037,1.62072074 20.2251781,0.692790554 19.1070409,0.662229979 L3.05007349,0.221753593 C1.93193628,0.191193018 1.00138047,1.06911499 0.97096186,2.18318686 L0.000861860465,37.2914784 C-0.0102916279,37.6971006 0.100482791,38.0772136 0.298203721,38.3992361 C0.43534093,38.236078 0.621654884,38.1007023 0.863229302,38.0133142 C1.46044791,37.7973696 2.09366186,37.6960903 2.60114558,37.3028439 C2.90913395,36.4597762 3.51497116,35.6922259 4.11421767,35.0547474 L4.18899674,32.3487474 L4.19710837,32.0519815 L4.96340372,4.31131417 L16.9714014,4.64015606 L16.14072,34.7208542 C16.490534,34.8590082 16.8127177,35.0880862 17.0925688,35.4568337 C17.4826874,35.9700493 17.5670991,36.5974251 17.883706,37.1419589 C18.2190712,37.7185688 18.8150223,38.20577 19.2852433,38.7103984 C19.420606,38.6603901 19.573206,38.6310924 19.7443107,38.6310924 C19.803627,38.6310924 19.8596479,38.635386 19.9146549,38.6417002 C20.0297386,38.3982259 20.0989409,38.128232 20.1067991,37.8420739 L20.1531874,36.1625051 L24.3245921,33.9371396 C25.9618735,33.0594702 27.8759642,32.8505975 29.6645781,33.3549733 L54.5748805,40.3207639 C54.6184805,40.3336448 54.6615735,40.3434949 54.7061874,40.353345 C56.5067153,40.7286591 58.3417177,40.9165688 60.1807758,40.9158111 C64.0763851,40.9175791 67.92662,40.0815832 71.4670921,38.4618727 C71.5540386,38.4224723 71.6381967,38.3762526 71.7185526,38.3239713 L107.835576,15.0474209 C108.735206,14.4670226 109.025957,13.289809 108.498955,12.3598583 L108.498955,12.3598583 Z" id="Fill-19" fill="#000000" mask="url(#mask-2)"></path>
                </g>
                <polygon id="Fill-22" fill="#EA2127" points="5.38171023 120.979315 15.3301149 120.979315 10.3513498 110.876645"></polygon>
                <path d="M10.3556591,99.5047269 L1.35378,118.197191 L1.08077302,118.764456 L0.297747442,120.462715 C0.998896279,120.920366 1.7484614,121.263856 2.6204614,121.325735 L3.8541893,118.764456 L10.3574335,105.259713 L16.8725916,118.764456 L18.108094,121.325735 C18.9803474,121.263856 19.7005079,120.920618 20.4019102,120.462715 L19.6467684,118.764456 L10.3556591,99.5047269 Z" id="Fill-24" fill="#000000"></path>
                <path d="M55.8135007,67.1280961 C55.5853612,67.0788456 55.3508844,67.0700057 55.1194495,67.1043548 C52.8007914,66.8356238 51.0519751,64.8812624 51.0479193,62.5558805 C51.0479193,61.4418086 50.1411914,60.53863 49.0230542,60.53863 C47.9046635,60.53863 46.9981891,61.4418086 46.9981891,62.5558805 C47.0040193,66.4385889 49.6101333,69.8391474 53.3675914,70.8668415 L53.3675914,72.8843446 C53.3675914,73.9984164 54.2743193,74.9018476 55.3924565,74.9018476 C56.5105937,74.9018476 57.4173216,73.9984164 57.4173216,72.8843446 L57.4173216,70.9888312 C61.7540007,70.0843897 64.70131,66.0599914 64.2455379,61.6696238 C63.7887519,57.2787511 60.0759077,53.942092 55.6454379,53.9410817 C53.1062449,53.9410817 51.0479193,51.8899873 51.0479193,49.3600263 C51.0479193,46.8305704 53.1062449,44.779476 55.6454379,44.779476 C58.1846309,44.779476 60.24321,46.8305704 60.24321,49.3600263 C60.24321,50.4746033 61.1496844,51.3777819 62.2680751,51.3777819 C63.3862123,51.3777819 64.2929402,50.4746033 64.2929402,49.3600263 C64.28711,45.2838517 61.4206635,41.7678702 57.4173216,40.9265704 L57.4173216,39.0901577 C57.4173216,37.9760858 56.5105937,37.0726546 55.3924565,37.0726546 C54.2743193,37.0726546 53.3675914,37.9760858 53.3675914,39.0901577 L53.3675914,41.0495704 C49.1890891,42.1863733 46.4998309,46.2284513 47.074996,50.5061741 C47.6506681,54.7833918 51.3138286,57.9763405 55.6454379,57.9753302 C58.150917,57.9753302 60.1945402,59.9741433 60.2401681,62.4695027 C60.2865565,64.964862 58.3169519,67.0376772 55.8135007,67.1280961" id="Fill-26" fill="#000000"></path>
                <path d="M55.6454126,30.8919172 C69.6260567,30.8919172 80.9587614,42.1834183 80.9587614,56.1132314 C80.9587614,70.0432971 69.6260567,81.3347982 55.6454126,81.3347982 C41.6650219,81.3347982 30.3320637,70.0432971 30.3320637,56.1132314 C30.34778,42.1902376 41.671866,30.9075764 55.6454126,30.8919172 M26.28208,56.1132314 C26.28208,72.2714409 39.4282405,85.3698043 55.6454126,85.3698043 C71.8628381,85.3698043 85.0087451,72.2714409 85.0087451,56.1132314 C85.0087451,39.9552745 71.8628381,26.8566585 55.6454126,26.8566585 C39.4363521,26.8745908 26.3008381,39.9631041 26.28208,56.1132314" id="Fill-28" fill="#000000"></path>
                <path d="M57.6703537,21.1843632 L57.6703537,2.01757885 C57.6703537,0.903254415 56.7638793,7.57700205e-05 55.6454886,7.57700205e-05 C54.5273514,7.57700205e-05 53.62037,0.903254415 53.62037,2.01757885 L53.62037,21.1843632 C53.62037,22.2984351 54.5273514,23.2018663 55.6454886,23.2018663 C56.7638793,23.2018663 57.6703537,22.2984351 57.6703537,21.1843632" id="Fill-30" fill="#000000"></path>
                <path d="M72.8573744,21.1843632 L72.8573744,12.1053468 C72.8573744,10.9912749 71.9506465,10.0878437 70.8325093,10.0878437 C69.7141186,10.0878437 68.8073907,10.9912749 68.8073907,12.1053468 L68.8073907,21.1843632 C68.8073907,22.2984351 69.7141186,23.2018663 70.8325093,23.2018663 C71.9506465,23.2018663 72.8573744,22.2984351 72.8573744,21.1843632" id="Fill-32" fill="#000000"></path>
                <path d="M42.4835865,21.1843632 L42.4835865,12.1053468 C42.4835865,10.9912749 41.5768586,10.0878437 40.4587214,10.0878437 C39.3405842,10.0878437 38.4336028,10.9912749 38.4336028,12.1053468 L38.4336028,21.1843632 C38.4336028,22.2984351 39.3405842,23.2018663 40.4587214,23.2018663 C41.5768586,23.2018663 42.4835865,22.2984351 42.4835865,21.1843632" id="Fill-34" fill="#000000"></path>
            </g>
        </g>
    </g>
</svg>