<svg id="Layer_1" data-name="Layer 1" xmlns="http://www.w3.org/2000/svg" viewBox="0 0 46.4 46.4"><title>icon_trangchu_bott</title><style>path{fill:#d6d6d7;}</style><path d="M40.55,38.58A23.14,23.14,0,0,0,40.1,7.33h0A23.13,23.13,0,0,0,24,0H22.4A23.15,23.15,0,0,0,6.31,7.32h0a23.14,23.14,0,0,0-.45,31.25v0l0,0A23.16,23.16,0,0,0,22.4,46.38H24a23.1,23.1,0,0,0,16.5-7.75l0,0s0,0,0,0ZM1.62,24h9.6a29.49,29.49,0,0,0,1.94,9.77,29.72,29.72,0,0,0-6.5,3.31A21.54,21.54,0,0,1,1.62,24ZM7.1,8.82a29.92,29.92,0,0,0,6.32,3.11,29.61,29.61,0,0,0-2.2,10.47H1.62A21.51,21.51,0,0,1,7.1,8.82ZM44.78,22.4h-9.6A29.61,29.61,0,0,0,33,11.93,29.92,29.92,0,0,0,39.3,8.82,21.51,21.51,0,0,1,44.78,22.4ZM22.4,12a28.07,28.07,0,0,1-6.78-1A28.21,28.21,0,0,1,22.4,2.11Zm0,1.6V22.4H12.82a27.87,27.87,0,0,1,2.14-10,29.39,29.39,0,0,0,7.44,1.15Zm1.6,0a29.6,29.6,0,0,0,7.45-1.15,28.08,28.08,0,0,1,2.13,10H24ZM24,12V2.11A27.92,27.92,0,0,1,30.78,11,28.07,28.07,0,0,1,24,12Zm8.33-1.51A29.57,29.57,0,0,0,26,1.79,21.46,21.46,0,0,1,38.16,7.65a28.71,28.71,0,0,1-5.83,2.81Zm-18.26,0A28.71,28.71,0,0,1,8.24,7.65,21.46,21.46,0,0,1,20.38,1.79a29.57,29.57,0,0,0-6.31,8.67ZM12.82,24H22.4v8a29.44,29.44,0,0,0-7.73,1.23A28.06,28.06,0,0,1,12.82,24Zm9.58,9.63V44.29a28,28,0,0,1-7.11-9.54,27.84,27.84,0,0,1,7.11-1.12ZM24,44.29V33.63a27.7,27.7,0,0,1,7.1,1.12A27.88,27.88,0,0,1,24,44.29ZM24,32V24h9.58a27.92,27.92,0,0,1-1.85,9.27A29.11,29.11,0,0,0,24,32Zm11.18-8h9.6a21.49,21.49,0,0,1-5.05,13.08,29.8,29.8,0,0,0-6.48-3.31A29.48,29.48,0,0,0,35.18,24ZM7.75,38.28a27.86,27.86,0,0,1,6-3,29.32,29.32,0,0,0,6.61,9.36A21.63,21.63,0,0,1,7.75,38.28ZM26,44.61a29.48,29.48,0,0,0,6.61-9.36,28.09,28.09,0,0,1,6,3A21.63,21.63,0,0,1,26,44.61Zm0,0"/></svg>