<svg id="Layer_1" data-name="Layer 1" xmlns="http://www.w3.org/2000/svg" xmlns:xlink="http://www.w3.org/1999/xlink" viewBox="0 0 3206.11 2133.19"><defs><style>.cls-1,.cls-16,.cls-2{fill:#fff;}.cls-1,.cls-3,.cls-4,.cls-6{fill-rule:evenodd;}.cls-12,.cls-2,.cls-7,.cls-8{stroke:#000;stroke-miterlimit:10;}.cls-2{stroke-width:55.08px;}.cls-3{fill:#ffebb7;}.cls-4{fill:#d4c499;}.cls-5{mask:url(#mask);}.cls-7{fill:#5059c9;}.cls-12,.cls-7,.cls-8{stroke-width:52px;}.cls-8{fill:#7b83eb;}.cls-9{fill:#6d74b5;}.cls-10,.cls-11{fill:#525aa7;}.cls-10{opacity:0.6;}.cls-11{opacity:0.35;}.cls-12{fill:none;}.cls-13,.cls-14{fill:#373c6c;}.cls-13{opacity:0.7;}.cls-15{fill:#535cc4;}</style><mask id="mask" x="2172.13" y="237.9" width="1033.97" height="1382.57" maskUnits="userSpaceOnUse"><g id="mask-2"><polygon id="path-1" class="cls-1" points="2172.13 237.9 3206.11 237.9 3206.11 1620.47 2172.13 1620.47 2172.13 237.9"/></g></mask></defs><title>Logo Microsoft Teams_LIKE</title><rect class="cls-2" x="27.54" y="453.33" width="1225.74" height="1266.38" rx="117.83"/><path id="Fill-1" class="cls-3" d="M3106.58,1000.2a41.45,41.45,0,0,1,1.82-64.62c28.8-22.24,44.17-48.73,41.75-88.83-3.74-62.38-57.88-82.39-107.32-82.39h-347a41.28,41.28,0,0,1-41-45.74c9.14-84.15,26.69-257.85,19.6-289.73-8.29-37.34-19.33-123.13-107.22-134.92a41.23,41.23,0,0,0-45.94,33.81l-32.72,185.79a41.79,41.79,0,0,1-4.88,13.42L2233.33,962.05a41.31,41.31,0,0,0-5.5,20.59v429.15l1.41,103.49a41,41,0,0,0,24.61,37.23c15.28,6.57,39.87,12.26,79.21,12.26h577.6a39.52,39.52,0,0,0,6.15-.47c13.79-2.17,64.57-13.55,77.76-64.28,7.21-27.73,2.91-53.64-6.84-75.5-11.2-25.1,3.82-54.48,31-58.46,37-5.43,59-19.65,68.8-56.72,10.62-40,10.48-64.16-5.93-90.13-12.62-20-5.53-46.37,15.1-57.93,35.51-19.89,55.78-44.82,53.22-81.47-2.11-30.22-18.91-58.76-43.36-79.61"/><path id="Fill-5" class="cls-4" d="M3106.58,1000.2a41.44,41.44,0,0,1,1.82-64.61c28.8-22.25,44.17-48.74,41.75-88.84-3.08-51.46-40.47-74-81.23-80.39,20.26,12.8,34.8,33.41,36.68,64.68,2.41,40.11-13,66.59-41.76,88.83a41.46,41.46,0,0,0-1.83,64.61c24.47,20.85,41.27,49.39,43.37,79.61,2.56,36.65-17.72,61.57-53.23,81.48-20.61,11.55-27.72,37.94-15.09,57.92,16.4,26,16.56,50.13,5.94,90.14-9.84,37.07-31.84,51.29-68.81,56.71-27.2,4-42.22,33.37-31,58.47,9.75,21.86,14,47.77,6.83,75.5-13.19,50.73-64,62.1-77.75,64.28a39.55,39.55,0,0,1-6.16.46H2288.5a296.54,296.54,0,0,1-45.07-3.09,40,40,0,0,0,10.42,6.55c15.28,6.57,39.87,12.26,79.21,12.26h577.6a39.52,39.52,0,0,0,6.15-.47c13.79-2.17,64.57-13.55,77.76-64.28,7.21-27.73,2.91-53.64-6.84-75.5-11.2-25.1,3.82-54.48,31-58.46,37-5.43,59-19.65,68.8-56.72,10.62-40,10.48-64.16-5.93-90.13-12.63-20-5.53-46.37,15.1-57.93,35.51-19.89,55.78-44.82,53.22-81.47-2.11-30.22-18.91-58.76-43.36-79.61"/><g id="Group-11"><g class="cls-5"><path id="Fill-9" class="cls-6" d="M3106.58,1000.2c24.45,20.85,41.25,49.39,43.36,79.61,2.56,36.65-17.71,61.58-53.22,81.47-20.63,11.56-27.73,38-15.1,57.93,16.41,26,16.55,50.12,5.93,90.13-9.83,37.07-31.82,51.29-68.8,56.72-27.2,4-42.22,33.36-31,58.46,9.75,21.86,14.05,47.77,6.84,75.5-13.19,50.73-64,62.11-77.76,64.28a39.52,39.52,0,0,1-6.15.47h-577.6c-39.34,0-63.93-5.69-79.21-12.26a41,41,0,0,1-24.61-37.23l-1.41-103.49V982.65a41.32,41.32,0,0,1,5.5-20.6L2483.64,527a41.7,41.7,0,0,0,4.88-13.42l32.72-185.79A41.23,41.23,0,0,1,2567.18,294c87.89,11.79,98.93,97.58,107.23,134.92,7.08,31.88-10.47,205.59-19.61,289.73a41.28,41.28,0,0,0,41,45.74h347c49.44,0,103.58,20,107.32,82.39,2.42,40.1-13,66.59-41.75,88.84a41.44,41.44,0,0,0-1.82,64.61m48.39-31c37.19-33.71,53.83-75,50.78-125.8-4.92-81.86-68.87-134.75-162.92-134.75H2711.89c26.56-248.32,19.8-278.72,16.89-291.85-.56-2.51-1.13-5.28-1.75-8.23-8.73-42-31.91-153.64-152.44-169.81a95.73,95.73,0,0,0-12.87-.87,96.77,96.77,0,0,0-95.33,80.21l-32.3,183.3-249,432.87a97.24,97.24,0,0,0-12.92,48.37v429.14l1.42,104.25a96.74,96.74,0,0,0,58.32,87.65c25.91,11.13,60,16.78,101.19,16.78h577.6a95.21,95.21,0,0,0,14.85-1.15c48.18-7.62,105.8-39.26,123-105.27a167.36,167.36,0,0,0-3.64-96.33c51.4-12.33,83.07-43.25,96.57-94.1,10-37.85,16-78.52-5.29-121.06,61.5-39.61,71.95-90.18,69.4-126.63-2.71-38.58-20.89-76.7-50.54-106.72"/></g></g><circle class="cls-7" cx="1990.61" cy="436.02" r="232.47"/><path class="cls-7" d="M2359.24,902.92v519.9c0,200.72-162.72,363.42-363.42,363.42s-363.41-162.7-363.41-363.42V902.92a95.45,95.45,0,0,1,95.43-95.46h536A95.47,95.47,0,0,1,2359.24,902.92Z"/><path class="cls-8" d="M1617.78,351.41c0,171-131.85,311.16-299.42,324.39q-12.85,1-26,1c-158.59,0-290.68-113.43-319.56-263.59A328,328,0,0,1,967,351.41C967,171.69,1112.64,26,1292.37,26S1617.78,171.69,1617.78,351.41Z"/><path class="cls-8" d="M1885.16,902.92v618.83c0,323.33-262.1,585.44-585.43,585.44s-585.47-262.11-585.47-585.44V902.92a95.47,95.47,0,0,1,95.46-95.46h980A95.45,95.45,0,0,1,1885.16,902.92Z"/><path class="cls-9" d="M1318.35,833.76v780.3c0,43.13-22.55,81.14-56.82,103.5a130.23,130.23,0,0,1-71.37,21.07l-406.36-.15q-7.72-18.68-14.81-38.93a744.88,744.88,0,0,1-37-165.1l-6.09-103.28H714.25V926.52a90.73,90.73,0,0,1,20.14-57l0,0a94.5,94.5,0,0,1,15.86-15.55,96.81,96.81,0,0,1,59.42-20.17Z"/><path class="cls-10" d="M1279.53,833.76v819.55a117.44,117.44,0,0,1-12.08,53.87,109.74,109.74,0,0,1-5.92,10.38c-33.84,52.6-102.49,61.75-110.19,62.65H802.94c-3.83-7.83-9.18-19-15.31-32.92-.81-1.84-2.22-5-3.83-8.81-3.91-9.14-9.08-21.88-14.73-37.83-8.79-72.67-24.52-128.76-37.09-166.2-29.23-87.09-74-163.82-56.55-268.34V1266c.09-.54,1.86-2.59,38.81-38.91l3.16-3.11q-1.62-9.51-3.16-18.63c-30.72-181.84-39.14-253.34-38.82-277.13,0-.56,0-1,59-58.74l0,0,15.86-15.55,20.6-20.17Z"/><path class="cls-11" d="M1318.36,541.44V675.8q-12.85,1-26,1c-158.59,0-290.68-113.43-319.56-263.59h217.36A128.2,128.2,0,0,1,1318.36,541.44Z"/><path class="cls-12" d="M1617.78,351.41c0,171-131.85,311.16-299.42,324.39q-12.85,1-26,1c-158.59,0-290.68-113.43-319.56-263.59A328,328,0,0,1,967,351.41C967,171.69,1112.64,26,1292.37,26S1617.78,171.69,1617.78,351.41Z"/><path class="cls-13" d="M1277.61,556.24v1010.4a133.07,133.07,0,0,1-133.07,133.07H741.8q-3.24-10.32-6.32-21.36-2.61-9.4-4.82-18.43,7.35-43.51,14.71-87L84,556.24A77.23,77.23,0,0,1,161.22,479H1200.38A77.23,77.23,0,0,1,1277.61,556.24Z"/><path class="cls-14" d="M1236.83,576.36v1026c0,53.76-42.17,97.36-94.18,97.36H150.11c-52,0-94.18-43.6-94.18-97.36v-1026c0-53.78,42.17-97.35,94.18-97.35h992.54C1194.66,479,1236.83,522.58,1236.83,576.36Z"/><path class="cls-15" d="M1142.65,479H150.11a94.18,94.18,0,0,0-94.19,94.18v992.54a94.2,94.2,0,0,0,94.19,94.19h992.54a94.19,94.19,0,0,0,94.18-94.19V573.19A94.17,94.17,0,0,0,1142.65,479ZM905.37,854.69H707.72v541.44H577.89V854.69H383.52V748.51H905.37Z"/><polygon class="cls-16" points="905.36 748.51 905.36 854.69 707.71 854.69 707.71 1396.13 577.88 1396.13 577.88 854.69 383.52 854.69 383.52 748.51 905.36 748.51"/></svg>