<?xml version="1.0" encoding="utf-8"?>
<!-- Generator: Adobe Illustrator 21.1.0, SVG Export Plug-In . SVG Version: 6.00 Build 0)  -->
<svg version="1.1" id="Layer_1" xmlns="http://www.w3.org/2000/svg" xmlns:xlink="http://www.w3.org/1999/xlink" x="0px" y="0px"
	 viewBox="0 0 311.9 90.8" style="enable-background:new 0 0 311.9 90.8;" xml:space="preserve">
<style type="text/css">
	.st0{fill:#EC2227;}
	.st1{fill:#F26F24;}
	.st2{fill:#EB2027;}
	.st3{fill:none;}
	.st4{fill:#EF5425;}
	.st5{fill:#5FBA46;}
	.st6{fill:#EE3D25;}
	.st7{fill:#ffffff;}
</style>
<path class="st7" d="M147.2,4.7h18.6v86.1h-18.6V63.5h-30v27.4H98.6V4.7h18.6v39.4h30.4L147.2,4.7z"/>
<path class="st7" d="M224.4,4.7h18.9v66.8h36.6v19.4h-55.5V4.7z"/>
<polygon class="st7" points="311.9,4.7 294,4.7 294,20.9 311.9,4.7 "/>
<polygon class="st7" points="294,29.7 294,90.8 311.9,90.8 311.9,13.5 "/>
<polygon class="st7" points="204.3,4.7 186.3,4.7 186.3,20.9 204.3,4.7 "/>
<polygon class="st7" points="186.3,29.7 186.3,90.8 204.3,90.8 204.3,13.5 "/>
<path class="st7" d="M57,65l-2.5,1.7C55.4,66.2,56.2,65.6,57,65z"/>
<path class="st7" d="M48.1,69.3l-1,0.2L13.9,78c2.8,2.7,6,5.1,9.5,7L48,69.3L48.1,69.3z"/>
<path class="st7" d="M76.2,11.7c-2.5-2.4-5.3-4.4-8.3-6c-3.3-1.9-6.8-3.3-10.5-4.3C53.2,0.4,48.9,0,44.5,0C38.7,0.1,33,1.4,27.6,3.6
	c-5.2,2.1-9.9,5.3-13.9,9.2c-4.3,4-7.7,8.9-10.1,14.2C1.2,32.8-0.1,39,0,45.3c-0.1,6.3,1.2,12.5,3.7,18.2c0.6,1.4,1.3,2.8,2.1,4.2
	h30.1c-2.5-1.3-5.5-2.9-7.1-4.9c-0.4-0.5-0.9-1-1.3-1.6c-4.2-4.2-6.6-9.9-6.7-15.9c0-3.6,0.9-7.2,2.6-10.3c1.8-3.9,4.8-7.2,8.4-9.6
	c2.5-1.8,5.4-3,8.4-3.6c2-0.6,4.1-0.9,6.2-0.9c7.4,0.1,14.4,3.8,18.5,9.9c0.4,0.4,0.7,0.8,1,1.2L84,21
	C81.7,17.7,79.1,14.6,76.2,11.7z"/>
<path class="st7" d="M57,65L57,65c-0.8,0.6-1.6,1.2-2.5,1.7L25.9,86.2c0.6,0.3,1.3,0.6,1.9,0.8c4,1.6,8.2,2.6,12.5,3L57,65L57,65z"
	/>
<path class="st7" d="M65.7,56c-0.8,1.5-1.7,2.9-2.8,4.2l0,0l-20.5,30c1.1,0.1,2.3,0.1,3.4,0.1c8-0.1,15.8-2.1,22.8-6
	C74.8,81,80.5,75,84.9,67.6L65.7,56z"/>
<path class="st7" d="M6.7,69.1c1.5,2.4,3.2,4.7,5.1,6.7l32.5-6.6l-5.3-0.1H6.7z"/>
</svg>
