<?xml version="1.0" encoding="utf-8"?>
<!-- Generator: Adobe Illustrator 21.1.0, SVG Export Plug-In . SVG Version: 6.00 Build 0)  -->
<svg version="1.1" id="Layer_1" xmlns="http://www.w3.org/2000/svg" xmlns:xlink="http://www.w3.org/1999/xlink" x="0px" y="0px"
	 viewBox="0 0 319.3 154.6" style="enable-background:new 0 0 319.3 154.6;" xml:space="preserve">
<style type="text/css">
	.st0{fill:#EC1C24;}
	.st1{fill:#AEAEAE;}
	.st2{fill:#ffffff;}
</style>
<path class="st2" d="M32.1,126.6c-3.6,3.5-8.4,5.4-13.4,5.2c-13.1,0-18.6-9-18.7-18.2s5.9-18.6,18.7-18.6c4.9,0,9.5,1.9,12.9,5.4
	l-4.4,4.3c-2.3-2.2-5.3-3.4-8.5-3.3c-8.5,0-12.2,6.3-12.1,12.2s3.4,11.9,12.1,11.9c3.3,0,6.5-1.3,8.9-3.6L32.1,126.6z"/>
<polygon class="st2" points="42,95.8 42,124.9 60.1,124.9 60.1,131.1 35.3,131.1 35.3,95.8 "/>
<path class="st2" d="M98.4,113.6c-0.1,9.1-5.7,18.2-18.1,18.2s-18.1-8.9-18.1-18.2s5.9-18.6,18.1-18.6S98.5,104.4,98.4,113.6
	 M68.7,113.8c0.2,5.8,3.3,12,11.6,12s11.4-6.3,11.5-12s-3.2-12.6-11.5-12.6S68.6,107.9,68.7,113.8"/>
<path class="st2" d="M134.2,95.9v20.2c0,10.4-6.4,15.8-15.3,15.8c-8.5,0-15.7-5.1-15.7-15.8V95.9h6.6v20.2c0,6.3,3.6,9.7,9.1,9.7
	s8.6-3.7,8.6-9.7V95.9H134.2z"/>
<path class="st2" d="M171.7,113.1c0.1,8.9-5.3,17.9-17.6,17.9h-13.8V95.8h13.9C166.2,95.8,171.6,104.4,171.7,113.1 M146.8,124.7h7.3
	c8,0,11.2-5.8,11-11.6c-0.1-5.5-3.4-11-11-11h-7.3V124.7z"/>
<polygon class="st2" points="186.3,131.1 186.3,95.9 211.6,95.9 211.6,102.3 192.9,102.3 192.9,111.9 210.6,111.9 210.6,118 
	192.9,118 192.9,131.1 "/>
<path class="st2" d="M251.9,113.6c-0.1,9.1-5.7,18.2-18.1,18.2s-18.1-8.9-18.1-18.2s5.9-18.6,18.1-18.6S252,104.4,251.9,113.6
	 M222.2,113.8c0.1,5.8,3.3,12,11.6,12s11.4-6.3,11.5-12s-3.2-12.6-11.5-12.6S222.1,107.9,222.2,113.8"/>
<polygon class="st2" points="280,95.8 286.6,95.8 286.6,131.1 282.5,131.1 282.5,131.1 264,107.3 264,131.1 257.3,131.1 257.3,95.8 
	262.7,95.8 280,117.7 "/>
<polygon class="st2" points="292.6,131.1 319,131.1 319,124.5 299.2,124.5 299.2,116.6 318.3,116.6 318.3,110.4 299.2,110.4 
	292.6,110.4 "/>
<polygon class="st2" points="319,102.3 319,95.8 292.6,95.8 292.6,102.3 299.2,102.3 "/>
<rect x="13.9" y="145.7" class="st2" width="248.6" height="2.7"/>
<path class="st2" d="M97,45.2c7.6-12.8,18.6-14.6,23.1-14.6h44.7l13.2,17.5h0.6c5.8,0,10.5,4.7,10.5,10.5s-4.7,10.5-10.5,10.5
	s-10.5-4.7-10.5-10.5c0-1.3,0.2-2.6,0.7-3.8l-9.2-12.3H128c-2.8,0-8.1-0.6-14.7,2.1s-11.2,13.9-6.6,23s13.1,9.6,16.5,9.6h17.5
	l9.7,12h-28.5c-3,0-9.8-0.4-18.9-7.3S89.4,58,97,45.2"/>
<path class="st2" d="M144.6,70.2c-5.8,0-10.5-4.7-10.5-10.5s4.7-10.5,10.5-10.5c5.8,0,10.5,4.7,10.5,10.5c0,1.4-0.3,2.8-0.8,4.1
	l10.4,13.7h35c2.8,0,9.5-1.1,14.1-9.8s-1.3-18.4-4.7-21.3s-11-7.3-18.6-2.9c0.6-6.3-1.5-20.8-14.8-28.3s-30.5-6.6-41.6,9.1h-12.3
	c4.4-10.4,13-18.4,23.7-21.9c17.9-5.8,32.4,0,39.8,6.2s12.4,12.4,15,22.9c8.8,0.6,17.6,5.1,23.7,16.8s-0.3,26.1-4.9,30.6
	s-10,10.2-23.1,10.2h-37.2l-13.7-18.9L144.6,70.2"/>
<path class="st2" d="M282.8,152.7c0,1-0.8,1.9-1.9,1.9s-1.9-0.8-1.9-1.9s0.8-1.9,1.9-1.9S282.8,151.7,282.8,152.7"/>
<polygon class="st2" points="292,154.4 288.4,154.4 280.9,136.3 284.8,136.3 290.2,150.4 295.6,136.3 299.4,136.3 "/>
<polygon class="st2" points="315.9,136.3 319.3,136.3 319.3,154.3 317.2,154.3 317.2,154.4 307.7,142.2 307.7,154.3 304.3,154.3 
	304.3,136.3 307.1,136.3 315.9,147.5 "/>
</svg>
