<?xml version="1.0" encoding="utf-8"?>
<!-- Generator: Adobe Illustrator 21.1.0, SVG Export Plug-In . SVG Version: 6.00 Build 0)  -->
<svg version="1.1" id="Layer_1" xmlns="http://www.w3.org/2000/svg" xmlns:xlink="http://www.w3.org/1999/xlink" x="0px" y="0px"
	 viewBox="0 0 73.3 22.8" style="enable-background:new 0 0 73.3 22.8;" xml:space="preserve">
<style type="text/css">
	.st0{fill:#E82429;}
	.st1{fill:#F17125;}
	.st2{fill:#AEAEAE;}
	.st3{fill:#808066;}
</style>
<path class="st0" d="M73.1,7.7c0-2.9-2.3-5.2-5.2-5.2c-2.5,0-4.6,1.7-5.1,4.2h0.1c0.5-2,2.5-3.1,4.5-2.6C69,4.5,70.1,6,70.1,7.6
	c0,0.7-0.1,1.4-0.5,2c0,0,0,0.1,0,0.1c-1.4,2.9-4.8,4.1-7.7,2.7c-2-1-3.3-3-3.3-5.3l0,0c0,4,3.2,7.3,7.2,7.3c3.2,0,6.1-2.1,7-5.2
	l0,0C73.1,8.8,73.2,8.3,73.1,7.7"/>
<path class="st1" d="M67.1,0.1c-3.4-0.5-6.7,1.4-7.9,4.6l0,0c0,0,0,0.1-0.1,0.2L59,5.2l0,0c-0.2,0.7-0.3,1.4-0.3,2.1l0,0
	c0.1,2.9,2.5,5.1,5.3,5c2.4-0.1,4.5-1.8,4.9-4.2l0,0c-0.5,2-2.5,3.1-4.5,2.6c-1.7-0.4-2.8-2-2.7-3.7l0,0c0-0.5,0.1-0.9,0.2-1.4l0,0
	c1-3,4.3-4.6,7.3-3.5c2.4,0.8,3.9,3.1,3.9,5.5l0,0C73.4,3.9,70.7,0.7,67.1,0.1"/>
<polygon class="st0" points="12.8,14.5 12.8,0.8 6.7,6 0,0.7 0,3.2 0,4.3 0,14.6 3.1,14.6 3.1,6.8 6.7,9.7 9.9,7 9.9,14.5 "/>
<polygon class="st0" points="34.9,1 25.4,1 25.4,4 28.8,4 28.8,14.5 31.6,14.5 31.6,4 34.9,4 "/>
<polygon class="st0" points="53.8,7 57.8,14.5 60.8,14.5 53.7,0.7 46.6,14.5 49.9,14.5 53.7,7.1 "/>
<polygon class="st1" points="52.1,14.5 53.8,11.3 55.4,14.5 "/>
<polygon class="st0" points="24.7,14.5 27.7,14.5 20.7,0.7 13.6,14.5 16.8,14.5 20.7,6.6 "/>
<polygon class="st1" points="19.1,14.5 20.7,10.9 22.3,14.5 "/>
<path class="st0" d="M45.8,7.3c0.5-0.7,0.8-1.5,0.8-2.3c0-2.1-1.6-3.8-3.7-4c-0.2,0-0.4,0-0.6,0h-6.5v13.5h7.5c2.2,0,4-1.8,4-4
	C47.4,9.2,46.8,8.1,45.8,7.3 M43.1,11.6h-4.4V3.3h3.6c0.8-0.1,1.5,0.5,1.6,1.3c0.1,0.8-0.5,1.5-1.3,1.6c-0.1,0-0.2,0-0.2,0h-1.9v2.5
	h2.7c0.8,0,1.4,0.6,1.4,1.4C44.5,11,43.9,11.6,43.1,11.6"/>
<path class="st2" d="M61.3,18.2c0.4-0.1,0.7-0.1,1.1-0.1c0.4,0,0.9,0.1,1.3,0.3c0.3,0.2,0.4,0.5,0.4,0.8c0,0.5-0.3,0.9-0.8,1l0,0
	c0.5,0.1,0.9,0.6,0.9,1.1c0,0.3-0.1,0.7-0.4,0.9c-0.5,0.3-1,0.5-1.6,0.4c-0.3,0-0.6,0-0.9-0.1L61.3,18.2z M61.9,20h0.5
	c0.6,0,1-0.3,1-0.8s-0.4-0.7-1-0.7c-0.2,0-0.3,0-0.5,0L61.9,20z M61.9,22.2c0.2,0,0.3,0,0.5,0c0.6,0,1.2-0.2,1.2-0.9
	s-0.5-0.9-1.2-0.9h-0.5V22.2z"/>
<path class="st2" d="M65.3,18.2c0.4-0.1,0.8-0.1,1.1-0.1c0.5,0,0.9,0.1,1.3,0.4c0.3,0.3,0.4,0.6,0.4,1c0,0.4-0.1,0.7-0.4,1
	c-0.4,0.4-0.9,0.5-1.4,0.5c-0.2,0-0.3,0-0.5,0v1.8h-0.6V18.2z M65.9,20.4c0.2,0,0.3,0.1,0.5,0c0.7,0,1.2-0.3,1.2-1s-0.4-0.9-1.1-0.9
	c-0.2,0-0.4,0-0.6,0V20.4z"/>
<path class="st2" d="M73.3,20.3c0.1,1.2-0.7,2.2-1.9,2.4c-0.1,0-0.2,0-0.3,0c-1.2,0-2.1-1-2-2.2c0-0.1,0-0.1,0-0.2
	C69,19.2,69.8,18.2,71,18c0.1,0,0.1,0,0.2,0c1.1,0,2.1,0.9,2.1,2.1C73.3,20.2,73.3,20.3,73.3,20.3z M69.7,20.4c0,1,0.5,1.9,1.5,1.9
	s1.5-0.9,1.5-1.9s-0.5-1.9-1.5-1.9S69.7,19.4,69.7,20.4z"/>
</svg>
