<?xml version="1.0" encoding="UTF-8"?>
<svg width="82px" height="58px" viewBox="0 0 82 58" version="1.1" xmlns="http://www.w3.org/2000/svg" xmlns:xlink="http://www.w3.org/1999/xlink">
    <!-- Generator: Sketch 53.2 (72643) - https://sketchapp.com -->
    <title>Group 8</title>
    <desc>Created with Sketch.</desc>
    <defs>
        <polygon id="path-1" points="0.000128125 0.309687778 82 0.309687778 82 57.3555556 0.000128125 57.3555556"></polygon>
    </defs>
    <g id="Page-1" stroke="none" stroke-width="1" fill="none" fill-rule="evenodd">
        <g id="Office-365" transform="translate(-260.000000, -663.000000)">
            <g id="Group-8" transform="translate(260.000000, 663.000000)">
                <path d="M68.7070953,34.72373 C68.7070953,35.1522856 68.3614781,35.4999633 67.9351422,35.4999633 L39.5205406,35.4999633 C39.0942047,35.4999633 38.7489078,35.1526078 38.7489078,34.72373 L38.7489078,32.8976967 C38.7489078,32.4691411 39.0942047,32.1214633 39.5205406,32.1214633 L67.9351422,32.1214633 C68.3614781,32.1214633 68.7070953,32.4691411 68.7070953,32.8980189 L68.7070953,34.72373 Z M67.9351422,28.8995633 L39.5202203,28.8995633 C37.3286422,28.8995633 35.5454625,30.6930522 35.5454625,32.8976967 L35.5454625,34.72373 C35.5454625,36.9286967 37.3286422,38.7221856 39.5202203,38.7221856 L67.9351422,38.7221856 C70.1270406,38.7221856 71.9102203,36.9286967 71.9102203,34.72373 L71.9102203,32.8980189 C71.9102203,30.6930522 70.1270406,28.8995633 67.9351422,28.8995633 L67.9351422,28.8995633 Z" id="Fill-1" fill="#FC4649"></path>
                <g id="Group-5" transform="translate(0.000000, 0.012889)">
                    <mask id="mask-2" fill="white">
                        <use xlink:href="#path-1"></use>
                    </mask>
                    <g id="Clip-4"></g>
                    <path d="M14.0647297,22.2546322 C13.6383938,22.2546322 13.2930969,21.9072767 13.2930969,21.4783989 L13.2930969,12.4751878 C13.2930969,12.04631 13.6383938,11.6989544 14.0647297,11.6989544 L67.9352063,11.6989544 C68.3615422,11.6989544 68.7071594,12.0466322 68.7071594,12.4751878 L68.7071594,21.4783989 C68.7071594,21.9072767 68.3615422,22.2546322 67.9352063,22.2546322 L14.0647297,22.2546322 Z M78.7970031,42.8781433 C78.7970031,43.3063767 78.4507453,43.6546989 78.02505,43.6546989 L53.6896281,43.6546989 L51.4628156,43.6546989 L30.8869016,43.6546989 L28.6594484,43.6546989 L16.899175,43.6546989 L18.5292453,38.7092322 L25.1059016,38.7092322 C27.6584719,38.7092322 29.7356984,36.6199433 29.7356984,34.05151 L29.7356984,33.54401 C29.7356984,30.9755767 27.6584719,28.88661 25.1059016,28.88661 L21.7666438,28.88661 L22.8906203,25.4768544 L67.9352063,25.4768544 C70.1267844,25.4768544 71.9102844,23.6833656 71.9102844,21.4783989 L71.9102844,12.4751878 C71.9102844,10.2705433 70.1267844,8.47673222 67.9352063,8.47673222 L14.0647297,8.47673222 C11.8728313,8.47673222 10.0899719,10.2705433 10.0899719,12.4751878 L10.0899719,21.4783989 C10.0899719,23.6833656 11.8728313,25.4768544 14.0647297,25.4768544 L16.3511203,25.4768544 L3.20325313,29.8729322 L3.20325313,4.30814333 C3.20325313,3.87991 3.54919063,3.53158778 3.97488594,3.53158778 L78.02505,3.53158778 C78.4507453,3.53158778 78.7970031,3.87991 78.7970031,4.30814333 L78.7970031,42.8781433 Z M20.7044875,32.10851 L25.1059016,32.10851 C25.8938703,32.10851 26.5325734,32.7510211 26.5325734,33.54401 L26.5325734,34.05151 C26.5325734,34.8444989 25.8938703,35.48701 25.1059016,35.48701 L19.5910813,35.48701 L20.7044875,32.10851 Z M57.0881438,54.1333656 L28.5973078,54.1333656 L25.334925,54.1333656 L28.9896906,52.33891 L29.8670266,48.32241 L30.1825344,46.8769211 L52.1668625,46.8769211 L52.4737219,48.28181 L53.3510578,52.29831 L54.1995656,52.7149433 L57.0881438,54.1333656 Z M78.02505,0.309687778 L3.97488594,0.309687778 C1.77946406,0.309687778 0.000128125,2.09963222 0.000128125,4.30814333 L0.000128125,34.3392544 L3.20325313,33.26851 L18.6500031,28.10361 L13.5243625,43.6546989 L12.4625266,46.8765989 L26.903175,46.8765989 L26.903175,46.8769211 L26.1933625,50.12621 L24.6574641,50.88021 L22.1894563,52.09241 C21.7397375,52.31281 21.4543391,52.7722989 21.4543391,53.27561 L21.4543391,54.1333656 L21.4543391,56.0386656 C21.4543391,56.7659211 22.0405109,57.3555878 22.7634563,57.3555878 L24.6139016,57.3555878 L24.6574641,57.3555878 L27.8935813,57.3555878 L57.3421516,57.3555878 L59.2361594,57.3555878 C59.959425,57.3555878 60.5452766,56.7659211 60.5452766,56.0386656 L60.5452766,55.8308322 L60.5452766,54.1333656 L60.5452766,53.0680989 C60.5452766,52.5644656 60.2601984,52.1052989 59.8104797,51.8845767 L57.3421516,50.6723767 L56.1473859,50.0859322 L55.4462219,46.8769211 L55.4462219,46.8765989 L78.02505,46.8765989 C80.2204719,46.8765989 82.0001281,45.0863322 82.0001281,42.8781433 L82.0001281,4.30814333 C82.0001281,2.09963222 80.2204719,0.309687778 78.02505,0.309687778 L78.02505,0.309687778 Z" id="Fill-3" fill="#FC4649" mask="url(#mask-2)"></path>
                </g>
                <polygon id="Fill-6" fill="#FC4649" points="6.40625e-05 37.7476889 9.08765 46.8894556 13.5995719 33.2008111"></polygon>
            </g>
        </g>
    </g>
</svg>