<?xml version="1.0" encoding="UTF-8"?>
<svg width="93px" height="123px" viewBox="0 0 93 123" version="1.1" xmlns="http://www.w3.org/2000/svg" xmlns:xlink="http://www.w3.org/1999/xlink">
    <!-- Generator: Sketch 53.2 (72643) - https://sketchapp.com -->
    <title>Group 39</title>
    <desc>Created with Sketch.</desc>
    <defs>
        <polygon id="path-1" points="0 9.609375e-05 92.9071852 9.609375e-05 92.9071852 123 0 123"></polygon>
        <polygon id="path-3" points="0.0889828125 0.0751453125 28.5244687 0.0751453125 28.5244687 30.2695313 0.0889828125 30.2695313"></polygon>
        <polygon id="path-5" points="0.197520703 9.609375e-05 7.30749727 9.609375e-05 7.30749727 4.8046875 0.197520703 4.8046875"></polygon>
        <polygon id="path-7" points="0.176908594 0.0990726562 4.9815 0.0990726562 4.9815 34.7067562 0.176908594 34.7067562"></polygon>
    </defs>
    <g id="Page-1" stroke="none" stroke-width="1" fill="none" fill-rule="evenodd">
        <g id="Office-365" transform="translate(-73.000000, -2955.000000)">
            <g id="Group-20" transform="translate(73.000000, 2955.000000)">
                <g id="Group-39">
                    <path d="M79.3984219,63.8751973 L75.699293,59.9742715 L56.3373633,39.5533887 L51.5514141,67.2735527 L50.637082,72.5697598 L50.6764805,72.5572676 L64.4721797,118.195553 L81.3318281,118.195553 C85.0717969,118.195553 88.1025937,115.163795 88.1025937,111.424787 L88.1025937,92.8056621 L79.3609453,63.886248 L79.3984219,63.8751973 Z" id="Fill-1" fill="#00DCAD"></path>
                    <path d="M79.3613297,63.8864883 L79.3983258,63.8754375 L75.6996773,59.9740313 L56.3377477,39.5531484 L55.8467086,42.396082 L72.8168648,60.2940234 L76.5155133,64.1959102 L76.4785172,64.2069609 L85.2201656,93.1254141 L85.2201656,111.744539 C85.2201656,114.766688 83.2396734,117.324703 80.5062867,118.195312 L81.332693,118.195312 C85.0717008,118.195312 88.1029781,115.164035 88.1029781,111.424547 L88.1029781,92.8054219 L79.3613297,63.8864883 Z" id="Fill-3" fill="#44A087"></path>
                    <polygon id="Fill-5" fill="#FFFFFF" points="53.3189145 74.7195691 53.279516 74.7315809 54.193848 69.4358543 58.8889887 42.2442059 56.3372191 39.5535809 51.5512699 67.2737449 50.6369379 72.5694715 50.6763363 72.5574598 64.4720355 118.195264 66.4611762 118.195264"></polygon>
                    <path d="M81.3320203,4.80478359 L11.5751648,4.80478359 C7.83615703,4.80478359 4.80487969,7.83606094 4.80487969,11.5755492 L4.80487969,111.424643 C4.80487969,115.163651 7.83615703,118.195409 11.5751648,118.195409 L58.8148523,118.195409 L45.4928953,74.1244125 L46.4072273,68.8286859 L53.2327664,29.2957172 L80.8453055,58.4183695 L84.5444344,62.3197758 L88.1027859,74.0912602 L88.1027859,11.5755492 C88.1027859,7.83606094 85.0715086,4.80478359 81.3320203,4.80478359" id="Fill-7" fill="#FFEBB7"></path>
                    <path d="M7.20703125,115.108013 L7.20703125,15.2589187 C7.20703125,11.5194305 10.2383086,8.48815312 13.9777969,8.48815312 L83.7341719,8.48815312 C85.3029023,8.48815312 86.7428672,9.02675859 87.8911875,9.92187187 C87.1522266,6.983325 84.5000391,4.80487969 81.3318281,4.80487969 L11.5754531,4.80487969 C7.83644531,4.80487969 4.8046875,7.83567656 4.8046875,11.5756453 L4.8046875,111.424739 C4.8046875,113.595497 5.83048828,115.522177 7.4184375,116.761305 C7.28534766,116.231348 7.20703125,115.67929 7.20703125,115.108013" id="Fill-9" fill="#FFFFFF"></path>
                    <g id="Group-13">
                        <mask id="mask-2" fill="white">
                            <use xlink:href="#path-1"></use>
                        </mask>
                        <g id="Clip-12"></g>
                        <path d="M11.575357,118.195409 C7.83634922,118.195409 4.80459141,115.163651 4.80459141,111.424643 L4.80459141,11.5755492 C4.80459141,7.83606094 7.83634922,4.80478359 11.575357,4.80478359 L81.3322125,4.80478359 C85.0717008,4.80478359 88.1024977,7.83606094 88.1024977,11.5755492 L88.1024977,74.0912602 L92.9071852,89.9846859 L92.9071852,6.77086172 C92.9071852,3.03137344 89.8759078,9.609375e-05 86.1369,9.609375e-05 L6.77066953,9.609375e-05 C3.03118125,9.609375e-05 -9.609375e-05,3.03137344 -9.609375e-05,6.77086172 L-9.609375e-05,116.22933 C-9.609375e-05,119.968338 3.03118125,123.000096 6.77066953,123.000096 L60.2675016,123.000096 L58.8145641,118.195409 L11.575357,118.195409 Z" id="Fill-11" fill="#000000" mask="url(#mask-2)"></path>
                    </g>
                    <g id="Group-16" transform="translate(64.382812, 92.730469)">
                        <mask id="mask-4" fill="white">
                            <use xlink:href="#path-3"></use>
                        </mask>
                        <g id="Clip-15"></g>
                        <path d="M23.7198773,18.6942703 C23.7198773,22.4332781 20.6886,25.4650359 16.9491117,25.4650359 L0.0889828125,25.4650359 L1.54192031,30.2697234 L21.7537992,30.2697234 C25.492807,30.2697234 28.5245648,27.2379656 28.5245648,23.4989578 L28.5245648,15.9685711 L23.7198773,0.0751453125 L23.7198773,18.6942703 Z" id="Fill-14" fill="#000000" mask="url(#mask-4)"></path>
                    </g>
                    <polygon id="Fill-17" fill="#000000" points="80.8454496 58.4183215 53.2324301 29.2956691 46.406891 68.8286379 45.4930395 74.1243645 58.814516 118.195361 64.4720355 118.195361 50.6763363 72.5575559 50.6369379 72.5695676 51.5512699 67.273841 56.3372191 39.5531965 75.6991488 59.9740793 79.3982777 63.8750051 79.3608012 63.8865363 88.1024496 92.8054699 88.1024496 74.0912121 84.544098 62.3197277"></polygon>
                    <g id="Group-21" transform="translate(58.617188, 118.195312)">
                        <mask id="mask-6" fill="white">
                            <use xlink:href="#path-5"></use>
                        </mask>
                        <g id="Clip-20"></g>
                        <polygon id="Fill-19" fill="#000000" mask="url(#mask-6)" points="0.197520703 9.609375e-05 1.64997773 4.80478359 7.30749727 4.80478359 5.85455977 9.609375e-05"></polygon>
                    </g>
                    <g id="Group-24" transform="translate(87.925781, 73.992188)">
                        <mask id="mask-8" fill="white">
                            <use xlink:href="#path-7"></use>
                        </mask>
                        <g id="Clip-23"></g>
                        <polygon id="Fill-22" fill="#000000" mask="url(#mask-8)" points="0.176908594 0.0990726562 0.176908594 18.8133305 4.98159609 34.7067562 4.98159609 15.9924984"></polygon>
                    </g>
                    <polygon id="Fill-25" fill="#EA2127" points="55.7850645 70.9940145 74.2384277 65.4162527 59.4423926 49.8106277"></polygon>
                    <path d="M84.9374098,113.780621 L84.9374098,113.780621 C83.6670504,114.164516 82.3265426,113.446215 81.9431285,112.176336 L70.2413121,73.466891 C69.8574176,72.1965316 70.5757184,70.8560238 71.8455973,70.4721293 C73.1159566,70.0877543 74.4569449,70.8065355 74.840359,72.0764145 L86.5421754,110.78634 C86.9260699,112.055739 86.2077691,113.396727 84.9374098,113.780621" id="Fill-27" fill="#000000"></path>
                    <path d="M73.6693605,117.187097 L73.6693605,117.187097 C72.3994816,117.570991 71.0584934,116.852691 70.6750793,115.582331 L58.9732629,76.8728859 C58.5893684,75.603007 59.3076691,74.2620187 60.5780285,73.8781242 C61.8479074,73.4942297 63.1888957,74.2130109 63.5723098,75.4824094 L75.2741262,114.192335 C75.6580207,115.462214 74.9397199,116.802722 73.6693605,117.187097" id="Fill-29" fill="#000000"></path>
                    <path d="M80.3203934,20.1797836 L12.5867918,20.1797836 C11.8569598,20.1797836 11.2650223,19.5883266 11.2650223,18.8580141 L11.2650223,16.6968656 C11.2650223,15.9665531 11.8569598,15.3750961 12.5867918,15.3750961 L80.3203934,15.3750961 C81.0507059,15.3750961 81.6421629,15.9665531 81.6421629,16.6968656 L81.6421629,18.8580141 C81.6421629,19.5883266 81.0507059,20.1797836 80.3203934,20.1797836" id="Fill-31" fill="#000000"></path>
                    <path d="M46.0935773,29.0806594 L12.5871281,29.0806594 C11.8568156,29.0806594 11.2653586,28.4892023 11.2653586,27.7593703 L11.2653586,25.5977414 C11.2653586,24.8679094 11.8568156,24.2759719 12.5871281,24.2759719 L46.0935773,24.2759719 C46.8234094,24.2759719 47.4153469,24.8679094 47.4153469,25.5977414 L47.4153469,27.7593703 C47.4153469,28.4892023 46.8234094,29.0806594 46.0935773,29.0806594" id="Fill-33" fill="#000000"></path>
                    <path d="M46.0935773,37.9819676 L12.5871281,37.9819676 C11.8568156,37.9819676 11.2653586,37.3905105 11.2653586,36.660198 L11.2653586,34.4990496 C11.2653586,33.7687371 11.8568156,33.1772801 12.5871281,33.1772801 L46.0935773,33.1772801 C46.8234094,33.1772801 47.4153469,33.7687371 47.4153469,34.4990496 L47.4153469,36.660198 C47.4153469,37.3905105 46.8234094,37.9819676 46.0935773,37.9819676" id="Fill-35" fill="#000000"></path>
                    <path d="M46.0935773,46.8833238 L12.5871281,46.8833238 C11.8568156,46.8833238 11.2653586,46.2918668 11.2653586,45.5615543 L11.2653586,43.4004059 C11.2653586,42.6700934 11.8568156,42.0786363 12.5871281,42.0786363 L46.0935773,42.0786363 C46.8234094,42.0786363 47.4153469,42.6700934 47.4153469,43.4004059 L47.4153469,45.5615543 C47.4153469,46.2918668 46.8234094,46.8833238 46.0935773,46.8833238" id="Fill-37" fill="#000000"></path>
                </g>
            </g>
        </g>
    </g>
</svg>