<svg id="Layer_1" data-name="Layer 1" xmlns="http://www.w3.org/2000/svg" viewBox="0 0 60 60"><defs><style>.cls-1{fill:#78b32c;}.cls-2,.cls-3{fill:#fff;}.cls-3{font-size:12px;font-family:Roboto-Regular, Roboto;}.cls-4{letter-spacing:-0.01em;}.cls-5{letter-spacing:-0.01em;}</style></defs><title>Icon MB net_trangchu</title><path class="cls-1" d="M30,0A30,30,0,1,0,60,30,30,30,0,0,0,30,0Z"/><path class="cls-1" d="M25,35.28H35s-.5,3.49-5,3.45C25.35,38.69,25,35.28,25,35.28Z"/><path class="cls-2" d="M37.2,27.06a6.61,6.61,0,0,0-2.59-1.68l-1.74,1.91a30.81,30.81,0,0,1-3.93-3.14,27.76,27.76,0,0,1-3-4.48l1.74-1.91a10.53,10.53,0,0,0-1.77-3.27,4.48,4.48,0,0,0-2.3-1.42s-2.39,2-2.53,3.68c-.18,2.23,1.18,6.15,4.57,9.86s7.88,6.19,9.92,6c1.53-.16,3.37-2.7,3.37-2.7A9.78,9.78,0,0,0,37.2,27.06Z"/><text class="cls-3" transform="translate(18.43 44.94)"><tspan class="cls-4">F</tspan><tspan class="cls-5" x="6.48" y="0">r</tspan><tspan x="10.43" y="0">ee</tspan></text></svg>