<?xml version="1.0" encoding="UTF-8"?>
<svg width="52px" height="66px" viewBox="0 0 52 66" version="1.1" xmlns="http://www.w3.org/2000/svg" xmlns:xlink="http://www.w3.org/1999/xlink">
    <!-- Generator: Sketch 53.2 (72643) - https://sketchapp.com -->
    <title>Group 31</title>
    <desc>Created with Sketch.</desc>
    <g id="Page-1" stroke="none" stroke-width="1" fill="none" fill-rule="evenodd">
        <g id="Office-365" transform="translate(-773.000000, -655.000000)" fill="#FC4649">
            <g id="Group-31" transform="translate(773.000000, 655.000000)">
                <polygon id="Fill-1" points="20.9420019 65.9683985 30.830381 65.9683985 25.8820019 56.1540268"></polygon>
                <polygon id="Fill-2" points="5.50731754 30.0653309 7.97177251 30.0653309 7.97177251 25.1582677 5.50731754 25.1582677"></polygon>
                <polygon id="Fill-3" points="10.9291185 30.0653309 13.3935735 30.0653309 13.3935735 25.1582677 10.9291185 25.1582677"></polygon>
                <polygon id="Fill-4" points="5.50731754 37.7532268 7.97177251 37.7532268 7.97177251 32.8461636 5.50731754 32.8461636"></polygon>
                <polygon id="Fill-5" points="10.9291185 37.7532268 13.3935735 37.7532268 13.3935735 32.8461636 10.9291185 32.8461636"></polygon>
                <polygon id="Fill-6" points="5.50731754 45.4408773 7.97177251 45.4408773 7.97177251 40.5338141 5.50731754 40.5338141"></polygon>
                <polygon id="Fill-7" points="10.9291185 45.4408773 13.3935735 45.4408773 13.3935735 40.5338141 10.9291185 40.5338141"></polygon>
                <polygon id="Fill-8" points="5.50731754 53.1285279 7.97177251 53.1285279 7.97177251 48.2214647 5.50731754 48.2214647"></polygon>
                <polygon id="Fill-9" points="10.9291185 53.1285279 13.3935735 53.1285279 13.3935735 48.2214647 10.9291185 48.2214647"></polygon>
                <polygon id="Fill-10" points="5.50731754 60.8164238 7.97177251 60.8164238 7.97177251 55.9093606 5.50731754 55.9093606"></polygon>
                <polygon id="Fill-11" points="10.9291185 60.8164238 13.3935735 60.8164238 13.3935735 55.9093606 10.9291185 55.9093606"></polygon>
                <polygon id="Fill-12" points="38.3806825 30.0653309 40.8451374 30.0653309 40.8451374 25.1582677 38.3806825 25.1582677"></polygon>
                <polygon id="Fill-13" points="43.8024834 30.0653309 46.2669384 30.0653309 46.2669384 25.1582677 43.8024834 25.1582677"></polygon>
                <polygon id="Fill-14" points="38.3806825 37.7532268 40.8451374 37.7532268 40.8451374 32.8461636 38.3806825 32.8461636"></polygon>
                <polygon id="Fill-15" points="43.8024834 37.7532268 46.2669384 37.7532268 46.2669384 32.8461636 43.8024834 32.8461636"></polygon>
                <polygon id="Fill-16" points="38.3806825 45.4408773 40.8451374 45.4408773 40.8451374 40.5338141 38.3806825 40.5338141"></polygon>
                <polygon id="Fill-17" points="43.8024834 45.4408773 46.2669384 45.4408773 46.2669384 40.5338141 43.8024834 40.5338141"></polygon>
                <polygon id="Fill-18" points="38.3806825 53.1285279 40.8451374 53.1285279 40.8451374 48.2214647 38.3806825 48.2214647"></polygon>
                <polygon id="Fill-19" points="43.8024834 53.1285279 46.2669384 53.1285279 46.2669384 48.2214647 43.8024834 48.2214647"></polygon>
                <polygon id="Fill-20" points="38.3806825 60.8164238 40.8451374 60.8164238 40.8451374 55.9093606 38.3806825 55.9093606"></polygon>
                <polygon id="Fill-21" points="43.8024834 60.8164238 46.2669384 60.8164238 46.2669384 55.9093606 43.8024834 55.9093606"></polygon>
                <polygon id="Fill-22" points="21.944 17.1435613 24.408455 17.1435613 24.408455 12.2364981 21.944 12.2364981"></polygon>
                <polygon id="Fill-23" points="27.3658009 17.1435613 29.8302559 17.1435613 29.8302559 12.2364981 27.3658009 12.2364981"></polygon>
                <polygon id="Fill-24" points="21.944 24.8312119 24.408455 24.8312119 24.408455 19.9241487 21.944 19.9241487"></polygon>
                <polygon id="Fill-25" points="27.3658009 24.8312119 29.8302559 24.8312119 29.8302559 19.9241487 27.3658009 19.9241487"></polygon>
                <polygon id="Fill-26" points="21.944 32.5188625 24.408455 32.5188625 24.408455 27.6117993 21.944 27.6117993"></polygon>
                <polygon id="Fill-27" points="27.3658009 32.5188625 29.8302559 32.5188625 29.8302559 27.6117993 27.3658009 27.6117993"></polygon>
                <polygon id="Fill-28" points="21.944 40.2067584 24.408455 40.2067584 24.408455 35.2996952 21.944 35.2996952"></polygon>
                <polygon id="Fill-29" points="27.3658009 40.2067584 29.8302559 40.2067584 29.8302559 35.2996952 27.3658009 35.2996952"></polygon>
                <path d="M35.3375488,-4.9070632e-05 L16.4366578,8.93325948 L16.4366578,9.70906617 L16.4366578,19.669423 L-2.46445498e-05,11.9008059 L-2.46445498e-05,65.9776238 L15.4245062,65.9773784 L16.6589517,63.5240922 L18.9008664,59.0697056 L18.9008664,20.8343599 L18.9008664,10.4848729 L32.8730938,3.88070186 L32.8730938,59.0822186 L25.8779848,45.2087242 L16.6589517,63.5243375 L15.4245062,65.9776238 L18.1807526,65.9776238 L19.4154445,63.5243375 L25.87971,50.6813264 L32.3553118,63.5243375 L33.5924682,65.9776238 L36.3499469,65.9776238 L36.3499469,65.9773784 L51.7742313,65.9776238 L51.7742313,20.8338691 L51.0703829,20.501661 L35.3375488,13.0654974 L35.3375488,-4.9070632e-05 Z M35.3375488,15.7815569 L49.3097763,22.3854825 L49.3097763,63.5238468 L35.3375488,63.5238468 L35.3375488,15.7815569 Z M2.46443033,15.7815569 L16.4366578,22.3854825 L16.4366578,63.5238468 L2.46443033,63.5238468 L2.46443033,15.7815569 Z" id="Fill-30"></path>
            </g>
        </g>
    </g>
</svg>