<?xml version="1.0" encoding="UTF-8"?>
<svg width="66px" height="66px" viewBox="0 0 66 66" version="1.1" xmlns="http://www.w3.org/2000/svg" xmlns:xlink="http://www.w3.org/1999/xlink">
    <!-- Generator: Sketch 53.2 (72643) - https://sketchapp.com -->
    <title>Group 8</title>
    <desc>Created with Sketch.</desc>
    <defs>
        <polygon id="path-1" points="5.52906988e-06 0.220295122 65.9415122 0.220295122 65.9415122 65.7317073 5.52906988e-06 65.7317073"></polygon>
    </defs>
    <g id="Page-1" stroke="none" stroke-width="1" fill="none" fill-rule="evenodd">
        <g id="Office-365" transform="translate(-1265.000000, -655.000000)">
            <g id="Group-8" transform="translate(1265.000000, 655.000000)">
                <polygon id="Fill-1" fill="#FC4649" points="50.6474341 23.1223488 43.0354341 15.5106171 39.2562634 26.9082268"></polygon>
                <g id="Group-7" transform="translate(0.000000, 0.048024)">
                    <path d="M43.0050366,11.5904049 L45.9203049,14.5054049 L47.8187439,16.4041122 C47.8351098,16.3856 47.8477195,16.3652098 47.8654268,16.3472341 L55.9955,8.21742927 C56.3778171,7.8351122 56.9973049,7.8351122 57.379622,8.21742927 L57.8925976,8.73040488 C58.2746463,9.11272195 58.2746463,9.73220976 57.8925976,10.1145268 L49.7625244,18.2446 C49.7448171,18.262039 49.7244268,18.2749171 49.7056463,18.2910146 L51.6040854,20.1894537 L54.5220366,23.1071366 C55.036622,23.6219902 54.8292317,24.4982341 54.138378,24.728161 L36.9035244,30.4559415 C36.1391585,30.7102829 35.4123537,29.9840146 35.6658902,29.2193805 L41.3840122,11.9746 C41.6131341,11.2829415 42.4901829,11.0752829 43.0050366,11.5904049 M40.205939,7.00206341 L31.4357195,33.4525024 C31.1821829,34.2171366 31.9092561,34.9434049 32.6733537,34.6893317 L59.1082317,25.9035512 C59.7990854,25.6738927 60.0062073,24.7976488 59.491622,24.2827951 L53.504939,18.2961122 L59.8130366,11.9877463 C61.2408902,10.560161 61.2411585,8.23728293 59.8133049,6.80969756 L59.3003293,6.29672195 C57.8727439,4.86886829 55.5495976,4.8686 54.1220122,6.29645366 L47.8136463,12.6045512 L41.8269634,6.61813659 C41.3121098,6.10328293 40.4353293,6.31094146 40.205939,7.00206341" id="Fill-2" fill="#FC4649"></path>
                    <g id="Group-6">
                        <mask id="mask-2" fill="white">
                            <use xlink:href="#path-1"></use>
                        </mask>
                        <g id="Clip-5"></g>
                        <path d="M62.8689171,55.2712707 C61.6616,56.7804171 57.6707463,60.7377341 57.0335512,61.2743195 C56.3963561,61.8109049 53.1433073,63.9907829 46.6372098,62.5822463 C40.1311122,61.1737098 29.1981854,55.4724902 22.9939171,49.502978 C16.7896488,43.5334659 8.33842927,33.8749293 5.55489268,26.2621244 C2.7713561,18.6493195 1.13772195,13.9372951 4.8170878,9.19200244 C5.9868439,7.68339268 10.1494049,3.72553902 10.1494049,3.72553902 C10.1494049,3.72553902 11.591478,2.1828561 12.9329415,3.3231 C14.2744049,4.4633439 24.1676976,14.2560268 24.1676976,14.2560268 C24.1676976,14.2560268 25.5762341,15.9663927 23.6646488,17.6767585 C21.7530634,19.3871244 17.5274537,23.7133439 17.5274537,23.7133439 C17.5274537,23.7133439 15.5487951,26.295661 17.8963561,29.4481 C20.2439171,32.600539 22.7926976,36.1218805 27.0853805,40.3474902 C31.3780634,44.5731 36.509161,48.4298073 37.5152585,48.9328561 C38.5213561,49.4359049 40.466478,50.4420024 44.2896488,46.5852951 C48.1128195,42.7285878 49.0518439,41.1523683 50.5274537,41.5212707 C52.0030634,41.8901732 52.8079415,43.0639537 57.6707463,47.8261488 C62.5335512,52.5883439 64.0762341,53.7621244 62.8689171,55.2712707 M65.0082829,51.5911 C64.2495512,50.4801 63.0261366,49.2918317 60.9994537,47.3233683 C60.5535512,46.8903439 60.0698195,46.4208317 59.5479902,45.9091976 C58.357039,44.7431976 57.4029902,43.7851244 56.636478,43.0153927 C53.999161,40.3678805 53.0126488,39.3770756 51.1783317,38.9185634 C50.8268683,38.8308317 50.4719171,38.7862951 50.1223317,38.7862951 C48.0232098,38.7862951 46.7305756,40.1508317 44.5882585,42.4109293 C43.9628683,43.0711976 43.254039,43.8191976 42.3842341,44.6965146 C40.4442098,46.6537098 39.4864049,46.7527098 39.314161,46.7527098 C39.1676732,46.7527098 39.0383561,46.6947585 38.7319659,46.5421 C37.8844293,46.0822463 33.0712585,42.4750512 28.967722,38.4356366 C25.0648683,34.5936854 22.6126732,31.2952951 20.4494293,28.3848561 L20.0483317,27.8455878 C19.1659171,26.6610756 19.4140878,25.7987829 19.6340878,25.3968805 C20.4660634,24.548539 23.8532585,21.108222 25.4536244,19.6763439 C28.2642585,17.1616366 27.4628683,14.0371 26.2389171,12.5507585 L26.1519902,12.4453195 L26.0551366,12.349539 C25.0350878,11.3396854 16.0496976,2.45114878 14.6706732,1.27897805 C13.8556,0.586246341 12.8822341,0.220295122 11.8552098,0.220295122 C9.99862439,0.220295122 8.65581951,1.42090488 8.26357561,1.81690488 C7.67520976,2.37683171 3.92501463,5.96444146 2.69703902,7.54790488 C-1.95220488,13.5434415 0.248868293,19.5625878 3.0350878,27.1837098 C5.87952683,34.9628561 14.2491854,44.8126854 21.1335756,51.4362951 C28.0667951,58.1068561 39.4754049,63.7769537 46.0695024,65.2042707 C47.685161,65.5543927 49.2527951,65.7317341 50.7281366,65.7317341 C55.5321854,65.7317341 58.0916976,63.8907098 58.7616244,63.3264902 C59.5595268,62.6546854 63.6689659,58.5659049 64.9640146,56.9472951 C65.7098683,56.014978 66.7073805,54.0795146 65.0082829,51.5911" id="Fill-4" fill="#FC4649" mask="url(#mask-2)"></path>
                    </g>
                </g>
            </g>
        </g>
    </g>
</svg>