<?xml version="1.0" encoding="utf-8"?>
<!-- Generator: Adobe Illustrator 21.0.0, SVG Export Plug-In . SVG Version: 6.00 Build 0)  -->
<svg version="1.1" id="Layer_1" xmlns="http://www.w3.org/2000/svg" xmlns:xlink="http://www.w3.org/1999/xlink" x="0px" y="0px"
	 viewBox="0 0 451.7 306.4" style="enable-background:new 0 0 451.7 306.4;" xml:space="preserve">
<style type="text/css">
	.st0{fill:#E6E6E6;}
	.st1{fill:#F7BED7;}
	.st2{fill:#AEC6E7;}
	.st3{fill:#EC3434;}
	.st4{fill:#8FB5E2;}
	.st5{opacity:0.5;fill:#EC3434;}
	.st6{fill:#FFFFFF;}
	.st7{fill:#EA81B8;}
	.st8{fill:#F29EC6;}
	.st9{fill:url(#SVGID_1_);}
	.st10{fill:url(#SVGID_2_);}
	.st11{fill:#DBDEEF;}
	.st12{fill:url(#SVGID_3_);}
	.st13{fill:url(#SVGID_4_);}
	.st14{fill:url(#SVGID_5_);}
	.st15{fill:url(#SVGID_6_);}
	.st16{fill:#789FCE;}
	.st17{fill:#F7E5D5;}
	.st18{fill:#D22027;}
	.st19{fill:#F9E7D6;}
	.st20{fill:#002838;}
	.st21{fill:#022939;}
	.st22{fill:#471211;}
	.st23{fill:#F68F1F;}
	.st24{fill:#012A39;}
	.st25{fill:#D12127;}
	.st26{fill:#002939;}
	.st27{fill:#032838;}
	.st28{fill:#471212;}
	.st29{fill:#481212;}
	.st30{fill:#D03437;}
	.st31{fill:#CD373D;}
	.st32{fill:#9B8E85;}
	.st33{fill:#D24B4C;}
	.st34{fill:#C4575E;}
	.st35{fill:#D22127;}
	.st36{fill:#DC4A48;}
	.st37{fill:#F2BEC2;}
	.st38{fill:#09090A;}
	.st39{fill:#0E0C0D;}
	.st40{fill:#0B0C0C;}
	.st41{fill:#F3CBCA;}
	.st42{fill:#F3CBC8;}
	.st43{fill:#F58E7C;}
	.st44{fill:#FAFBFB;}
	.st45{fill:#CCCBCB;}
	.st46{fill:#0A0A0A;}
	.st47{fill:#F5F4F4;}
	.st48{fill:#112E6C;stroke:#000000;stroke-width:0.5;stroke-miterlimit:10;}
</style>
<ellipse class="st0" cx="315.9" cy="292.7" rx="60.4" ry="13.6"/>
<ellipse class="st0" cx="225.9" cy="288.2" rx="191" ry="9.1"/>
<g>
	<g>
		<g>
			<g>
				<path class="st1" d="M430.3,159.4c-6.3,4.8-9.6,9.5-11.7,17.1c-1.5,5.5-0.1,10.7-1.8,15.5c-0.7,2-3.7,1.6-3.8-0.5
					c-0.2-2.8,0.3-5.8,0.9-8.4c0.8-3.3,3.2-11.3-4.1-8.3c-7.1,2.9-3.1,14.3-2.3,22.4c0.3,2.5-3.5,3.1-3.9,0.6
					c-1.3-7.3,0.4-19-7.8-19.6c-9.5-0.7-1.1,17.4,0.7,21.4c1.1,2.5,7.3,13.8,0.4,11.7c-3.9-1.2-5.1-10.2-5.7-13.4
					c-0.6-3.2,0.7-10.3-1.8-12.5c-4.2-3.8-6.3,2.1-6.7,5.4c-0.8,7.6,8.9,15.6,8.9,23.1c0,1.8-2.2,2.6-3.4,1.4
					c-2.1-2.1-3.8-4.3-5.2-7.4c-1.7-3.9-0.9-7.8-2.2-11.4c-3.5-9.7-8.1,3.4-4.6,9.8c1.6,2.9,13.4,15.4,7.2,19.2c0,0,0,0,0,0
					c-0.1,0.1-0.2,0.1-0.4,0.2c0,0-0.1,0-0.1,0.1c0,0,0,0-0.1,0c-5.8,2.3-12.8-22.8-13.8-26.4c-0.7-2.7,0.7-5,1-7.6
					c0.1-0.9-0.4-1.8-1.3-2.1c-12-4.8-4.7,15.4-2.3,20c2,3.9,4.9,8.9,5.3,13.3c0.4,4.4-1.3,11.4-5.8,6.9c-2.5-2.5-5.5-11-6.8-14.5
					c-1.6-4.4-1.4-8.5-2.2-13.1c-0.6-3.6-3.5-11-7.6-6.3c-2.1,2.3-0.7,9,0,11.7c2,8.2,13.8,17.6,11.2,26.7c-0.4,1.2-1.8,1.9-2.9,1.2
					c-6.3-3.8-9.4-18-11.5-23.8c-0.8-2.2-1.4-4.6-1.5-6.9c-0.1-2.4,1.5-5.4,1-7.7c-1.8-7-7.4-3-9.2,1.4c-3.8,9.1,1.4,16.4,7.8,22.1
					c3.3,3,15.2,15.3,4.8,16.4c-10.1,1.1-7.2-11.1-10.2-16.5c-2.1-3.8-6.3-4.8-8.6-8.4c-2-3.2-1.6-7.2-5.1-9.4
					c-3.7-2.3-6.8-1.7-7.3,2.7c-0.4,3.9,3.2,7.6,5.8,10.2c3.1,3.1,7.8,4.9,10.1,8.7c1.5,2.5,2.7,9.1-1.4,10.1
					c-4.1,1-12.9-11.1-15-13.9c-5.2-7.1-6-11.5-6-19.4c0-0.8-0.5-1.5-1.2-1.9c-5.8-2.5-8,4.8-6.7,9.8c1.5,5.9,5.9,9.9,10.4,13.7
					c2.7,2.3,11.5,8,9.7,12.1c-2.6,5.7-10.2,1.4-11.6-1.9c-2.2-5.3-1-8.3-6.8-12.1c-3.7-2.4-8.3-5.7-12.8-6.2
					c-5.9-0.7-8.5,3.1-3.4,7.5c3.7,3.2,9.1,3,13.5,5.1c5,2.4,9.4,9.4,2.6,12.8c-3.4,1.7-9.6,0.7-14-0.2c-1.2-0.3-2.4,0.7-2.4,1.9
					c0,1.2,0,2.6-0.1,3.8c0,0.3,0,0.6,0,0.9c-0.1,1.3,1.1,2.3,2.4,2c3.4-0.6,6.6-1.7,9.9-2.7c1.6-0.5,3.2-0.9,4.9-1.3
					c0,0,0.1,0,0.1,0c4.1-1,5.7-1,6.9,0.8c0.5,0.8,0.9,1.9,1.4,3.4c1,3.1,4.2,18.7,9.9,11.9c3.9-4.6-3.9-11-4.2-15.3
					c0-0.3,0-0.5,0-0.7c0-6.3,5.5-4.6,8.7-1.2c0.3,0.3,0.6,0.6,0.9,1c3.5,4.6,3.7,10.5,3.7,16c0,3.7-1.1,10.7,4.3,11.7
					c7.9,1.4,4.2-10.1,2.3-13.6c-2.1-4-11.9-13.7-4-13.8c13-0.1,14,21.6,25.3,24.7c1.2,0.3,2.4-0.6,2.5-1.8c0.2-4-4.4-7-6.9-9.8
					c-1.7-1.9-9.8-10.5-9.5-12.6c0.6-4,7.7-2.9,10.6-1.5c7.3,3.5,7.3,12.6,9,19.4c2,8.4,11.4,11.6,10.1,1.1
					c-0.9-7.4-8.2-12.7-11.9-18.7c-5.7-9.2,4.2-4.2,8.3-0.8c3.9,3.2,6.6,8.1,8.4,12.8c2.7,7.1-1,18,8.3,21.4
					c13.8,5.1-1.5-25.3-4.1-29.2c-2.4-3.7-6.6-5.2-9.9-7.8c-3.5-2.7-5.7-7.3,0.6-7.4c3.9-0.1,6.5,4,8.6,6.6
					c4.8,6.2,7.5,16.6,14.5,20.7c10.9,6.4,12.1-4.8,5.4-11.1c-5.2-4.8-11.1-8.6-16.7-12.6c-1.8-1.2-8.3-5.6-4-6.9c2-0.6,7,3,8.6,3.9
					c6,3.3,10.2,7.8,15.6,11.9c3.5,2.6,20.6,8.9,16-0.4c-2.3-4.6-12.5-7.9-16.5-11c-1.8-1.4-7.7-4.2-11.6-6.7c-1.6-1-1-3.6,1-3.7
					c4.3-0.2,8.5,0.2,12.3,2.7c5.5,3.7,4.4,9.3,11.7,10.9c5.7,1.2,11.1-0.2,6.7-6.3c-2.9-4-9.2-6.5-13.5-8.8
					c-2.8-1.5-10.6-2.7-12.6-4.9c-5.2-5.6,6.7-1.8,9.2-1c4,1.2,29.9,11.3,28.1-0.7c-0.9-6-15.1-4.2-23-4.2c-2,0-2.7-2.7-1-3.7
					c8-4.8,21.2-1,27.7-6.7c6.6-5.7-2.1-6.6-6.9-5.7c-3.4,0.7-9.4,5.1-13.7,5.7c-1.7,0.3-2.9-1.7-1.9-3.2c3.2-4.2,9.4-9.2,12.7-12
					c4.6-3.8,18-5.2,18.5-12.2c0.5-7-8-1.6-12.7,2c-1,0.8-1.9,1.5-2.4,2c-2,1.8-5.6,6.6-9.2,9.9c-1.7,1.6-4.2-0.4-3.1-2.4
					c2.6-4.5,5.5-9,8.9-13.1c3.1-3.9,16.5-10.7,17-15.3C451.3,149.4,433.3,157.1,430.3,159.4z"/>
			</g>
		</g>
		<g>
			<g>
				<path class="st2" d="M430,118c-7,5.5-13,7.9-22,8c-6.4,0.1-11.7-2.8-17.5-2.3c-2.4,0.2-2.8,3.6-0.5,4.3c3,1,6.4,1.3,9.4,1.4
					c3.8,0.1,13.3-0.3,8,6.8c-5.2,7-16.5-0.6-25.2-3.8c-2.7-1-4.4,3-1.7,4.1c7.6,3.4,21,4.9,19.3,14c-1.9,10.6-19.4-3.7-23.3-6.8
					c-2.4-1.9-13.1-11.8-12.8-3.7c0.2,4.5,9.7,8.5,13.1,10c3.3,1.5,11.5,2.1,13.2,5.5c3,5.6-4.1,6.3-7.8,5.8
					c-8.5-1.3-14.6-14.2-22.9-16.2c-1.9-0.5-3.4,1.7-2.4,3.4c1.7,2.9,3.7,5.4,6.7,7.7c3.8,3,8.3,3.2,11.9,5.6c9.7,6.5-6,8-12.1,2.3
					c-2.7-2.6-13.1-19-19-13.3c0,0,0,0,0,0c-0.1,0.1-0.2,0.2-0.3,0.4c0,0-0.1,0.1-0.1,0.1c0,0,0,0,0,0.1
					c-4.1,5.7,21.5,20.4,25.1,22.5c2.7,1.5,5.7,0.6,8.6,1c1,0.1,1.8,0.9,1.9,2c1.9,14.5-18.2,0.8-22.6-3c-3.8-3.3-8.3-7.9-13.1-9.6
					c-4.7-1.6-12.8-1.8-9.1,4.4c2.1,3.4,10.5,9.1,14,11.5c4.4,3,9,4,13.7,6.1c3.8,1.7,11.1,6.9,4.8,10c-3.1,1.6-10-1.7-12.8-3.2
					c-8.5-4.5-15.5-20-26.1-19.7c-1.5,0-2.6,1.5-2.1,2.9c2.4,8,17.1,15.3,22.9,19.2c2.2,1.5,4.7,2.8,7.1,3.6
					c2.6,0.8,6.3-0.2,8.7,1.1c7.2,3.9,1.2,9-4.1,9.8c-11,1.6-17.6-6.1-22-14.7c-2.3-4.5-12.5-20.9-16.6-9.8
					c-4,10.7,10.2,11,15.3,15.8c3.6,3.4,3.5,8.2,6.8,11.8c2.9,3.1,7.4,3.7,8.9,8.3c1.5,4.7,0,7.9-5,7.2c-4.4-0.6-7.5-5.7-9.5-9.2
					c-2.5-4.2-3.2-9.9-6.8-13.5c-2.3-2.3-9.3-5.5-11.5-1.3c-2.2,4.2,8.6,17.3,11.1,20.3c6.4,7.7,10.9,9.8,19.6,12
					c0.9,0.2,1.5,1,1.7,1.9c1.1,7.1-7.5,7.4-12.7,4.6c-6-3.3-9.2-9.3-12.1-15.2c-1.7-3.6-5.6-14.9-10.5-14
					c-6.9,1.2-4.3,10.8-1.1,13.3c5.2,3.9,8.8,3.4,11.4,10.8c1.6,4.7,3.9,10.7,3.2,15.8c-0.9,6.7-5.7,8.5-9.1,1.6
					c-2.5-5-0.8-10.8-1.9-16.2c-1.2-6.1-7.7-13-13.3-6.4c-2.8,3.3-3.5,10.4-3.7,15.5c0,1.4-1.4,2.4-2.8,2.1c-1.3-0.3-2.8-0.7-4.2-1
					c-0.3-0.1-0.7-0.1-1-0.2c-1.4-0.3-2.2-1.8-1.6-3.2c1.7-3.6,3.7-6.8,5.7-10.1c1-1.6,1.9-3.3,2.8-5c0,0,0-0.1,0.1-0.1
					c2.2-4.2,2.7-6,1-7.8c-0.7-0.8-1.8-1.5-3.3-2.5c-3.1-1.9-19.4-9.8-10.3-14.2c6.1-3,11,7.4,15.6,8.8c0.3,0.1,0.5,0.2,0.8,0.2
					c6.9,1.7,6.5-4.8,3.7-9.3c-0.3-0.4-0.5-0.8-0.8-1.2c-4.1-5.1-10.5-7-16.5-8.5c-4.1-1-12.1-1.8-11.6-8c0.7-9,12.2-1.8,15.6,1.3
					c3.8,3.4,11.7,16.8,14,8.3c3.8-14.2-19.8-21.4-20.1-34.7c0-1.4,1.3-2.5,2.7-2.2c4.5,0.9,6.4,6.8,8.9,10.3
					c1.7,2.4,8.8,13.6,11.2,13.9c4.6,0.4,5.4-7.7,4.6-11.2c-1.8-9-11.8-11.6-18.8-15.3c-8.7-4.6-9.6-15.8,1.6-11.3
					c7.9,3.1,11.7,12.5,17.2,18.3c8.5,8.8,5.7-3.4,3.2-8.9c-2.4-5.2-7.1-9.5-11.7-12.8c-7.1-5-20-4-21.1-15.1
					c-1.7-16.5,27.3,8.7,30.8,12.6c3.3,3.7,3.9,8.7,5.8,13c2,4.6,6.4,8.3,8.3,1.4c1.2-4.3-2.5-8.3-4.8-11.2
					c-5.4-7-16.1-12.9-18.6-21.7c-4-13.7,8.7-12,13.6-2.8c3.8,7,6.3,14.6,9.1,21.8c0.9,2.3,3.8,10.7,6.4,6.3c1.2-2-1.3-8.5-1.8-10.6
					c-1.9-7.5-5.7-13.4-8.7-20.5c-1.9-4.6-4-25,4.9-17.5c4.5,3.8,5.1,15.9,7.5,21.2c1.1,2.4,2.5,9.6,4.1,14.6c0.7,2.1,3.6,2.1,4.3,0
					c1.4-4.6,2.2-9.4,0.5-14.2c-2.5-7-9-7.4-8.7-15.9c0.2-6.6,3.4-12.1,8.8-5.6c3.5,4.3,4.6,12,5.9,17.2c0.9,3.5,0.1,12.3,1.9,15.2
					c4.7,7.3,3.8-6.9,3.7-9.8c-0.2-4.8-4.1-35.9,8.6-30.7c6.3,2.6,0.4,17.7-1.8,26.4c-0.5,2.2,2.1,3.7,3.7,2.2
					c7.5-7.5,7-22.9,15-28.5c8-5.6,6.7,4.2,4.3,9.2c-1.7,3.5-8.2,8.9-10.1,13.4c-0.8,1.8,1.1,3.7,2.9,2.9
					c5.5-2.3,12.7-7.7,16.6-10.6c5.4-3.9,10.7-18.3,18.5-16.9c7.8,1.4-0.5,9.2-5.8,13.3c-1.2,0.9-2.2,1.6-2.8,2.1
					c-2.5,1.7-8.8,4.4-13.4,7.3c-2.2,1.4-0.7,4.8,1.8,4.1c5.7-1.6,11.4-3.6,16.9-6.1c5.2-2.4,16.3-15.1,21.5-14.4
					C446.8,97.7,433.5,115.3,430,118z"/>
			</g>
		</g>
		<g>
			<g>
				<g>
					<path class="st3" d="M358.4,193.3L358.4,193.3c-0.2,0.2-0.4,0.3-0.6,0.5C358,193.6,358.2,193.4,358.4,193.3z"/>
					<path class="st3" d="M313,248.6L313,248.6c-0.1,0.1-0.2,0.3-0.2,0.4C312.9,248.9,313,248.8,313,248.6z"/>
					<path class="st4" d="M301.8,273c0.2-0.6,0.4-1.1,0.6-1.7c0.2-0.5,0.4-1,0.6-1.5c0.5-1.3,1-2.6,1.6-3.8c2.7-0.1,5.3-0.3,7.7-0.8
						c2.4-0.4,1.9-4-0.6-3.8c-2.1,0.2-3.9,0.3-5.3,0.4c0.5-1.1,1-2.3,1.6-3.4c0.2-0.5,0.5-1,0.7-1.5c0.9-1.8,1.8-3.7,2.8-5.5
						c0.2-0.4,0.4-0.7,0.6-1.1c0.3-0.6,0.6-1.2,0.9-1.7c0,0,0,0,0,0c2.5,0.8,4.9,1.3,7.1,1.7c2.4,0.4,3.1-3.2,0.7-3.7
						c-2.4-0.6-4.4-1.1-5.8-1.6c0.6-1.1,1.3-2.2,1.9-3.3c0.3-0.4,0.5-0.9,0.8-1.3c0.4-0.6,0.7-1.2,1.1-1.8c0.2-0.4,0.5-0.8,0.7-1.2
						c0.2-0.4,0.5-0.7,0.7-1.1c0.2-0.3,0.4-0.7,0.7-1c0.2-0.3,0.4-0.6,0.6-0.9c0.3-0.4,0.6-0.9,0.9-1.3c0,0,0,0,0,0
						c3.4,1.2,6.6,2.1,9.7,2.5c2.4,0.4,3.1-3.2,0.7-3.7c-4.7-1.1-7.8-2.3-7.8-2.3s-0.2,0.1-0.5,0.3c0.3-0.4,0.6-0.8,0.9-1.3
						c0.3-0.4,0.6-0.9,0.9-1.3c0.3-0.5,0.7-1,1.1-1.4c0.1-0.1,0.2-0.2,0.3-0.4c0.3-0.4,0.6-0.7,0.8-1.1c0-0.1,0.1-0.1,0.1-0.2
						c0.2-0.2,0.3-0.4,0.5-0.7c0.7-0.9,1.5-1.9,2.2-2.8c0.3-0.4,0.7-0.8,1-1.3c0.3-0.4,0.7-0.8,1-1.2c0.2-0.3,0.5-0.6,0.7-0.9
						c0.3-0.4,0.6-0.7,0.9-1.1c0.4-0.5,0.8-0.9,1.2-1.4c0,0,0.1-0.1,0.1-0.1c0.3-0.4,0.7-0.8,1-1.2c0.1-0.1,0.2-0.3,0.4-0.4
						c0.3-0.3,0.5-0.6,0.8-0.9c0.4-0.5,0.8-0.9,1.3-1.4c0.2-0.2,0.4-0.5,0.7-0.7c0.1-0.1,0.2-0.2,0.3-0.3c0.2-0.2,0.4-0.5,0.6-0.7
						c0.1-0.1,0.2-0.2,0.2-0.2c0.3-0.3,0.6-0.7,1-1c1-1,2-2.1,3-3.1c0.6-0.1,1.2-0.2,1.8-0.3c3.4,1.7,8.7,3.6,15,3.5
						c2.3,0,2.6-3.3,0.3-3.8c-4-0.8-8.4-2.1-12.1-4.4c1.6-1.5,3.2-3,4.8-4.4c0.3-0.2,0.5-0.5,0.8-0.7c0.5-0.4,1-0.8,1.4-1.2
						c0.3,0,0.6-0.1,0.9-0.1c3.3,1.7,9,4,15.9,3.9c2.3,0,2.6-3.3,0.3-3.8c-4-0.8-8.3-2-11.9-4.2c0,0,0,0,0,0c0.4-0.3,0.9-0.7,1.3-1
						c0.3-0.3,0.7-0.5,1-0.8c0.5-0.4,1.1-0.8,1.6-1.2c0.4-0.3,0.9-0.6,1.3-1c1.7-1.3,3.4-2.5,5-3.6l0,0c2,0.8,4.7,1.7,7.9,2
						c2.3,0.2,2.9-3.2,0.6-3.7c-1.4-0.3-2.7-0.7-4-1.3c0.3-0.2,0.5-0.3,0.8-0.5c0.2-0.1,0.5-0.3,0.7-0.4c0.9-0.6,1.9-1.2,2.8-1.7
						c0.6-0.4,1.2-0.8,1.9-1.1c0.2-0.1,0.4-0.3,0.6-0.4c0.3-0.2,0.6-0.4,0.9-0.6c1.7-1,3.4-2,5-2.8c0.2-0.1,0.4-0.2,0.5-0.3
						c1.1-0.6,2.1-1.1,3.1-1.6c0.3-0.2,0.6-0.3,0.9-0.5c1.8-0.9,3.4-1.7,4.8-2.3c0.1-0.1,0.2-0.1,0.3-0.1c0.3-0.1,0.6-0.3,0.9-0.4
						c0.1,0,0.2-0.1,0.3-0.1c0.5-0.2,1-0.4,1.4-0.6c0.1,0,0.2-0.1,0.3-0.1c0.7-0.3,1.1-0.4,1.4-0.5c-1.3,0.3-2.7,0.6-4,1
						c4.7-1.8,8.7-3,11.9-3.9c0.1,0.4,0,0.8,0,1.2c-1.4,19.1-4,46.2-27.6,57.4c-13.7-2-37.5-4.5-48,0.5l42.8,6.5
						c-4.5,5.9-8.8,11.1-12.4,15.4c-15.7,18.4-38.1,29.9-62.3,31.8c-1.5,0.1-2.8,0.2-3.8,0.2C301.4,274.2,301.6,273.6,301.8,273
						C301.8,273,301.8,273,301.8,273z"/>
					<path class="st5" d="M298.8,267.7c0.7-1.5,1.4-3,2.1-4.5c0,0,0,0,0,0C300.2,264.7,299.5,266.2,298.8,267.7z"/>
					<path class="st5" d="M357.6,186.6c-0.3,0.2-0.6,0.5-0.9,0.7C357,187.1,357.3,186.9,357.6,186.6L357.6,186.6z"/>
					<path class="st5" d="M328.1,217c-0.8,1-1.5,2-2.2,3.1C326.5,219,327.3,218,328.1,217z"/>
					<path class="st5" d="M395,167.1c0.8-0.2,1.6-0.5,2.3-0.7C396.5,166.7,395.8,166.9,395,167.1z"/>
					<path class="st5" d="M380.9,172.5c-1.5,0.7-3.1,1.4-4.6,2.2C377.8,174,379.3,173.2,380.9,172.5L380.9,172.5z"/>
					<path class="st5" d="M335.8,207.4c1.3-1.5,2.6-2.9,3.9-4.4C338.4,204.4,337.1,205.9,335.8,207.4z"/>
					<path class="st5" d="M334.3,209.2C334.3,209.2,334.3,209.2,334.3,209.2c0.5-0.6,1-1.2,1.5-1.8
						C335.3,208,334.8,208.6,334.3,209.2z"/>
					<path class="st5" d="M317.8,231.9c-1,1.7-2.1,3.3-3.1,5.1C315.7,235.3,316.7,233.6,317.8,231.9
						C317.8,231.9,317.8,231.9,317.8,231.9z"/>
					<path class="st5" d="M320.7,227.4L320.7,227.4c1.7-2.5,3.4-5,5.1-7.4C324.1,222.4,322.4,224.9,320.7,227.4z"/>
					<path class="st5" d="M303.2,258.3c0.3-0.5,0.5-1.1,0.8-1.6C303.7,257.2,303.5,257.8,303.2,258.3L303.2,258.3z"/>
					<path class="st5" d="M310.8,243.7c1.3-2.3,2.6-4.5,3.9-6.7C313.4,239.2,312.1,241.5,310.8,243.7z"/>
					<path class="st4" d="M400.6,165.6c-0.5,0.1-1.1,0.3-1.6,0.4c-0.5,0.2-1.1,0.3-1.6,0.5c-0.8,0.2-1.6,0.5-2.3,0.7
						c-0.8,0.2-1.6,0.5-2.3,0.7c-0.4,0.1-0.8,0.3-1.1,0.4c-1.9,0.7-3.8,1.4-5.6,2.1c-0.8-1.5-0.8-3.5-0.4-5.4c0.3-1.7-2-2.5-2.8-1
						c-1.7,3.2-1.9,6.6-1.8,8.5c-1.5,0.7-3.1,1.4-4.6,2.2c-0.5,0.3-1,0.5-1.5,0.8c-0.5,0.3-1,0.5-1.5,0.8c-0.5,0.3-1,0.5-1.5,0.8
						c-0.5,0.3-0.9,0.5-1.4,0.8c-0.5,0.3-1,0.6-1.5,0.9c4.4-4.6,9.5-16.4,12.5-23.8c9.9-1,19.5-0.1,28.4,3.5
						c1.4,0.6,2.4,1.8,2.6,3.2C409.3,162.5,405.2,163.8,400.6,165.6C400.6,165.6,400.6,165.6,400.6,165.6z"/>
					<path class="st4" d="M366.3,180.5c-0.1,0.1-0.2,0.1-0.3,0.2c-0.3,0.2-0.6,0.4-1,0.6c-0.4,0.3-0.8,0.5-1.2,0.8
						c-0.2,0.2-0.5,0.3-0.7,0.5c-0.3,0.2-0.6,0.4-0.9,0.6c-0.2,0.2-0.5,0.3-0.7,0.5c0,0,0,0,0,0c0-1.9,0.2-3.9,0.6-5.7
						c0.4-1.8-2.2-2.5-2.9-0.8c-1.4,3.6-1.6,7-1.6,9.4c-0.3,0.2-0.6,0.5-0.9,0.7c-0.3,0.2-0.6,0.5-0.9,0.7c-0.3,0.2-0.6,0.5-0.9,0.7
						c-0.3,0.2-0.6,0.5-0.9,0.7c-0.3,0.2-0.6,0.5-0.9,0.7c-0.3,0.2-0.6,0.5-0.9,0.8c-0.6,0.5-1.2,1-1.8,1.5c-0.7-2.3-1-4.9-1-7.3
						c0-1.8-2.7-2-3-0.2c-0.7,4.4,0,8.2,0.6,10.6c-0.2,0.2-0.5,0.4-0.7,0.7c-0.1,0.1-0.1,0.1-0.2,0.2c-0.2,0.2-0.4,0.4-0.6,0.6
						c-0.1,0.1-0.2,0.2-0.4,0.3c-0.5,0.5-0.9,0.9-1.4,1.4c-0.3,0.3-0.5,0.5-0.8,0.8c-0.3,0.3-0.5,0.6-0.8,0.8
						c-0.3,0.3-0.5,0.6-0.8,0.8c-0.5,0.6-1.1,1.1-1.6,1.7c-1.3,1.4-2.6,2.9-3.9,4.4c-0.5,0.6-1,1.2-1.5,1.8
						c-1.6-4.1-2.3-8.7-2.3-13.7c0-1.8-2.6-2.1-3-0.3c-1.6,8.4-0.1,15.7,1,19.2c-0.2,0.3-0.4,0.6-0.7,0.8c-0.1,0.1-0.2,0.3-0.3,0.4
						c-0.2,0.2-0.3,0.5-0.5,0.7c-0.1,0.2-0.3,0.4-0.4,0.6c-0.8,1-1.5,2-2.2,3.1c-1.7,2.4-3.4,4.9-5.1,7.4c-0.8-2.8-2-7.6-2.5-13.1
						c-0.2-1.9-2.9-1.8-3,0.1c-0.2,5.1,0.4,11,2.6,17.6c-1,1.7-2.1,3.3-3.1,5.1c0,0,0,0,0,0c-1.3,2.2-2.6,4.4-3.9,6.7
						c-0.4,0.7-0.7,1.3-1.1,2c-1.4-6.7-1.9-35.5-2.1-51.2c17-17.5,41.4-33.2,65.4-38.3l-5.2,23.2c-0.4,0.2-0.8,0.5-1.2,0.7
						C366.6,180.3,366.4,180.4,366.3,180.5z"/>
					<path class="st3" d="M309.7,245.9c-0.3,0.5-0.6,1-0.8,1.5c-0.3,0.5-0.5,1-0.8,1.5c-0.3,0.5-0.5,1-0.8,1.5
						c-0.3,0.5-0.5,1-0.8,1.6c-0.3,0.5-0.5,1-0.8,1.6c-0.5,1-1.1,2.1-1.6,3.1c-0.3,0.5-0.5,1.1-0.8,1.6c-3.2-5-5.3-10.9-6.6-16
						c-0.5-1.9-3.3-1.3-2.9,0.6c1.6,8.2,5.4,16.5,7.2,20.2c-0.7,1.5-1.4,3-2.1,4.5c-0.3,0.8-0.7,1.5-1,2.3c-0.3,0.8-0.7,1.5-1,2.3
						c-1.9-2.6-3.5-5.6-4.9-8.6c-8.3-18.9-5.7-40.5,5.9-57.3C298.8,228.8,308.3,243.9,309.7,245.9z"/>
				</g>
			</g>
			<path class="st3" d="M309.7,245.9c-0.3,0.5-0.6,1-0.8,1.5c-0.3,0.5-0.5,1-0.8,1.5c-0.3,0.5-0.5,1-0.8,1.5c-0.3,0.5-0.5,1-0.8,1.6
				c-0.3,0.5-0.5,1-0.8,1.6c-0.5,1-1.1,2.1-1.6,3.1c-0.3,0.5-0.5,1.1-0.8,1.6c-3.2-5-5.3-10.6-6.7-15.5c-0.6-2-3.6-1.3-3.1,0.8
				c1.7,7.9,5.6,15.9,7.5,19.6c-0.7,1.5-1.4,3-2.1,4.5c-0.3,0.8-0.7,1.5-1,2.3c-0.3,0.8-0.7,1.5-1,2.3c-1.9-2.6-3.5-5.6-4.9-8.6
				c-8.3-18.9-5.7-40.5,5.9-57.3C298.8,228.8,308.3,243.9,309.7,245.9z"/>
			<path class="st6" d="M298.8,267.7c0.7-1.5,1.4-3,2.1-4.5c0,0,0,0,0,0c-2.4-4.9-8.1-17.6-7.9-27.5c0-1.4,2-1.5,2.2-0.1
				c1,6.1,3.2,15.3,8,22.8l0,0c0.3-0.5,0.5-1.1,0.8-1.6c0.5-1.1,1-2.1,1.6-3.1c0.3-0.5,0.5-1,0.8-1.6c0.3-0.5,0.5-1,0.8-1.6
				c0.3-0.5,0.5-1,0.8-1.5c0.3-0.5,0.5-1,0.8-1.5c0.3-0.5,0.5-1,0.8-1.5c0,0,0-0.1,0.1-0.1c0.4-0.7,0.7-1.3,1.1-2
				c1.3-2.3,2.6-4.5,3.9-6.7c0,0,0,0,0,0c1-1.7,2-3.4,3.1-5.1c0,0,0,0,0,0c-3-9-3-16.9-2.1-23c0.2-1.4,2.2-1.2,2.2,0.2
				c0,7.6,1.7,14.7,2.7,18.3l0,0c1.7-2.5,3.4-5,5.1-7.4c0.7-1,1.5-2,2.2-3.1c0.1-0.2,0.3-0.4,0.4-0.6c0.2-0.2,0.3-0.5,0.5-0.7
				c0.1-0.1,0.2-0.3,0.3-0.4c0.1-0.1,0.2-0.3,0.3-0.4c0.2-0.3,0.3-0.6,0.2-1c-1.2-4.3-2.8-12.7,0-22.2c0.4-1.3,2.3-0.9,2.2,0.4
				c-0.3,6.3,0.3,12.1,2.2,17.1c0,0,0,0,0,0c0.5-0.6,1-1.2,1.5-1.8c1.3-1.5,2.6-2.9,3.9-4.4c0.5-0.6,1.1-1.1,1.6-1.7
				c0.3-0.3,0.5-0.6,0.8-0.8c0.3-0.3,0.5-0.6,0.8-0.8c0.3-0.3,0.5-0.6,0.8-0.8c0.5-0.5,0.9-0.9,1.4-1.4c0.1-0.1,0.2-0.2,0.4-0.3
				c0.2-0.2,0.4-0.4,0.6-0.6c0.1-0.1,0.1-0.1,0.2-0.2c0.1-0.1,0.1-0.1,0.2-0.2c0.3-0.3,0.4-0.7,0.3-1.1c-0.8-3.1-1.4-8.1,0.4-13.5
				c0.4-1.3,2.3-0.9,2.2,0.4c-0.2,2.7-0.2,5.9,0.5,8.8c0.2,0.8,1.2,1.2,1.8,0.6c0.1-0.1,0.3-0.2,0.4-0.3c0.3-0.3,0.6-0.5,0.9-0.8
				c0.3-0.3,0.6-0.5,0.9-0.7c0.3-0.2,0.6-0.5,0.9-0.7c0.3-0.2,0.6-0.5,0.9-0.7c0.3-0.2,0.6-0.5,0.9-0.7c0.3-0.2,0.6-0.5,0.9-0.7l0,0
				c-0.1-3.2,0.4-8,3.2-12.7c0.7-1.1,2.4-0.4,2.1,0.9c-0.8,2.7-1.4,5.9-1.3,9c0,0,0,0,0,0c0.2-0.2,0.5-0.3,0.7-0.5
				c0.3-0.2,0.6-0.4,0.9-0.6c0.2-0.2,0.5-0.3,0.7-0.5c0.4-0.3,0.8-0.5,1.2-0.8c0.3-0.2,0.6-0.4,1-0.6c0.1-0.1,0.2-0.1,0.3-0.2
				c0.2-0.1,0.3-0.2,0.5-0.3c0.4-0.2,0.8-0.5,1.2-0.7c0.4-0.2,0.7-0.5,1.1-0.7c0.5-0.3,1-0.6,1.5-0.9c0.5-0.3,0.9-0.5,1.4-0.8
				c0.5-0.3,1-0.5,1.5-0.8c0.5-0.3,1-0.5,1.5-0.8c0.5-0.3,1-0.5,1.5-0.8c1.5-0.8,3-1.5,4.6-2.2l0,0c-0.1-2.4,0.2-6.8,3.2-10.7
				c0.8-1,2.3-0.2,2,1c-0.6,2-1,4.4-0.5,6.3c0.2,0.6,0.9,1,1.5,0.7c1.5-0.6,3-1.1,4.6-1.7c0.4-0.1,0.8-0.3,1.1-0.4
				c0.8-0.3,1.5-0.5,2.3-0.7c0.8-0.2,1.6-0.5,2.3-0.7c0.5-0.2,1.1-0.3,1.6-0.5c0.5-0.1,1.1-0.3,1.6-0.4c0,0,0,0,0,0
				c1.3-0.3,2.6-0.7,4-1c-0.2,0.1-0.7,0.2-1.4,0.5c-0.1,0-0.2,0.1-0.3,0.1c-0.4,0.2-0.9,0.4-1.4,0.6c-0.1,0-0.2,0.1-0.3,0.1
				c-0.3,0.1-0.6,0.3-0.9,0.4c-0.1,0.1-0.2,0.1-0.3,0.1c-1.4,0.6-3,1.4-4.8,2.3c-0.3,0.2-0.6,0.3-0.9,0.5c-1,0.5-2,1-3.1,1.6
				c-0.2,0.1-0.4,0.2-0.5,0.3c-1.6,0.8-3.2,1.8-5,2.8c-0.3,0.2-0.6,0.4-0.9,0.6c-0.2,0.1-0.4,0.2-0.6,0.4c-0.6,0.4-1.2,0.7-1.9,1.1
				c-0.9,0.6-1.8,1.1-2.8,1.7c-0.2,0.1-0.5,0.3-0.7,0.4c-0.3,0.2-0.5,0.3-0.8,0.5c3.7,1.5,7.9,2.1,11.2,2.3c1.3,0.1,1.4,1.9,0.2,2.2
				c-6.6,1.5-12.3-0.1-15.9-1.5l0,0c-1.6,1.1-3.3,2.4-5,3.6c-0.4,0.3-0.9,0.6-1.3,1c-0.5,0.4-1,0.8-1.6,1.2c-0.3,0.3-0.7,0.5-1,0.8
				c0,0,0,0,0,0c0.1,0.9,0.1,0.9,0.2,1.9c5.2,2.7,11.6,3.8,16.2,4.2c1.3,0.1,1.4,1.9,0.1,2.2c-10,2.3-18.4-1.1-22.6-3.4l0,0
				c-0.2,0.2-0.4,0.3-0.6,0.5c-0.4,0.4-0.8,0.7-1.2,1.1c-0.3,0.2-0.5,0.5-0.8,0.7c-1.2,1.1-2.5,2.2-3.7,3.3
				c-0.6,0.5-0.5,1.5,0.2,1.8c5.3,2.8,11.8,3.9,16.5,4.4c1.3,0.1,1.4,1.9,0.1,2.2c-8.6,2-16.1-0.3-20.6-2.4c-1,0.2-2.1,0.4-3.1,0.6
				c-0.8,0.8-1.6,1.6-2.4,2.5c-0.3,0.3-0.6,0.7-1,1c-0.1,0.1-0.1,0.2-0.2,0.2c-0.2,0.2-0.4,0.5-0.7,0.7c-0.1,0.1-0.2,0.2-0.3,0.3
				c-0.2,0.2-0.4,0.5-0.7,0.7c-0.4,0.5-0.8,0.9-1.3,1.4c-0.3,0.3-0.5,0.6-0.8,0.9c-0.1,0.1-0.2,0.3-0.4,0.4c-0.4,0.4-0.7,0.8-1,1.2
				c0,0-0.1,0.1-0.1,0.1c-0.4,0.5-0.8,0.9-1.2,1.4c-0.3,0.4-0.6,0.7-0.9,1.1c-0.2,0.3-0.5,0.6-0.7,0.9c-0.3,0.4-0.7,0.8-1,1.2
				c-0.3,0.4-0.7,0.8-1,1.3c-0.7,0.9-1.5,1.9-2.2,2.8c-0.2,0.2-0.3,0.4-0.5,0.7c0,0-0.1,0.1-0.1,0.2c-0.3,0.4-0.6,0.7-0.8,1.1
				c-0.1,0.1-0.2,0.2-0.3,0.4c-0.4,0.5-0.7,0.9-1.1,1.4c-0.3,0.4-0.6,0.9-0.9,1.3c-0.3,0.4-0.6,0.8-0.9,1.3c0.3-0.2,0.5-0.3,0.5-0.3
				s9.8,3.8,20.8,3.9c1.4,0,1.5,2.1,0.2,2.2c-6.1,0.8-13.9,0.7-22.8-2.4c-0.5,0.2-0.8,0.3-1.3,0.4c-0.1,0.2-0.3,0.4-0.4,0.6
				c-0.2,0.3-0.4,0.6-0.6,0.9c-0.2,0.3-0.4,0.7-0.7,1c-0.2,0.4-0.5,0.7-0.7,1.1c-0.2,0.4-0.5,0.8-0.7,1.2c-0.4,0.6-0.7,1.2-1.1,1.8
				c-0.3,0.4-0.5,0.9-0.8,1.3c-0.4,0.7-0.8,1.4-1.2,2.1c-0.4,0.6,0,1.4,0.7,1.6c3.8,1.1,10.4,2.7,17.5,2.8c1.4,0,1.5,2,0.2,2.2
				c-5.7,0.8-12.9,0.7-21.1-1.8l0,0c-0.1,0.1-0.2,0.3-0.2,0.4c-0.2,0.4-0.5,0.9-0.7,1.3c-0.2,0.4-0.4,0.7-0.6,1.1
				c-0.9,1.8-1.9,3.6-2.8,5.5c-0.2,0.5-0.5,1-0.7,1.5c-0.3,0.6-0.5,1.1-0.8,1.7c-0.4,0.8,0.2,1.6,1.1,1.6c4-0.2,10.1-1,16.3-3
				c1.3-0.4,2.1,1.4,0.9,2.1c-5,2.6-11.7,4.8-20.1,5.1c-0.4,0-0.8,0.3-1,0.7c-0.4,1.1-0.9,2.1-1.3,3.2c-0.2,0.5-0.4,1-0.6,1.5
				c-0.2,0.6-0.4,1.1-0.6,1.7c0,0,0,0.1,0,0.1c-0.1,0.3-0.2,0.6-0.4,1c-0.2,0.4-0.6,0.7-1,0.7c-0.2,0-0.4,0-0.5,0
				c-0.3,0-0.5,0-0.6,0c-0.3,0-0.6-0.1-0.9-0.4c-0.4-0.5-0.9-1-1.3-1.6c-0.2-0.3-0.3-0.8-0.1-1.1c0.3-0.6,0.5-1.1,0.8-1.7
				C298.1,269.2,298.4,268.4,298.8,267.7z"/>
		</g>
	</g>
	<g>
		<g>
			<g>
				<path class="st1" d="M21.5,159.4c6.3,4.8,9.6,9.5,11.7,17.1c1.5,5.5,0.1,10.7,1.8,15.5c0.7,2,3.7,1.6,3.8-0.5
					c0.2-2.8-0.3-5.8-0.9-8.4c-0.8-3.3-3.2-11.3,4.1-8.3c7.1,2.9,3.1,14.3,2.3,22.4c-0.3,2.5,3.5,3.1,3.9,0.6
					c1.3-7.3-0.4-19,7.8-19.6c9.5-0.7,1.1,17.4-0.7,21.4c-1.1,2.5-7.3,13.8-0.4,11.7c3.9-1.2,5.1-10.2,5.7-13.4
					c0.6-3.2-0.7-10.3,1.8-12.5c4.2-3.8,6.3,2.1,6.7,5.4c0.8,7.6-8.9,15.6-8.9,23.1c0,1.8,2.2,2.6,3.4,1.4c2.1-2.1,3.8-4.3,5.2-7.4
					c1.7-3.9,0.9-7.8,2.2-11.4c3.5-9.7,8.1,3.4,4.6,9.8c-1.6,2.9-13.4,15.4-7.2,19.2c0,0,0,0,0,0c0.1,0.1,0.2,0.1,0.4,0.2
					c0,0,0.1,0,0.1,0.1c0,0,0,0,0.1,0c5.8,2.3,12.8-22.8,13.8-26.4c0.7-2.7-0.7-5-1-7.6c-0.1-0.9,0.4-1.8,1.3-2.1
					c12-4.8,4.7,15.4,2.3,20c-2,3.9-4.9,8.9-5.3,13.3c-0.4,4.4,1.3,11.4,5.8,6.9c2.5-2.5,5.5-11,6.8-14.5c1.6-4.4,1.4-8.5,2.2-13.1
					c0.6-3.6,3.5-11,7.6-6.3c2.1,2.3,0.7,9,0,11.7c-2,8.2-13.8,17.6-11.2,26.7c0.4,1.2,1.8,1.9,2.9,1.2c6.3-3.8,9.4-18,11.5-23.8
					c0.8-2.2,1.4-4.6,1.5-6.9c0.1-2.4-1.5-5.4-1-7.7c1.8-7,7.4-3,9.2,1.4c3.8,9.1-1.4,16.4-7.8,22.1c-3.3,3-15.2,15.3-4.8,16.4
					c10.1,1.1,7.2-11.1,10.2-16.5c2.1-3.8,6.3-4.8,8.6-8.4c2-3.2,1.6-7.2,5.2-9.4c3.7-2.3,6.8-1.7,7.3,2.7c0.4,3.9-3.2,7.6-5.8,10.2
					c-3.1,3.1-7.8,4.9-10.1,8.7c-1.5,2.5-2.7,9.1,1.4,10.1c4.1,1,12.9-11.1,15-13.9c5.2-7.1,6-11.5,6-19.4c0-0.8,0.5-1.5,1.2-1.9
					c5.8-2.5,8,4.8,6.7,9.8c-1.5,5.9-5.9,9.9-10.4,13.7c-2.7,2.3-11.5,8-9.7,12.1c2.6,5.7,10.2,1.4,11.6-1.9c2.2-5.3,1-8.3,6.8-12.1
					c3.7-2.4,8.3-5.7,12.8-6.2c5.9-0.7,8.5,3.1,3.4,7.5c-3.7,3.2-9.1,3-13.5,5.1c-5,2.4-9.4,9.4-2.6,12.8c3.4,1.7,9.6,0.7,14-0.2
					c1.2-0.3,2.4,0.7,2.4,1.9c0,1.2,0,2.6,0.1,3.8c0,0.3,0,0.6,0,0.9c0.1,1.3-1.1,2.3-2.4,2c-3.4-0.6-6.6-1.7-9.9-2.7
					c-1.6-0.5-3.2-0.9-4.9-1.3c0,0-0.1,0-0.1,0c-4.1-1-5.7-1-6.9,0.8c-0.5,0.8-0.9,1.9-1.4,3.4c-1,3.1-4.2,18.7-9.9,11.9
					c-3.9-4.6,3.9-11,4.2-15.3c0-0.3,0-0.5,0-0.7c0-6.3-5.5-4.6-8.7-1.2c-0.3,0.3-0.6,0.6-0.9,1c-3.5,4.6-3.7,10.5-3.7,16
					c0,3.7,1.1,10.7-4.3,11.7c-7.9,1.4-4.2-10.1-2.3-13.6c2.1-4,11.9-13.7,4-13.8c-13-0.1-14,21.6-25.3,24.7
					c-1.2,0.3-2.4-0.6-2.5-1.8c-0.2-4,4.4-7,6.9-9.8c1.7-1.9,9.8-10.5,9.5-12.6c-0.6-4-7.7-2.9-10.6-1.5c-7.3,3.5-7.3,12.6-9,19.4
					c-2,8.4-11.4,11.6-10.1,1.1c0.9-7.4,8.2-12.7,11.9-18.7c5.7-9.2-4.2-4.2-8.3-0.8c-3.9,3.2-6.6,8.1-8.4,12.8
					c-2.7,7.1,1,18-8.3,21.4c-13.8,5.1,1.5-25.3,4.1-29.2c2.4-3.7,6.6-5.2,9.9-7.8c3.5-2.7,5.7-7.3-0.6-7.4c-3.9-0.1-6.5,4-8.6,6.6
					c-4.8,6.2-7.5,16.6-14.5,20.7c-10.9,6.4-12.1-4.8-5.4-11.1c5.2-4.8,11.1-8.6,16.7-12.6c1.8-1.2,8.3-5.6,4-6.9
					c-2-0.6-7,3-8.6,3.9c-6,3.3-10.2,7.8-15.6,11.9c-3.5,2.6-20.6,8.9-16-0.4c2.3-4.6,12.5-7.9,16.5-11c1.8-1.4,7.7-4.2,11.6-6.7
					c1.6-1,1-3.6-1-3.7c-4.3-0.2-8.5,0.2-12.3,2.7c-5.5,3.7-4.4,9.3-11.7,10.9c-5.7,1.2-11.1-0.2-6.7-6.3c2.9-4,9.2-6.5,13.5-8.8
					c2.8-1.5,10.6-2.7,12.6-4.9c5.2-5.6-6.7-1.8-9.2-1c-4,1.2-29.9,11.3-28.1-0.7c0.9-6,15.1-4.2,23-4.2c2,0,2.7-2.7,1-3.7
					c-8-4.8-21.2-1-27.7-6.7c-6.6-5.7,2.1-6.6,6.9-5.7c3.4,0.7,9.4,5.1,13.7,5.7c1.7,0.3,2.9-1.7,1.9-3.2c-3.2-4.2-9.4-9.2-12.7-12
					c-4.6-3.8-18-5.2-18.5-12.2c-0.5-7,8-1.6,12.7,2c1,0.8,1.9,1.5,2.4,2c2,1.8,5.6,6.6,9.2,9.9c1.7,1.6,4.2-0.4,3.1-2.4
					c-2.6-4.5-5.5-9-8.9-13.1c-3.1-3.9-16.5-10.7-17-15.3C0.5,149.4,18.4,157.1,21.5,159.4z"/>
			</g>
		</g>
		<g>
			<g>
				<path class="st1" d="M34.8,107.2c7,5.5,13,7.9,22,8c6.4,0.1,11.7-2.8,17.5-2.3c2.4,0.2,2.8,3.6,0.5,4.3c-3,1-6.4,1.3-9.4,1.4
					c-3.8,0.1-13.3-0.3-8,6.8c5.2,7,16.5-0.6,25.2-3.8c2.7-1,4.4,3,1.7,4.1c-7.6,3.4-21,4.9-19.3,14c1.9,10.6,19.4-3.7,23.3-6.8
					c2.4-1.9,13.1-11.8,12.8-3.7c-0.2,4.5-9.7,8.5-13.1,10c-3.3,1.5-11.5,2.1-13.2,5.5c-3,5.6,4.1,6.3,7.8,5.8
					c8.5-1.3,14.6-14.2,22.9-16.2c1.9-0.5,3.4,1.7,2.4,3.4c-1.7,2.9-3.7,5.4-6.7,7.7c-3.8,3-8.3,3.2-11.9,5.6c-9.7,6.5,6,8,12.1,2.3
					c2.7-2.6,13.1-19,19-13.3c0,0,0,0,0,0c0.1,0.1,0.2,0.2,0.3,0.4c0,0,0.1,0.1,0.1,0.1c0,0,0,0,0,0.1c4.1,5.7-21.5,20.4-25.1,22.5
					c-2.7,1.5-5.7,0.6-8.6,1c-1,0.1-1.8,0.9-1.9,2c-1.9,14.5,18.2,0.8,22.6-3c3.8-3.3,8.3-7.9,13.1-9.6c4.7-1.6,12.8-1.8,9.1,4.4
					c-2.1,3.4-10.5,9.1-14,11.5c-4.4,3-9,4-13.7,6.1c-3.8,1.7-11.1,6.9-4.8,10c3.1,1.6,10-1.7,12.8-3.2c8.5-4.5,15.5-20,26.1-19.7
					c1.5,0,2.6,1.5,2.1,2.9c-2.4,8-17.1,15.3-22.9,19.2c-2.2,1.5-4.7,2.8-7.1,3.6c-2.6,0.8-6.3-0.2-8.7,1.1c-7.2,3.9-1.2,9,4.1,9.8
					c11,1.6,17.6-6.1,22-14.7c2.3-4.5,12.5-20.9,16.6-9.8c4,10.7-10.2,11-15.3,15.8c-3.6,3.4-3.5,8.2-6.8,11.8
					c-2.9,3.1-7.4,3.7-8.9,8.3c-1.5,4.7,0,7.9,5,7.2c4.4-0.6,7.5-5.7,9.5-9.2c2.5-4.2,3.2-9.9,6.8-13.5c2.3-2.3,9.3-5.5,11.5-1.3
					c2.2,4.2-8.6,17.3-11.1,20.3c-6.4,7.7-10.9,9.8-19.6,12c-0.9,0.2-1.5,1-1.7,1.9c-1.1,7.1,7.5,7.4,12.7,4.6
					c6-3.3,9.2-9.3,12.1-15.2c1.7-3.6,5.6-14.9,10.5-14c6.9,1.2,4.3,10.8,1.1,13.3c-5.2,3.9-8.8,3.4-11.4,10.8
					c-1.6,4.7-3.9,10.7-3.2,15.8c0.9,6.7,5.7,8.5,9.1,1.6c2.5-5,0.8-10.8,1.9-16.2c1.2-6.1,7.7-13,13.3-6.4
					c2.8,3.3,3.5,10.4,3.7,15.5c0,1.4,1.4,2.4,2.8,2.1c1.3-0.3,2.8-0.7,4.2-1c0.3-0.1,0.7-0.1,1-0.2c1.4-0.3,2.2-1.8,1.6-3.2
					c-1.7-3.6-3.7-6.8-5.7-10.1c-1-1.6-1.9-3.3-2.8-5c0,0,0-0.1-0.1-0.1c-2.2-4.2-2.7-6-1-7.8c0.7-0.8,1.8-1.5,3.3-2.5
					c3.1-1.9,19.4-9.8,10.3-14.2c-6.1-3-11,7.4-15.6,8.8c-0.3,0.1-0.5,0.2-0.8,0.2c-6.9,1.7-6.5-4.8-3.7-9.3
					c0.3-0.4,0.5-0.8,0.8-1.2c4.1-5.1,10.5-7,16.5-8.5c4.1-1,12.1-1.8,11.6-8c-0.7-9-12.2-1.8-15.6,1.3c-3.8,3.4-11.7,16.8-14,8.3
					c-3.8-14.2,19.8-21.4,20.1-34.7c0-1.4-1.3-2.5-2.7-2.2c-4.5,0.9-6.4,6.8-8.9,10.3c-1.7,2.4-8.8,13.6-11.2,13.9
					c-4.6,0.4-5.4-7.7-4.6-11.2c1.8-9,11.8-11.6,18.8-15.3c8.7-4.6,9.6-15.8-1.6-11.3c-7.9,3.1-11.7,12.5-17.2,18.3
					c-8.5,8.8-5.7-3.4-3.2-8.9c2.4-5.2,7.1-9.5,11.7-12.8c7.1-5,20-4,21.1-15.1c1.7-16.5-27.3,8.7-30.8,12.6
					c-3.3,3.7-3.9,8.7-5.8,13c-2,4.6-6.4,8.3-8.3,1.4c-1.2-4.3,2.5-8.3,4.8-11.2c5.4-7,16.1-12.9,18.6-21.7c4-13.7-8.7-12-13.6-2.8
					c-3.8,7-6.3,14.6-9.1,21.8c-0.9,2.3-3.8,10.7-6.4,6.3c-1.2-2,1.3-8.5,1.8-10.6c1.9-7.5,5.7-13.4,8.7-20.5c1.9-4.6,4-25-4.9-17.5
					c-4.5,3.8-5.1,15.9-7.5,21.2c-1.1,2.4-2.5,9.6-4.1,14.6c-0.7,2.1-3.6,2.1-4.3,0c-1.4-4.6-2.2-9.4-0.5-14.2c2.5-7,9-7.4,8.7-15.9
					c-0.2-6.6-3.4-12.1-8.8-5.6c-3.5,4.3-4.6,12-5.9,17.2c-0.9,3.5-0.1,12.3-1.9,15.2c-4.7,7.3-3.8-6.9-3.7-9.8
					c0.2-4.8,4.1-35.9-8.6-30.7c-6.3,2.6-0.4,17.7,1.8,26.4c0.5,2.2-2.1,3.7-3.7,2.2c-7.5-7.5-7-22.9-15-28.5
					c-8-5.6-6.7,4.2-4.3,9.2c1.7,3.5,8.2,8.9,10.1,13.4c0.8,1.8-1.1,3.7-2.9,2.9c-5.5-2.3-12.7-7.7-16.6-10.6
					c-5.4-3.9-10.7-18.3-18.5-16.9c-7.8,1.4,0.5,9.2,5.8,13.3c1.2,0.9,2.2,1.6,2.8,2.1c2.5,1.7,8.8,4.4,13.4,7.3
					c2.2,1.4,0.7,4.8-1.8,4.1c-5.7-1.6-11.4-3.6-16.9-6.1C45,97.5,33.8,84.8,28.6,85.5C18,87,31.4,104.5,34.8,107.2z"/>
			</g>
		</g>
		<g>
			<g>
				<g>
					<path class="st3" d="M78.1,173.2L78.1,173.2c0.3,0.2,0.5,0.4,0.8,0.7C78.6,173.7,78.4,173.4,78.1,173.2z"/>
					<path class="st3" d="M134.8,242.4L134.8,242.4c0.1,0.2,0.2,0.4,0.3,0.5C135,242.7,134.9,242.6,134.8,242.4z"/>
					<path class="st7" d="M148.8,272.8c-0.3-0.7-0.5-1.4-0.8-2.1c-0.2-0.6-0.5-1.3-0.7-1.9c-0.6-1.6-1.3-3.2-2-4.8
						c-3.4-0.1-6.6-0.4-9.6-1c-3-0.5-2.3-5,0.7-4.7c2.6,0.3,4.9,0.4,6.6,0.5c-0.6-1.4-1.3-2.8-2-4.3c-0.3-0.6-0.6-1.3-0.9-1.9
						c-1.1-2.3-2.3-4.6-3.4-6.8c-0.2-0.5-0.5-0.9-0.7-1.4c-0.4-0.7-0.8-1.5-1.2-2.2c0,0,0,0,0,0c-3.1,1-6.1,1.6-8.9,2.1
						c-3,0.5-3.9-4-0.9-4.7c3-0.7,5.6-1.4,7.3-2c-0.8-1.4-1.6-2.8-2.4-4.1c-0.3-0.6-0.7-1.1-1-1.6c-0.5-0.8-0.9-1.5-1.4-2.3
						c-0.3-0.5-0.6-1-0.9-1.5c-0.3-0.5-0.6-0.9-0.9-1.4c-0.3-0.4-0.5-0.8-0.8-1.3c-0.3-0.4-0.5-0.8-0.8-1.1
						c-0.4-0.6-0.7-1.1-1.1-1.6c0,0,0,0,0,0c-4.2,1.5-8.3,2.6-12.1,3.2c-3,0.5-3.9-4-0.9-4.7c5.8-1.3,9.7-2.8,9.7-2.8
						s0.2,0.2,0.6,0.4c-0.4-0.5-0.7-1.1-1.1-1.6c-0.4-0.5-0.8-1.1-1.2-1.6c-0.4-0.6-0.9-1.2-1.3-1.8c-0.1-0.2-0.2-0.3-0.3-0.5
						c-0.4-0.5-0.7-0.9-1.1-1.4c0-0.1-0.1-0.1-0.1-0.2c-0.2-0.3-0.4-0.6-0.6-0.8c-0.9-1.2-1.8-2.4-2.7-3.5c-0.4-0.5-0.9-1.1-1.3-1.6
						c-0.4-0.5-0.8-1-1.2-1.5c-0.3-0.4-0.6-0.7-0.9-1.1c-0.4-0.4-0.7-0.9-1.1-1.3c-0.5-0.6-1-1.2-1.5-1.8c0,0-0.1-0.1-0.1-0.1
						c-0.4-0.5-0.9-1-1.3-1.5c-0.1-0.2-0.3-0.3-0.4-0.5c-0.3-0.4-0.7-0.8-1-1.1c-0.5-0.6-1.1-1.2-1.6-1.7c-0.3-0.3-0.6-0.6-0.8-0.9
						c-0.1-0.1-0.3-0.3-0.4-0.4c-0.3-0.3-0.5-0.6-0.8-0.9c-0.1-0.1-0.2-0.2-0.3-0.3c-0.4-0.4-0.8-0.9-1.2-1.3
						c-1.2-1.3-2.5-2.6-3.7-3.8c-0.8-0.1-1.5-0.3-2.3-0.4c-4.2,2.1-10.8,4.5-18.8,4.3c-2.9,0-3.2-4.2-0.4-4.7
						c5.1-1,10.6-2.6,15.1-5.4c-2-1.9-4-3.7-6-5.5c-0.3-0.3-0.7-0.6-1-0.9c-0.6-0.5-1.2-1-1.8-1.5c-0.4,0-0.7-0.1-1.1-0.1
						c-4.1,2.2-11.2,5-19.8,4.8c-2.9,0-3.2-4.2-0.4-4.7c5-0.9,10.4-2.6,14.9-5.3c0,0,0,0,0,0c-0.6-0.4-1.1-0.9-1.6-1.3
						c-0.4-0.3-0.9-0.7-1.3-1c-0.7-0.5-1.3-1-2-1.5c-0.5-0.4-1.1-0.8-1.6-1.2c-2.1-1.6-4.2-3.1-6.3-4.5l0,0c-2.5,1-5.9,2.1-9.9,2.5
						c-2.9,0.3-3.6-4-0.8-4.7c1.7-0.4,3.4-0.9,5-1.6c-0.3-0.2-0.7-0.4-1-0.6c-0.3-0.2-0.6-0.4-0.9-0.5c-1.2-0.7-2.3-1.5-3.4-2.2
						c-0.8-0.5-1.6-1-2.3-1.4c-0.3-0.2-0.5-0.3-0.8-0.5c-0.4-0.2-0.8-0.5-1.2-0.7c-2.2-1.3-4.3-2.4-6.2-3.5
						c-0.2-0.1-0.5-0.2-0.7-0.4c-1.4-0.7-2.7-1.4-3.9-2c-0.4-0.2-0.8-0.4-1.2-0.6c-2.3-1.1-4.3-2.1-6-2.8c-0.1-0.1-0.3-0.1-0.4-0.2
						c-0.4-0.2-0.8-0.3-1.2-0.5c-0.1-0.1-0.2-0.1-0.4-0.2c-0.7-0.3-1.3-0.5-1.8-0.7c-0.1,0-0.2-0.1-0.3-0.1
						c-0.8-0.3-1.4-0.5-1.7-0.6c1.7,0.4,3.3,0.8,5,1.2c-5.8-2.2-10.9-3.8-14.9-4.8c-0.1,0.5-0.1,1,0,1.5
						c3.1,23.1,18.7,49.9,34.4,71.7c17.1-2.5,46.8-5.6,60,0.7l-53.4,8.2c5.6,7.3,10.9,13.9,15.5,19.2c19.6,23,47.6,37.4,77.8,39.7
						c1.9,0.1,3.5,0.2,4.8,0.2c-0.3-0.7-0.5-1.4-0.8-2.1C148.8,272.9,148.8,272.9,148.8,272.8z"/>
					<path class="st5" d="M152.6,266.2c-0.9-1.9-1.7-3.8-2.6-5.6c0,0,0,0,0,0C150.9,262.4,151.7,264.3,152.6,266.2z"/>
					<path class="st5" d="M79.1,164.9c0.4,0.3,0.8,0.6,1.1,0.9C79.9,165.5,79.5,165.2,79.1,164.9L79.1,164.9z"/>
					<path class="st5" d="M116,202.9c0.9,1.3,1.9,2.5,2.8,3.8C117.9,205.4,117,204.1,116,202.9z"/>
					<path class="st5" d="M32.4,140.6c-1-0.3-1.9-0.6-2.9-0.9C30.4,140,31.4,140.3,32.4,140.6z"/>
					<path class="st5" d="M50,147.4c1.9,0.9,3.8,1.8,5.7,2.8C53.8,149.2,51.9,148.2,50,147.4L50,147.4z"/>
					<path class="st5" d="M106.4,190.9c-1.6-1.9-3.2-3.7-4.9-5.4C103.1,187.2,104.8,189,106.4,190.9z"/>
					<path class="st5" d="M108.3,193.1C108.3,193.1,108.3,193.1,108.3,193.1c-0.6-0.8-1.3-1.5-1.9-2.2
						C107,191.6,107.6,192.3,108.3,193.1z"/>
					<path class="st5" d="M128.8,221.6c1.3,2.1,2.6,4.2,3.9,6.3C131.4,225.7,130.1,223.6,128.8,221.6
						C128.8,221.6,128.8,221.6,128.8,221.6z"/>
					<path class="st5" d="M125.2,215.9L125.2,215.9c-2.1-3.2-4.2-6.2-6.4-9.2C121,209.7,123.1,212.8,125.2,215.9z"/>
					<path class="st5" d="M147.1,254.5c-0.3-0.7-0.7-1.3-1-2C146.4,253.2,146.7,253.8,147.1,254.5L147.1,254.5z"/>
					<path class="st5" d="M137.5,236.3c-1.6-2.8-3.2-5.6-4.8-8.4C134.3,230.6,135.9,233.4,137.5,236.3z"/>
					<path class="st7" d="M25.4,138.6c0.7,0.2,1.3,0.3,2,0.5c0.7,0.2,1.4,0.4,2,0.6c1,0.3,2,0.6,2.9,0.9c1,0.3,1.9,0.6,2.9,0.9
						c0.5,0.2,1,0.3,1.4,0.5c2.4,0.8,4.7,1.7,7,2.6c1-1.8,1-4.3,0.5-6.8c-0.4-2.1,2.5-3.1,3.5-1.2c2.1,4.1,2.3,8.2,2.2,10.7
						c1.9,0.9,3.8,1.8,5.7,2.8c0.6,0.3,1.2,0.6,1.9,1c0.6,0.3,1.2,0.7,1.9,1c0.6,0.3,1.2,0.7,1.8,1c0.6,0.3,1.1,0.7,1.7,1
						c0.6,0.4,1.3,0.7,1.9,1.1c-5.5-5.8-11.8-20.4-15.6-29.8c-12.3-1.3-24.4-0.1-35.5,4.4c-1.7,0.7-2.9,2.2-3.2,4
						C14.5,134.9,19.6,136.4,25.4,138.6C25.4,138.6,25.4,138.6,25.4,138.6z"/>
					<path class="st7" d="M68.3,157.3c0.1,0.1,0.2,0.1,0.3,0.2c0.4,0.3,0.8,0.5,1.2,0.8c0.5,0.3,1,0.7,1.5,1
						c0.3,0.2,0.6,0.4,0.9,0.6c0.4,0.2,0.7,0.5,1.1,0.7c0.3,0.2,0.6,0.4,0.9,0.7c0,0,0,0,0.1,0c0-2.4-0.2-4.9-0.7-7.2
						c-0.4-2.3,2.8-3.2,3.6-1c1.7,4.5,2.1,8.7,2,11.8c0.4,0.3,0.8,0.6,1.1,0.9c0.4,0.3,0.8,0.6,1.1,0.9c0.4,0.3,0.8,0.6,1.1,0.9
						c0.4,0.3,0.8,0.6,1.1,0.9c0.4,0.3,0.7,0.6,1.1,0.9c0.4,0.3,0.7,0.6,1.1,0.9c0.7,0.6,1.5,1.3,2.2,1.9c0.9-2.9,1.3-6.1,1.3-9.1
						c0-2.3,3.4-2.5,3.7-0.3c0.9,5.5,0,10.3-0.8,13.3c0.3,0.3,0.6,0.6,0.9,0.8c0.1,0.1,0.2,0.2,0.3,0.3c0.3,0.2,0.5,0.5,0.8,0.8
						c0.1,0.1,0.3,0.3,0.4,0.4c0.6,0.6,1.2,1.1,1.7,1.7c0.3,0.3,0.7,0.7,1,1c0.3,0.3,0.7,0.7,1,1c0.3,0.3,0.7,0.7,1,1
						c0.7,0.7,1.3,1.4,2,2.1c1.7,1.8,3.3,3.6,4.9,5.4c0.6,0.7,1.3,1.5,1.9,2.2c2-5.1,2.9-10.8,2.9-17.1c0-2.3,3.3-2.6,3.7-0.3
						c2,10.5,0.1,19.6-1.3,24c0.3,0.3,0.5,0.7,0.8,1.1c0.1,0.2,0.3,0.4,0.4,0.5c0.2,0.3,0.4,0.6,0.6,0.9c0.2,0.2,0.4,0.5,0.5,0.7
						c0.9,1.3,1.9,2.5,2.8,3.8c2.2,3,4.3,6.1,6.4,9.2c1-3.5,2.5-9.5,3.1-16.4c0.2-2.3,3.7-2.3,3.7,0.1c0.2,6.4-0.5,13.8-3.2,21.9
						c1.3,2.1,2.6,4.2,3.9,6.3c0,0,0,0,0,0c1.6,2.7,3.2,5.5,4.8,8.4c0.5,0.8,0.9,1.7,1.4,2.5c1.7-8.3,2.4-44.4,2.6-63.9
						c-21.2-21.9-51.7-41.5-81.7-47.8l6.5,29c0.5,0.3,1,0.6,1.5,0.9C67.9,157.1,68.1,157.2,68.3,157.3z"/>
					<path class="st3" d="M139,239c0.3,0.6,0.7,1.3,1,1.9c0.3,0.6,0.7,1.3,1,1.9c0.3,0.6,0.7,1.3,1,1.9c0.3,0.6,0.7,1.3,1,1.9
						c0.3,0.6,0.7,1.3,1,1.9c0.7,1.3,1.3,2.6,2,3.9c0.3,0.7,0.7,1.3,1,2c4-6.3,6.6-13.6,8.2-20c0.6-2.3,4.1-1.6,3.7,0.8
						c-2,10.2-6.7,20.6-9,25.3c0.9,1.9,1.8,3.7,2.6,5.6c0.4,0.9,0.9,1.9,1.3,2.8c0.4,0.9,0.9,1.9,1.3,2.9c2.4-3.3,4.4-7,6.1-10.8
						c10.4-23.6,7.1-50.6-7.4-71.6C152.6,217.7,140.7,236.5,139,239z"/>
				</g>
			</g>
			<path class="st3" d="M139,239c0.3,0.6,0.7,1.3,1,1.9c0.3,0.6,0.7,1.3,1,1.9c0.3,0.6,0.7,1.3,1,1.9c0.3,0.6,0.7,1.3,1,1.9
				c0.3,0.6,0.7,1.3,1,1.9c0.7,1.3,1.3,2.6,2,3.9c0.3,0.7,0.7,1.3,1,2c4-6.2,6.6-13.2,8.4-19.3c0.7-2.5,4.4-1.6,3.9,0.9
				c-2.1,9.8-7.1,19.8-9.3,24.5c0.9,1.9,1.8,3.7,2.6,5.6c0.4,0.9,0.9,1.9,1.3,2.8c0.4,0.9,0.9,1.9,1.3,2.9c2.4-3.3,4.4-7,6.1-10.8
				c10.4-23.6,7.1-50.6-7.4-71.6C152.6,217.7,140.7,236.5,139,239z"/>
			<path class="st6" d="M152.6,266.2c-0.9-1.9-1.7-3.8-2.6-5.6c0,0,0,0,0,0c3-6.1,10.1-22,9.9-34.4c0-1.7-2.5-1.9-2.8-0.2
				c-1.2,7.7-4,19.1-10,28.5l0,0c-0.3-0.7-0.7-1.3-1-2c-0.7-1.3-1.3-2.6-2-3.9c-0.3-0.6-0.7-1.3-1-1.9c-0.3-0.7-0.7-1.3-1-1.9
				c-0.3-0.6-0.7-1.3-1-1.9c-0.3-0.6-0.7-1.3-1-1.9c-0.3-0.6-0.7-1.3-1-1.9c0-0.1-0.1-0.1-0.1-0.2c-0.5-0.8-0.9-1.7-1.4-2.5
				c-1.6-2.8-3.2-5.6-4.8-8.4c0,0,0,0,0,0c-1.3-2.1-2.6-4.2-3.9-6.3c0,0,0,0,0,0c3.7-11.3,3.8-21.1,2.6-28.7
				c-0.3-1.7-2.8-1.5-2.8,0.2c0,9.5-2.1,18.3-3.4,22.9l0,0c-2.1-3.1-4.2-6.2-6.4-9.2c-0.9-1.3-1.9-2.6-2.8-3.8
				c-0.2-0.2-0.4-0.5-0.5-0.7c-0.2-0.3-0.4-0.6-0.6-0.9c-0.1-0.2-0.3-0.4-0.4-0.5c-0.1-0.2-0.2-0.3-0.4-0.5
				c-0.3-0.4-0.4-0.8-0.2-1.2c1.5-5.3,3.5-15.9,0-27.8c-0.5-1.6-2.8-1.2-2.8,0.5c0.4,7.9-0.3,15.2-2.8,21.4c0,0,0,0,0,0
				c-0.6-0.8-1.3-1.5-1.9-2.2c-1.6-1.9-3.2-3.7-4.9-5.4c-0.7-0.7-1.3-1.4-2-2.1c-0.3-0.4-0.7-0.7-1-1c-0.3-0.3-0.7-0.7-1-1
				c-0.3-0.3-0.7-0.7-1-1c-0.6-0.6-1.2-1.2-1.7-1.7c-0.1-0.1-0.3-0.3-0.4-0.4c-0.3-0.3-0.5-0.5-0.8-0.8c-0.1-0.1-0.2-0.2-0.3-0.3
				c-0.1-0.1-0.2-0.2-0.3-0.3c-0.4-0.4-0.5-0.9-0.4-1.4c1-3.9,1.8-10.1-0.5-16.9c-0.5-1.6-2.9-1.1-2.7,0.5c0.2,3.3,0.2,7.3-0.6,11
				c-0.2,1-1.5,1.5-2.3,0.8c-0.2-0.1-0.3-0.3-0.5-0.4c-0.4-0.3-0.7-0.6-1.1-0.9c-0.4-0.3-0.7-0.6-1.1-0.9c-0.4-0.3-0.7-0.6-1.1-0.9
				c-0.4-0.3-0.7-0.6-1.1-0.9c-0.4-0.3-0.8-0.6-1.1-0.9c-0.4-0.3-0.8-0.6-1.1-0.9l0,0c0.1-4-0.5-10-4-15.9c-0.8-1.4-3-0.5-2.6,1.1
				c0.9,3.3,1.7,7.3,1.7,11.2c0,0,0,0-0.1,0c-0.3-0.2-0.6-0.4-0.9-0.7c-0.4-0.2-0.7-0.5-1.1-0.7c-0.3-0.2-0.6-0.4-0.9-0.6
				c-0.5-0.3-1-0.7-1.5-1c-0.4-0.3-0.8-0.5-1.2-0.8c-0.1-0.1-0.2-0.1-0.3-0.2c-0.2-0.1-0.4-0.3-0.6-0.4c-0.5-0.3-1-0.6-1.5-0.9
				c-0.5-0.3-0.9-0.6-1.4-0.8c-0.6-0.4-1.3-0.8-1.9-1.1c-0.6-0.3-1.1-0.7-1.7-1c-0.6-0.3-1.2-0.7-1.8-1c-0.6-0.3-1.2-0.7-1.9-1
				c-0.6-0.3-1.2-0.7-1.9-1c-1.9-1-3.8-1.9-5.7-2.8l0,0c0.1-3-0.3-8.6-3.9-13.4c-0.9-1.2-2.9-0.2-2.5,1.3c0.8,2.6,1.3,5.5,0.7,7.9
				c-0.2,0.8-1.1,1.2-1.9,0.9c-1.9-0.7-3.8-1.4-5.7-2.1c-0.5-0.2-1-0.3-1.4-0.5c-1-0.3-1.9-0.6-2.9-0.9c-1-0.3-1.9-0.6-2.9-0.9
				c-0.7-0.2-1.4-0.4-2-0.6c-0.7-0.2-1.3-0.4-2-0.5c0,0,0,0,0,0c-1.6-0.4-3.3-0.8-5-1.2c0.3,0.1,0.9,0.3,1.7,0.6
				c0.1,0,0.2,0.1,0.3,0.1c0.5,0.2,1.1,0.5,1.8,0.7c0.1,0.1,0.2,0.1,0.4,0.2c0.4,0.2,0.8,0.3,1.2,0.5c0.1,0.1,0.3,0.1,0.4,0.2
				c1.7,0.8,3.7,1.7,6,2.8c0.4,0.2,0.8,0.4,1.2,0.6c1.2,0.6,2.5,1.3,3.9,2c0.2,0.1,0.5,0.2,0.7,0.4c1.9,1.1,4,2.2,6.2,3.5
				c0.4,0.2,0.8,0.5,1.2,0.7c0.3,0.2,0.5,0.3,0.8,0.5c0.8,0.5,1.5,0.9,2.3,1.4c1.1,0.7,2.3,1.4,3.4,2.2c0.3,0.2,0.6,0.4,0.9,0.5
				c0.3,0.2,0.6,0.4,1,0.6c-4.6,1.9-9.8,2.6-14,2.9c-1.6,0.1-1.8,2.4-0.2,2.8c8.2,1.8,15.4-0.1,19.8-1.9l0,0
				c2.1,1.4,4.2,2.9,6.3,4.5c0.5,0.4,1.1,0.8,1.6,1.2c0.7,0.5,1.3,1,2,1.5c0.4,0.3,0.9,0.7,1.3,1c0,0,0,0,0,0
				c-0.1,1.2-0.1,1.2-0.2,2.3c-6.5,3.4-14.5,4.7-20.2,5.3c-1.6,0.1-1.7,2.4-0.2,2.8c12.6,2.9,23-1.4,28.2-4.2l0,0
				c0.3,0.2,0.5,0.4,0.8,0.7c0.5,0.4,1,0.9,1.5,1.3c0.3,0.3,0.7,0.6,1,0.9c1.5,1.3,3.1,2.7,4.6,4.2c0.7,0.7,0.6,1.8-0.3,2.3
				c-6.6,3.6-14.7,4.9-20.6,5.4c-1.6,0.1-1.7,2.4-0.2,2.8c10.8,2.5,20.1-0.3,25.7-3c1.3,0.2,2.6,0.5,3.9,0.7c1,1,2,2.1,3,3.1
				c0.4,0.4,0.8,0.8,1.2,1.3c0.1,0.1,0.2,0.2,0.3,0.3c0.3,0.3,0.6,0.6,0.8,0.9c0.1,0.1,0.2,0.3,0.4,0.4c0.3,0.3,0.6,0.6,0.8,0.9
				c0.5,0.6,1.1,1.2,1.6,1.7c0.3,0.4,0.7,0.8,1,1.1c0.1,0.2,0.3,0.3,0.4,0.5c0.4,0.5,0.9,1,1.3,1.5c0,0,0.1,0.1,0.1,0.1
				c0.5,0.6,1,1.2,1.5,1.8c0.4,0.4,0.7,0.9,1.1,1.3c0.3,0.4,0.6,0.7,0.9,1.1c0.4,0.5,0.8,1,1.2,1.5c0.4,0.5,0.9,1.1,1.3,1.6
				c0.9,1.1,1.8,2.3,2.7,3.5c0.2,0.3,0.4,0.6,0.6,0.8c0.1,0.1,0.1,0.1,0.1,0.2c0.4,0.5,0.7,0.9,1.1,1.4c0.1,0.2,0.2,0.3,0.3,0.5
				c0.4,0.6,0.9,1.2,1.3,1.8c0.4,0.5,0.8,1.1,1.2,1.6c0.4,0.5,0.7,1.1,1.1,1.6c-0.4-0.3-0.6-0.4-0.6-0.4s-12.2,4.7-26,4.9
				c-1.7,0-1.9,2.6-0.2,2.8c7.6,1.1,17.4,0.8,28.5-3c0.6,0.2,1,0.3,1.6,0.5c0.2,0.2,0.3,0.5,0.5,0.7c0.3,0.4,0.5,0.8,0.8,1.1
				c0.3,0.4,0.5,0.8,0.8,1.3c0.3,0.5,0.6,0.9,0.9,1.4c0.3,0.5,0.6,1,0.9,1.5c0.5,0.7,0.9,1.5,1.4,2.3c0.3,0.5,0.7,1.1,1,1.6
				c0.5,0.8,1,1.7,1.5,2.6c0.5,0.8,0.1,1.8-0.8,2.1c-4.7,1.4-13,3.4-21.9,3.5c-1.7,0-1.9,2.6-0.2,2.8c7.1,1,16.1,0.9,26.3-2.3l0,0
				c0.1,0.2,0.2,0.4,0.3,0.5c0.3,0.5,0.6,1.1,0.9,1.7c0.2,0.5,0.5,0.9,0.7,1.4c1.2,2.2,2.3,4.5,3.4,6.8c0.3,0.6,0.6,1.2,0.9,1.9
				c0.3,0.7,0.7,1.4,1,2.1c0.4,1-0.3,2.1-1.4,2c-5-0.3-12.7-1.2-20.3-3.7c-1.7-0.5-2.6,1.8-1.1,2.6c6.3,3.2,14.6,6,25.1,6.4
				c0.5,0,1,0.4,1.3,0.9c0.6,1.3,1.1,2.6,1.6,4c0.3,0.6,0.5,1.2,0.7,1.9c0.3,0.7,0.5,1.4,0.8,2.1c0,0,0,0.1,0,0.1
				c0.1,0.4,0.3,0.8,0.4,1.2c0.2,0.5,0.7,0.9,1.3,0.9c0.2,0,0.5,0,0.7,0c0.3,0,0.6,0,0.8,0c0.4,0,0.8-0.2,1.1-0.5
				c0.5-0.6,1.1-1.3,1.6-2c0.3-0.4,0.4-1,0.2-1.4c-0.3-0.7-0.6-1.4-0.9-2.1C153.5,268.1,153,267.2,152.6,266.2z"/>
		</g>
	</g>
</g>
<g>
	<rect x="272.7" y="61.4" class="st1" width="153.6" height="100"/>
	<polygon class="st8" points="272.7,161.3 426.3,161.3 349.5,111.4 	"/>
	<polygon class="st7" points="426.3,61.4 272.7,61.4 349.5,140.1 	"/>
</g>
<g>
	<g>
		<linearGradient id="SVGID_1_" gradientUnits="userSpaceOnUse" x1="141.0104" y1="139.7684" x2="310.7366" y2="139.7684">
			<stop  offset="0" style="stop-color:#EF514B"/>
			<stop  offset="1" style="stop-color:#EB3A94"/>
		</linearGradient>
		<path class="st9" d="M310.7,13.3v252.9c0,7.3-6,13.3-13.3,13.3H154.3c-7.4,0-13.3-6-13.3-13.3V13.3C141,6,147,0,154.3,0h143.1
			C304.8,0,310.7,6,310.7,13.3z"/>
		<linearGradient id="SVGID_2_" gradientUnits="userSpaceOnUse" x1="152.2488" y1="131.9509" x2="299.4974" y2="131.9509">
			<stop  offset="1.963140e-03" style="stop-color:#D6E1F4"/>
			<stop  offset="0.6038" style="stop-color:#E7EDF8"/>
			<stop  offset="1" style="stop-color:#F4F7FC"/>
		</linearGradient>
		<rect x="152.2" y="13" class="st10" width="147.2" height="237.9"/>
		<rect x="152.2" y="13" class="st6" width="147.2" height="237.9"/>
		<g>
			<g>
				<circle class="st11" cx="181.5" cy="229.1" r="12.5"/>
				<g>
					<g>
						<path class="st6" d="M190.5,230.5v0.7h-4v-0.1c0-0.9-0.6-1.6-1.5-1.8c-3-0.6-3.9-0.5-7,0.1c-0.8,0.2-1.5,0.9-1.5,1.8l0,0h-4
							v-0.7c0-1.4,0.9-2.7,2.3-3c5.5-1.7,8.5-1.8,13.3,0C189.6,228.1,190.5,229,190.5,230.5z"/>
						<path class="st6" d="M172.4,232.1h4.4c0.1,0,0.2-0.1,0.2-0.2v-0.5c0-0.1-0.1-0.2-0.2-0.2h-4.4c-0.1,0-0.2,0.1-0.2,0.2v0.5
							C172.2,232,172.3,232.1,172.4,232.1z"/>
					</g>
					<path class="st6" d="M190.6,232.1h-4.4c-0.1,0-0.2-0.1-0.2-0.2v-0.5c0-0.1,0.1-0.2,0.2-0.2h4.4c0.1,0,0.2,0.1,0.2,0.2v0.5
						C190.9,232,190.8,232.1,190.6,232.1z"/>
				</g>
			</g>
			<g>
				<linearGradient id="SVGID_3_" gradientUnits="userSpaceOnUse" x1="211.3699" y1="228.521" x2="240.3762" y2="228.521">
					<stop  offset="0" style="stop-color:#EF514B"/>
					<stop  offset="1" style="stop-color:#EB3A94"/>
				</linearGradient>
				<circle class="st12" cx="225.9" cy="228.5" r="14.5"/>
				<g>
					<g>
						<path class="st6" d="M219.3,222.4l0.5-0.5l2.8,2.8l0,0c-0.6,0.6-0.7,1.6-0.2,2.3c1.7,2.5,2.4,3.2,5,4.9
							c0.7,0.5,1.7,0.4,2.3-0.2l0,0l2.8,2.8l-0.5,0.5c-1,1-2.5,1.2-3.8,0.5c-5.1-2.7-7.3-4.8-9.4-9.4
							C218.2,224.7,218.3,223.4,219.3,222.4z"/>
						<path class="st6" d="M233.3,234l-3.1-3.1c-0.1-0.1-0.2-0.1-0.3,0l-0.4,0.4c-0.1,0.1-0.1,0.2,0,0.3l3.1,3.1
							c0.1,0.1,0.2,0.1,0.3,0l0.4-0.4C233.3,234.2,233.3,234.1,233.3,234z"/>
					</g>
					<path class="st6" d="M220.4,221.1l3.1,3.1c0.1,0.1,0.1,0.2,0,0.3l-0.4,0.4c-0.1,0.1-0.2,0.1-0.3,0l-3.1-3.1
						c-0.1-0.1-0.1-0.2,0-0.3l0.4-0.4C220.1,221,220.3,221,220.4,221.1z"/>
				</g>
			</g>
			<g>
				<circle class="st11" cx="270.2" cy="229.1" r="12.5"/>
				<g>
					<linearGradient id="SVGID_4_" gradientUnits="userSpaceOnUse" x1="270.2236" y1="214.9545" x2="270.2236" y2="238.7934">
						<stop  offset="1.963140e-03" style="stop-color:#D6E1F4"/>
						<stop  offset="0.6038" style="stop-color:#E7EDF8"/>
						<stop  offset="1" style="stop-color:#F4F7FC"/>
					</linearGradient>
					<rect x="263.6" y="224.8" class="st13" width="13.1" height="8.6"/>
					<linearGradient id="SVGID_5_" gradientUnits="userSpaceOnUse" x1="270.2236" y1="229.1988" x2="270.2236" y2="211.806">
						<stop  offset="1.963140e-03" style="stop-color:#D6E1F4"/>
						<stop  offset="0.6038" style="stop-color:#E7EDF8"/>
						<stop  offset="1" style="stop-color:#F4F7FC"/>
					</linearGradient>
					<polygon class="st14" points="263.6,233.4 276.8,233.4 270.2,229.1 					"/>
					<polygon class="st6" points="276.8,224.8 263.6,224.8 270.2,232.8 					"/>
				</g>
			</g>
		</g>
		<g>
			<path class="st11" d="M266.5,86.4c0,10.8-4.2,20.5-11,27.8c-1.5,1.5-3,3-4.7,4.3c-6.9,5.4-15.5,8.5-24.9,8.5
				c-9.4,0-18-3.2-24.9-8.6c0,0,0,0-0.1,0c-9.5-7.4-15.6-19-15.6-32c0-22.4,18.2-40.6,40.6-40.6C248.3,45.7,266.5,63.9,266.5,86.4z"
				/>
			<path class="st6" d="M255.5,114.2c-1.5,1.5-3,3-4.7,4.3c-6.9,5.4-15.5,8.5-24.9,8.5c-9.4,0-18-3.2-24.9-8.6
				c0.4-1.5,1-2.8,1.7-4.1c1.3-2,3.1-3.7,5.2-4.9c2.1-1.1,4.4-1.8,6.7-1.9c1.8-0.1,3.8-0.2,5.2-0.3l0.2,0c1.2-0.1,2.1-1.1,2.1-2.3
				c0-0.8,0.1-1.6,0.1-2.4c0-0.9,0.1-1.7,0.2-2.6l0.1-0.7c-0.5-0.2-1.2-0.7-2-1.3c-3.8-2.7-7-6.1-9.5-10.1c-0.1-0.1-0.2-0.3-0.3-0.4
				c-2.2-0.8-4.3-2.2-5.1-5.4c-0.7-3,0.1-7,2.7-7.3c0.4,0,0.7,0,1.1,0.1c0-0.2,0-0.3,0-0.5c0.4-7.4,2.9-12.8,8.9-17.5
				c5-3.9,12.3-4,17.8-0.8c6,3.5,8,11,8.3,17.6c0,0.4,0,0.9,0,1.4c0.6-0.2,1.2-0.4,1.7-0.3c2.5,0.2,3.3,4.2,2.7,7.3
				c-0.8,3.6-3.4,4.9-5.9,5.7c-0.7,2-4.5,6.3-5.5,7.3c-1,1.2-2.2,2.2-3.4,3.1c-0.6,1.1-0.9,2.6-0.8,4.3c0,0.5,0.1,1,0.2,1.5
				c0,0,0,0,0,0c0.4,1.6,1,2.6,2.1,3.3c0.6,0.4,1.3,0.6,2.2,0.8l2,0.2c1.2,0.1,2.8,0.3,4.3,0.4c3.3,0.3,6.5,1.4,9.2,3.3
				C253.9,112.6,254.8,113.4,255.5,114.2z"/>
		</g>
		<linearGradient id="SVGID_6_" gradientUnits="userSpaceOnUse" x1="216.6921" y1="263.7921" x2="235.054" y2="263.7921">
			<stop  offset="1.963140e-03" style="stop-color:#D6E1F4"/>
			<stop  offset="0.6038" style="stop-color:#E7EDF8"/>
			<stop  offset="1" style="stop-color:#F4F7FC"/>
		</linearGradient>
		<circle class="st15" cx="225.9" cy="263.8" r="9.2"/>
	</g>
	<g>
		<path class="st11" d="M171.3,156.3h111c3.9,0,7.1-3.2,7.1-7.1l0,0c0-3.9-3.2-7.1-7.1-7.1h-111c-3.9,0-7.1,3.2-7.1,7.1v0
			C164.2,153.2,167.4,156.3,171.3,156.3z"/>
	</g>
</g>
<path class="st0" d="M163.5,174.2v97.7c0,2.8-0.7,5.4-1.9,7.7h-7.3c-7.4,0-13.3-6-13.3-13.3V157.7h6.1c1.8,0,3.5,0.3,5.2,0.8
	C158.8,160.7,163.5,166.9,163.5,174.2z"/>
<g>
	<path class="st2" d="M140.8,286.9H60.9c-2,0-3.5-1.6-3.5-3.5V159.9c0-2,1.6-3.5,3.5-3.5h79.9c9.1,0,16.5,7.4,16.5,16.5v97.7
		C157.2,279.6,149.9,286.9,140.8,286.9z"/>
	<path class="st16" d="M147.8,199.5l-1.8-1.9c-0.5-0.5-1.2-0.5-1.7,0l-0.5,0.5l-2.2-2.2c-4.8-4.8-10.8-5.2-18.1-2.7
		c-22.5,10-32.5,20.5-45.6,45.1c-3.3,5.9-2.3,13.3,2.5,18.1l2.2,2.2l-0.5,0.5c-0.5,0.5-0.5,1.2,0,1.7l1.8,1.9c0.5,0.5,1.2,0.5,1.7,0
		l14.9-14.8c0.5-0.5,0.5-1.2,0-1.7l-1.8-1.9c-0.5-0.5-1.2-0.5-1.7,0l-0.7,0.7c-2.6-2.9-2.9-7.3-0.7-10.6
		c8.3-12.3,11.3-15.5,23.6-23.7c3.4-2.3,7.9-1.9,10.9,0.9l-0.7,0.7c-0.5,0.5-0.5,1.2,0,1.7l1.8,1.9c0.5,0.5,1.2,0.5,1.7,0l14.9-14.8
		C148.2,200.7,148.2,200,147.8,199.5z"/>
	<g>
		<path class="st16" d="M61.2,278.2h-7.7c-1.1,0-1.9-0.9-1.9-1.9l0,0c0-1.1,0.9-1.9,1.9-1.9h7.7c1.1,0,1.9,0.9,1.9,1.9l0,0
			C63.1,277.4,62.2,278.2,61.2,278.2z"/>
		<path class="st16" d="M61.2,264.6h-7.7c-1.1,0-1.9-0.9-1.9-1.9l0,0c0-1.1,0.9-1.9,1.9-1.9h7.7c1.1,0,1.9,0.9,1.9,1.9l0,0
			C63.1,263.8,62.2,264.6,61.2,264.6z"/>
		<path class="st16" d="M61.2,251h-7.7c-1.1,0-1.9-0.9-1.9-1.9l0,0c0-1.1,0.9-1.9,1.9-1.9h7.7c1.1,0,1.9,0.9,1.9,1.9l0,0
			C63.1,250.2,62.2,251,61.2,251z"/>
		<path class="st16" d="M61.2,237.4h-7.7c-1.1,0-1.9-0.9-1.9-1.9l0,0c0-1.1,0.9-1.9,1.9-1.9h7.7c1.1,0,1.9,0.9,1.9,1.9l0,0
			C63.1,236.6,62.2,237.4,61.2,237.4z"/>
		<path class="st16" d="M61.2,223.9h-7.7c-1.1,0-1.9-0.9-1.9-1.9l0,0c0-1.1,0.9-1.9,1.9-1.9h7.7c1.1,0,1.9,0.9,1.9,1.9l0,0
			C63.1,223,62.2,223.9,61.2,223.9z"/>
		<path class="st16" d="M61.2,210.3h-7.7c-1.1,0-1.9-0.9-1.9-1.9l0,0c0-1.1,0.9-1.9,1.9-1.9h7.7c1.1,0,1.9,0.9,1.9,1.9l0,0
			C63.1,209.4,62.2,210.3,61.2,210.3z"/>
		<path class="st16" d="M61.2,196.7h-7.7c-1.1,0-1.9-0.9-1.9-1.9l0,0c0-1.1,0.9-1.9,1.9-1.9h7.7c1.1,0,1.9,0.9,1.9,1.9l0,0
			C63.1,195.8,62.2,196.7,61.2,196.7z"/>
		<path class="st16" d="M61.2,183.1h-7.7c-1.1,0-1.9-0.9-1.9-1.9l0,0c0-1.1,0.9-1.9,1.9-1.9h7.7c1.1,0,1.9,0.9,1.9,1.9l0,0
			C63.1,182.2,62.2,183.1,61.2,183.1z"/>
		<path class="st16" d="M61.2,169.5h-7.7c-1.1,0-1.9-0.9-1.9-1.9l0,0c0-1.1,0.9-1.9,1.9-1.9h7.7c1.1,0,1.9,0.9,1.9,1.9l0,0
			C63.1,168.6,62.2,169.5,61.2,169.5z"/>
	</g>
</g>
<g>
	<g>
		<g>
			<polygon points="295.7,235.7 295.7,235.7 295.7,235.7 			"/>
			<path d="M387.5,226c-0.1-0.7-0.4-1.4-0.6-2.1c-1.1-3.1-2.4-6.2-3.7-9.2c-2.5-5.9-5.1-11.8-8.3-17.3c-1.5-2.6-3.2-5-4.8-7.5
				c-0.2-0.3-0.2-0.4,0-0.7c0.6-0.8,1.2-1.7,1.6-2.7c0.8-2.1,1.1-4.2,0.1-6.3c-0.2-0.4-0.3-0.8-0.5-1.2c0-0.2-0.1-0.3-0.2-0.4
				c-0.1-0.3-0.2-0.6-0.6-0.8l0,0c-0.1-0.2-0.2-0.3-0.3-0.3l0,0c-0.1-0.2-0.3-0.4-0.6-0.5l0,0c-0.5-0.7-1.2-1.2-2-1.6
				c-0.2,0-0.2-0.1-0.3-0.2c-0.1-0.2-0.3-0.3-0.5-0.4l0,0c-0.2-0.3-0.4-0.4-0.7-0.4l0,0c-0.2-0.1-0.3-0.3-0.6-0.3c0,0-0.1,0-0.1-0.1
				c-0.3-0.3-0.8-0.5-1.2-0.6c-0.2-0.1-0.4-0.1-0.5-0.2c-0.3-0.2-0.7-0.5-1.1-0.6c-0.3-0.1-0.5-0.2-0.8-0.3
				c-0.1-0.1-0.3-0.2-0.5-0.2c-0.3-0.3-0.7-0.3-1-0.5c-0.1-0.1-0.3-0.2-0.5-0.2c0,0-0.1,0-0.1,0c-0.3-0.3-0.7-0.4-1.2-0.5
				c-0.5-0.1-1-0.4-1.5-0.7c-0.3-0.3-0.7-0.3-1-0.5c-0.1,0-0.2,0-0.3-0.1c-0.4-0.2-0.7-0.5-1.1-0.5l0,0c-0.8-0.6-1.8-0.8-2.7-1.1
				c-0.4-0.1-0.8-0.3-1.2-0.4c-0.1-0.2-0.4-0.2-0.6-0.2c-0.5-0.1-0.9-0.3-1.3-0.5c-0.4-0.3-0.8-0.4-1.2-0.4c-0.1,0-0.1,0-0.2,0
				c-0.8-0.1-1.6-0.3-1.8-1.2c-0.1-0.3-0.3-0.4-0.6-0.5c-0.1,0-0.2,0-0.2-0.1c-0.1-0.3-0.4-0.3-0.6-0.3c-0.4-0.2-0.9-0.3-1.3-0.5
				c-0.1-0.1-0.3,0-0.5-0.1c-0.1,0-0.1,0-0.2,0c-0.2-0.1-0.4,0-0.6-0.1c-0.2-0.2-0.5-0.1-0.7-0.1c0.3,0,0.4-0.1,0.6-0.2l0,0
				c0.2-0.1,0.4-0.1,0.6-0.2c0.3-0.1,0.5-0.4,0.9-0.3c0.2-0.1,0.4-0.1,0.5-0.2c0.2-0.2,0.5-0.2,0.8-0.3c0.1-0.1,0.3-0.1,0.5-0.2
				c0.4-0.3,0.8-0.4,1.2-0.6c0.2-0.1,0.4,0,0.5-0.3c0.3-0.1,0.5-0.4,0.8-0.4c0.1-0.1,0.4,0,0.4-0.2c0.3-0.1,0.6-0.2,0.8-0.4
				c0.6-0.4,1.2-0.7,1.8-1c0.2-0.1,0.4-0.1,0.6,0c0.2,0.1,0.3,0.3,0.6,0.4c0.1,0.2,0.4,0.2,0.6,0.3c0.4,0.2,0.8,0.4,1.2,0.3
				c0.9,0.1,1.7,0.1,2.6,0c0.1,0,0.1,0,0.2,0c0.2-0.1,0.4,0,0.6-0.1l0,0l0,0c0.3-0.1,0.6,0,0.9-0.2c0.3-0.1,0.6-0.1,0.9-0.3
				c0.2-0.1,0.3-0.2,0.6-0.2c0.1-0.1,0.3-0.1,0.4-0.2c1.3-0.7,2.3-1.7,3.2-2.8c0.2-0.1,0.2-0.3,0.3-0.5c0,0,0-0.1,0-0.1
				c0.2-0.1,0.2-0.3,0.3-0.5c0-0.1,0-0.2,0.1-0.2c0.2-0.2,0.3-0.5,0.4-0.8c0.3-0.9,0.6-1.8,0.9-2.7c0.1-0.2,0.1-0.4,0.1-0.5
				c0,0,0-0.1,0-0.1c0.1-0.7,0.1-1.3,0-2c0,0,0-0.1,0-0.1c-0.1-0.2,0-0.4-0.1-0.6c0,0,0-0.1,0-0.1c-0.1-0.1,0-0.3-0.1-0.4
				c-0.4-1-0.7-2-1.3-2.9c0-0.2-0.1-0.4-0.3-0.5c0-0.1,0-0.1,0-0.2c-0.2-0.6,0.1-1.2-0.1-1.7c0-0.1,0-0.3,0-0.4
				c-0.1-0.3,0-0.6-0.1-0.9c0-0.2,0-0.3,0-0.5c-0.1-0.3,0-0.6-0.1-0.9c0-0.1,0-0.1,0-0.2c-0.1-0.3,0-0.7-0.1-1c0-0.1,0-0.1,0-0.2
				c-0.1-0.2,0-0.5-0.1-0.7c0-0.1,0-0.1,0-0.2c-0.1-0.3,0-0.6-0.1-0.9l0,0l0,0c-0.1-0.6-0.1-1.2-0.2-1.8l0,0c-0.1-0.2,0-0.5-0.1-0.7
				c0-0.1,0-0.1,0-0.2c-0.1-0.2,0-0.5-0.1-0.7c0-0.1,0-0.1,0-0.2c-0.1-0.6,0-1.2-0.2-1.7c0,0,0-0.1,0-0.1c0-0.2,0-0.4-0.1-0.6
				c0-0.1,0-0.2,0-0.3c-0.1-0.2,0-0.4-0.1-0.6c0-0.1,0-0.2,0-0.3c-0.1-0.7-0.1-1.5-0.3-2.2l0,0c0-0.2,0-0.4-0.1-0.6
				c-0.2-0.4-0.2-0.7-0.2-1.1c0-0.3,0-0.6-0.2-0.8c-0.2-0.5-0.3-0.9-0.3-1.5c0-0.3-0.1-0.6-0.2-0.9l0,0c0-0.3-0.1-0.6-0.3-0.8
				c-0.2-0.1-0.1-0.2-0.1-0.3c-0.1-0.2-0.2-0.5-0.3-0.7c-0.1-0.1-0.2-0.3-0.2-0.4c-0.2-0.6-0.6-1-1-1.4c0,0-0.1-0.1-0.1-0.1
				c-0.4-0.6-1-1.1-1.6-1.4c0,0-0.1,0-0.1,0c-0.3-0.4-0.7-0.6-1.1-0.8c0-0.1-0.2-0.1-0.2-0.1l0,0c-0.3-0.2-0.5-0.4-0.9-0.4
				c-0.3,0-0.5-0.2-0.7-0.3c-0.4-0.3-0.8-0.4-1.2-0.5c-0.2,0-0.3,0-0.4-0.1c-0.2-0.1-0.4-0.1-0.6-0.2c0,0-0.1,0-0.1,0
				c-0.2-0.1-0.4-0.1-0.6-0.2c-0.2-0.2-0.4-0.2-0.7-0.2l0,0c-0.1-0.1-0.3-0.1-0.4-0.1c-0.4,0-0.8-0.2-1.1-0.3
				c-0.1-0.2-0.3,0-0.5-0.1l0,0l0,0c-0.1-0.1-0.3,0-0.5-0.1c-0.2,0-0.5,0-0.7-0.1c-0.3-0.1-0.7-0.1-1-0.2c-0.3,0-0.5,0-0.8-0.1
				c-0.4-0.3-0.8-0.1-1.2-0.2c-0.1,0-0.1,0-0.2,0c-0.2-0.1-0.4,0-0.6-0.1c-0.3,0-0.5,0.1-0.8-0.1c-0.2-0.2-0.5,0-0.7-0.1
				c-0.1,0-0.1,0-0.2,0c-0.2-0.1-0.4,0-0.6-0.1c-0.1,0-0.1,0-0.2,0c-0.2-0.1-0.4-0.1-0.7-0.1c-0.2,0-0.5,0.1-0.7-0.1
				c-0.5-0.3-1-0.1-1.5-0.2c-0.1,0-0.2,0-0.3,0c-0.2-0.1-0.4,0-0.6-0.1l0,0c-0.3-0.2-0.6,0-0.8-0.1c0,0-0.1,0-0.1,0
				c-0.2-0.1-0.5,0-0.7-0.1c-0.1,0-0.1,0-0.2,0c-0.2-0.1-0.5,0-0.7-0.1c0,0-0.1,0-0.1,0c-0.2-0.1-0.4-0.1-0.7-0.1
				c-0.1,0-0.1,0-0.2,0c-0.2-0.1-0.5,0-0.7-0.1c-0.1,0-0.1,0-0.2,0c-0.2-0.1-0.4,0-0.6-0.1c-0.1,0-0.1,0-0.2,0
				c-0.2-0.1-0.4,0-0.6-0.1c-0.2,0-0.4,0.1-0.6-0.1c-0.3-0.2-0.6,0-0.9-0.1c-0.1,0-0.2,0-0.3,0c-0.4-0.1-0.9-0.1-1.3-0.2
				c-0.1,0-0.1,0-0.2,0c-0.2-0.2-0.5,0-0.7-0.1c0,0-0.1,0-0.1,0c-0.3-0.1-0.5,0-0.8-0.1c0,0-0.1,0-0.1,0c-0.4-0.1-0.8,0-1.1-0.1
				c-0.1,0-0.1,0-0.2,0c-0.2-0.1-0.4,0-0.6-0.1c-1.3,0-2.6-0.1-3.9-0.2c-0.1,0-0.3,0-0.4,0c-0.2-0.1-0.5,0-0.7-0.1l0,0l0,0
				c-0.1-0.1-0.2-0.1-0.3,0c-0.1,0-0.2,0-0.2,0c-0.8,0-1.3-0.4-1.7-1c-0.4-0.5-0.8-1-1.3-1.5c0,0-0.1-0.1-0.1-0.1
				c-0.1-0.2-0.1-0.4-0.3-0.5c-0.2-0.3-0.4-0.6-0.7-0.9c-0.1-0.2-0.1-0.4-0.3-0.4c-0.1,0-0.1-0.1-0.1-0.2c0-0.1-0.1-0.3-0.2-0.3
				c-0.1-0.1-0.2-0.2-0.3-0.3c-0.3-0.4-0.6-0.3-0.9,0.1l0,0c-0.3,0.2-0.5,0.6-0.7,0.9c-0.2,0.4-0.5,0.8-0.7,1.1
				c-0.1,0.1-0.2,0.2-0.2,0.4c-0.2,0.3-0.3,0.5-0.5,0.8c-0.2,0.2-0.3,0.5-0.4,0.8c0,0.1-0.1,0.2-0.1,0.2c-0.1,0.1-0.2,0.2-0.2,0.3
				c-0.1,0.1-0.1,0.3-0.2,0.4c-0.1,0.1-0.2,0.2-0.3,0.2c-0.2-0.1-0.5-0.1-0.7-0.2c0,0-0.1,0-0.1,0c-0.1-0.1-0.3-0.1-0.5-0.2l0,0
				c-0.7-0.3-1.3-0.8-2.1-0.9l0,0c-0.9-0.3-1.8-0.7-2.7-0.9c-0.5-0.1-0.8-0.3-1.2-0.6c-0.2-0.3-0.5-0.2-0.8-0.1
				c-0.1,0.1-0.2,0.1-0.2,0.2c-0.1,0.2-0.1,0.4,0,0.5c0.1,0.4,0.2,0.7,0.2,1.1c0,0.3,0,0.5,0.2,0.8c0,0,0,0.1,0,0.1
				c0,0.1,0,0.2,0.1,0.3c0.3,1.6,0.7,3.3,1.2,4.9c0,0.2,0,0.5,0.2,0.7c0.2,0.9,0.4,1.8,0.7,2.7c-0.1,0.3,0.1,0.5,0.2,0.8
				c-0.1,0.3,0.3,0.5,0.1,0.8c-0.2,0.3,0,0.4,0.2,0.6c-0.3-0.2-0.4,0-0.5,0.2c-0.1,0.5-0.4,0.9-0.5,1.4c0,0,0,0.1,0,0.1
				c-0.2,0.1-0.1,0.3-0.2,0.4v0c-0.2,0.1-0.2,0.3-0.2,0.4c-0.2,0.3-0.4,0.7-0.5,1l0,0c0.1,0.2-0.1,0.3-0.1,0.5
				c-0.1,0.1-0.1,0.3-0.2,0.4c0,0.1-0.1,0.2-0.1,0.2c-0.2,0.2-0.2,0.5-0.3,0.7l0,0c-0.1,0.1,0,0.3-0.1,0.4c0,0,0,0.1,0,0.1
				c-0.2,0.1-0.1,0.4-0.2,0.6l0,0c-0.2,0.3-0.4,0.6-0.4,1c-0.2,0.1-0.2,0.4-0.2,0.6c-0.7,1.5-1.2,3.1-1.6,4.7
				c-0.5,0.8-0.7,1.7-1,2.6c-0.8,2.7-1.5,5.3-1.9,8.1c-0.2,1.1-0.3,2.3-0.5,3.5c-0.6-0.6-1.2-1.1-1.6-1.8c-0.9-1.5-1.4-3.1-1.2-4.9
				c0.2-2.1,0.8-3.9,2.1-5.5c0.6-0.8,1.4-1.2,2.4-1.4c0.3-0.1,0.7-0.1,1-0.1c0.2,0,0.4,0,0.4-0.2l0,0c-0.6-0.5-1.2-0.4-1.9-0.1
				c0,0,0,0-0.1,0c-0.1,0.1-0.3,0-0.4,0.1c-0.2,0.1-0.4,0-0.6,0.2c-0.2,0.2-0.5,0.2-0.7,0.5c-0.2,0.1-0.3,0.3-0.4,0.4
				c0,0-0.1,0.1-0.1,0.1c-0.3,0.1-0.3,0.3-0.4,0.5c-0.5,0.5-0.7,1.1-1,1.6c-0.1,0.1-0.2,0.3-0.2,0.5c-0.2,0.3-0.3,0.7-0.4,1.1
				c-0.1,0.1-0.1,0.3-0.1,0.4c-0.2,0.2,0,0.4-0.1,0.6c-0.3,0.5-0.2,1.1-0.2,1.7c-0.1,0.4,0,0.8,0,1.2c0,0.2,0.1,0.4,0.1,0.7
				c0.1,0.2-0.1,0.5,0.1,0.6c0.1,0.2,0.1,0.5,0.2,0.7c0.2,0.8,0.7,1.5,1.1,2.1c0.1,0.2,0.2,0.3,0.3,0.4c0,0,0.1,0.1,0.1,0.1
				c0,0.2,0.2,0.2,0.3,0.3c0.1,0.1,0.2,0.2,0.3,0.3c0,0.1,0.1,0.2,0.2,0.2c0.3,0.3,0.5,0.5,0.8,0.8c0.1,0.3,0,0.6,0,0.9
				c0,0.4-0.1,0.9,0.2,1.3c0,0,0,0.1,0,0.1c0.1,0.2,0,0.4,0.1,0.6c0.1,0.5,0.3,1,0.6,1.4c0,0.2,0.2,0.4,0.3,0.6l0,0
				c0,0.3,0.2,0.4,0.4,0.6l0,0c0.1,0.1,0.1,0.2,0.3,0.3l0,0c0,0.3,0.3,0.4,0.5,0.6c0.3,0.3,0.6,0.6,0.9,0.9c0.1,0.2,0.3,0.2,0.4,0.3
				c0.2,0.2,0.5,0.4,0.7,0.6c0.2,0.3,0.4,0.4,0.8,0.5c0,0,0.1,0.1,0.1,0.1c0.2,0.2,0.4,0.3,0.6,0.4c0.1,0.2,0.3,0.3,0.5,0.4
				c0.2,0.2,0.5,0.4,0.7,0.6c0.1,0.1,0.2,0.2,0.3,0.2c0.3,0.2,0.5,0.5,0.9,0.6c0,0.1,0.1,0.2,0.2,0.2c0.1,0,0.1,0.1,0.2,0.1
				c0.2,0.2,0.4,0.3,0.6,0.4c0.9,0.7,1.9,1.3,2.9,1.8c0.1,0.1,0.2,0.1,0.4,0.2c0.1,0.1,0.3,0.2,0.4,0.3c0.1,0.1,0.3,0.3,0.5,0.2
				c-0.2,0-0.5,0-0.7,0.2c0,0-0.1,0-0.1,0c-0.1,0-0.2,0-0.2,0.1c-0.1,0-0.2,0.1-0.3,0.1c-0.4,0.1-0.7,0.3-1,0.5l0,0
				c-0.3,0.1-0.5,0.2-0.5,0.6c-0.1,0.2-0.2,0.5-0.2,0.8c-0.1,0.2-0.1,0.4,0,0.6c0,0.1,0,0.1,0,0.2c0.1,0.4-0.1,0.7-0.4,0.9
				c-0.1,0.1-0.2,0.1-0.2,0.2c-0.1,0.1-0.2,0.2-0.3,0.2c0,0-0.1,0.1-0.1,0.1c-0.2,0.2-0.5,0.2-0.6,0.5l0,0l0,0c0,0,0,0,0,0l0,0
				c-0.2,0-0.3,0.2-0.5,0.3c0,0-0.1,0.1-0.1,0.1c-0.2,0.1-0.3,0.2-0.5,0.3c-0.6,0.4-1.1,0.8-1.7,1.2c-0.1,0.1-0.2,0.1-0.3,0.2
				c-0.3,0.2-0.6,0.5-0.9,0.7c-0.2,0-0.3,0.2-0.5,0.3c-0.1,0.1-0.3,0.2-0.4,0.4c-0.3,0.2-0.6,0.3-0.8,0.6c-0.6,0.4-1.2,0.9-1.7,1.4
				c-0.1,0.1-0.2,0.1-0.3,0.2c-0.2,0.2-0.3,0.3-0.5,0.5c-0.5,0.2-0.9,0.6-1.2,1c-0.1,0.1-0.2,0.2-0.2,0.2c-0.2,0.2-0.4,0.3-0.6,0.6
				c-0.3,0.3-0.6,0.6-0.9,0.9c-0.1,0.1-0.3,0.2-0.4,0.3c-0.3,0.3-0.6,0.6-0.9,0.9c-0.3,0.3-0.7,0.4-0.9,0.8
				c-0.1,0.1-0.2,0.2-0.4,0.3c-0.1,0-0.1,0.1-0.2,0.2c-0.4,0.2-0.7,0.5-0.9,0.8c-0.1,0.1-0.2,0.2-0.3,0.2c-0.2,0.2-0.4,0.4-0.6,0.6
				c-0.2,0.1-0.3,0.4-0.5,0.4c-0.2,0.2-0.5,0.4-0.7,0.7c-0.4,0.4-0.9,0.7-1.2,1.1c-0.3,0-0.3,0.3-0.5,0.5c-0.1,0.1-0.2,0.2-0.2,0.3
				c-0.1,0.2-0.2,0.3-0.3,0.5c-0.1,0-0.1,0.2-0.1,0.3c-0.2,0.1-0.1,0.3-0.2,0.5c-0.3,0.3-0.2,0.6-0.4,0.9c-0.1,0.1-0.1,0.2-0.1,0.4
				c-0.1,0.1,0,0.3-0.1,0.4l0,0l0,0c-0.2,0.7-0.4,1.5-0.2,2.2c0,0.1,0,0.1,0,0.2c0.1,0.2,0,0.5,0.1,0.7c0,0.3,0,0.7,0.2,1
				c0.1,0.1,0,0.3,0.1,0.4c0,0.2,0.1,0.5,0.2,0.7c0.1,0.2,0.1,0.6,0.3,0.8l0,0c0.1,0.2,0.1,0.4,0.2,0.6c0.1,0.2,0.2,0.4,0.3,0.7
				c0.1,0.1,0.1,0.3,0.2,0.3c0.1,0.3,0.2,0.5,0.4,0.7c0.1,0.4,0.5,0.7,0.3,1.1l0,0c-0.2,0.2-0.2,0.5-0.3,0.8
				c-0.1,0.1-0.1,0.2-0.1,0.3c-0.2,0.3-0.3,0.7-0.4,1c-0.2,0.2-0.2,0.5-0.3,0.8c-0.2,0.2-0.3,0.5-0.3,0.7c-0.1,0.3-0.2,0.5-0.3,0.8
				c-0.2,0.3-0.4,0.6-0.4,1c-0.1,0.1-0.1,0.2-0.1,0.4c-0.1,0.2-0.2,0.3-0.2,0.5c-0.1,0.1-0.2,0.3-0.2,0.5c-0.1,0.1,0,0.2-0.1,0.3
				l0,0c-0.2,0.1-0.1,0.4-0.2,0.5c-0.1,0.1-0.1,0.2-0.1,0.3c-0.1,0.1,0,0.2-0.1,0.3l0,0c-0.2,0.1-0.1,0.4-0.2,0.5
				c-0.1,0.3-0.2,0.6-0.3,0.9c-0.2,0.2-0.1,0.4-0.2,0.6l0,0c-0.1,0.1-0.1,0.4-0.2,0.5c-0.4,1.2-0.9,2.3-1.2,3.5
				c-0.2,0.3-0.2,0.6-0.3,0.9c-0.4,0.9-0.6,1.8-0.8,2.7c-0.1,0.1,0,0.3-0.1,0.4c0,0,0,0.1,0,0.1c-0.1,0.1,0,0.2-0.1,0.3
				c-0.2,0.6-0.3,1.2-0.4,1.8c-0.1,0.1,0,0.3-0.1,0.5c-0.2,0.4-0.2,0.8-0.3,1.2c-0.1,0.1,0,0.3-0.1,0.4c-0.2,0.4-0.2,0.8-0.2,1.2
				c-0.1,0.1,0,0.3-0.1,0.5c-0.3,0.2,0,0.5-0.1,0.8c-0.1,0.3-0.1,0.7-0.2,1l0,0l0,0c-0.1,0.2,0,0.4-0.1,0.6c0,0,0,0.1,0,0.1
				c-0.1,0.2,0,0.4-0.1,0.6c0,0,0,0.1,0,0.1c-0.1,0.2,0,0.4-0.1,0.6c0,0,0,0.1,0,0.1c-0.1,0.2,0,0.4-0.1,0.6c0,0,0,0.1,0,0.1
				c-0.1,0.2,0,0.4-0.1,0.6c0,0,0,0.1,0,0.1c-0.1,0.2,0,0.5-0.1,0.7c0,0,0,0.1,0,0.1c-0.1,0.2,0,0.5-0.1,0.7c0,0.1,0,0.1,0,0.2
				c-0.1,0.3,0,0.6-0.1,0.8c0.1,0.4-0.1,0.9,0.3,1.2c0.1,0.1,0.3,0.1,0.4,0.2l0,0c0.1,0.1,0.3,0.2,0.4,0.2c0,0.1,0.2,0.1,0.2,0.1
				c0.1,0.1,0.3,0.1,0.4,0.2c0.5,0.3,1.1,0.5,1.7,0.7c0.1,0.2,0.3,0.1,0.4,0.2c0.6,0.2,1.2,0.5,1.8,0.7c0.2,0.1,0.4,0.1,0.6,0.2
				c0.5,0.2,1,0.5,1.5,0.6c0.2,0.1,0.4,0.2,0.6,0.2l0,0l0,0c0.2,0.2,0.4,0.1,0.6,0.2l0.1,0l0,0c0.2,0.1,0.3,0.2,0.5,0.2
				c1.5,0.6,3,1.1,4.5,1.6c0.1,0.1,0.2,0,0.3,0.1c0.1,0.1,0.2,0.1,0.4,0.1c0.2,0.1,0.5,0.2,0.7,0.2c0.6,0.2,1.1,0.4,1.7,0.6
				c0.3,0.2,0.7,0.2,1,0.3c0.1,0.2,0.3,0,0.4,0.2c0.1,0,0.3,0,0.4,0.1c1.2,0.4,2.4,0.8,3.6,1.2c0.2,0.2,0.5,0.1,0.7,0.2
				c0.1,0.1,0.2,0.1,0.3,0.1c0.2,0.1,0.5,0.2,0.7,0.2c0.7,0.2,1.3,0.4,2,0.7c0.1,0.1,0.2,0.1,0.3,0.1c0,0,0.1,0,0.1,0
				c0.8,0.5,1.6,0.6,2.5,0.8c0.3,0.1,0.3,0.5,0.6,0.6c0.2-0.3,0.3,0.1,0.5,0c0.1,0.1,0.3,0.1,0.4,0.2l0,0c0.1,0.1,0.3,0.1,0.4,0.2
				c0.7,0.3,1.4,0.5,2.1,0.8c0.3,0.1,0.7,0.3,1,0.3c0.1,0.2,0.4,0,0.4,0.3c0.1,0.4,0,0.9,0,1.3l0,0c-0.2,1,0.1,2.1,0.1,3.1
				c0,0.4,0.1,0.9,0,1.3c0.1,0.9,0.1,1.8,0,2.7c0.1,0.2,0,0.5,0,0.7c-0.1,0.3-0.1,0.6-0.1,1c0,0.6,0.1,1.2,0,1.9c0,0.1,0,0.3,0,0.4
				c0,0.6-0.3,0.7-0.8,0.6c-0.2,0-0.4,0-0.6,0c-0.8,0-1.7,0-2.5,0c-0.3,0-0.5,0-0.7,0.3c-0.1,0.8,0,1.7-0.1,2.5c0,0.1,0,0.3,0,0.4
				c-0.1,0.6,0,1.3-0.1,1.9c0,0.2,0,0.3,0,0.5c-0.1,0.6,0,1.2-0.1,1.7c0,0.1,0,0.3,0,0.4c-0.2,0.5,0,1.1-0.1,1.6
				c0.1,0.2,0,0.3,0,0.5c-0.1,0.4,0,0.8-0.1,1.1c0,0.1,0,0.1,0,0.2c-0.1,0.4,0,0.8-0.1,1.2c0,0.1,0,0.1,0,0.2
				c-0.1,0.3,0,0.6-0.1,0.8c0,0.1-0.1,0.2-0.1,0.3c-0.5,0.1-1,0.1-1.4,0.2c-0.1,0-0.1,0-0.2,0c-0.2,0-0.3,0-0.5,0.1
				c-0.1,0-0.1,0-0.2,0c-0.6,0.2-1.2,0-1.7,0.3c-0.5,0.2-1.1,0.2-1.6,0.4c-0.1,0-0.3,0-0.4,0.1c-0.3,0.1-0.6,0.2-1,0.2
				c-0.2,0-0.5,0.1-0.7,0.2c-0.7,0.1-1.3,0.5-2,0.6c-0.2,0-0.4,0-0.6,0.2c-0.1,0-0.2,0.1-0.3,0.1c-0.2,0.1-0.4,0.1-0.6,0.2
				c-0.8,0.3-1.5,0.6-2.3,0.9c-0.2,0-0.3,0.1-0.5,0.2c-0.1,0.1-0.3,0.1-0.4,0.2c-0.3,0-0.5,0.2-0.7,0.3c0,0,0,0-0.1,0
				c-0.2,0-0.4,0.1-0.5,0.2c-0.1,0.1-0.3,0-0.3,0.1c-0.1,0-0.1,0.1-0.2,0.1c-0.2,0.1-0.4,0.1-0.6,0.2c-0.1,0-0.1,0.1-0.2,0.1
				c-0.2,0.1-0.3,0.1-0.5,0.2c-0.1,0-0.2,0-0.3,0.1c-0.3,0.1-0.5,0.1-0.7,0.3c-0.6,0.2-1.1,0.5-1.7,0.7c-0.2,0.1-0.5,0.1-0.7,0.3
				c-0.5,0.2-1,0.5-1.4,0.7c-0.1,0.1-0.3,0.1-0.4,0.2c-0.2,0.1-0.4,0.2-0.5,0.2c-0.2,0-0.3,0.1-0.5,0.2c-0.5,0.3-1.1,0.6-1.6,0.9
				c-0.2,0.1-0.4,0.1-0.5,0.3l0,0c-0.1,0.1-0.3,0.1-0.3,0.2c-0.2,0-0.4,0.3-0.6,0.3c-0.1,0-0.2,0.1-0.3,0.2
				c-0.2,0.2-0.5,0.3-0.7,0.5c-0.2,0.1-0.3,0.1-0.4,0.3l0,0c-0.1,0.1-0.3,0-0.3,0.2c0,0-0.1,0.1-0.1,0.1c-0.1,0-0.1,0-0.2,0.1
				c-0.3,0.2-0.6,0.4-0.8,0.7c-0.2,0-0.3,0.1-0.4,0.3l0,0c-0.1,0.1-0.4,0.1-0.4,0.3c-0.6,0.5-1,1.2-1.2,2c-0.1,0.4-0.1,0.8,0.1,1.1
				c0,0,0.1,0.1,0.1,0.1c0.1,0.1,0.1,0.2,0.3,0.3c0.1,0.1,0.2,0.3,0.4,0.4c0.4,0.4,0.9,0.6,1.4,0.8c0.2,0.2,0.4,0.2,0.6,0.2
				c0.1,0.2,0.3,0.1,0.4,0.1l0,0c0.2,0.2,0.5,0.1,0.8,0.2c0.3,0.2,0.6,0.2,1,0.2c0.5,0.3,1.1,0.2,1.7,0.3l0,0c0.2,0.2,0.5,0,0.7,0.1
				l0,0l0,0c0.3,0.2,0.5,0,0.8,0.1c0.1,0,0.1,0,0.2,0c0.3,0.1,0.6,0,0.8,0.1c0.1,0,0.2,0,0.3,0c0.4,0.2,0.9-0.1,1.3,0.1
				c0.1,0,0.2,0,0.3,0c0.6,0.1,1.2,0,1.8,0.1c0.1,0,0.2,0,0.3,0c0.2,0.1,0.4,0,0.7,0.1c0.9,0,1.8-0.1,2.8,0.1c0.5-0.1,1,0,1.5,0
				c0.6,0.1,1.3,0.1,1.9,0c0.1,0,0.2,0,0.3,0c0.2,0,0.4,0.1,0.7,0c0.7,0,1.4-0.1,2.1,0c0.3-0.1,0.5,0,0.8,0c0.9,0,1.8,0.1,2.7,0
				c0.2,0,0.4,0,0.6,0c0.7-0.1,1.4,0,2.2-0.1c0.1,0,0.3,0,0.4,0c0.6-0.1,1.3,0,2-0.1c0.1,0,0.3,0,0.4,0c0.5-0.1,0.9,0,1.4-0.1
				c0.1,0,0.3,0,0.4,0c0.5-0.1,0.9,0,1.4-0.1c0.1,0,0.1,0,0.2,0c0.4-0.1,0.9,0.1,1.3-0.1c0.1,0,0.1,0,0.2,0c0.3-0.1,0.7,0,1-0.1
				c0.1,0,0.2,0,0.3,0c0.3-0.2,0.7,0.1,1-0.1c0.1,0,0.2,0,0.3,0c0.3-0.1,0.7,0,1-0.1c0.1,0,0.1,0,0.2,0c0.3-0.1,0.7,0,1-0.1
				c0.1,0,0.1,0,0.2,0c0.3-0.1,0.6,0,0.8-0.1c0.1,0,0.2,0,0.3,0c0.3-0.1,0.6,0,0.9-0.1c0.1,0,0.2,0,0.3,0c0.4-0.1,0.8,0.1,1.2-0.1
				l0,0c0.2-0.1,0.4,0,0.6-0.1l0,0l0.1,0c0.2-0.1,0.4,0,0.6-0.1c0.1,0,0.1,0,0.2,0c0.2-0.1,0.4,0.1,0.6-0.1c0.2,0,0.4-0.1,0.6,0.1
				c0,0,0,0.1,0,0.1c-0.1,0.2-0.1,0.5-0.2,0.8c-0.1,0.2,0,0.4-0.1,0.6c-0.2,0.2,0,0.4-0.1,0.7c-0.2,0.2,0,0.4-0.1,0.6
				c0,0,0,0.1,0,0.1c-0.1,0.2,0,0.5-0.1,0.7c0,0,0,0.1,0,0.1c-0.1,0.4,0,0.8-0.1,1.2c0,0.1,0,0.3,0,0.4c-0.1,0.2-0.1,0.4,0,0.6
				c0,0.1,0,0.3,0,0.4c0,0.3,0,0.6,0.1,0.8c0,0,0,0.1,0,0.1c0.1,0.2,0,0.4,0.1,0.6c0.1,0.6,0.1,1.1,0.3,1.6c0.1,0.2,0,0.4,0.2,0.5
				c0.1,0.1,0,0.3,0.1,0.4c0.1,0.1,0,0.3,0.1,0.4c0.1,0.4,0.3,0.8,0.4,1.1c0,0.2,0.1,0.4,0.2,0.5c0,0.2,0.1,0.4,0.2,0.6
				c0.1,0.4,0.3,0.7,0.4,1.1c0,0.1,0,0.2,0.1,0.2c0.1,0.2,0.1,0.3,0.2,0.4c0.1,0.2,0.2,0.5,0.4,0.7c0.1,0.2,0.1,0.4,0.2,0.5
				c0,0.2,0.1,0.3,0.2,0.5c0.1,0.2,0.2,0.4,0.3,0.6c0.1,0.2,0.2,0.4,0.3,0.5c0.2,0.2,0.3,0.5,0.5,0.7c0.2,0.3,0.4,0.6,0.6,0.9
				c0.2,0.3,0.4,0.6,0.7,0.8c0.1,0.2,0.3,0.2,0.4,0.3c0.3,0.2,0.6,0.5,0.9,0.6c0.1,0.1,0.3,0,0.4,0.1h0c0.8,0.2,1.6,0.1,2.5-0.1
				c0.1,0,0.2-0.2,0.3-0.1c0.2-0.1,0.5-0.1,0.7-0.2l0,0c0.3,0,0.5-0.2,0.8-0.3c0,0,0.1,0,0.1-0.1c0.2,0,0.3,0,0.4-0.2l0,0l0,0
				c0.3-0.1,0.5-0.1,0.7-0.4c0.6-0.4,1.2-0.7,1.9-1.1c0.2,0,0.4-0.1,0.5-0.3c0.2-0.1,0.4-0.2,0.5-0.4c0.4-0.3,0.8-0.6,1.2-0.9
				c0.1-0.1,0.3-0.1,0.3-0.3c0.6-0.6,1.3-1,2-1.5c0.1-0.1,0.3-0.1,0.3-0.2c0.1-0.1,0.2-0.3,0.3-0.3c0.1-0.1,0.3,0,0.3-0.3
				c0.1-0.1,0.3-0.3,0.4-0.4c0.1,0,0.2-0.1,0.2-0.2c0.2-0.3,0.6-0.5,0.7-0.8c0-0.2,0.2-0.3,0.3-0.4c0.1-0.1,0.3-0.3,0.3-0.5
				c0.2-0.2,0.4-0.4,0.5-0.7c0.1-0.2,0.1-0.4,0.3-0.5c0.3-0.4,0.6-0.7,0.7-1.1c0.2-0.4,0.3-0.8,0.5-1.2c0.1-0.2,0.2-0.4,0.2-0.6
				c0.2-1.2,0.1-2.3,0-3.5c0-0.1,0-0.1,0-0.2c-0.1-0.3,0-0.6-0.1-0.9c0-0.1,0-0.1,0-0.2c-0.1-0.2,0-0.5-0.1-0.7c0-0.1,0-0.1,0-0.2
				c0-0.2,0-0.5-0.1-0.7l0,0l0,0c-0.1-0.2,0.1-0.5-0.1-0.7c-0.2-0.9-0.3-1.7-0.5-2.6c-0.1-0.1,0.1-0.3-0.1-0.4
				c-0.4-1.5-0.9-3.1-1.3-4.6c-0.3-1-0.7-1.9-0.7-3c0-0.1,0-0.1,0-0.2c0-5.9,0-11.9,0-17.8c0-0.4,0-0.7,0-1.1
				c-0.1-0.1-0.1-0.3-0.1-0.4c-0.3-0.4-0.6-0.2-1-0.1c0,0,0,0-0.1,0c-0.5,0.1-1,0.1-1.5,0c-0.4,0.1-0.8,0-1.2,0
				c-0.3,0-0.5-0.1-0.4-0.4c0.1-0.2-0.1-0.4-0.3-0.5c-0.1-0.4-0.1-0.7,0-1.1c-0.1-0.6,0-1.2,0-1.8c0-2.1,0-4.3,0-6.4
				c0-0.6-0.1-1.1,0-1.7c0-0.3,0.2-0.6-0.2-0.7c0,0-0.1,0-0.1,0c0.2,0,0.4,0,0.6,0c0.3,0,0.6-0.1,0.8-0.3l0,0l0,0
				c0.2,0,0.4,0,0.6-0.1c0.3-0.2,0.6-0.2,0.9-0.3c1.2-0.4,2.3-0.8,3.4-1.3c0.1-0.1,0.2-0.1,0.3-0.3c0.5-0.3,1-0.6,1.6-0.8
				c0.4-0.2,0.8,0,1.2-0.1c0.1,0,0.1,0,0.2,0c0.2-0.1,0.4,0,0.6-0.1c0.1,0,0.1,0,0.2,0c0.2-0.1,0.4,0,0.6-0.1c0,0,0.1,0,0.1,0
				c0.2-0.1,0.5,0.1,0.8-0.1c0.2-0.1,0.4,0,0.6-0.1l0,0l0.1,0c0.2-0.1,0.5,0,0.7-0.1l0,0l0,0c0.2-0.1,0.4,0,0.6-0.1l0,0l0,0
				c0.3-0.1,0.7,0,1-0.2c0.1,0,0.1,0,0.2,0c1.1-0.1,2.2-0.2,3.3-0.7c0.5-0.2,1.1-0.2,1.6-0.3c0.2-0.1,0.3,0.1,0.5-0.1
				c0.4-0.2,0.8-0.3,1.2-0.2c0.2-0.1,0.4,0,0.6-0.1c0.2-0.1,0.4-0.1,0.6-0.1c0.2-0.1,0.4,0,0.6-0.1c0.2-0.2,0.4-0.1,0.7-0.1
				c0.2-0.1,0.4,0,0.6-0.1c0.2,0,0.4-0.1,0.7-0.1c0.2,0,0.3,0,0.5-0.1c0.3-0.2,0.7-0.2,1.1-0.2c0.3-0.1,0.7,0,0.9-0.2
				c0.2-0.2,0.4-0.1,0.6-0.1c0.3-0.1,0.6,0,0.8-0.2c0.4-0.2,0.9-0.2,1.3-0.4c0.1-0.1,0.3,0,0.4-0.1c0.2-0.1,0.5-0.3,0.8-0.2
				c0.2,0,0.5-0.1,0.7-0.2c0.3-0.1,0.7-0.3,1.1-0.4c0.2,0,0.4,0,0.6-0.2c0.4-0.2,0.9-0.3,1.3-0.5c0.2-0.1,0.5-0.1,0.7-0.2
				c0.3-0.2,0.6-0.3,1-0.4c0.2,0,0.5-0.1,0.7-0.2c0.5-0.2,1-0.5,1.5-0.6c0.1-0.1,0.3,0,0.3-0.1c0.8-0.3,1.6-0.6,2.3-1
				c0.6-0.3,1.2-0.6,1.8-0.9c0.5-0.1,0.8-0.4,1.1-0.7c0.1-0.1,0.2-0.2,0.3-0.2c0.1,0,0.3-0.1,0.3-0.2c0.4-0.3,0.8-0.7,1.2-1
				c0.5-0.3,1.1-0.6,1.3-1.2C387.4,227.1,387.6,226.6,387.5,226z M301.7,126.7c0.2-0.4,0.4-0.5,0.8-0.3c1.3,0.6,2.7,1,4.1,1.3
				c-2-0.2-4-0.2-5.8,1.2C301.2,128.1,301.4,127.4,301.7,126.7z M329.1,256.1c-0.8-0.1-1.6,0.1-2.4-0.1c-0.3-0.1-0.6,0.1-0.9,0.2
				c0-0.1,0-0.2,0-0.3c-0.1-1.4-0.4-1.7-1.8-1.8c-0.5,0-1.1,0-1.6,0.1c-0.4,0.1-0.5,0-0.5-0.4c0.2-2.1,0.2-4.2,0.3-6.4
				c0.1-1.2,0-2.4,0.1-3.6c0-0.3,0.1-0.4,0.4-0.4c2.1,0.2,4.2,0.2,6.4,0.2c0.2,0,0.3,0.1,0.3,0.3c0.1,3.9,0.1,7.8,0.2,11.7
				C329.6,256.1,329.4,256.2,329.1,256.1z M338.4,243.6c0,0.2,0,0.5,0,0.7c0,3.6,0,7.2,0,10.8c0,0.7,0,0.7-0.7,0.8
				c-2.1,0.3-4.2,0.2-6.4,0.2c-0.2,0-0.4,0-0.6-0.1c-0.3,0-0.5-0.2-0.5-0.5c0-0.8-0.1-1.5-0.1-2.3c0-2.4-0.2-4.8-0.1-7.1
				c0-0.5,0-0.9-0.1-1.4c-0.1-0.8,0-0.9,0.7-0.9c1.6,0.1,3.3-0.1,4.9-0.1c0.9,0,1.9-0.1,2.8-0.4c0.1-0.1,0.2-0.1,0.3-0.1
				C338.5,243.3,338.5,243.4,338.4,243.6z M328.7,165c-0.2,0-0.3,0-0.5,0.1c-0.2,0.1-0.3,0.1-0.4,0.3c-0.1,0.2-0.1,0.3,0.1,0.3
				c1.2,0,2.4,0.4,3.6,0.1c0.1,0,0.1,0,0.2-0.1c0,0,0,0,0,0c0,0.1,0,0,0,0c-1.4,0.8-2.9,1.5-4.4,2.3c-2.3,1.1-4.6,1.8-7.2,1.6
				c-0.6,0-1.2-0.2-1.7-0.7c-1-1.1-1.9-2.5-2.7-3.7c0,0,0-0.1,0-0.1c0.1,0,0.2,0,0.4,0.1c0.2,0,0.4,0.2,0.5-0.1
				c0.1-0.3,0-0.5-0.2-0.6c-0.2-0.1-0.5-0.2-0.8-0.3c-2.5-0.7-4.7-1.8-7-3c-3.1-1.7-5.9-3.8-8.7-5.9c-2.4-1.8-3.9-4.2-3.7-7.3
				c0-0.9,0.2-1.8,0.3-2.7c0.1-0.7,0.1-1.3,0.3-2c0.1-0.3,0.2-0.3,0.4-0.1c0.1,0.1,0.2,0.2,0.3,0.3c1.2,1.3,2.6,2.1,4.2,2.5
				c1.5,0.3,2.9,0.7,4.4,0.4c0.5-0.1,0.9-0.2,1.3-0.4c0.4-0.1,0.7,0,0.9,0.3c0.9,1.3,1.8,2.6,2.7,3.9c0.1,0.2,0.2,0.3,0.4,0.4
				c0.1,0.1,0.3,0.2,0.5,0.1c0.2-0.1,0.2-0.3,0.1-0.5c-0.1-0.2-0.2-0.4-0.4-0.6c-1.3-1.9-2.6-3.7-3.8-5.6c-0.2-0.4-0.6-0.7-0.3-1.2
				c0.3-0.5,0.8-0.3,1.2-0.3c1.5,0.2,3.1,0.3,4.6,0.6c0.9,0.2,1.8,0.3,2.7,0.4c0.2,0,0.4,0.1,0.4-0.2c0.1-0.2-0.1-0.4-0.3-0.4
				c-0.2-0.1-0.3-0.1-0.5-0.1c-0.8-0.1-1.5-0.3-2.3-0.4c-0.4-0.1-0.4-0.2-0.2-0.5c0.6-0.9,0.9-2,1.1-3.1c0.1-0.8,0-1.6,0-2.5
				c0-1.8-0.6-3.5-1.6-4.9c-1.2-1.6-2.7-2.6-4.5-3.3c-0.4-0.1-0.8-0.2-1.2-0.4c0.4,0.1,0.9,0.2,1.3,0.4c2.1,0.7,4.2,1.4,6.3,2
				c1,0.3,1.4,0.1,1.8-0.9c0.2-0.5,0.2-1,0.4-1.5c0.3-0.9,0.3-1-0.6-1.3c-4-1.3-7.9-3-11.8-4.6c-0.4-0.2-0.6-0.4-0.3-0.8
				c0.2-0.3,0.3-0.6,0.1-1c0,0,0,0,0,0c0.2,0.2,0.4,0.2,0.6,0.2c1.1,0,2.1,0.1,3.2,0.1c3.6,0,7.3,0.1,10.9,0.1c0.1,0,0.2,0,0.3,0
				c2.2,0.2,4.4,0.2,6.6,0.4c2.1,0.2,4.2,0.3,6.2,0.5c2.5,0.2,5,0.5,7.5,0.7c2.6,0.3,5.2,0.8,7.6,1.6c1.7,0.6,3,1.6,3.5,3.5
				c0.5,1.9,1,3.8,1.3,5.7c0.6,3.8,0.7,7.6,0.7,11.4c0,0.2,0,0.4-0.1,0.6c-0.1,0.3-0.2,0.8,0.2,0.9c0.4,0.1,0.5-0.3,0.6-0.6
				c0.6-1.8,2-2.7,3.7-3.2c1-0.3,2-0.1,2.8,0.4c0.7,0.4,1.3,0.9,2,1.4c0.5,0.4,0.9,1,1.3,1.6c1.1,2.2,1.3,4.4,0.6,6.8
				c-1,3.2-3,5.5-6.3,6.5c-2.1,0.6-4.2,0.8-6.2-0.5c-0.5-0.3-1-0.2-1.5,0.1c-2.5,1.4-5.1,2.9-7.8,3.9
				C337.8,163.7,333.4,164.9,328.7,165z"/>
			<polygon points="301,106.8 301,106.8 301,106.8 			"/>
			<polygon points="341,255.9 341,255.9 341,255.9 			"/>
			<polygon points="301.2,106.6 301.2,106.6 301.2,106.6 			"/>
			<polygon points="304.4,167.3 304.4,167.3 304.4,167.3 304.4,167.3 			"/>
		</g>
		<path class="st17" d="M298.6,132.8c-0.8,2.5-1.6,5-2.1,7.6c-0.5,2.3-0.8,4.5-1,6.9c-0.7-0.5-1.2-1.1-1.7-1.7
			c-1.6-2.2-1.7-4.7-1.1-7.2c0.3-1.5,1-2.7,2-3.8c0.9-1,2-1.4,3.3-1.5c0.2,0,0.4,0.1,0.5-0.1C298.4,132.9,298.5,132.9,298.6,132.8z"
			/>
		<path class="st18" d="M365.1,194.9c-2-1.7-4.3-2.9-6.7-4c0.7-0.7,1.4-1.3,1.9-2.1c0.7-1,1.5-1.9,1.7-3.1c0.3-1.5-0.2-2.7-1.3-3.7
			c-0.8-0.6-1.6-1.1-2.5-1.6c-2.5-1.3-5-2.7-7.6-3.9c-0.7-0.3-1.4-0.5-2.1-0.7c0,0.3,0.2,0.4,0.5,0.5c0.5,0.2,1,0.4,1.5,0.6
			c0.8,0.3,1.3,0.9,1.7,1.7c1.6,3.3,2.5,6.9,3.5,10.4c0,0.1,0,0.3,0.1,0.4c0,0.3,0.2,0.5,0,0.8c-2.4,2.8-4.9,5.5-7.1,8.5
			c-0.7,0.9-1.2,1.9-1.8,2.9c-1.7,2.9-1.4,5.8,0.4,8.5c0.4,0.6,0.9,1.3,1.4,1.8c0.2,0.2,0.1,0.6,0.6,0.6c0,0,0.1,0.1,0.1,0.1
			c0,0.1-0.2,0.1-0.3,0.1c-1.3,0.3-2.5,0.6-3.8,0.8c-3.1,0.5-6.3,0.5-9.5,0.7c-2.5,0.1-4.9,0.1-7.4,0c-0.2,0-0.3-0.1-0.3-0.3
			c0-0.2,0-0.3,0-0.5c-0.2-1-0.3-1-1.3-1.1c-2.8-0.2-5.5,0-8.3-0.2c-2.3-0.1-4.6-0.3-7-0.2c-0.8,0-1.6,0.1-2.3,0.1
			c-0.4,0-0.7,0.1-0.7,0.6c-0.2,0.2-0.1,0.5,0,0.8c0,0.1,0,0.1,0,0.1c0,0.2-0.1,0.3-0.3,0.2c-2.4-0.4-4.9-0.6-7.3-1.2
			c-2.8-0.6-5.5-1.5-8.1-2.6c-0.3-0.1-0.3-0.3-0.3-0.5c0.6-6.2,1.3-12.4,3.2-18.3c1.4-4.3,3.1-8.4,5.2-12.4c1.6-3,3.3-5.9,5.2-8.7
			c0.4-0.6,0.9-1.1,1.3-1.7c-0.4-0.1-0.5,0.1-0.7,0.3c-1.3,1.4-2.3,3.1-3.3,4.7c-1.9,3-3.5,6.1-5,9.2c-0.4,0.9-0.9,1.6-1.8,2
			c-1.2,0.6-2.2,1.5-3.1,2.5c-0.5,0.5-0.8,1-0.8,1.7c0,0.2,0,0.3,0,0.5c0.2,1.2,0.5,2.4,1.3,3.4c0.2,0.3,0.2,0.4-0.1,0.7
			c-1.6,1.4-3.3,2.7-4.8,4.2c-0.2,0.2-0.3,0.2-0.5,0c-1.3-2.3-2.8-4.5-3.6-7.1c-0.8-2.9-0.3-5.5,1.8-7.5c4.2-3.9,8.3-7.9,12.9-11.4
			c2.2-1.6,4.4-3.2,6.6-4.8c0.1-0.1,0.2-0.2,0.4,0c1.1,1.5,2.7,1.9,4.4,2.2c1.2,0.2,2.3,0,3.1-1c0.9-1,0.8-2.2,0.4-3.4
			c0.3,0,0.5,0.2,0.6,0.4c0.7,1.5,1.7,2.9,2.8,4.2c0.9,1.2,2.3,1.1,3.5,1.1c2.1-0.1,4.1-0.7,6-1.6c1.2-0.6,2.5-1.2,3.7-1.8
			c0.6-0.3,1.2-0.7,1.6-1.2c0.1-0.1,0.2-0.3,0.4-0.3c1.1-0.2,2.2-0.4,3.3-0.6c-0.1,0.1-0.3,0.2-0.4,0.3c-1.6,1.2-1.5,3.3,0.1,4.4
			c1.1,0.8,2.4,1,3.8,1.1c1.4,0.2,2.7-0.1,4-0.7c1.2-0.5,1.7-1.6,2-2.8c0.1-0.5,0.3-0.6,0.7-0.4c3,0.9,5.8,2.1,8.7,3.4
			c3.1,1.4,6.2,2.7,9.2,4.2c1.9,1,3.6,2.2,5.2,3.7c2.1,1.9,2.9,5.7,1.6,8.3c-0.9,2-2.3,3.7-3.5,5.5c-0.7,1.1-1.5,2.2-2.3,3.2
			C365.4,194.9,365.2,194.9,365.1,194.9z"/>
		<path class="st19" d="M331.6,165.7c-1.1,0.8-2.3,1.3-3.5,1.9c-1.9,1-3.9,1.8-6.1,2.1c-1,0.1-2,0.2-2.9,0c-0.3-0.1-0.6-0.2-0.9-0.5
			c-1.2-1.3-2.1-2.8-3.2-4.3c0.4,0,0.7,0.1,1,0.2c0.1,0,0.3,0.2,0.4,0c0.1-0.2,0-0.3-0.1-0.4c-0.1,0-0.2-0.1-0.3-0.1
			c-5.9-1.7-11-5-15.8-8.7c-0.5-0.4-1-0.8-1.5-1.2c-2.2-1.9-3-4.4-2.8-7.3c0.1-1.5,0.4-3,0.5-4.5c0-0.1,0.1-0.1,0.1-0.2
			c0.5,0.5,1,0.9,1.5,1.4c1.3,1.2,3,1.7,4.7,2.1c1.6,0.3,3.1,0.3,4.6-0.3c0.4-0.2,0.6-0.1,0.9,0.3c0.9,1.4,1.9,2.8,2.9,4.2
			c0.1,0.1,0.1,0.2,0.2,0.3c0.1,0.1,0.2,0.2,0.3,0.1c0.1-0.1,0.2-0.2,0.1-0.3c-0.1-0.1-0.2-0.3-0.2-0.4c-1.4-2-2.8-4-4.1-6
			c-0.1-0.2-0.2-0.4-0.3-0.6c-0.2-0.6,0.1-1.1,0.7-1c1.8,0.1,3.5,0.3,5.3,0.6c1,0.2,2,0.2,2.9,0.5c0.1,0,0.2,0,0.2-0.1
			c0-0.2-0.1-0.3-0.3-0.4c-0.5-0.1-0.9-0.2-1.4-0.2c-0.7-0.1-1.3-0.2-2-0.3c1.9-3.4,1.9-6.8,0.2-10.2c-0.7-1.5-2.1-2.5-3.5-3.3
			c-0.4-0.3-0.9-0.5-1.4-0.7c0-0.1,0-0.2,0.1-0.1c2.1,0.6,4.1,1.2,6.2,1.9c1.2,0.4,1.5,0.2,1.9-1c0.2-0.6,0.2-1.2,0.6-1.7
			c0.2-0.3-0.1-0.5-0.4-0.6c-1.4-0.5-2.8-1-4.2-1.5c-2.7-1.1-5.3-2.2-8-3.2c-0.5-0.2-0.6-0.4-0.3-0.8c0.2-0.3,0.3-0.7,0.3-1.1
			c0,0,0,0,0,0c1.2,0.2,2.4,0.2,3.6,0.2c3.6,0.1,7.2,0,10.7,0.2c3.4,0.1,6.7,0.3,10.1,0.6c2.7,0.2,5.4,0.5,8.1,0.7
			c3.6,0.3,7.1,0.7,10.6,1.9c0.6,0.2,1.2,0.5,1.8,0.8c1,0.6,1.5,1.4,1.8,2.5c1,3.4,1.8,6.8,1.9,10.3c0.1,2.1,0.2,4.2,0.2,6.3
			c0,0.6,0,1.2-0.2,1.8c-0.1,0.2-0.1,0.4,0.2,0.5c0.3,0.1,0.3-0.2,0.4-0.4c0.7-2.2,2.4-3.3,4.6-3.7c0.6-0.1,1.1,0,1.6,0.3
			c3.4,1.7,5.4,4.1,4.9,8.3c-0.6,4.8-3.5,8.4-8.8,8.9c-1.5,0.1-3,0-4.2-1c-0.4-0.3-0.8-0.2-1.2,0c-3.1,1.8-6.2,3.4-9.6,4.6
			c-2.4,0.8-4.8,1.2-7.3,1.8c-1.5,0.3-3.1,0.5-4.6,0.4c-0.4,0-0.4,0-0.8,0.4c1.3,0,2.5,0.3,3.8,0.1
			C331.5,165.5,331.7,165.5,331.6,165.7z"/>
		<path class="st18" d="M360.8,216.8c0.1,2.5-0.2,5-0.8,7.4c-0.4,1.6-0.8,3.2-1.6,4.6c-2.1,3.5-4.7,6.7-8,9.1
			c-0.7,0.5-1.5,0.9-2.2,1.3c-2.8,1.3-5.6,2.7-8.7,3.4c-1.5,0.3-3,0.5-4.6,0.6c-3.5,0.1-7,0.2-10.5,0c-5.6-0.3-11-1.5-16.1-3.6
			c-2.3-1-4.4-2.5-6.3-4.2c-2.3-2-4.5-4.2-6-6.9c-1.7-3.1-2.7-6.4-3.4-9.8c0-0.3,0-0.5,0-0.8c-0.1-0.7-0.1-0.7,0.6-0.5
			c3,1,6.1,2.1,9.2,2.4c1.8,0.2,3.6,0.4,5.4,0.6c0.2,0,0.4-0.1,0.5,0.1c0.1,0.2,0.1,0.5-0.1,0.7c-0.3,0.4-0.3,0.7,0.3,0.7
			c1.5,0.2,3.1,0.4,4.6,0.7c4.4,0.7,8.9,0.8,13.3,0.7c0.3,0,0.6,0,0.8-0.1c0.7-0.2,1.1-0.5,1.2-1.2c0-0.2,0-0.3,0.3-0.3
			c3.7,0.4,7.5,0.4,11.3,0.2c3.7-0.2,7.3-0.7,10.8-1.6c2.9-0.7,5.6-2,8.1-3.7c0.4-0.3,0.9-0.3,1.4-0.4
			C360.7,216.2,360.6,216.6,360.8,216.8z"/>
		<path class="st20" d="M325.2,261.9c0,1.8,0.1,3.7,0,5.5c-0.1,2.7-0.2,5.4-0.2,8.1c0,1.4-0.1,2.7-0.2,4.1c-0.1,1.1-0.5,2.1-0.9,3.2
			c-0.1,0.3-0.2,0.6-0.2,0.9c-0.1,1-0.9,1.1-1.6,1.2c-2,0.3-4.1,0.6-6.2,0.8c-1.1,0.1-2.1,0.2-3.2,0.3c-2,0.1-4.1,0.3-6.1,0.4
			c-0.8,0.1-1.7,0-2.5,0.1c-1.4,0.1-2.8,0.1-4.2,0.1c-2.2,0-4.5,0.2-6.7,0.1c-1.8,0-3.6-0.1-5.3-0.2c-2.6-0.1-5.3-0.3-7.9-0.9
			c-1.2-0.3-2.4-0.5-3.5-1.1c-0.2-0.1-0.4-0.2-0.6-0.4c-0.7-0.7-0.8-1.1-0.3-2c0.5-0.9,1.3-1.4,2.1-2c2.3-1.8,4.8-3.3,7.5-4.4
			c2.5-1.1,4.9-2.2,7.4-3.2c1.8-0.7,3.5-1.4,5.4-2c2.2-0.7,4.4-1.2,6.7-1.5c0.6-0.1,1.2-0.2,1.8-0.2c0.7-0.1,0.7-0.7,0.7-1.1
			c0.2-1.8,0.3-3.6,0.4-5.4c0.1-1.7,0.1-3.3,0.2-5c0-0.6,0.1-1.3,0.1-1.9c0-0.3,0.1-0.4,0.4-0.4c1.8,0.1,3.6,0,5.4,0.1
			c1.8,0.1,3.5,0.1,5.3,0c1.6-0.1,3.1-0.4,4.6-0.4c0.4,0,0.7,0.1,1,0.1c0.3,0,0.4,0.2,0.5,0.5c0.1,0.7,0.1,1.3,0.1,2
			C325.2,258.8,325.2,260.4,325.2,261.9z"/>
		<path class="st20" d="M334.2,256.9c1.8-0.1,3.6-0.2,5.4-0.4c1.1-0.1,2.2,0,3.2,0c0.3,0,0.3,0.2,0.3,0.5c0,1.5,0,2.9,0,4.4
			c0,0.3,0,0.6,0.1,0.9c-0.1,0.4-0.1,0.9,0,1.3c-0.2,0.7-0.1,1.5-0.1,2.2c0,3,0,5.9,0,8.9c0,1.4,0.4,2.7,0.8,4
			c0.7,2.3,1.4,4.6,1.9,7c0.5,2.4,0.7,4.8,0.6,7.2c-0.1,1-0.6,1.9-1.1,2.7c-1.3,2.1-3,3.9-5.1,5.4c-1.3,0.9-2.4,1.9-3.7,2.6
			c-1.5,0.9-3.1,1.8-4.9,2.1c-1.4,0.2-2.6-0.1-3.6-1.3c-1.7-2.1-2.7-4.5-3.7-7c-0.3-0.7-0.5-1.5-0.8-2.2c-0.1-0.3-0.2-0.6,0-0.8
			c0-0.1,0.1-0.2,0-0.2c-0.8-0.3-0.6-1.1-0.7-1.6c-0.3-1.6-0.1-3.3,0.3-4.9c0.4-2.2,1.2-4.3,2-6.5c0.3-0.9,0.4-1.9,0.5-2.9
			c0.2-1.4,0.2-2.8,0.2-4.2c0-1.5-0.1-3,0-4.5c0.2-3.4,0-6.7,0.1-10.1c0-0.9,0.1-1.8,0.1-2.7c0-0.3,0.1-0.5,0.5-0.4
			c0.6,0.2,1.3,0.1,1.9,0.2c1.2,0.1,2.4,0.2,3.6,0.2c0.3,0,0.7,0.1,1,0.1C333.4,256.8,333.8,256.8,334.2,256.9z"/>
		<path class="st21" d="M304.5,119.7c-0.1-1.1-0.5-2.1-0.7-3.1c-0.8-3-1.5-6-2.3-9.1c0-0.2,0-0.3-0.1-0.5c2.2,1.1,4.6,1.8,6.9,2.8
			c0.3,0.1,0.6,0.2,0.9,0.2c0.4,0,0.7-0.2,0.9-0.6c0.8-1.4,1.7-2.9,2.5-4.3c0.4-0.7,0.4-0.6,0.9,0c1.1,1.5,2.2,3,3.3,4.5
			c0.2,0.3,0.4,0.7,0.9,0.3c0.4-0.3,1.1,0,1.7,0.1c1.4,0.2,2.7,0.3,4.1,0.3c1.7,0,3.4,0.3,5.1,0.5c1.7,0.2,3.4,0.5,5.1,0.7
			c1.6,0.2,3.2,0.5,4.8,0.7c1.5,0.2,3,0.4,4.6,0.7c2.1,0.3,4.2,0.7,6.3,1.3c1.7,0.5,3.4,1.1,5,1.9c1.3,0.6,2.3,1.5,3.3,2.5
			c1.5,1.7,2,3.7,2.5,5.8c0.5,1.8,0.7,3.6,1,5.3c0.2,1.6,0.4,3.3,0.6,4.9c0.2,1.5,0.4,2.9,0.5,4.4c0.1,1.3,0.3,2.7,0.3,4
			c0,0.1,0.1,0.3-0.1,0.3c-0.1,0.1-0.2-0.1-0.3-0.2c-1.1-0.8-2.1-1.6-3.5-1.8c-0.5-0.1-1.1,0-1.5,0.1c-1.4,0.4-2.7,1-3.5,2.3
			c-0.1-0.1-0.1-0.3-0.1-0.4c0-1.5-0.1-3-0.1-4.5c-0.1-3.3-0.5-6.5-1.4-9.7c-0.3-1-0.5-1.9-0.8-2.9c-0.5-1.6-1.8-2.5-3.2-3
			c-2.1-0.8-4.2-1.3-6.4-1.5c-1.2-0.1-2.3-0.4-3.5-0.5c-1-0.1-2-0.2-2.9-0.3c-1.5-0.1-3-0.4-4.5-0.4c-1.1,0-2.2-0.2-3.3-0.3
			c-2.1-0.1-4.2-0.3-6.4-0.4c-0.1,0-0.1,0-0.2,0c-1.8,0.1-3.6-0.2-5.4-0.1c-2.3,0.1-4.6-0.2-6.9-0.1c-1.2,0-2.4,0.1-3.6,0.1
			C304.8,119.7,304.6,119.9,304.5,119.7z"/>
		<path class="st22" d="M369.7,190c1.6,2.8,3.5,5.3,5,8.1c1.1,2.1,2.3,4.1,3.3,6.2c1.8,3.8,3.5,7.7,5.1,11.6
			c0.9,2.2,1.9,4.4,2.8,6.6c0.4,1.2,0.9,2.3,1.1,3.5c0.1,0.7-0.1,1.2-0.6,1.6c-0.8,0.6-1.5,1.3-2.3,1.8c-1.6,1-3.3,2-5.1,2.6
			c-3.1,1.1-6.3,2.3-9.5,3.2c-2.7,0.8-5.4,1.3-8.1,1.8c-2.6,0.5-5.1,1.1-7.7,1.6c-1.4,0.3-2.8,0.4-4.2,0.7c-0.2,0-0.4,0.2-0.7,0.1
			c1.6-0.9,3.1-2,4.4-3.3c1.9-1.8,3.5-3.8,4.9-6c1.4-2.1,2.2-4.4,2.6-6.9c0.3-1.8,0.7-3.6,0.7-5.4c0-0.3-0.1-0.7-0.1-1
			c0-0.7,0.1-0.9,0.8-1c1.1-0.1,2.1-0.4,3.1-0.8c0.9-0.4,1.8-0.9,2.6-1.6c1-0.9,2.1-1.8,2.7-3.1c0.3-0.7,0.6-1.4,0.7-2.2
			c0.2-1.3,0.3-2.7,0-4c-0.4-1.9-1.8-3.1-3.6-3.8c-0.5-0.2-1-0.3-1.4-0.4c-0.3-0.1-0.5-0.2-0.2-0.5c0.4-0.4,0.7-0.8,1.1-1.2
			c0.6-0.5,0.6-0.9,0.2-1.5c-0.3-0.3-0.5-0.7-0.9-1c-0.4-0.2-0.3-0.5-0.1-0.9C367.3,193.3,368.5,191.7,369.7,190z"/>
		<path class="st21" d="M356,190.3c1.4,0.5,2.7,1.2,3.9,1.9c1.7,0.9,3.3,1.8,4.8,3.1c0.7,0.6,1.3,1.1,1.9,1.8
			c0.2,0.3,0.1,0.5-0.1,0.7c-0.6,0.6-1.1,1.3-1.7,1.9c-0.5,0.5-0.8,1.3-1.3,1.8c-0.1,0-0.1,0.1,0,0.2c0.1,0.1,0.1,0.1,0.2,0
			c0.3-0.1,0.4-0.4,0.6-0.6c0.4-0.6,0.9-0.9,1.7-0.7c1.6,0.5,3.1,1.1,4,2.5c0.4,0.7,0.7,1.4,0.7,2.2c0,1.1,0,2.2-0.2,3.3
			c-0.3,1.6-1.2,2.8-2.3,3.8c-1.3,1.2-2.7,2.3-4.5,2.7c-1.4,0.3-2.8,0.6-4.3,0.7c-1.3,0.1-2.6,0.1-3.9-0.2c-2-0.5-3.7-1.5-5.2-2.8
			c-0.8-0.7-1.6-1.3-2.2-2.1c-1.5-1.9-2.2-4.1-1.7-6.6c0.3-1.2,1-2.4,1.7-3.4c1.2-2,2.8-3.9,4.3-5.7c1.1-1.2,2.1-2.4,3.1-3.7
			C355.8,190.8,355.9,190.5,356,190.3L356,190.3z"/>
		<path class="st22" d="M304,237.8c-2.8-0.9-5.5-1.8-8.3-2.8c-2.7-0.9-5.5-1.8-8.2-2.7c-2.9-1.1-5.9-2.1-8.8-3.4
			c-0.3-0.1-0.6-0.3-0.9-0.5c-0.3-0.1-0.3-0.4-0.3-0.7c0.3-1.9,0.6-3.7,0.9-5.6c0.3-2.1,0.8-4.2,1.3-6.2c0.8-3.5,1.9-6.9,3.2-10.2
			c1.3-3.2,2.6-6.4,4.1-9.5c0,0,0,0,0.1,0c0.4,0.5,0.7,1.2,1.1,1.8c0.1,0.2,0.2,0.4-0.1,0.6c-0.3,0.2-0.3,0.5,0,0.7
			c0.2,0.2,0.3,0.4-0.1,0.5c-2.5,0.9-4.1,4.8-3.4,7.5c0.7,2.7,2.2,4.6,4.8,5.7c0.6,0.2,1.3,0.4,2,0.3c0.4,0,0.5,0.1,0.5,0.5
			c0.1,2.3,0.1,4.5,0.7,6.7c0.5,2,1.1,3.9,1.9,5.7c1,2.3,2.3,4.4,4,6.3c1.7,1.9,3.6,3.4,5.6,5C304,237.6,304,237.7,304,237.8
			C304.1,237.7,304.1,237.7,304,237.8z"/>
		<path class="st6" d="M313.7,137.4c0.1,1.5-0.3,3.1-1.2,4.5c-0.2,0.3-0.4,0.5-0.9,0.4c-1.2-0.2-2.3-0.4-3.5-0.4
			c-1.2,0-1.7,0.9-1.1,1.9c0.2,0.4,0.5,0.7,0.7,1.1c0.1,0.2,0.2,0.3-0.1,0.4c-3.8,1.1-7.1,0.2-10-2.5c-0.6-0.5-0.7-1.1-0.5-1.9
			c0.8-3.4,1.9-6.6,2.9-9.9c0.5-1.6,1.8-2,3.1-2.4c4.7-1.3,9.6,2.2,10.4,6.2C313.6,135.6,313.7,136.4,313.7,137.4z"/>
		<path class="st23" d="M308.4,213.5C308.4,213.5,308.4,213.4,308.4,213.5c0-0.1,0.1-0.2,0.1-0.1c0.3,0,0.3-0.2,0.3-0.4
			c0-0.5,0.2-0.6,0.6-0.6c0.9,0,1.9,0,2.8,0c4.9,0.2,9.8,0.4,14.7,0.4c0.5,0,0.6,0.3,0.7,0.7c0.2,1.5,0.3,3.1,0.3,4.6
			c0,1,0.1,2.1,0.1,3.1c0,1.1-0.3,1.4-1.3,1.4c-2.1,0-4.2,0.1-6.3,0c-2.6-0.1-5.2-0.4-7.7-0.7c-1.1-0.1-2.3-0.3-3.4-0.5
			c-0.2,0-0.4,0-0.4-0.3c0.1-1.3-0.1-2.6,0-3.8c0-0.9,0-1.9,0-2.8C308.7,214.2,308.7,213.8,308.4,213.5z"/>
		<path class="st24" d="M328.3,217.9c0-1,0-1.9-0.1-2.8c0-0.4-0.1-0.6,0.5-0.6c1.9,0.2,3.8,0.4,5.8,0.2c1.7-0.1,3.3-0.1,5-0.2
			c1.8-0.1,3.6-0.2,5.4-0.5c1.2-0.2,2.4-0.5,3.6-0.9c0.4-0.1,0.8-0.1,1.1-0.3c0.2-0.1,0.3,0,0.5,0.1c0.7,0.6,1.5,1.2,2.3,1.6
			c1.6,0.8,3.2,1.5,5.1,1.5c0.2,0,0.5-0.1,0.6,0.1c0.1,0.2-0.3,0.3-0.4,0.4c-2.5,1.6-5.2,2.6-8.1,3.2c-2,0.5-4.1,0.8-6.2,1
			c-1.7,0.2-3.3,0.4-5,0.4c-2.6,0-5.1,0-7.7-0.1c-0.6,0-1.3,0-1.9-0.2c-0.3-0.1-0.4-0.2-0.3-0.4
			C328.5,219.7,328.2,218.8,328.3,217.9z"/>
		<path class="st25" d="M338.6,243.6c0,4,0,8.1,0,12.1c0,0.3-0.1,0.4-0.4,0.4c-2.6,0.3-5.1,0.3-7.7,0.1c-0.3,0-0.4-0.1-0.4-0.5
			c-0.1-3.3-0.1-6.5-0.2-9.8c0-0.6-0.1-1.2-0.1-1.8c0-0.3,0.1-0.5,0.4-0.4c1.8,0.1,3.5-0.1,5.3-0.1c1,0,2-0.2,3-0.3
			C338.6,243.3,338.5,243.5,338.6,243.6z"/>
		<path class="st25" d="M312.4,254.3c0-2.5,0.2-5,0.1-7.5c0-0.8,0-1.6-0.1-2.5c-0.1-0.8,0.2-1.6,0.1-2.4c0-0.2,0.1-0.3,0.3-0.2
			c1.2,0.4,2.5,0.7,3.8,1c0.8,0.2,1.6,0.3,2.4,0.4c0.7,0.1,1.5,0.2,2.2,0.3c0.4,0,0.4,0.2,0.4,0.5c-0.1,2-0.2,4-0.2,6.1
			c-0.1,0.2-0.1,0.4,0,0.6c-0.1,1.1-0.1,2.3-0.2,3.4c0,0.3-0.2,0.3-0.4,0.4c-2.3,0.3-4.6,0.2-6.9,0.2c-0.3-0.1-0.7,0-1,0
			C312.7,254.5,312.5,254.5,312.4,254.3z"/>
		<path class="st26" d="M307.9,219.8c-1.9-0.2-3.9-0.3-5.8-0.7c-1.2-0.2-2.4-0.4-3.6-0.7c-1.5-0.4-2.9-0.8-4.4-1.3
			c-0.1,0-0.2-0.1-0.3-0.1c-1.4-0.3-1.6-0.6-1.6-2.1c0-1.3,0-2.5,0-3.8c0-0.7,0.1-0.8,0.8-0.5c2.6,1,5.2,1.9,7.9,2.5
			c1.8,0.4,3.6,0.7,5.4,0.9c0.6,0.1,1.2,0.3,1.8,0.1c0.2-0.1,0.2,0,0.2,0.2c0,1.6,0,3.1,0,4.7c0,0.2,0.1,0.3-0.3,0.3
			C307.6,219.3,308.3,219.6,307.9,219.8z"/>
		<path class="st27" d="M291.3,196.3c1-0.7,1.9-1.7,3-2.4c-0.3,1.2-0.5,2.3-0.7,3.4c-0.3,1.3-0.5,2.6-0.7,4
			c-0.2,1.3-0.4,2.7-0.5,4.1c-0.1,0.9-0.2,1.7-0.3,2.6c-0.1,1.1-0.2,2.1-0.3,3.2c0,0.3,0,0.6,0,0.9c0,0.5-0.3,0.7-0.7,0.7
			c-1,0-1.9-0.4-2.8-0.9c-2-1.3-3-3.1-3.2-5.5c-0.3-2.2,0.7-3.9,2.2-5.4c0.4-0.4,1-0.4,1.5-0.4c0.3,0,0.3,0.3,0.5,0.4
			c0.6,0.9,1.1,1.8,1.8,2.7c0.2,0.2,0.4,0.4,0.6,0.2c0.2-0.2,0.1-0.4-0.1-0.6c-0.6-0.7-1-1.4-1.5-2.2c-0.2-0.4-0.5-0.7-0.8-1.1
			c-0.5-0.7-0.5-1.3,0.2-1.8c0.4-0.3,0.7-0.8,1.2-1.1C290.9,196.7,291.1,196.5,291.3,196.3z"/>
		<path class="st28" d="M356,189.9c0.4-0.1,0.3-0.4,0.2-0.6c-0.9-3.1-1.6-6.3-3-9.3c-0.3-0.7-0.6-1.4-0.9-2.2c1.9,1,3.6,1.9,5.3,2.8
			c1.2,0.6,2.4,1.3,3.3,2.3c0.6,0.7,0.9,1.5,0.6,2.4c-0.4,1.3-1.1,2.5-2.1,3.5c-0.4,0.4-0.8,0.8-1.2,1.2c-0.3,0.4-0.7,0.4-1.1,0.3
			c-0.4-0.1-0.7-0.4-1.2-0.2C356,190.1,356,190,356,189.9z"/>
		<path class="st22" d="M340.8,170c-1.5-0.2-3-0.2-4.3-1.1c-1.4-1-1.4-2.7-0.1-3.7c0.8-0.6,1.6-1.1,2.6-1.3c0.8-0.2,1.6,0,2.4,0.1
			c1.2,0.1,2.4,0.4,3.4,1.1c0.6,0.4,0.8,1,0.7,1.7c-0.4,1.4-1,2.4-2.5,2.8C342.2,169.8,341.6,170.1,340.8,170z"/>
		<path class="st24" d="M303.7,122.1c0.2,0.1,0.4,0.2,0.6,0.3c1.6,0.9,3.3,1.5,5,2.2c1.5,0.6,3,1.3,4.5,1.8c0.7,0.2,1.3,0.5,1.9,0.7
			c0.4,0.1,0.5,0.3,0.3,0.7c-0.2,0.5-0.3,1.1-0.5,1.6c-0.1,0.4-0.4,0.5-0.8,0.3c-2.3-0.7-4.6-1.3-6.8-2.1c-1.8-0.6-3.6-1.1-5.3-1.7
			c-0.5-0.2-0.7-0.4-0.4-0.9c0.4-0.8,0.8-1.7,1.1-2.5C303.5,122.2,303.5,122.1,303.7,122.1z"/>
		<path class="st29" d="M314.1,166c0,1.5-1.4,2.7-3,2.4c-0.9-0.1-1.7-0.3-2.5-0.7c-1.1-0.5-2-1.2-2.3-2.4c-0.2-0.8,0-1.5,0.8-1.9
			c0.6-0.3,1.2-0.5,1.8-0.7c0.7-0.2,1.3,0,1.8,0.3c0.8,0.5,1.8,0.6,2.5,1.2C313.9,164.8,314.1,165.3,314.1,166z"/>
		<path class="st29" d="M297.3,184.9c-0.9,2.5-1.8,5.1-2.5,7.6c-0.2,0-0.3-0.2-0.3-0.3c-0.6-1-1-2.1-1.1-3.3c0-0.4,0.1-0.8,0.4-1.1
			C294.7,186.6,296,185.7,297.3,184.9z"/>
		<path class="st17" d="M306.5,127.8c-0.9-0.1-1.9-0.1-2.8,0c-1.2,0.1-2.3,0.7-3.3,1.4c0.3-1.1,0.7-2.2,1.2-3.2
			c0.1-0.2,0.2-0.1,0.3-0.1c1.5,0.7,3.2,1.1,4.8,1.7C306.6,127.8,306.6,127.9,306.5,127.8z"/>
		<path class="st30" d="M360.8,216.8c-0.5,0-0.2-0.5-0.4-0.6C361.1,216,360.8,216.5,360.8,216.8z"/>
		<path class="st31" d="M356,189.9c0,0.1,0,0.1,0,0.2c0,0,0,0.1,0,0.1l0,0c-0.1,0-0.2,0-0.3,0c-0.1-0.3-0.1-0.5,0-0.8
			C355.8,189.6,355.8,189.9,356,189.9z"/>
		<path class="st32" d="M331.9,165.7c0-0.1-0.2-0.1-0.2-0.1c0.1-0.1,0.3-0.2,0.4-0.1C332.1,165.6,332,165.6,331.9,165.7z"/>
		<path class="st33" d="M321.5,250.5c-0.1-0.2-0.1-0.4,0-0.6C321.5,250.1,321.5,250.3,321.5,250.5z"/>
		<path class="st34" d="M365.1,194.9c0.1,0,0.3,0,0.4,0C365.4,195.2,365.2,195,365.1,194.9z"/>
		<path class="st35" d="M307,192.7c0,0,0.1-0.1,0.1-0.1c0.3,0.1,0.2,0.3,0.2,0.5c0.5,4.4,4.1,7.9,8.5,8.5c4.4,0.6,8.9-2,10.5-6.2
			c0.2-0.3,0.3-0.7,0.4-1c-0.1,0.3-0.2,0.6-0.3,0.8c-1.3,2.7-4.3,4.2-7.1,3.9c-3.4-0.4-5.9-2.9-6.4-6c-0.3-1.8,0-3.5,0.8-5
			c1.6-3.1,4-5.2,7.4-6c4.6-1.2,9.5,0.7,12.1,4.7c0.9,1.3,1.5,2.7,1.6,4.3c0,0.2,0,0.4-0.2,0.5c-0.3-0.2-0.3-0.5-0.3-0.7
			c-0.8-3-2.6-5.2-5.4-6.6c-3.6-1.7-8.1-1-11,1.9c-1.1,1.1-1.9,2.3-2.4,3.7c-0.2,0.3-0.2,0.6-0.3,0.9c0.1-0.2,0.1-0.5,0.3-0.8
			c2.1-4.3,7.6-5.5,11.2-2.3c1.6,1.3,2.4,3.1,2.4,5.2c0,3.1-1.3,5.7-3.6,7.7c-1.7,1.5-3.6,2.4-5.8,2.7c-3.4,0.4-6.5-0.4-9.1-2.8
			c-1.5-1.3-2.5-3-3.1-4.8c-0.2-0.5-0.3-1.1-0.4-1.7C307,193.7,306.8,193.2,307,192.7z"/>
		<path class="st6" d="M307.1,194.2c0.5,2.7,1.9,5,4.1,6.8c5.4,4.3,13.5,2.6,16.7-3.5c1.1-2.2,1.6-4.6,0.6-7
			c-1.1-2.6-3.2-4.1-6.1-4.3c-2.9-0.2-5.2,1.2-6.6,3.7c-0.1,0.1-0.1,0.2-0.2,0.3c-0.2,0-0.2-0.1-0.1-0.3c1.3-3.5,3.9-5.7,7.5-6.4
			c5.7-1.1,10.7,2.7,11.7,8.1c0.2,0.3,0.3,0.6,0.2,0.9c-0.1,0.8-0.1,1.6-0.1,2.4c-0.7,4.4-3,7.7-6.8,10c-7,4.2-16.2,1.4-19.7-5.9
			c-0.7-1.4-1.2-2.8-1.3-4.4C307,194.4,306.8,194.2,307.1,194.2z"/>
		<path class="st6" d="M326.4,195.4c-1.5,3.6-4.1,5.8-7.9,6.3c-5.5,0.8-10.2-2.7-11.2-8.2c-0.1-0.3-0.1-0.7-0.2-1
			c-0.1-5.6,2.4-9.8,7.3-12.5c8.3-4.5,18.4,0.3,20.3,9.5c0.1,0.5,0.1,0.9,0.2,1.4c0,0.2,0.1,0.4-0.1,0.6c-0.2-0.1,0-0.4-0.2-0.5
			c-0.5-2.8-1.8-5.1-4-6.8c-6.4-5-15.5-1.8-17.5,5.9c-0.9,3.5,1,7.1,4.3,8.4c3.3,1.3,7,0,8.8-3.2c0-0.1,0.1-0.2,0.1-0.2
			C326.5,195.2,326.5,195.3,326.4,195.4z"/>
		<path class="st36" d="M334.7,191.1c0.1,0.1,0.1,0.3,0.1,0.5c0.1,0.5,0.2,1,0.1,1.6c-0.2,0.3-0.1,0.7-0.1,1c0,0.2,0.1,0.5-0.1,0.7
			c0.1-1.1,0-2.2-0.1-3.3C334.7,191.5,334.6,191.3,334.7,191.1z"/>
		<path class="st37" d="M334.9,193.2c0-0.5-0.1-1-0.1-1.6c0.2-0.2,0-0.4,0.1-0.6C335.1,191.7,335.1,192.4,334.9,193.2z"/>
		<path class="st24" d="M324.1,129.2c0-0.1,0-0.2,0.1-0.3c1-0.3,2.1-0.4,3.1-0.5c1.7-0.2,3.3-0.4,5-0.7c2.1-0.3,4.2-0.6,6.3-0.8
			c2-0.2,3.9-0.7,5.9-0.9c0.4,0,0.8,0,1.2-0.1c0.7-0.1,1.2,0.2,1.5,0.8c0.5,1.1,0.8,2.2,0.8,3.4c0,0.4-0.2,0.5-0.6,0.5
			c-1.4,0-2.8,0.2-4.2,0.2c-3,0.2-6,0.1-9,0.1c-2.7,0.1-5.4,0.1-8,0.1c-0.4,0-0.9,0-1.3-0.1c-0.5-0.1-0.7-0.3-0.8-0.8
			C324,129.9,324,129.6,324.1,129.2z"/>
		<path class="st38" d="M324.1,129.2c0.2,0.3,0.1,0.7,0.1,1c0,0.4,0.1,0.7,0.7,0.8c2.6,0.2,5.2,0.1,7.8,0.1c2.4-0.1,4.8,0,7.2-0.1
			c2.6-0.1,5.1-0.2,7.7-0.3c0.2,0,0.2,0,0.3-0.2c0-1.2-0.3-2.3-0.7-3.4c-0.3-0.6-0.8-0.8-1.4-0.8c-2.4,0.1-4.6,0.7-7,0.9
			c-2.1,0.2-4.2,0.5-6.3,0.8c-1.6,0.2-3.3,0.5-4.9,0.6c-1.1,0.1-2.1,0.4-3.2,0.3c0.1-0.3,0.4-0.3,0.7-0.3c4.1-0.7,8.2-1.2,12.3-1.8
			c2.6-0.4,5.3-0.7,7.9-1.1c1.6-0.2,2.2,0.2,2.8,1.7c0.3,0.9,0.6,1.8,0.6,2.7c0,0.5-0.4,0.9-0.9,1c-2.8,0.2-5.6,0.3-8.4,0.3
			c-0.3,0-0.6,0.1-1,0.1c3.9,1.1,6.2,3.7,7.4,7.3c1.1,3.1,0.7,6.2-1.3,8.9c-1.4,1.9-3.3,3.1-5.7,3.4c-2.2,0.3-4.4,0.4-6.5-0.1
			c-3.5-0.7-6.7-3.8-7.4-7.3c-0.4-2.3-0.3-4.7,0.7-6.9c0.9-1.8,2.2-3.2,4-4.1c0.8-0.4,1.5-0.7,2.3-1.1c0,0,0-0.1,0-0.1
			c-0.6,0-1.3,0-1.9,0c-1.6,0-3.1,0-4.7-0.1C323.9,131.3,323.4,130.2,324.1,129.2z"/>
		<path class="st39" d="M310.4,152.6c1.3,0.1,2.4,0.2,3.6,0.3c1.8,0.1,3.6,0.2,5.4,0.1c0.9-0.1,1,0.1,1,1c0,1.7-0.3,3.4-0.8,5
			c-0.3,1-1.1,1.2-1.8,0.4c-1.5-1.7-3-3.5-4.5-5.2c-0.5-0.6-1-1.2-1.9-1.1C311.1,153,310.8,152.9,310.4,152.6z"/>
		<path class="st40" d="M308.7,136.4c-0.1,1.2-0.1,2.2-0.3,3.3c-0.1,0.4-0.2,0.8-0.7,0.8c-0.6,0-1-0.4-1-0.9c0-0.6,0.1-1.2,0.2-1.8
			c0.1-0.6,0.3-1.1,0.2-1.7c0-0.2,0.1-0.5,0.4-0.6c0.4-0.1,1,0.2,1.1,0.6C308.7,136.2,308.7,136.4,308.7,136.4z"/>
		<path class="st41" d="M315.3,189.9c0,0.1,0,0.2,0.1,0.3c-0.1,0.4-0.2,0.8-0.5,1.1C315,190.8,315.1,190.3,315.3,189.9z"/>
		<path class="st42" d="M326.4,195.4c0-0.1,0-0.2-0.1-0.3c0.1-0.3,0.2-0.7,0.5-1.1C326.8,194.6,326.7,195.1,326.4,195.4z"/>
		<path class="st6" d="M334.7,131.8c1.2,0,2.3,0,3.4,0.3c1.8,0.4,3.2,1.4,4.4,2.7c1.4,1.6,2.5,3.3,2.8,5.4c0.6,3.9-0.8,7.3-4,9.3
			c-1,0.6-2.1,0.9-3.2,1c-2.3,0.3-4.7,0.5-7-0.3c-3.3-1.1-5.5-3.3-6.2-6.7c-0.5-2.4-0.3-4.9,1-7.1c0.8-1.4,2-2.6,3.5-3.3
			c1-0.5,2-1.1,3.2-1.3C333.4,131.7,334.1,131.8,334.7,131.8z"/>
		<path class="st43" d="M312.9,153.2c1.9,0.2,3.7,0.3,5.6,0.3c0.1,0,0.2,0,0.3,0c0.9,0,0.9,0,0.9,0.9c0,1.6-0.4,3.1-0.8,4.5
			c-0.2,0.6-0.5,0.6-0.9,0.1c-0.9-1-1.7-2-2.6-3C314.6,155.1,313.8,154.2,312.9,153.2z"/>
		<path class="st44" d="M307.6,136.5c0.1-0.2-0.2-0.5,0.2-0.5c0.4,0,0.5,0.3,0.4,0.6c0,0.2,0,0.4,0,0.6c-0.2-0.1-0.3-0.1-0.4-0.2
			C307.4,136.9,307.6,136.7,307.6,136.5z"/>
		<path class="st45" d="M307.6,136.5c0.1,0.2,0,0.4,0.2,0.5c-0.1,0.1-0.1,0.2-0.2,0.3C307.5,137,307.5,136.7,307.6,136.5z"/>
		<path class="st46" d="M333.6,138.9c0,1.1-0.1,2.1-0.3,3.2c-0.1,0.7-0.6,1-1.1,0.9c-0.4-0.1-0.6-0.4-0.6-0.9c0-1.1,0.2-2.2,0.4-3.3
			c0.1-0.4,0-0.8,0.3-1.2c0.2-0.3,0.4-0.4,0.7-0.4c0.3,0,0.5,0.1,0.5,0.5C333.6,138.1,333.6,138.5,333.6,138.9z"/>
		<path class="st47" d="M332.4,139.2c0.1-0.5,0.1-0.8,0.2-1.2c0-0.2,0.2-0.4,0.4-0.4c0.3,0,0.2,0.3,0.2,0.4
			C333.3,138.7,332.9,138.9,332.4,139.2z"/>
	</g>
	<g>
		<path class="st48" d="M296.7,149.1h-6.8c-0.6,0-1.2-0.5-1.2-1.2v-17.3c0-0.6,0.5-1.2,1.2-1.2h6.8c0.6,0,1.2,0.5,1.2,1.2v17.3
			C297.9,148.5,297.4,149.1,296.7,149.1z"/>
		<g>
			<g>
				<path class="st48" d="M304.8,157.4c-12.2-0.1-12.4-8.5-12.4-8.5h2.6h-1.3l1.3,0c0,0.2,0.2,5.9,9.8,6L304.8,157.4z"/>
			</g>
			<path class="st48" d="M309.9,157.9h-5.8c-0.4,0-0.6-0.3-0.6-0.6v-3.4c0-0.4,0.3-0.6,0.6-0.6h5.8c0.4,0,0.6,0.3,0.6,0.6v3.4
				C310.5,157.6,310.2,157.9,309.9,157.9z"/>
		</g>
		<path class="st48" d="M360.3,152.6h-6.8c-0.6,0-1.2-0.5-1.2-1.2v-17.3c0-0.6,0.5-1.2,1.2-1.2h6.8c0.6,0,1.2,0.5,1.2,1.2v17.3
			C361.5,152,361,152.6,360.3,152.6z"/>
		<g>
			<path class="st48" d="M359.1,134.3l-4-0.1c0.4-13.7-4.1-20.8-15.5-24.5c-7.9-2.6-16.8-2.9-25.1-1c-13.5,3.2-19.7,11.4-18.9,24.8
				l-4,0.1c-0.8-14.9,6.6-24.4,21.8-28c9.1-2.2,19-1.8,27.8,1.1C357.6,112.2,359.5,123.7,359.1,134.3z"/>
		</g>
	</g>
</g>
</svg>
