<?xml version="1.0" encoding="utf-8"?>
<!-- Generator: Adobe Illustrator 16.0.2, SVG Export Plug-In . SVG Version: 6.00 Build 0)  -->
<!DOCTYPE svg PUBLIC "-//W3C//DTD SVG 1.1//EN" "http://www.w3.org/Graphics/SVG/1.1/DTD/svg11.dtd">
<svg version="1.1" id="Layer_1" xmlns="http://www.w3.org/2000/svg" xmlns:xlink="http://www.w3.org/1999/xlink" x="0px" y="0px"
	 viewBox="0 0 305.041 104.4" enable-background="new 0 0 305.041 104.4" xml:space="preserve">
<g>
	<g>
		<path fill-rule="evenodd" clip-rule="evenodd" fill="#040707" d="M27.159,33.137c-2.132,5.332-4.609,10.513-6.898,15.777
			c-1.127,2.593-2.312,5.161-3.424,7.759c-0.256,0.6-0.548,0.858-1.226,0.832c-0.62-0.024-0.984-0.135-1.268-0.777
			c-3.255-7.361-6.554-14.702-9.83-22.053C4.213,34,3.996,33.288,3.721,32.54c0,2.667,0,5.271,0,7.874
			c0,5.32-0.022,10.64,0.022,15.959c0.007,0.899-0.221,1.191-1.129,1.132c-0.783-0.051-1.593-0.164-2.373,0.096
			c0-10.081,0-20.161,0-30.241c1.304,0.268,2.623,0.064,3.934,0.11c0.46,0.016,0.834,0.028,1.057,0.539
			c3.44,7.885,6.894,15.765,10.363,23.687c0.097-0.008,0.161-0.184,0.234-0.367c3.15-7.838,6.874-15.423,10.251-23.161
			c0.229-0.523,0.5-0.727,1.067-0.701c0.958,0.045,1.922,0.061,2.877-0.002c0.778-0.052,0.913,0.264,0.911,0.969
			c-0.021,9.357-0.026,18.715,0.006,28.073c0.003,0.821-0.258,0.99-1.014,0.992c-2.606,0.007-2.614,0.033-2.605-2.61
			c0.025-7.157,0.057-14.313,0.087-21.471c0.108-0.204-0.083-0.43,0.046-0.632C27.279,32.837,27.292,33.048,27.159,33.137z"/>
		<path fill-rule="evenodd" clip-rule="evenodd" fill="#737474" d="M305.281,99.601c-0.632,0.277-1.299,0.401-1.981,0.378
			c-1.821-0.063-2.797-1.023-2.845-2.852c-0.039-1.518-0.035-3.037,0.002-4.554c0.017-0.685-0.139-0.986-0.914-1.006
			c-2.627-0.065-2.626-0.098-2.626,2.519c0,1.558-0.068,3.12,0.023,4.672c0.064,1.096-0.571,0.974-1.271,1.002
			c-0.773,0.031-1.259-0.019-1.215-1.047c0.088-2.074,0.006-4.154,0.038-6.231c0.01-0.645-0.142-1.005-0.854-0.894
			c-0.862,0.135-0.848-0.409-0.851-1.021c-0.003-0.62-0.002-1.154,0.855-1.011c1.014,0.17,0.83-0.55,0.837-1.128
			c0.022-2.099,0.849-3.365,2.647-3.727c2.499-0.503,2.641-0.07,2.295,2.001c-1.996-0.244-2.677,0.346-2.506,2.172
			c0.011,0.119-0.029,0.298,0.034,0.349c0.907,0.732,1.964,0.199,2.948,0.311c0.72,0.082,0.58-0.557,0.528-0.938
			c-0.138-1.019,0.279-1.437,1.258-1.737c1.102-0.338,1.254-0.031,1.215,0.976c-0.068,1.738-0.016,1.741,1.782,1.721
			c0.199-0.003,0.398-0.022,0.598-0.034c0,0.72,0,1.439,0,2.16c-0.153,0.129-0.32,0.23-0.519,0.274
			c-1.539,0.34-1.539,0.34-1.54,1.944c0,0.673-0.016,1.347,0.006,2.02c0.042,1.301,0.211,1.475,1.502,1.582
			c0.201,0.017,0.392,0.043,0.551,0.18C305.281,98.32,305.281,98.96,305.281,99.601z"/>
		<path fill-rule="evenodd" clip-rule="evenodd" fill="#856B29" d="M0.24,6.96c0.349-0.095,0.315-0.438,0.401-0.676
			c1.326-3.67,4.416-5.645,8.282-5.265c0.476,0.047,0.951,0.118,1.423,0.2c1.909,0.333,1.962,0.409,1.782,2.479
			c-0.978-0.356-1.912-0.794-2.942-0.963C6.464,2.289,4.091,3.363,2.911,5.63C1.6,8.15,2.003,11.69,3.804,13.466
			c1.5,1.479,4.538,1.929,6.383,0.978c0.329-0.17,0.505-0.351,0.504-0.715c-0.003-1.039-0.007-2.077,0.002-3.116
			c0.004-0.422-0.208-0.547-0.596-0.537c-0.599,0.016-1.2-0.028-1.796,0.012c-0.62,0.042-0.93-0.084-0.924-0.822
			C7.381,8.536,7.68,8.407,8.31,8.428c1.157,0.038,2.317,0.03,3.475,0.002c0.51-0.012,0.709,0.152,0.703,0.681
			c-0.022,1.877-0.015,3.754-0.003,5.632c0.002,0.352-0.079,0.598-0.415,0.77c-2.962,1.512-8.138,1.885-10.632-2.026
			C0.899,12.642,0.761,11.64,0.24,10.8C0.24,9.52,0.24,8.24,0.24,6.96z"/>
		<path fill-rule="evenodd" clip-rule="evenodd" fill="#FDFDFD" d="M305.281,97.681c-2.005,0.512-2.399,0.202-2.4-1.879
			c-0.001-0.995,0.068-1.995-0.02-2.982c-0.089-0.996,0.235-1.401,1.24-1.238c0.389,0.063,0.786,0.068,1.18,0.1
			C305.281,93.681,305.281,95.681,305.281,97.681z"/>
		<path fill-rule="evenodd" clip-rule="evenodd" fill="#E1DBCB" d="M43.92,0.24c-0.006,0.089-0.012,0.179-0.018,0.269
			c-1.168,0.337-1.382,1.175-1.318,2.273c0.063,1.1,0.112,2.217-0.069,3.312c-0.041,0.249-0.05,1.086-0.715,0.373
			c0.383-1.551,0.084-3.127,0.172-4.688C42.001,1.267,41.992,0.753,42,0.24C42.64,0.24,43.28,0.24,43.92,0.24z"/>
		<path fill-rule="evenodd" clip-rule="evenodd" fill="#E1DBCB" d="M29.082,0.537c-0.014-0.099-0.028-0.198-0.042-0.297
			c0.64,0,1.28,0,1.92,0c-0.014,0.099-0.027,0.198-0.042,0.297C30.306,0.916,29.694,0.916,29.082,0.537z"/>
		<path fill-rule="evenodd" clip-rule="evenodd" fill="#040707" d="M176.2,42.443c0-4.637,0.021-9.274-0.02-13.91
			c-0.007-0.829,0.204-1.094,1.055-1.073c2.995,0.075,6.004-0.092,8.984,0.135c5.069,0.386,7.902,3.175,8.36,7.886
			c0.459,4.733-2.255,8.733-6.837,10.115c-2.266,0.684-4.59,0.545-6.899,0.497c-0.919-0.019-1.121,0.244-1.105,1.128
			c0.057,3.117-0.004,6.235,0.041,9.353c0.011,0.755-0.214,0.924-0.939,0.926c-2.64,0.009-2.64,0.038-2.64-2.585
			C176.2,50.758,176.2,46.601,176.2,42.443z"/>
		<path fill-rule="evenodd" clip-rule="evenodd" fill="#040707" d="M288.362,52.698c0,0.473-0.002,0.705,0,0.938
			c0.02,2.645-0.052,2.806-2.544,3.635c-2.387,0.795-4.857,1.028-7.322,0.498c-3.909-0.841-6.097-3.465-6.913-7.246
			c-0.866-4.012-0.537-7.882,1.995-11.305c2.322-3.137,6.275-4.435,10.148-3.416c3.276,0.862,5.453,3.63,6.004,7.582
			c0.155,1.113,0.139,2.229,0.207,3.344c0.046,0.749-0.195,0.936-0.932,0.93c-4.355-0.035-8.713,0.027-13.068-0.047
			c-1.135-0.019-1.219,0.394-1.07,1.312c0.799,4.958,4.693,7.219,9.814,5.673C285.952,54.212,287.093,53.575,288.362,52.698z"/>
		<path fill-rule="evenodd" clip-rule="evenodd" fill="#040707" d="M115.917,46.894c-0.115-1.78,0.162-3.512,0.833-5.152
			c1.475-3.604,4.234-5.555,8.044-6.141c4.664-0.717,8.809,0.91,10.662,4.637c2.233,4.492,2.26,9.128-0.472,13.452
			c-2.394,3.788-7.307,5.229-12.136,3.872c-3.851-1.082-6.667-4.78-6.927-9.113C115.891,47.933,115.917,47.412,115.917,46.894z"/>
		<path fill-rule="evenodd" clip-rule="evenodd" fill="#040707" d="M197.56,41.156c0-0.704,0-1.135,0-1.567
			c0-2.349-0.001-2.353,2.282-3.126c1.825-0.618,3.681-0.995,5.629-0.954c3.973,0.083,6.701,2.376,6.867,6.332
			c0.209,4.985,0.084,9.984,0.1,14.978c0.001,0.266,0.068,0.628-0.335,0.641c-0.918,0.029-1.838,0.027-2.755,0.002
			c-0.407-0.011-0.342-0.366-0.344-0.634c-0.007-0.778-0.003-1.557-0.003-2.531c-0.633,0.729-1.07,1.341-1.614,1.838
			c-2.312,2.112-6.216,2.518-8.94,0.964c-2.037-1.161-2.923-2.99-2.938-5.263c-0.017-2.471,0.823-4.509,3.072-5.816
			c1.964-1.141,4.169-1.264,6.327-1.597c1.104-0.17,2.208-0.361,3.32-0.451c0.729-0.059,0.805-0.372,0.733-1.007
			c-0.428-3.771-2.616-5.181-6.653-4.24C200.614,39.118,199.113,39.916,197.56,41.156z"/>
		<path fill-rule="evenodd" clip-rule="evenodd" fill="#040707" d="M97.644,46.68c-0.054,4.585-1.521,8.504-6.003,10.395
			c-6.363,2.685-14.558-0.033-15.042-9.229c-0.2-3.808,0.523-7.396,3.641-9.938c3.539-2.886,7.639-3.141,11.736-1.529
			c3.897,1.533,5.291,4.942,5.662,8.865C97.683,45.718,97.644,46.201,97.644,46.68z"/>
		<path fill-rule="evenodd" clip-rule="evenodd" fill="#040707" d="M253.161,39.207c1.989-2.746,4.577-3.864,7.835-3.695
			c3.478,0.181,5.956,2.765,6.364,6.743c0.246,2.394,0.09,4.794,0.116,7.191c0.025,2.359-0.018,4.72,0.02,7.078
			c0.011,0.698-0.132,0.972-0.912,0.979c-2.583,0.021-2.583,0.057-2.583-2.506c0-3.279-0.005-6.559,0.004-9.838
			c0.002-0.803-0.063-1.594-0.213-2.383c-0.358-1.868-1.134-3.471-3.089-4.051c-2.165-0.643-4.117-0.126-5.698,1.524
			c-1.149,1.2-1.77,2.673-1.792,4.327c-0.053,3.918-0.075,7.838-0.025,11.756c0.013,0.982-0.294,1.189-1.207,1.17
			c-2.34-0.05-2.341-0.008-2.341-2.289c0-6.039,0.021-12.078-0.022-18.117c-0.006-0.895,0.206-1.141,1.112-1.121
			c2.416,0.056,2.417,0.009,2.432,2.417C253.163,38.664,253.161,38.935,253.161,39.207z"/>
		<path fill-rule="evenodd" clip-rule="evenodd" fill="#040707" d="M150.96,28.769c-0.414-0.15-0.705-0.281-1.009-0.364
			c-2.66-0.722-4.652,0.705-4.777,3.453c-0.053,1.157,0.013,2.319-0.024,3.478c-0.017,0.526,0.151,0.691,0.675,0.675
			c1.199-0.034,2.399,0.008,3.598-0.02c0.497-0.011,0.676,0.12,0.714,0.658c0.164,2.354,0.186,2.352-2.159,2.352
			c-2.818,0-2.818,0-2.818,2.848c0,4.838-0.024,9.677,0.022,14.516c0.008,0.891-0.203,1.156-1.115,1.141
			c-2.467-0.043-2.468,0.002-2.468-2.502c0-4.958-0.03-9.917,0.026-14.875c0.011-0.977-0.296-1.272-1.19-1.129
			c-0.117,0.019-0.239,0.002-0.359,0.002c-2.127,0-2.098,0-2.094-2.15c0.001-0.664,0.159-0.971,0.85-0.852
			c0.039,0.007,0.08,0.003,0.12,0c0.861-0.075,2.041,0.391,2.501-0.202c0.43-0.554,0.148-1.679,0.142-2.553
			c-0.018-2.351,0.4-4.544,2.229-6.223c1.904-1.747,4.166-2.027,6.601-1.556c0.449,0.086,0.552,0.357,0.54,0.772
			C150.944,27.036,150.96,27.835,150.96,28.769z"/>
		<path fill-rule="evenodd" clip-rule="evenodd" fill="#040707" d="M100.36,52.925c2.063,1.555,4.125,2.259,6.469,2.046
			c1.738-0.158,2.814-0.886,3.095-2.15c0.342-1.538-0.156-2.575-1.821-3.491c-1.394-0.767-2.848-1.423-4.265-2.147
			c-2.367-1.21-3.575-3.119-3.391-5.811c0.186-2.72,1.818-4.39,4.208-5.3c2.396-0.913,4.851-0.755,7.262,0.125
			c0.471,0.172,0.723,0.388,0.695,0.938c-0.044,0.875-0.012,1.754-0.012,2.798c-1.384-0.74-2.705-1.323-4.191-1.434
			c-0.817-0.062-1.597,0.016-2.355,0.273c-1.153,0.392-1.896,1.181-2.025,2.421c-0.121,1.154,0.271,2.119,1.259,2.787
			c0.862,0.582,1.812,0.996,2.762,1.407c1.061,0.46,2.103,0.96,3.052,1.628c3.349,2.362,3.381,7.049,0.069,9.467
			c-2.534,1.85-7.61,2.066-10.303,0.471c-0.359-0.212-0.521-0.426-0.514-0.836C100.373,55.131,100.36,54.146,100.36,52.925z"/>
		<path fill-rule="evenodd" clip-rule="evenodd" fill="#040707" d="M163.44,54.397c0,0.545,0,0.983,0,1.421
			c0,1.666-0.1,1.782-1.729,2.018c-0.079,0.012-0.158,0.021-0.237,0.029c-4.566,0.544-6.906-1.52-6.913-6.11
			c-0.006-3.878-0.04-7.756,0.026-11.632c0.017-0.987-0.312-1.262-1.196-1.124c-0.078,0.012-0.159,0.001-0.239,0.001
			c-2.408-0.001-2.383,0-2.25-2.367c0.031-0.56,0.228-0.647,0.711-0.644c0.948,0.005,2.243,0.314,2.757-0.174
			c0.611-0.581,0.169-1.881,0.182-2.868c0.028-2.174,0.022-2.136,2.329-2.945c0.937-0.328,1.243-0.209,1.182,0.846
			c-0.084,1.434,0.019,2.878-0.038,4.315c-0.027,0.701,0.206,0.878,0.872,0.852c1.237-0.05,2.479,0.028,3.716-0.031
			c0.704-0.033,0.844,0.216,0.845,0.872c0.005,2.145,0.033,2.145-2.097,2.145c-0.839,0-1.681,0.035-2.518-0.01
			c-0.64-0.035-0.815,0.211-0.813,0.828c0.022,3.877-0.049,7.756,0.03,11.632C158.128,54.721,159.922,55.692,163.44,54.397z"/>
		<path fill-rule="evenodd" clip-rule="evenodd" fill="#040707" d="M239.561,29.781c0,1.729,0.064,3.442-0.025,5.148
			c-0.049,0.949,0.278,1.145,1.142,1.09c1.195-0.075,2.4,0.008,3.599-0.03c0.582-0.019,0.722,0.184,0.742,0.75
			c0.079,2.263,0.103,2.262-2.124,2.262c-0.88,0-1.761,0.018-2.64-0.005c-0.506-0.014-0.704,0.162-0.701,0.69
			c0.018,4-0.076,8.002,0.043,11.999c0.09,3.059,1.976,3.979,5.405,2.701c0,0.778-0.039,1.513,0.013,2.241
			c0.041,0.556-0.24,0.767-0.688,0.945c-4.376,1.751-8.169-0.742-8.199-5.426c-0.025-3.959-0.054-7.92,0.026-11.878
			c0.022-1.114-0.332-1.427-1.344-1.273c-0.273,0.042-0.559,0.006-0.839,0.006c-1.609,0-1.609,0-1.609-1.56
			c0-1.441,0-1.441,1.703-1.441c2.058,0,2.058,0,2.058-2.048c0-0.08,0-0.16,0-0.24C236.121,30.424,236.121,30.424,239.561,29.781z"
			/>
		<path fill-rule="evenodd" clip-rule="evenodd" fill="#040707" d="M60.921,53.191c0,0.539,0,0.889,0,1.238
			c0.003,2.352,0.004,2.352-2.215,3.051c-7.412,2.336-13.846-2.393-13.876-10.163c-0.008-2.153,0.299-4.221,1.279-6.146
			c3.146-6.184,10.128-6.468,14.247-4.87c0.401,0.156,0.643,0.367,0.618,0.869c-0.045,0.941-0.013,1.886-0.013,2.976
			c-1.188-0.684-2.266-1.269-3.485-1.497c-4.277-0.799-7.765,1.46-8.803,5.721c-0.462,1.898-0.439,3.809,0.124,5.677
			c1.352,4.495,6.323,6.327,10.708,3.972C59.919,53.797,60.32,53.544,60.921,53.191z"/>
		<path fill-rule="evenodd" clip-rule="evenodd" fill="#EE5226" d="M200.831,80.881c1.597,0,3.194,0.023,4.79-0.012
			c0.606-0.014,0.837,0.141,0.831,0.793c-0.031,3.232-0.023,6.467-0.006,9.7c0.003,0.558-0.163,0.773-0.748,0.77
			c-3.233-0.021-6.467-0.021-9.7,0c-0.568,0.003-0.781-0.188-0.779-0.756c0.014-3.272,0.019-6.547-0.004-9.819
			c-0.004-0.646,0.33-0.688,0.826-0.683C197.638,80.891,199.234,80.881,200.831,80.881z"/>
		<path fill-rule="evenodd" clip-rule="evenodd" fill="#FBB514" d="M213.131,104.437c-1.558,0-3.116-0.025-4.673,0.012
			c-0.648,0.016-0.915-0.147-0.907-0.857c0.033-3.154,0.027-6.311,0.003-9.465c-0.005-0.64,0.138-0.931,0.854-0.924
			c3.154,0.031,6.31,0.034,9.465-0.001c0.775-0.01,0.93,0.313,0.924,0.999c-0.025,3.075-0.03,6.15,0.003,9.226
			c0.008,0.753-0.17,1.065-0.998,1.03C216.247,104.389,214.688,104.437,213.131,104.437z"/>
		<path fill-rule="evenodd" clip-rule="evenodd" fill="#737474" d="M238.339,89.31c-1.299,3.26-2.607,6.516-3.888,9.782
			c-0.217,0.554-0.582,0.648-1.109,0.67c-0.626,0.027-0.913-0.229-1.141-0.795c-1.191-2.96-2.425-5.903-3.646-8.852
			c-0.089-0.217-0.193-0.428-0.316-0.696c-0.325,0.291-0.194,0.618-0.195,0.893c-0.012,2.837-0.044,5.676,0.014,8.512
			c0.019,0.905-0.416,0.974-1.093,0.928c-0.604-0.042-1.296,0.205-1.286-0.874c0.039-4.155,0.027-8.313,0.004-12.468
			c-0.003-0.693,0.262-0.869,0.917-0.89c2.584-0.084,2.583-0.105,3.555,2.333c1.073,2.694,2.146,5.388,3.254,8.167
			c1.28-3.15,2.516-6.218,3.783-9.271c0.185-0.443,0.178-1.14,0.848-1.176c0.911-0.049,1.833-0.025,2.74,0.063
			c0.317,0.031,0.213,0.47,0.213,0.733c0.006,4.156-0.027,8.313,0.026,12.469c0.014,1.054-0.591,0.925-1.229,0.907
			c-0.6-0.017-1.276,0.228-1.251-0.872c0.072-3.116,0.039-6.233,0.048-9.351c0.063-0.096,0.077-0.205-0.004-0.282
			C238.483,89.144,238.405,89.23,238.339,89.31z"/>
		<path fill-rule="evenodd" clip-rule="evenodd" fill="#7FBB41" d="M218.733,86.586c0,1.517-0.023,3.034,0.011,4.55
			c0.015,0.675-0.118,1.015-0.91,1.005c-3.152-0.04-6.306-0.03-9.458-0.006c-0.631,0.006-0.825-0.214-0.82-0.829
			c0.021-3.232,0.021-6.466,0-9.698c-0.004-0.589,0.224-0.738,0.773-0.735c3.192,0.019,6.385,0.029,9.577-0.006
			c0.739-0.009,0.848,0.313,0.836,0.931C218.714,83.394,218.733,84.99,218.733,86.586z"/>
		<path fill-rule="evenodd" clip-rule="evenodd" fill="#2D9ED8" d="M200.759,104.435c-1.558,0-3.116-0.021-4.673,0.011
			c-0.627,0.013-0.829-0.216-0.825-0.833c0.021-3.155,0.024-6.311-0.001-9.466c-0.006-0.688,0.251-0.892,0.91-0.887
			c3.155,0.023,6.312,0.024,9.467,0c0.646-0.005,0.813,0.248,0.809,0.85c-0.021,3.155-0.027,6.311,0.004,9.466
			c0.007,0.694-0.233,0.889-0.897,0.873C203.955,104.409,202.356,104.436,200.759,104.435z"/>
		<path fill-rule="evenodd" clip-rule="evenodd" fill="#050808" d="M76.12,39.386c-4.071-1.274-6.753,0.464-7.479,4.687
			c-0.315,1.829-0.177,3.668-0.195,5.503c-0.023,2.359-0.022,4.718,0.005,7.077c0.007,0.594-0.111,0.826-0.782,0.85
			c-2.751,0.094-2.75,0.122-2.75-2.604c0-5.957,0.018-11.915-0.02-17.871c-0.005-0.847,0.229-1.061,1.061-1.048
			c2.48,0.037,2.481-0.001,2.481,2.466c0,0.439,0,0.879,0,1.366c0.513-0.181,0.503-0.692,0.7-1.032
			c1.389-2.397,3.434-3.417,6.099-3.065c0.627,0.083,0.935,0.248,0.893,0.941C76.08,37.528,76.12,38.408,76.12,39.386z"/>
		<path fill-rule="evenodd" clip-rule="evenodd" fill="#050808" d="M221.28,39.835c1.153-2.146,2.524-3.858,5.09-4.159
			c2.384-0.279,2.631-0.058,2.631,2.34c0,0.436,0,0.871,0,1.389c-0.628-0.182-1.171-0.412-1.734-0.491
			c-1.97-0.273-3.52,0.435-4.596,2.12c-0.997,1.561-1.38,3.297-1.387,5.123c-0.013,3.435-0.034,6.871,0.019,10.306
			c0.013,0.864-0.254,1.05-1.069,1.039c-2.434-0.033-2.434,0.003-2.434-2.435c0-5.992,0.021-11.985-0.022-17.976
			c-0.007-0.898,0.213-1.138,1.117-1.116c2.385,0.059,2.386,0.011,2.386,2.435C221.28,38.886,221.28,39.36,221.28,39.835z"/>
		<path fill-rule="evenodd" clip-rule="evenodd" fill="#040707" d="M305.002,39.431c-4.313-1.478-7.285,0.728-7.64,5.55
			c-0.275,3.752-0.103,7.513-0.095,11.27c0.003,0.988-0.249,1.286-1.25,1.255c-2.255-0.07-2.257-0.017-2.257-2.234
			c0-6.079,0.018-12.158-0.02-18.237c-0.005-0.82,0.165-1.075,1.029-1.059c2.47,0.049,2.464,0.005,2.478,2.499
			c0.003,0.421-0.11,0.861,0.146,1.364c0.363-0.618,0.656-1.204,1.028-1.734c1.437-2.044,3.417-2.758,5.856-2.365
			c0.544,0.088,0.75,0.311,0.731,0.859C304.979,37.516,305.002,38.435,305.002,39.431z"/>
		<path fill-rule="evenodd" clip-rule="evenodd" fill="#040707" d="M37.16,46.677c0-3.238,0.027-6.476-0.019-9.713
			c-0.011-0.785,0.202-0.992,0.984-0.984c2.475,0.024,2.475-0.011,2.475,2.47c0,5.996-0.017,11.992,0.019,17.987
			c0.005,0.824-0.188,1.078-1.043,1.064c-2.414-0.038-2.415,0.005-2.415-2.432C37.16,52.272,37.16,49.475,37.16,46.677z"/>
		<path fill-rule="evenodd" clip-rule="evenodd" fill="#856B29" d="M41.8,6.467c0.582,0.287,0.377-0.217,0.38-0.414
			c0.018-1.303,0.009-2.606,0.009-3.91c0-1.705,0-1.705,1.713-1.634c0.006,4.798,0.032,9.596-0.013,14.394
			c-0.004,0.463,0.589,1.324-0.616,1.44c-1.081,0.105-1.287-0.418-1.113-1.551c-0.844,0.753-1.48,1.369-2.38,1.615
			c-2.332,0.637-4.553-0.387-5.332-2.645c-0.702-2.035-0.674-4.103,0.35-6.044C36.21,5.039,39.5,4.475,41.8,6.467z"/>
		<path fill-rule="evenodd" clip-rule="evenodd" fill="#737474" d="M273.36,94.532c0.006,3.355-2.059,5.472-5.32,5.454
			c-3.121-0.017-5.12-2.057-5.134-5.239c-0.013-3.296,2.086-5.417,5.375-5.431C271.45,89.303,273.355,91.26,273.36,94.532z"/>
		<path fill-rule="evenodd" clip-rule="evenodd" fill="#737474" d="M282.205,94.69c0.022-3.361,2.06-5.396,5.378-5.374
			c3.168,0.021,5.022,1.971,5.014,5.272c-0.01,3.353-2.083,5.438-5.367,5.397C284.1,99.947,282.184,97.929,282.205,94.69z"/>
		<path fill-rule="evenodd" clip-rule="evenodd" fill="#856B29" d="M25.959,10.865c-0.001,2.639-1.185,4.609-3.223,5.367
			c-2.167,0.806-4.615,0.27-6.052-1.325c-1.615-1.792-1.757-5.349-0.3-7.508c1.277-1.892,4.179-2.671,6.561-1.762
			C24.892,6.381,25.959,8.233,25.959,10.865z"/>
		<path fill-rule="evenodd" clip-rule="evenodd" fill="#737474" d="M277.187,100.015c-0.456-0.063-0.893-0.108-1.324-0.182
			c-1.394-0.238-1.796-0.903-1.447-2.261c0.151-0.587,0.435-0.299,0.693-0.162c0.682,0.36,1.4,0.609,2.173,0.584
			c0.543-0.018,1.196,0.029,1.383-0.679c0.189-0.718-0.263-1.111-0.85-1.389c-0.577-0.272-1.153-0.545-1.732-0.813
			c-1.147-0.533-1.658-1.485-1.64-2.695c0.019-1.227,0.665-2.111,1.768-2.64c1.253-0.601,2.556-0.564,3.861-0.211
			c0.539,0.146,0.937,1.699,0.582,2.163c-0.228,0.298-0.426,0.028-0.618-0.043c-0.638-0.237-1.281-0.481-1.972-0.39
			c-0.478,0.063-0.969,0.211-1.097,0.778c-0.138,0.609,0.193,0.993,0.704,1.24c0.43,0.209,0.879,0.379,1.314,0.577
			c1.65,0.75,2.4,1.815,2.245,3.177c-0.176,1.531-1.27,2.523-3.111,2.818C277.805,99.939,277.488,99.975,277.187,100.015z"/>
		<path fill-rule="evenodd" clip-rule="evenodd" fill="#737474" d="M255.141,92.069c-0.604-0.232-1.107-0.505-1.644-0.614
			c-1.414-0.288-2.647,0.27-3.279,1.401c-0.688,1.232-0.53,3.21,0.334,4.177c0.8,0.895,2.201,1.102,3.549,0.648
			c0.337-0.113,0.867-0.95,1.091-0.15c0.189,0.673,0.479,1.66-0.699,2.099c-2.054,0.764-4.606,0.288-5.979-1.217
			c-1.438-1.575-1.692-4.271-0.604-6.4c0.957-1.876,3.176-2.964,5.449-2.673C255.288,89.588,255.481,89.877,255.141,92.069z"/>
		<path fill-rule="evenodd" clip-rule="evenodd" fill="#747575" d="M262.808,91.811c-2.442-0.391-3.377,0.403-3.398,2.826
			c-0.013,1.359-0.08,2.724,0.021,4.075c0.089,1.19-0.641,1-1.362,1.051c-0.841,0.059-1.221-0.14-1.197-1.102
			c0.064-2.597,0.005-5.195,0.038-7.793c0.006-0.503-0.36-1.357,0.686-1.296c0.775,0.045,1.962-0.556,1.882,1.238
			c0.867-1.078,1.86-1.815,2.989-1.272C263.345,89.96,262.681,91.023,262.808,91.811z"/>
		<path fill-rule="evenodd" clip-rule="evenodd" fill="#876D2D" d="M29.082,0.537c0.612,0,1.224,0,1.836,0
			c0.002,4.914-0.005,9.829,0.017,14.743c0.003,0.693-0.054,1.077-0.935,1.077c-0.882,0-0.938-0.385-0.935-1.077
			C29.087,10.366,29.08,5.452,29.082,0.537z"/>
		<path fill-rule="evenodd" clip-rule="evenodd" fill="#757676" d="M243.211,94.651c0-1.398,0.042-2.799-0.013-4.195
			c-0.049-1.28,0.866-0.816,1.486-0.901c0.719-0.098,1.079,0.091,1.063,0.948c-0.053,2.756-0.067,5.515,0.004,8.271
			c0.028,1.111-0.624,0.956-1.302,0.984c-0.75,0.032-1.322,0.013-1.259-1.032C243.272,97.372,243.211,96.01,243.211,94.651z"/>
		<path fill-rule="evenodd" clip-rule="evenodd" fill="#050808" d="M38.924,26.16c1.313,0,2.311,0.958,2.315,2.219
			c0.004,1.207-1.072,2.282-2.301,2.3c-1.275,0.019-2.256-0.967-2.258-2.269C36.678,27.08,37.596,26.159,38.924,26.16z"/>
		<path fill-rule="evenodd" clip-rule="evenodd" fill="#757676" d="M244.541,88.099c-0.896-0.078-1.452-0.451-1.457-1.404
			c-0.006-0.958,0.577-1.398,1.419-1.403c0.854-0.005,1.464,0.493,1.458,1.397C245.957,87.576,245.395,88.031,244.541,88.099z"/>
		<path fill-rule="evenodd" clip-rule="evenodd" fill="#BFC0C0" d="M27.159,33.137c0.082-0.279,0.164-0.558,0.246-0.836
			c0.17,0.392,0.218,0.761,0.004,1.117C27.325,33.324,27.242,33.23,27.159,33.137z"/>
		<path fill-rule="evenodd" clip-rule="evenodd" fill="#989898" d="M238.339,89.31c-0.013-0.248,0.082-0.632,0.276-0.543
			c0.348,0.16,0.193,0.504-0.028,0.756C238.504,89.451,238.421,89.381,238.339,89.31z"/>
		<path fill-rule="evenodd" clip-rule="evenodd" fill="#FEFEFE" d="M179.761,36.75c0-1.757-0.004-3.515,0.003-5.272
			c0.002-0.367-0.158-0.828,0.528-0.803c1.873,0.068,3.761-0.154,5.617,0.186c3.383,0.621,4.917,2.423,4.931,5.697
			c0.014,3.298-1.729,5.477-4.899,6.122c-1.858,0.378-3.74,0.188-5.613,0.25c-0.652,0.021-0.566-0.391-0.566-0.786
			C179.761,40.345,179.761,38.547,179.761,36.75z"/>
		<path fill-rule="evenodd" clip-rule="evenodd" fill="#FEFEFE" d="M280.603,44.679c-1.675,0-3.35,0-5.024,0
			c-0.396,0-0.733,0.101-0.626-0.6c0.574-3.751,3.903-6.202,7.482-5.435c2.257,0.483,4.294,3.473,3.899,5.651
			c-0.097,0.53-0.433,0.375-0.707,0.377C283.953,44.686,282.277,44.679,280.603,44.679z"/>
		<path fill-rule="evenodd" clip-rule="evenodd" fill="#FEFEFE" d="M119.389,46.25c0.118-0.766,0.188-1.648,0.395-2.497
			c0.818-3.346,3.57-5.439,6.906-5.305c3.496,0.141,5.788,2.108,6.455,5.613c0.385,2.022,0.369,4.05-0.167,6.056
			c-0.77,2.884-2.753,4.623-5.54,4.844c-3.466,0.275-5.996-1.105-7.246-3.918C119.525,49.543,119.436,47.959,119.389,46.25z"/>
		<path fill-rule="evenodd" clip-rule="evenodd" fill="#FEFEFE" d="M209.001,48.164c-0.004,3.538-1.625,5.972-4.416,6.673
			c-1.104,0.278-2.218,0.263-3.292-0.158c-1.41-0.552-2.206-1.739-2.211-3.237c-0.005-1.795,0.642-2.865,2.228-3.431
			c2.311-0.824,4.758-0.982,7.168-1.209C209.55,46.701,208.704,47.798,209.001,48.164z"/>
		<path fill-rule="evenodd" clip-rule="evenodd" fill="#FEFEFE" d="M94.126,46.771c-0.038,0.638-0.024,1.284-0.121,1.913
			c-0.653,4.261-2.961,6.366-6.889,6.315c-3.823-0.049-6.406-2.472-6.889-6.581c-0.225-1.915-0.124-3.832,0.61-5.663
			c1.155-2.879,3.791-4.541,6.784-4.274c3.5,0.311,5.536,2.094,6.214,5.432C94.028,44.857,94.131,45.807,94.126,46.771z"/>
		<path fill-rule="evenodd" clip-rule="evenodd" fill="#FEFEFE" d="M42.106,10.756c0,2.35-0.655,3.611-2.139,4.121
			c-1.68,0.577-3.323-0.254-3.885-2.006c-0.401-1.251-0.384-2.52,0.04-3.767c0.568-1.671,1.933-2.49,3.626-2.199
			c1.454,0.25,2.332,1.416,2.357,3.132C42.109,10.277,42.106,10.517,42.106,10.756z"/>
		<path fill-rule="evenodd" clip-rule="evenodd" fill="#FEFEFE" d="M270.813,94.7c-0.015,2.177-0.883,3.234-2.646,3.22
			c-1.693-0.014-2.723-1.233-2.726-3.232c-0.004-2.07,1.046-3.305,2.791-3.282C269.951,91.428,270.828,92.549,270.813,94.7z"/>
		<path fill-rule="evenodd" clip-rule="evenodd" fill="#FEFEFE" d="M287.498,91.405c1.67,0.024,2.66,1.273,2.624,3.312
			c-0.036,2.113-0.982,3.229-2.716,3.203c-1.687-0.025-2.734-1.273-2.728-3.251C284.685,92.607,285.745,91.38,287.498,91.405z"/>
		<path fill-rule="evenodd" clip-rule="evenodd" fill="#FEFEFE" d="M17.242,10.939c0.009-2.653,1.309-4.127,3.6-4.084
			c2.061,0.039,3.187,1.334,3.351,3.853c0.202,3.107-1.96,5.039-4.651,4.155C18.04,14.37,17.235,12.997,17.242,10.939z"/>
	</g>
</g>
</svg>
