<?xml version="1.0" encoding="UTF-8"?>
<svg width="24px" height="16px" viewBox="0 0 24 16" version="1.1" xmlns="http://www.w3.org/2000/svg" xmlns:xlink="http://www.w3.org/1999/xlink">
    <!-- Generator: Sketch 53.2 (72643) - https://sketchapp.com -->
    <title>OneDrive</title>
    <desc>Created with Sketch.</desc>
    <g id="Page-1" stroke="none" stroke-width="1" fill="none" fill-rule="evenodd">
        <g id="Office-365" transform="translate(-354.000000, -1273.000000)">
            <g id="OneDrive" transform="translate(354.000000, 1269.000000)">
                <rect id="Rectangle" x="-0.00029" y="-3e-05" width="24" height="24"></rect>
                <path d="M14.5,15 L19.45409,10.26229 C18.7166292,7.38670864 16.3525719,5.21665053 13.4245084,4.72750781 C10.4964449,4.23836509 7.55540509,5.52218913 5.92332,8.00193 C6,8 14.5,15 14.5,15 Z" id="Path" fill="#0364B8" fill-rule="nonzero"></path>
                <path d="M9.15207,8.89386 L9.15184,8.89468 C8.20520835,8.30838471 7.11348613,7.99848889 6,8 C5.97427,8 5.949,8.00162 5.92332,8.00194 C3.70242187,8.02943778 1.67855982,9.28204964 0.663284856,11.2574892 C-0.351990109,13.2329287 -0.192423449,15.6077114 1.078,17.42957 L8.5,16.5 L14.19031,11.9117 L9.15207,8.89386 Z" id="Path" fill="#0078D4" fill-rule="nonzero"></path>
                <path d="M19.45409,10.26229 C19.34518,10.25502 19.23573,10.24999 19.125,10.24999 C18.4603777,10.2493431 17.8026926,10.3850896 17.19264,10.64883 L17.1925,10.64832 L14.19031,11.9117 L17.5,16 L23.4169,17.43833 C24.2029162,15.9791231 24.1937192,14.2205259 23.3924838,12.76962 C22.5912485,11.3187141 21.1077449,10.3742748 19.45409,10.26233 L19.45409,10.26229 Z" id="Path" fill="#1490DF" fill-rule="nonzero"></path>
                <path d="M1.078,17.42957 C2.19866354,19.0407909 4.03736951,20.0010235 6,20 L19.125,20 C20.9179069,20.0005167 22.5663408,19.0166445 23.41693,17.43835 L14.19031,11.91168 L1.078,17.42957 Z" id="Path" fill="#28A8EA" fill-rule="nonzero"></path>
            </g>
        </g>
    </g>
</svg>