<?xml version="1.0" encoding="UTF-8"?>
<svg width="123px" height="123px" viewBox="0 0 123 123" version="1.1" xmlns="http://www.w3.org/2000/svg" xmlns:xlink="http://www.w3.org/1999/xlink">
    <!-- Generator: Sketch 53.2 (72643) - https://sketchapp.com -->
    <title>Group 17</title>
    <desc>Created with Sketch.</desc>
    <defs>
        <polygon id="path-1" points="0.088806 4.92e-05 19.829814 4.92e-05 19.829814 19.68 0.088806 19.68"></polygon>
        <polygon id="path-3" points="0 0 123 0 123 121.349734 0 121.349734"></polygon>
    </defs>
    <g id="Page-1" stroke="none" stroke-width="1" fill="none" fill-rule="evenodd">
        <g id="Office-365" transform="translate(-74.000000, -3815.000000)">
            <g id="Group-17" transform="translate(74.000000, 3815.000000)">
                <path d="M61.4999016,4.9200492 C30.3016896,4.9200492 4.9199016,30.3018372 4.9199016,61.5000492 C4.9199016,86.6259972 21.3851736,107.975845 44.0909736,115.336165 L61.1107296,81.3714372 L78.2652936,115.544281 C101.303686,108.382237 118.079902,86.8636332 118.079902,61.5000492 C118.079902,30.3018372 92.6981136,4.9200492 61.4999016,4.9200492" id="Fill-1" fill="#8CD6F1"></path>
                <path d="M82.0356372,45.952554 C82.4474412,45.486138 82.8528492,45.026118 83.2474332,44.589222 C85.3738572,42.236478 97.8106332,28.549038 102.886105,22.96287 C92.5496772,11.870238 77.8226412,4.920246 61.5000492,4.920246 C46.1599812,4.920246 32.2290012,11.059422 22.0268892,21.006678 L22.0268892,35.353398 L22.0313172,35.628426 L21.9919572,35.937894 C21.8940492,36.823002 22.0229532,38.10909 22.2428772,38.476614 C23.0640252,39.72531 28.5281772,45.766578 33.1195212,50.648202 L37.3738452,55.374354 C37.1672052,53.662686 36.7652412,49.859526 40.1113332,48.106038 C40.8719652,47.707518 41.7324732,47.496942 42.6008532,47.496942 C45.4869252,47.496942 47.6369652,49.714386 49.3594572,51.883614 C49.6571172,52.258026 49.9542852,52.62063 50.2396452,52.969458 C51.9995292,55.11999 53.6619972,57.151458 53.7284172,59.78415 C53.7461292,60.501486 53.7613812,79.607322 53.7717132,96.01749 L61.1108772,81.371142 L70.9307052,100.933554 L82.5040212,88.660122 C82.7677332,88.265538 83.6174172,86.846118 84.9787812,83.157102 C87.2842932,76.912638 92.1841212,63.302934 92.5757532,62.215614 C92.5816572,62.19741 92.5870692,62.176254 92.5939572,62.152638 C89.1396252,62.10639 78.5434212,62.08179 71.5599732,62.076378 C71.2859292,62.107374 70.9498932,62.132466 70.5769572,62.132466 C67.5851052,62.132466 65.2033332,60.516738 64.3610292,57.915042 C63.3425892,54.770178 63.1231572,47.512194 69.5742612,42.560706 C71.2869132,41.24067 72.6399132,40.19763 74.6585892,40.19763 C76.2157692,40.19763 77.2775052,40.87659 77.6322372,41.103402 C80.4169572,42.880506 80.4666492,45.728202 80.3082252,47.873322 C80.9448732,47.18895 81.5736492,46.476534 82.0356372,45.952554" id="Fill-3" fill="#91CB83"></path>
                <g id="Group-7" transform="translate(51.168000, 103.320000)">
                    <mask id="mask-2" fill="white">
                        <use xlink:href="#path-1"></use>
                    </mask>
                    <g id="Clip-6"></g>
                    <polygon id="Fill-5" fill="#EA2127" mask="url(#mask-2)" points="0.088806 19.6800492 9.950454 4.92e-05 19.829814 19.6800492"></polygon>
                </g>
                <path d="M7.1516628,73.5449472 C7.1516628,36.7325232 36.9939228,6.8902632 73.8068388,6.8902632 C74.7190068,6.8902632 75.6257628,6.9138792 76.5290748,6.9502872 C71.7409308,5.6292672 66.7018668,4.9202952 61.4999508,4.9202952 C30.3017388,4.9202952 4.9199508,30.3015912 4.9199508,61.5002952 C4.9199508,67.1209032 5.7494628,72.5506152 7.2835188,77.6797152 C7.1998788,76.3119552 7.1516628,74.9338632 7.1516628,73.5449472" id="Fill-8" fill="#F2F8F9"></path>
                <path d="M73.806642,6.890214 C74.71881,6.890214 75.625566,6.91383 76.528878,6.950238 C71.741226,5.629218 66.702654,4.920246 61.499754,4.920246 C46.160178,4.920246 32.228706,11.059422 22.027086,21.006678 L22.027086,31.57533 C34.247874,16.516686 52.901562,6.890214 73.806642,6.890214" id="Fill-10" fill="#F2F8F9"></path>
                <g id="Group-14">
                    <mask id="mask-4" fill="white">
                        <use xlink:href="#path-3"></use>
                    </mask>
                    <g id="Clip-13"></g>
                    <path d="M78.265392,115.544134 L73.279956,105.613114 L85.901724,92.2277616 C85.901724,92.2277616 87.1701,91.4292456 89.594184,84.8610456 C92.019252,78.2923536 97.229532,63.8132856 97.229532,63.8132856 C97.229532,63.8132856 98.243052,60.7997856 97.229532,59.2224336 C96.21552,57.6450816 95.156244,57.3597216 93.948384,57.2657496 C92.741016,57.1707936 71.22192,57.1560336 71.22192,57.1560336 C71.22192,57.1560336 69.404472,57.5196216 69.041868,56.3993376 C68.679264,55.2790536 67.866972,50.0732016 72.577872,46.4574936 C74.539968,44.9450856 74.603436,45.0065856 74.985228,45.2501256 C75.366528,45.4936656 75.557916,45.7711536 75.348324,48.1475136 C75.139224,50.5238736 76.638348,54.4761096 78.813972,54.7171896 C80.989596,54.9587616 84.200388,50.8731936 86.897532,47.8887216 C88.977216,45.5876376 100.802436,32.5722696 106.106196,26.7351816 C113.604768,36.3341016 118.08,48.4033536 118.08,61.4999016 C118.08,86.8634856 101.303784,108.38209 78.265392,115.544134 L78.265392,115.544134 Z M61.110828,81.3712896 L53.771664,96.0176376 C53.761332,79.6089456 53.74608,60.5016336 53.728368,59.7842976 C53.661948,57.1511136 51.99948,55.1201376 50.239596,52.9691136 C49.954236,52.6202856 49.65756,52.2581736 49.359408,51.8832696 C47.636916,49.7140416 45.486876,47.4965976 42.600804,47.4965976 C41.732424,47.4965976 40.871916,47.7076656 40.111284,48.1061856 C36.765192,49.8596736 37.167156,53.6628336 37.373796,55.3745016 L33.119472,50.6483496 C28.528128,45.7667256 23.063976,39.7249656 22.242828,38.4762696 C22.023396,38.1087456 21.894,36.8231496 21.991908,35.9375496 L22.031268,35.6280816 L22.026348,35.3343576 L22.026348,21.0068256 L22.026348,20.9876376 C32.228952,11.0595696 46.159932,4.9199016 61.5,4.9199016 C77.822592,4.9199016 92.547168,11.8728456 102.883104,22.9659696 C97.806648,28.5531216 85.373808,42.2371176 83.247384,44.5893696 C82.8528,45.0262656 82.447392,45.4857936 82.035588,45.9527016 C81.5736,46.4766816 80.944824,47.1886056 80.308176,47.8734696 C80.4666,45.7283496 80.416908,42.8806536 77.632188,41.1030576 C77.277456,40.8762456 76.21572,40.1972856 74.65854,40.1972856 C72.639864,40.1972856 71.286864,41.2408176 69.574212,42.5608536 C63.123108,47.5123416 63.34254,54.7703256 64.36098,57.9151896 C65.203284,60.5163936 67.585056,62.1321216 70.576908,62.1321216 C70.949844,62.1321216 71.28588,62.1075216 71.559924,62.0765256 C78.543372,62.0819376 89.140068,62.1065376 92.593908,62.1522936 C92.58702,62.1759096 92.581608,62.1970656 92.575704,62.2152696 C92.184072,63.3025896 87.284244,76.9122936 84.979224,83.1572496 C83.617368,86.8462656 82.767684,88.2656856 82.503972,88.6597776 L70.930656,100.933702 L61.110828,81.3712896 Z M44.091072,115.336018 C21.385272,107.975698 4.92,86.6263416 4.92,61.4999016 C4.92,48.2788776 9.479364,36.1033536 17.10684,26.4606456 L17.10684,35.3535456 C17.10684,35.3535456 16.660104,38.8624896 18.093792,41.1202776 C19.52748,43.3790496 29.536236,54.0190416 29.536236,54.0190416 L35.643432,60.8071656 C35.643432,60.8071656 37.540092,63.1549896 40.209192,61.8236376 C42.878292,60.4913016 42.388752,55.9604736 42.308556,55.2077136 C42.227868,54.4559376 41.942508,52.7014656 42.395148,52.4638296 C42.847296,52.2271776 43.851468,52.8584136 45.507048,54.9430176 C47.162628,57.0276216 48.780324,58.7407656 48.809844,59.9077896 C48.830016,60.7156536 48.847728,88.6774896 48.857076,105.825166 L44.091072,115.336018 Z M61.5,-9.84e-05 C27.53478,-9.84e-05 0,27.5341896 0,61.4999016 C0,88.5963096 17.524056,111.598786 41.856408,119.795014 C43.429332,120.324898 45.031284,120.790822 46.65882,121.194262 L53.088276,108.362902 L53.77806,106.98727 L61.114764,92.3458416 L67.338072,104.743258 L68.776188,107.608174 L75.674028,121.349734 C77.309928,120.963514 78.921228,120.516286 80.5035,120.00313 C105.16746,111.996814 123,88.8329616 123,61.4999016 C123,27.5341896 95.465712,-9.84e-05 61.5,-9.84e-05 L61.5,-9.84e-05 Z" id="Fill-12" fill="#000000" mask="url(#mask-4)"></path>
                </g>
                <path d="M118.052546,60.211452 C118.047626,59.99202 118.045658,59.771604 118.03877,59.552664 C117.855254,54.696132 117.053786,49.995072 115.71653,45.523284 C115.800662,46.892028 115.848386,48.27012 115.848386,49.659036 C115.848386,65.568348 110.271074,80.172876 100.969814,91.632048 C99.0647904,93.97938 97.0033104,96.194364 94.8016104,98.261256 C94.7902944,98.27208 94.7779944,98.283396 94.7661864,98.29422 C94.3484784,98.685852 93.9258504,99.071088 93.4987944,99.451896 C93.4628784,99.484368 93.4259784,99.516348 93.3900624,99.548328 C92.9762904,99.914868 92.5585824,100.27698 92.1354624,100.632696 C92.1005304,100.6632 92.0651064,100.69272 92.0291904,100.722732 C91.5854064,101.09616 91.1367024,101.463684 90.6830784,101.824812 L90.6599544,101.843508 C88.7814984,103.338204 86.8203864,104.733024 84.7849824,106.021572 C84.7264344,106.058964 84.6673944,106.09488 84.6083544,106.13178 C84.1739184,106.405332 83.7350544,106.673964 83.2937304,106.937184 C83.1997584,106.993272 83.1057864,107.048376 83.0118144,107.103972 C82.5980424,107.348004 82.1813184,107.587608 81.7616424,107.822784 C81.6558624,107.882808 81.5505744,107.94234 81.4443024,108.000888 C81.0231504,108.233604 80.5995384,108.461892 80.1734664,108.686244 C80.0750664,108.737904 79.9771584,108.790548 79.8782664,108.842208 C79.4133264,109.08378 78.9449424,109.319448 78.4731144,109.550688 C78.4160424,109.578732 78.3599544,109.607268 78.3028824,109.635312 C77.4989544,110.02596 76.6832184,110.396436 75.8615784,110.755596 L78.2654904,115.544232 C101.274362,108.391536 118.035818,86.917704 118.07813,61.59594 C118.077146,61.132476 118.064354,60.672456 118.052546,60.211452" id="Fill-15" fill="#59C8E6"></path>
            </g>
        </g>
    </g>
</svg>