<?xml version="1.0" encoding="UTF-8"?>
<svg width="125px" height="81px" viewBox="0 0 125 81" version="1.1" xmlns="http://www.w3.org/2000/svg" xmlns:xlink="http://www.w3.org/1999/xlink">
    <!-- Generator: Sketch 53.2 (72643) - https://sketchapp.com -->
    <title>Group 33</title>
    <desc>Created with Sketch.</desc>
    <defs>
        <polygon id="path-1" points="0 0.286239334 116.805908 0.286239334 116.805908 75.0250079 0 75.0250079"></polygon>
        <polygon id="path-3" points="0.408333333 0.243196364 109.87402 0.243196364 109.87402 50.0727273 0.408333333 50.0727273"></polygon>
    </defs>
    <g id="Page-1" stroke="none" stroke-width="1" fill="none" fill-rule="evenodd">
        <g id="Office-365" transform="translate(-1218.000000, -3857.000000)">
            <g id="Group-33" transform="translate(1218.000000, 3857.000000)">
                <g id="Group-3" transform="translate(0.000000, 0.204709)">
                    <mask id="mask-2" fill="white">
                        <use xlink:href="#path-1"></use>
                    </mask>
                    <g id="Clip-2"></g>
                    <path d="M113.80848,48.5493873 L15.905049,74.8851873 C13.7472059,75.4659327 11.527598,74.18466 10.9476961,72.0231873 L0.139362745,31.7259327 C-0.44004902,29.5649509 0.839362745,27.3426055 2.99720588,26.76186 L100.900637,0.42606 C103.05848,-0.154685455 105.278578,1.12658727 105.85799,3.28806 L116.666324,43.5853145 C117.246225,45.7462964 115.966324,47.9686418 113.80848,48.5493873" id="Fill-1" fill="#000000" mask="url(#mask-2)"></path>
                </g>
                <path d="M9.00323529,30.4337127 L97.4380392,6.64524 C99.5963725,6.06449455 101.81598,7.34625818 102.395882,9.50724 L110.660588,40.3220945 C111.24,42.4835673 109.960588,44.7059127 107.802745,45.2866582 L19.3679412,69.0756218 C17.2096078,69.6558764 14.99,68.3746036 14.410098,66.2136218 L6.14539216,35.3982764 C5.5654902,33.2372945 6.84539216,31.0144582 9.00323529,30.4337127" id="Fill-4" fill="#00D0DC"></path>
                <path d="M110.66098,40.3218982 L102.395784,9.50704364 C102.016373,8.09420727 100.935,7.06133455 99.6291176,6.67498909 C100.020784,7.12515273 100.322255,7.66613455 100.487451,8.28124364 L108.752647,39.0965891 C109.332549,41.2575709 108.053137,43.4808982 105.894314,44.0611527 L17.46,67.8501164 C16.7129412,68.0508982 15.9604902,68.0243891 15.2688235,67.8201709 C16.2526471,68.9502436 17.8242157,69.4907345 19.3678431,69.0754255 L107.802647,45.2864618 C109.96098,44.7062073 111.240882,42.4833709 110.66098,40.3218982" id="Fill-6" fill="#FFDF4A"></path>
                <path d="M16.020098,67.9317055 L7.75539216,37.1168509 C7.1754902,34.9553782 8.45490196,32.7325418 10.6132353,32.1517964 L99.0480392,8.36283273 C100.12598,8.07319636 101.219118,8.24796 102.115686,8.76439636 C101.279412,7.06437818 99.3357843,6.13459636 97.4382353,6.64465091 L9.00343137,30.4336145 C6.84509804,31.01436 5.56568627,33.2371964 6.14509804,35.3986691 L14.4107843,66.2135236 C14.7009804,67.2954873 15.4014706,68.1565418 16.3004902,68.6744509 C16.1852941,68.4402873 16.0906863,68.1928691 16.020098,67.9317055" id="Fill-8" fill="#FFFFFF"></path>
                <path d="M58.4029412,50.0513727 C51.679902,50.0513727 46.229902,44.5934455 46.229902,37.8606273 C46.229902,31.1273182 51.679902,25.6693909 58.4029412,25.6693909 C65.1259804,25.6693909 70.5764706,31.1273182 70.5764706,37.8606273 C70.5764706,44.5934455 65.1259804,50.0513727 58.4029412,50.0513727 M58.4029412,20.7603 C48.9877451,20.7603 41.3279412,28.4312455 41.3279412,37.8601364 C41.3279412,47.2890273 48.9877451,54.9604636 58.4029412,54.9604636 C67.8181373,54.9604636 75.4784314,47.2890273 75.4784314,37.8601364 C75.4784314,28.4312455 67.8181373,20.7603 58.4029412,20.7603" id="Fill-10" fill="#000000"></path>
                <g id="Group-14" transform="translate(14.705882, 30.641073)">
                    <mask id="mask-4" fill="white">
                        <use xlink:href="#path-3"></use>
                    </mask>
                    <g id="Clip-13"></g>
                    <path d="M105.827941,50.0729236 L4.45441176,50.0729236 C2.22009804,50.0729236 0.408333333,48.2585236 0.408333333,46.0204691 L0.408333333,4.29516 C0.408333333,2.05710545 2.22009804,0.243196364 4.45441176,0.243196364 L105.827941,0.243196364 C108.062745,0.243196364 109.87402,2.05710545 109.87402,4.29516 L109.87402,46.0204691 C109.87402,48.2585236 108.062745,50.0729236 105.827941,50.0729236" id="Fill-12" fill="#000000" mask="url(#mask-4)"></path>
                </g>
                <path d="M20.0158824,71.7525491 L20.0158824,39.8454218 C20.0158824,37.6073673 21.8271569,35.7934582 24.062451,35.7934582 L115.632059,35.7934582 C117.866373,35.7934582 119.678137,37.6073673 119.678137,39.8454218 L119.678137,71.7525491 C119.678137,73.9906036 117.866373,75.8050036 115.632059,75.8050036 L24.062451,75.8050036 C21.8271569,75.8050036 20.0158824,73.9906036 20.0158824,71.7525491" id="Fill-15" fill="#FFEBB7"></path>
                <path d="M118.716176,37.2258818 C118.782353,37.5165 118.820098,37.8174273 118.820098,38.1281727 L118.820098,70.0353 C118.820098,72.2733545 117.008824,74.0872636 114.77402,74.0872636 L23.2044118,74.0872636 C21.9676471,74.0872636 20.8622549,73.5300818 20.120098,72.6547909 C20.529902,74.4579 22.1372549,75.8044636 24.0622549,75.8044636 L115.631863,75.8044636 C117.866667,75.8044636 119.677941,73.9905545 119.677941,71.7525 L119.677941,39.8453727 C119.677941,38.8458818 119.315196,37.9323 118.716176,37.2258818" id="Fill-17" fill="#FF9E00"></path>
                <path d="M20.7454412,73.8197182 L20.7454412,41.9125909 C20.7454412,39.6745364 22.5567157,37.8601364 24.7915196,37.8601364 L116.361127,37.8601364 C117.726814,37.8601364 118.931716,38.5400455 119.664559,39.5773364 C119.526324,37.4649545 117.775833,35.7929182 115.631716,35.7929182 L24.062598,35.7929182 C21.8277941,35.7929182 20.0160294,37.6073182 20.0160294,39.8453727 L20.0160294,71.7525 C20.0160294,72.6228818 20.2925,73.4269909 20.7586765,74.0872636 C20.7532843,73.9984091 20.7454412,73.9100455 20.7454412,73.8197182" id="Fill-19" fill="#FFFFFF"></path>
                <path d="M69.8469118,67.9896818 C63.1238725,67.9896818 57.6738725,62.5317545 57.6738725,55.7989364 C57.6738725,49.0661182 63.1238725,43.6081909 69.8469118,43.6081909 C76.569951,43.6081909 82.0204412,49.0661182 82.0204412,55.7989364 C82.0204412,62.5317545 76.569951,67.9896818 69.8469118,67.9896818 M69.8469118,38.6991 C60.4317157,38.6991 52.7719118,46.3700455 52.7719118,55.7989364 C52.7719118,65.2278273 60.4317157,72.8987727 69.8469118,72.8987727 C79.2621078,72.8987727 86.922402,65.2278273 86.922402,55.7989364 C86.922402,46.3700455 79.2621078,38.6991 69.8469118,38.6991" id="Fill-21" fill="#000000"></path>
                <path d="M31.3392157,47.0517709 L30.7529412,47.0517709 L28.077451,47.0517709 C27.0245098,47.0517709 26.1715686,47.9059527 26.1715686,48.9604255 L26.1715686,49.5475527 C26.1715686,50.6015345 27.0245098,51.4562073 28.077451,51.4562073 L28.8470588,51.4562073 L28.8470588,64.9026982 C28.8470588,65.95668 29.7,66.8113527 30.7529412,66.8113527 L31.3392157,66.8113527 C32.3911765,66.8113527 33.245098,65.95668 33.245098,64.9026982 L33.245098,49.5475527 L33.245098,48.9604255 C33.245098,47.9059527 32.3911765,47.0517709 31.3392157,47.0517709" id="Fill-23" fill="#000000"></path>
                <path d="M42.6635294,61.8567055 C42.6635294,62.9101964 41.8105882,63.7648691 40.7576471,63.7648691 C39.7051961,63.7648691 38.8522549,62.9101964 38.8522549,61.8567055 L38.8522549,52.0066145 C38.8522549,50.9526327 39.7051961,50.09796 40.7576471,50.09796 C41.8105882,50.09796 42.6635294,50.9526327 42.6635294,52.0066145 L42.6635294,61.8567055 Z M45.1556863,47.0518691 L36.360098,47.0518691 C35.3071569,47.0518691 34.4542157,47.9060509 34.4542157,48.9600327 L34.4542157,64.9027964 C34.4542157,65.9567782 35.3071569,66.8114509 36.360098,66.8114509 L45.1556863,66.8114509 C46.2076471,66.8114509 47.0615686,65.9567782 47.0615686,64.9027964 L47.0615686,48.9600327 C47.0615686,47.9060509 46.2076471,47.0518691 45.1556863,47.0518691 L45.1556863,47.0518691 Z" id="Fill-25" fill="#000000"></path>
                <path d="M96.3170098,47.0517709 L95.7302451,47.0517709 L93.0552451,47.0517709 C92.0023039,47.0517709 91.1493627,47.9059527 91.1493627,48.9604255 L91.1493627,49.5475527 C91.1493627,50.6015345 92.0023039,51.4562073 93.0552451,51.4562073 L93.8248529,51.4562073 L93.8248529,64.9026982 C93.8248529,65.95668 94.6777941,66.8113527 95.7302451,66.8113527 L96.3170098,66.8113527 C97.3689706,66.8113527 98.2228922,65.95668 98.2228922,64.9026982 L98.2228922,49.5475527 L98.2228922,48.9604255 C98.2228922,47.9059527 97.3689706,47.0517709 96.3170098,47.0517709" id="Fill-27" fill="#000000"></path>
                <path d="M107.641275,61.8567055 C107.641275,62.9101964 106.787843,63.7648691 105.735392,63.7648691 C104.682941,63.7648691 103.83,62.9101964 103.83,61.8567055 L103.83,52.0066145 C103.83,50.9526327 104.682941,50.09796 105.735392,50.09796 C106.787843,50.09796 107.641275,50.9526327 107.641275,52.0066145 L107.641275,61.8567055 Z M110.132941,47.0518691 L101.337843,47.0518691 C100.284902,47.0518691 99.4319608,47.9060509 99.4319608,48.9600327 L99.4319608,64.9027964 C99.4319608,65.9567782 100.284902,66.8114509 101.337843,66.8114509 L110.132941,66.8114509 C111.185392,66.8114509 112.039314,65.9567782 112.039314,64.9027964 L112.039314,48.9600327 C112.039314,47.9060509 111.185392,47.0518691 110.132941,47.0518691 L110.132941,47.0518691 Z" id="Fill-29" fill="#000000"></path>
                <polygon id="Fill-31" fill="#EA2127" points="60.0127941 63.2445545 79.6809314 63.2445545 69.8382843 43.6081909"></polygon>
            </g>
        </g>
    </g>
</svg>